<svg width="89" height="43" viewBox="0 0 89 43" fill="none" xmlns="http://www.w3.org/2000/svg">
<g clip-path="url(#clip0_28_479)">
<path d="M11.1855 13.9689H9.65216V4.21156C9.65216 3.84184 9.65216 3.52035 9.65216 3.26315C9.65216 3.00595 9.65216 2.74876 9.6683 2.52371C9.68444 2.29867 9.68445 2.07362 9.71673 1.84857C9.52304 2.04147 9.34549 2.21829 9.16794 2.36296C8.99039 2.50764 8.78056 2.68446 8.53845 2.89343L6.95666 4.16334L6.13348 3.1024L9.87813 0.192871H11.1855V13.9689Z" fill="white"/>
<path d="M25.4862 13.969H16.4313V12.6669L20.1275 8.9215C20.8216 8.23028 21.3865 7.61944 21.8707 7.0729C22.3549 6.52636 22.6939 5.99589 22.9521 5.4815C23.2104 4.9671 23.3234 4.38841 23.3234 3.74542C23.3234 2.97383 23.0974 2.37907 22.6293 1.96112C22.1612 1.54318 21.5479 1.35028 20.8054 1.35028C20.1436 1.35028 19.5626 1.4628 19.0461 1.68785C18.5296 1.9129 18.0131 2.23439 17.4804 2.65234L16.6411 1.5914C17.0123 1.28598 17.3997 1.01271 17.8355 0.771589C18.2713 0.530467 18.7233 0.33757 19.2236 0.208972C19.724 0.0803738 20.2405 0 20.8054 0C21.6609 0 22.3872 0.144673 23.0167 0.450093C23.6462 0.755514 24.1143 1.17346 24.4532 1.72C24.7922 2.26654 24.9536 2.90953 24.9536 3.66505C24.9536 4.42056 24.8083 5.06355 24.5178 5.69047C24.2272 6.31738 23.8237 6.92822 23.2911 7.53907C22.7584 8.14991 22.1612 8.7929 21.451 9.48411L18.4489 12.474V12.5383H25.5185V13.969H25.4862Z" fill="white"/>
<path d="M19.5787 39.8011H17.5127V43H15.9793V39.8011H9.29706V38.483L15.8825 29.1436H17.5127V38.3865H19.5787V39.8011ZM15.9793 38.3865V33.8856C15.9793 33.548 15.9793 33.2265 15.9793 32.9533C15.9793 32.68 15.9793 32.4067 16.0116 32.1656C16.0439 31.9245 16.0277 31.6994 16.0439 31.4744C16.06 31.2494 16.06 31.0404 16.06 30.8314H15.9793C15.8663 31.0886 15.7211 31.3458 15.5758 31.6351C15.4305 31.9245 15.2691 32.1656 15.1077 32.3907L10.8466 38.4026H15.9793V38.3865Z" fill="white"/>
<path d="M36.2682 20.6561V19.3862H45.1457V20.6561H36.2682ZM36.2682 24.5141V23.2442H45.1457V24.5141H36.2682Z" fill="white"/>
<path d="M60.8022 18.1806C60.8022 18.7915 60.6892 19.3219 60.4471 19.7881C60.205 20.2543 59.866 20.6079 59.4464 20.8973C59.0267 21.1866 58.5102 21.3795 57.9291 21.492V21.5724C59.0267 21.7171 59.8499 22.0547 60.3987 22.6333C60.9475 23.212 61.2218 23.9354 61.2218 24.8517C61.2218 25.6554 61.0282 26.3627 60.6569 26.9735C60.2857 27.5844 59.7046 28.0666 58.9299 28.4203C58.1551 28.7739 57.1705 28.9507 55.96 28.9507C55.2336 28.9507 54.5557 28.8864 53.9262 28.7739C53.2967 28.6614 52.7157 28.4685 52.1508 28.1952V26.7324C52.7318 27.0218 53.3452 27.2307 54.0231 27.3915C54.701 27.5522 55.3466 27.6326 55.9761 27.6326C57.2351 27.6326 58.1551 27.3754 58.7039 26.8771C59.2527 26.3788 59.5432 25.6875 59.5432 24.8356C59.5432 24.2408 59.3818 23.7586 59.0751 23.3889C58.7685 23.0191 58.3165 22.7459 57.7354 22.5851C57.1544 22.4244 56.4442 22.3279 55.6372 22.3279H54.2491V20.9937H55.6372C56.3796 20.9937 57.0253 20.8812 57.5418 20.6561C58.0583 20.4311 58.4618 20.1257 58.7362 19.7238C59.0106 19.3219 59.1397 18.8558 59.1397 18.3092C59.1397 17.618 58.9137 17.0715 58.4456 16.7018C57.9776 16.332 57.3481 16.1391 56.541 16.1391C56.0568 16.1391 55.6049 16.1874 55.2014 16.2838C54.7978 16.3803 54.4266 16.5249 54.0715 16.7018C53.7164 16.8786 53.3613 17.0875 53.0062 17.3126L52.2153 16.2356C52.7157 15.8498 53.329 15.5122 54.0554 15.2229C54.7817 14.9335 55.6049 14.8049 56.5249 14.8049C57.9453 14.8049 58.9944 15.1264 59.7046 15.7694C60.4148 16.4124 60.7699 17.2322 60.7699 18.2128L60.8022 18.1806Z" fill="white"/>
<path d="M80.3002 18.229C81.4462 18.229 82.3016 18.5183 82.8827 19.1131C83.4637 19.7078 83.7543 20.6563 83.7543 21.9744V28.7419H82.2048V22.0548C82.2048 21.2189 82.0272 20.592 81.656 20.174C81.2848 19.7561 80.7521 19.5471 80.0419 19.5471C79.0412 19.5471 78.3149 19.8364 77.8629 20.4151C77.411 20.9938 77.185 21.8458 77.185 22.971V28.7419H75.6194V22.0548C75.6194 21.4921 75.5387 21.026 75.3772 20.6563C75.2158 20.2865 74.9737 20.0133 74.6509 19.8204C74.3281 19.6275 73.9246 19.5471 73.4404 19.5471C72.7463 19.5471 72.1975 19.6918 71.7779 19.965C71.3582 20.2383 71.0677 20.6723 70.874 21.2189C70.6803 21.7654 70.5996 22.4566 70.5996 23.2604V28.7258H69.0339V18.4058H70.3091L70.5512 19.8686H70.6319C70.8417 19.5149 71.0999 19.2095 71.4228 18.9684C71.7456 18.7273 72.0845 18.5344 72.4881 18.4058C72.8916 18.2772 73.2951 18.2129 73.7309 18.2129C74.5218 18.2129 75.1836 18.3576 75.7162 18.6469C76.2488 18.9363 76.6362 19.3863 76.8783 19.9811H76.959C77.298 19.3863 77.7661 18.9363 78.3633 18.6469C78.9605 18.3576 79.6061 18.2129 80.3163 18.2129L80.3002 18.229Z" fill="white"/>
<path d="M86.7404 27.7613C86.7404 27.3273 86.8533 27.0058 87.0632 26.8289C87.273 26.6521 87.5313 26.5557 87.8541 26.5557C88.1769 26.5557 88.4513 26.6521 88.6611 26.8289C88.8709 27.0058 89.0001 27.3273 89.0001 27.7613C89.0001 28.1953 88.8871 28.5168 88.6611 28.7097C88.4351 28.9026 88.1769 28.999 87.8541 28.999C87.5313 28.999 87.2891 28.9026 87.0632 28.7097C86.8372 28.5168 86.7404 28.1953 86.7404 27.7613Z" fill="white"/>
<path d="M28.8112 21.8457H0" stroke="white" stroke-miterlimit="10"/>
</g>
<defs>
<clipPath id="clip0_28_479">
<rect width="89" height="43" fill="white"/>
</clipPath>
</defs>
</svg>
