<svg width="89" height="43" viewBox="0 0 89 43" fill="none" xmlns="http://www.w3.org/2000/svg">
<g clip-path="url(#clip0_28_467)">
<path d="M14.3662 13.9799H5.33093V12.6783L9.01913 8.93427C9.71168 8.24332 10.2754 7.6327 10.7585 7.08637C11.2417 6.54003 11.5799 6.00976 11.8376 5.49556C12.0953 4.98136 12.2081 4.40288 12.2081 3.76013C12.2081 2.98883 11.9826 2.39429 11.5155 1.9765C11.0484 1.55871 10.4364 1.36589 9.69557 1.36589C9.03524 1.36589 8.45543 1.47837 7.94005 1.70333C7.42467 1.9283 6.90929 2.24967 6.3778 2.66746L5.54031 1.60692C5.91074 1.30161 6.29727 1.02845 6.73213 0.787414C7.16698 0.546382 7.61794 0.353557 8.11722 0.225007C8.61649 0.0964571 9.11577 0.0161133 9.67947 0.0161133C10.5331 0.0161133 11.2578 0.160732 11.8859 0.466039C12.5141 0.771345 12.9811 1.18913 13.3194 1.73547C13.6576 2.28181 13.8186 2.92456 13.8186 3.67979C13.8186 4.43502 13.6737 5.07777 13.3838 5.70445C13.0939 6.33114 12.6912 6.94175 12.1597 7.55236C11.6283 8.16297 11.0323 8.80572 10.3237 9.49668L7.32804 12.4855V12.5497H14.3823V13.9799H14.3662Z" fill="white"/>
<path d="M25.4952 7.08632C25.4952 8.21114 25.4147 9.2074 25.2375 10.0751C25.0604 10.9428 24.8027 11.6981 24.4322 12.3087C24.0618 12.9193 23.5947 13.3853 23.0149 13.6906C22.4351 13.9959 21.7426 14.1726 20.9373 14.1726C19.9065 14.1726 19.0691 13.8995 18.3926 13.3371C17.7162 12.7747 17.2169 11.9712 16.8948 10.9107C16.5727 9.85015 16.3955 8.58072 16.3955 7.08632C16.3955 5.59193 16.5405 4.35463 16.8465 3.2941C17.1525 2.23356 17.6356 1.43012 18.296 0.851644C18.9563 0.273169 19.8421 0 20.9373 0C21.9681 0 22.8378 0.273169 23.4981 0.835576C24.1584 1.39798 24.6738 2.20142 24.9959 3.26196C25.3181 4.3225 25.4791 5.59193 25.4791 7.07025L25.4952 7.08632ZM17.9739 7.08632C17.9739 8.37182 18.0705 9.43236 18.2638 10.284C18.457 11.1357 18.7791 11.7784 19.214 12.1962C19.6489 12.614 20.2287 12.8389 20.9373 12.8389C21.646 12.8389 22.2258 12.63 22.6606 12.2123C23.0955 11.7945 23.4176 11.1517 23.6109 10.3001C23.8041 9.44843 23.9008 8.37182 23.9008 7.08632C23.9008 5.80082 23.8041 4.77242 23.6109 3.92078C23.4176 3.06913 23.0955 2.42638 22.6606 1.99253C22.2258 1.55867 21.646 1.34978 20.9212 1.34978C20.1964 1.34978 19.6166 1.55867 19.1818 1.99253C18.7469 2.42638 18.4409 3.06913 18.2477 3.92078C18.0544 4.77242 17.9578 5.83296 17.9578 7.08632H17.9739Z" fill="white"/>
<path d="M19.5362 39.8023H17.4746V43H15.9446V39.8023H9.27686V38.4846L15.848 29.1487H17.4746V38.3882H19.5362V39.8023ZM15.9446 38.3882V33.889C15.9446 33.5515 15.9446 33.2301 15.9446 32.957C15.9446 32.6838 15.9446 32.4106 15.9768 32.1696C16.009 31.9286 15.9929 31.7036 16.009 31.4787C16.0251 31.2537 16.0251 31.0448 16.0251 30.8359H15.9446C15.8319 31.093 15.6869 31.3501 15.542 31.6393C15.397 31.9286 15.236 32.1696 15.0749 32.3946L10.823 38.4043H15.9446V38.3882Z" fill="white"/>
<path d="M36.3988 20.4555V19.186H45.2569V20.4555H36.3988ZM36.3988 24.312V23.0425H45.2569V24.312H36.3988Z" fill="white"/>
<path d="M56.6919 20.118C57.6261 20.118 58.4474 20.2787 59.14 20.6C59.8325 20.9214 60.364 21.3714 60.7506 21.982C61.1371 22.5926 61.3143 23.3157 61.3143 24.1834C61.3143 25.1314 61.1049 25.9349 60.7022 26.6098C60.2996 27.2847 59.7037 27.8149 58.9306 28.1845C58.1575 28.5541 57.2395 28.7308 56.1765 28.7308C55.4518 28.7308 54.7915 28.6666 54.1794 28.538C53.5674 28.4095 53.0359 28.2166 52.6172 27.9756V26.4812C53.0843 26.7544 53.6318 26.9793 54.2922 27.14C54.9525 27.3007 55.5806 27.3811 56.1927 27.3811C56.8852 27.3811 57.4972 27.2686 58.0287 27.0436C58.5602 26.8187 58.9628 26.4812 59.2527 26.0313C59.5426 25.5814 59.6876 25.0029 59.6876 24.3119C59.6876 23.396 59.4138 22.689 58.8501 22.1909C58.2864 21.6927 57.4006 21.4356 56.1765 21.4356C55.79 21.4356 55.3552 21.4678 54.8881 21.532C54.421 21.5963 54.0345 21.6606 53.7446 21.7409L52.9554 21.2267L53.4869 14.7671H60.3479V16.1972H54.8237L54.4693 20.3429C54.7109 20.2947 55.0169 20.2465 55.3874 20.1823C55.7578 20.118 56.1926 20.1019 56.6758 20.1019L56.6919 20.118Z" fill="white"/>
<path d="M80.3351 18.029C81.4787 18.029 82.3323 18.3182 82.9121 18.9128C83.4919 19.5073 83.7818 20.4554 83.7818 21.773V28.538H82.2356V21.8534C82.2356 21.0178 82.0585 20.3911 81.688 19.9733C81.3176 19.5555 80.7861 19.3466 80.0775 19.3466C79.0789 19.3466 78.3541 19.6359 77.9032 20.2144C77.4522 20.7928 77.2268 21.6445 77.2268 22.7693V28.538H75.6645V21.8534C75.6645 21.291 75.584 20.825 75.4229 20.4554C75.2619 20.0858 75.0203 19.8126 74.6982 19.6198C74.376 19.427 73.9734 19.3466 73.4902 19.3466C72.7977 19.3466 72.2501 19.4913 71.8313 19.7644C71.4126 20.0376 71.1227 20.4715 70.9294 21.0178C70.7362 21.5641 70.6556 22.2551 70.6556 23.0585V28.5219H69.0934V18.2058H70.3657L70.6073 19.668H70.6878C70.8972 19.3145 71.1549 19.0092 71.477 18.7682C71.7991 18.5271 72.1374 18.3343 72.54 18.2058C72.9426 18.0772 73.3453 18.0129 73.7801 18.0129C74.5693 18.0129 75.2296 18.1576 75.7611 18.4468C76.2926 18.736 76.6792 19.186 76.9207 19.7805H77.0013C77.3395 19.186 77.8066 18.736 78.4025 18.4468C78.9984 18.1576 79.6426 18.0129 80.3513 18.0129L80.3351 18.029Z" fill="white"/>
<path d="M86.7612 27.5579C86.7612 27.1241 86.874 26.8027 87.0833 26.626C87.2927 26.4492 87.5504 26.3528 87.8725 26.3528C88.1946 26.3528 88.4684 26.4492 88.6778 26.626C88.8872 26.8027 89.016 27.1241 89.016 27.5579C89.016 27.9918 88.9033 28.3132 88.6778 28.506C88.4523 28.6988 88.1946 28.7952 87.8725 28.7952C87.5504 28.7952 87.3088 28.6988 87.0833 28.506C86.8579 28.3132 86.7612 27.9918 86.7612 27.5579Z" fill="white"/>
<path d="M28.7486 21.8535H0" stroke="white" stroke-miterlimit="10"/>
</g>
<defs>
<clipPath id="clip0_28_467">
<rect width="89" height="43" fill="white"/>
</clipPath>
</defs>
</svg>
