<svg width="139" height="14" viewBox="0 0 139 14" fill="none" xmlns="http://www.w3.org/2000/svg">
<g clip-path="url(#clip0_28_491)">
<path d="M9.00035 13.95H0V12.6497L3.67394 8.90935C4.3638 8.21908 4.92532 7.60907 5.40662 7.06327C5.88793 6.51747 6.22484 5.98772 6.48153 5.47403C6.73823 4.96034 6.85053 4.38244 6.85053 3.74032C6.85053 2.96978 6.62592 2.37583 6.16066 1.95845C5.69541 1.54108 5.08576 1.34844 4.34776 1.34844C3.68998 1.34844 3.11242 1.46081 2.59903 1.68555C2.08564 1.91029 1.57225 2.23135 1.04282 2.64873L0.176477 1.58924C0.545476 1.28423 0.930517 1.01133 1.36369 0.770538C1.79686 0.529745 2.24608 0.33711 2.74342 0.208687C3.24077 0.0802644 3.75416 0 4.31567 0C5.16597 0 5.88793 0.144476 6.51362 0.449481C7.13931 0.754485 7.60457 1.17186 7.94148 1.71766C8.27839 2.26346 8.43883 2.90557 8.43883 3.66006C8.43883 4.41454 8.29444 5.05666 8.00565 5.68272C7.71687 6.30878 7.31579 6.91879 6.78636 7.5288C6.25692 8.13881 5.66332 8.78093 4.95741 9.4712L1.97334 12.457V12.5212H9.00035V13.95Z" fill="white"/>
<path d="M16.4766 7.23986C16.4766 6.80643 16.5889 6.48537 16.7974 6.30879C17.006 6.13221 17.2627 6.03589 17.5836 6.03589C17.9044 6.03589 18.1772 6.13221 18.3857 6.30879C18.5943 6.48537 18.7226 6.80643 18.7226 7.23986C18.7226 7.67328 18.6103 7.99434 18.3857 8.18697C18.1611 8.37961 17.9044 8.47593 17.5836 8.47593C17.2627 8.47593 17.022 8.37961 16.7974 8.18697C16.5728 7.99434 16.4766 7.67328 16.4766 7.23986Z" fill="white"/>
<path d="M26.0185 7.07368C26.0185 6.18947 26.1296 5.33206 26.3704 4.48804C26.6111 3.64402 26.963 2.85359 27.4444 2.08995C27.9259 1.32632 28.537 0.629665 29.2778 0H31C29.9444 0.991388 29.1667 2.10335 28.6296 3.30909C28.0926 4.51483 27.8333 5.77416 27.8333 7.04689C27.8333 7.87751 27.9444 8.70813 28.1852 9.52536C28.4259 10.3426 28.7778 11.1196 29.2407 11.8699C29.7037 12.6201 30.2778 13.3301 30.963 14H29.2593C28.5185 13.3703 27.9074 12.6871 27.4259 11.9502C26.9444 11.2134 26.5741 10.423 26.3519 9.60574C26.1296 8.78852 26 7.9311 26 7.06029L26.0185 7.07368Z" fill="white"/>
<path d="M36.0816 5.53824C37.0121 5.53824 37.8303 5.69876 38.5202 6.01982C39.21 6.34088 39.7395 6.79036 40.1245 7.40037C40.5095 8.01038 40.686 8.73276 40.686 9.59961C40.686 10.5467 40.4775 11.3494 40.0764 12.0236C39.6753 12.6978 39.0817 13.2276 38.3116 13.5968C37.5415 13.966 36.627 14.1426 35.5682 14.1426C34.8462 14.1426 34.1884 14.0784 33.5788 13.9499C32.9691 13.8215 32.4397 13.6289 32.0226 13.3881V11.8952C32.4878 12.1681 33.0333 12.3928 33.6911 12.5533C34.3489 12.7139 34.9746 12.7941 35.5842 12.7941C36.2741 12.7941 36.8837 12.6818 37.4132 12.457C37.9426 12.2323 38.3437 11.8952 38.6325 11.4457C38.9212 10.9962 39.0656 10.4183 39.0656 9.72804C39.0656 8.81302 38.7929 8.1067 38.2314 7.60906C37.6699 7.11142 36.7875 6.85457 35.5682 6.85457C35.1831 6.85457 34.75 6.88668 34.2847 6.95089C33.8194 7.0151 33.4344 7.07931 33.1456 7.15958L32.3595 6.64588L32.8889 0.192627H39.7234V1.62133H34.2205L33.8676 5.76298C34.1082 5.71482 34.4131 5.66666 34.782 5.60245C35.151 5.53824 35.5842 5.52218 36.0655 5.52218L36.0816 5.53824Z" fill="white"/>
<path d="M47.9376 6.51737H51.8041V7.8016H47.9376V11.7827H46.6542V7.8016H42.7877V6.51737H46.6542V2.50415H47.9376V6.51737Z" fill="white"/>
<path d="M62.2644 3.40333C62.2644 4.01334 62.1521 4.54309 61.9115 5.00862C61.6708 5.47415 61.3339 5.82732 60.9168 6.11627C60.4996 6.40522 59.9863 6.59785 59.4087 6.71022V6.79049C60.4996 6.93497 61.3179 7.27208 61.8633 7.84998C62.4088 8.42788 62.6815 9.15026 62.6815 10.0653C62.6815 10.8679 62.489 11.5742 62.12 12.1843C61.751 12.7943 61.1735 13.2759 60.4034 13.629C59.6333 13.9822 58.6547 14.1588 57.4514 14.1588C56.7295 14.1588 56.0556 14.0945 55.4299 13.9822C54.8042 13.8698 54.2267 13.6772 53.6652 13.4043V11.9435C54.2427 12.2324 54.8524 12.4411 55.5262 12.6016C56.2 12.7622 56.8418 12.8424 57.4674 12.8424C58.7188 12.8424 59.6333 12.5856 60.1788 12.0879C60.7243 11.5903 61.013 10.9 61.013 10.0492C61.013 9.45527 60.8526 8.97368 60.5478 8.60446C60.243 8.23525 59.7937 7.96235 59.2162 7.80182C58.6386 7.64129 57.9327 7.54497 57.1305 7.54497H55.7508V6.21259H57.1305C57.8685 6.21259 58.5103 6.10022 59.0237 5.87548C59.537 5.65073 59.9381 5.34573 60.2109 4.94441C60.4836 4.54309 60.6119 4.07755 60.6119 3.53175C60.6119 2.84148 60.3873 2.29568 59.9221 1.92647C59.4568 1.55725 58.8311 1.36462 58.029 1.36462C57.5477 1.36462 57.0984 1.41277 56.6974 1.50909C56.2963 1.60541 55.9273 1.74988 55.5743 1.92647C55.2214 2.10305 54.8684 2.31174 54.5155 2.53648L53.7293 1.46093C54.2267 1.07566 54.8363 0.738553 55.5583 0.449601C56.2802 0.16065 57.0984 0.0322266 58.0129 0.0322266C59.4247 0.0322266 60.4676 0.353284 61.1735 0.995399C61.8794 1.63751 62.2323 2.45621 62.2323 3.43544L62.2644 3.40333Z" fill="white"/>
<path d="M69 7.04015C69 7.91013 68.8885 8.76673 68.6468 9.59656C68.4052 10.4264 68.052 11.2161 67.5688 11.9522C67.0855 12.6883 66.4721 13.3709 65.7286 14H64.0186C64.7249 13.3308 65.3011 12.6214 65.7658 11.8719C66.2305 11.1224 66.5836 10.3327 66.8253 9.51625C67.0669 8.69981 67.1784 7.88336 67.1784 7.04015C67.1784 6.19694 67.0669 5.35373 66.8253 4.5239C66.5836 3.69407 66.2305 2.9044 65.7658 2.14149C65.3011 1.37859 64.7063 0.669216 64 0H65.7286C66.4721 0.642447 67.0855 1.33843 67.5688 2.10134C68.052 2.86424 68.4052 3.65392 68.6468 4.48375C68.8885 5.31358 69 6.17017 69 7.05354V7.04015Z" fill="white"/>
<path d="M75.5804 5.87536V4.60718H84.4043V5.87536H75.5804ZM75.5804 9.72805V8.45987H84.4043V9.72805H75.5804Z" fill="white"/>
<path d="M97.2711 13.9501H95.747V4.20597C95.747 3.83675 95.747 3.51569 95.747 3.25885C95.747 3.002 95.747 2.74516 95.763 2.52042C95.7791 2.29568 95.7791 2.07093 95.8111 1.84619C95.6186 2.03883 95.4421 2.21541 95.2657 2.35989C95.0892 2.50436 94.8806 2.68094 94.64 2.88963L93.0677 4.15781L92.2495 3.09832L95.9716 0.224854H97.2711V13.9822V13.9501Z" fill="white"/>
<path d="M111.47 13.95H102.469V12.6497L106.143 8.90935C106.833 8.21908 107.395 7.60907 107.876 7.06327C108.357 6.51747 108.694 5.98772 108.951 5.47403C109.207 4.96034 109.32 4.38244 109.32 3.74032C109.32 2.96978 109.095 2.37583 108.63 1.95845C108.165 1.54108 107.555 1.34844 106.817 1.34844C106.159 1.34844 105.582 1.46081 105.068 1.68555C104.555 1.91029 104.041 2.23135 103.512 2.64873L102.678 1.58924C103.047 1.28423 103.432 1.01133 103.865 0.770538C104.298 0.529745 104.747 0.33711 105.245 0.208687C105.742 0.0802644 106.255 0 106.817 0C107.667 0 108.389 0.144476 109.015 0.449481C109.641 0.754485 110.106 1.17186 110.443 1.71766C110.78 2.26346 110.94 2.90557 110.94 3.66006C110.94 4.41454 110.796 5.05666 110.507 5.68272C110.218 6.30878 109.817 6.91879 109.288 7.5288C108.758 8.13881 108.165 8.78093 107.459 9.4712L104.475 12.457V12.5212H111.502V13.95H111.47Z" fill="white"/>
<path d="M130.353 3.45142C131.492 3.45142 132.342 3.74037 132.92 4.33432C133.497 4.92828 133.786 5.8754 133.786 7.19174V13.95H132.246V7.272C132.246 6.43725 132.069 5.81119 131.7 5.39381C131.331 4.97644 130.802 4.76775 130.096 4.76775C129.101 4.76775 128.379 5.0567 127.93 5.63461C127.481 6.21251 127.256 7.06331 127.256 8.18702V13.95H125.7V7.272C125.7 6.71015 125.62 6.24462 125.459 5.8754C125.299 5.50618 125.058 5.23329 124.737 5.04065C124.417 4.84802 124.015 4.76775 123.534 4.76775C122.844 4.76775 122.299 4.91223 121.882 5.18513C121.465 5.45803 121.176 5.89145 120.983 6.43725C120.791 6.98305 120.711 7.67332 120.711 8.47597V13.9339H119.154V3.64405H120.422L120.662 5.10486H120.743C120.951 4.7517 121.208 4.44669 121.529 4.2059C121.85 3.96511 122.187 3.77247 122.588 3.64405C122.989 3.51563 123.39 3.45142 123.823 3.45142C124.609 3.45142 125.267 3.59589 125.796 3.88484C126.326 4.1738 126.711 4.62328 126.951 5.21723H127.032C127.369 4.62328 127.834 4.1738 128.427 3.88484C129.021 3.59589 129.663 3.45142 130.369 3.45142H130.353Z" fill="white"/>
<path d="M136.754 12.9708C136.754 12.5374 136.866 12.2163 137.075 12.0397C137.283 11.8632 137.54 11.7668 137.861 11.7668C138.182 11.7668 138.455 11.8632 138.663 12.0397C138.872 12.2163 139 12.5374 139 12.9708C139 13.4042 138.888 13.7253 138.663 13.9179C138.438 14.1106 138.182 14.2069 137.861 14.2069C137.54 14.2069 137.299 14.1106 137.075 13.9179C136.85 13.7253 136.754 13.4042 136.754 12.9708Z" fill="white"/>
</g>
<defs>
<clipPath id="clip0_28_491">
<rect width="139" height="14" fill="white"/>
</clipPath>
</defs>
</svg>
