<svg width="79" height="66" viewBox="0 0 79 66" fill="none" xmlns="http://www.w3.org/2000/svg">
<g clip-path="url(#clip0_31_1023)">
<path d="M14.4345 6.31143C14.4345 6.89495 14.3276 7.4017 14.0984 7.84702C13.8693 8.29235 13.5486 8.63018 13.1514 8.90659C12.7543 9.18299 12.2655 9.36727 11.7156 9.47476V9.55154C12.7543 9.68974 13.5333 10.0122 14.0526 10.565C14.5719 11.1178 14.8316 11.8089 14.8316 12.6842C14.8316 13.452 14.6483 14.1276 14.297 14.7111C13.9457 15.2947 13.3958 15.7554 12.6626 16.0932C11.9294 16.431 10.9977 16.5999 9.85211 16.5999C9.16475 16.5999 8.52322 16.5385 7.92752 16.431C7.33181 16.3235 6.78192 16.1393 6.24731 15.8782V14.4808C6.7972 14.7572 7.37763 14.9568 8.01916 15.1104C8.66069 15.264 9.27168 15.3407 9.86738 15.3407C11.0588 15.3407 11.9294 15.095 12.4488 14.619C12.9681 14.143 13.2431 13.4827 13.2431 12.6688C13.2431 12.1006 13.0903 11.64 12.8001 11.2868C12.5099 10.9336 12.0822 10.6725 11.5323 10.519C10.9824 10.3654 10.3103 10.2733 9.54662 10.2733H8.23301V8.99872H9.54662C10.2492 8.99872 10.8602 8.89123 11.349 8.67625C11.8378 8.46126 12.2197 8.1695 12.4793 7.7856C12.739 7.4017 12.8612 6.95638 12.8612 6.43427C12.8612 5.77397 12.6474 5.25186 12.2044 4.89868C11.7614 4.54549 11.1657 4.36122 10.402 4.36122C9.94376 4.36122 9.51607 4.40728 9.13421 4.49942C8.75234 4.59156 8.40103 4.72976 8.06499 4.89868C7.72895 5.06759 7.39291 5.26722 7.05687 5.4822L6.30841 4.45335C6.78192 4.08481 7.36236 3.76233 8.04971 3.48593C8.73707 3.20952 9.51607 3.08667 10.3867 3.08667C11.7309 3.08667 12.7237 3.39379 13.3958 4.00803C14.0679 4.62227 14.4039 5.40542 14.4039 6.34214L14.4345 6.31143Z" fill="white"/>
<path d="M20.9567 8.35378C21.8427 8.35378 22.6217 8.50734 23.2785 8.81445C23.9353 9.12157 24.4393 9.55154 24.8059 10.1351C25.1725 10.7186 25.3405 11.4096 25.3405 12.2388C25.3405 13.1448 25.142 13.9126 24.7601 14.5576C24.3782 15.2025 23.8131 15.7093 23.0799 16.0625C22.3467 16.4157 21.4761 16.5846 20.468 16.5846C19.7806 16.5846 19.1544 16.5232 18.5739 16.4003C17.9935 16.2775 17.4894 16.0932 17.0923 15.8628V14.4347C17.5352 14.6958 18.0546 14.9108 18.6808 15.0643C19.3071 15.2179 19.9028 15.2947 20.4832 15.2947C21.14 15.2947 21.7205 15.1872 22.2245 14.9722C22.7286 14.7572 23.1105 14.4347 23.3854 14.0048C23.6603 13.5748 23.7978 13.022 23.7978 12.3617C23.7978 11.4864 23.5381 10.8107 23.0035 10.3347C22.4689 9.85866 21.6288 9.61297 20.468 9.61297C20.1014 9.61297 19.689 9.64368 19.246 9.7051C18.803 9.76653 18.4364 9.82795 18.1615 9.90473L17.4131 9.41334L17.9171 3.24023H24.4241V4.60692H19.1849L18.8489 8.56876C19.078 8.52269 19.3682 8.47662 19.7195 8.4152C20.0708 8.35378 20.4832 8.33842 20.9415 8.33842L20.9567 8.35378Z" fill="white"/>
<path d="M35.8801 16.4003H27.311V15.1564L30.8089 11.5785C31.4657 10.9182 32.0003 10.3346 32.4586 9.81254C32.9168 9.29044 33.2376 8.78369 33.482 8.2923C33.7263 7.80091 33.8333 7.24809 33.8333 6.63385C33.8333 5.89676 33.6194 5.32859 33.1765 4.92934C32.7335 4.53008 32.1531 4.34581 31.4504 4.34581C30.8242 4.34581 30.2743 4.4533 29.7855 4.66829C29.2967 4.88327 28.8079 5.19039 28.3039 5.58964L27.5096 4.57615C27.8609 4.28439 28.2275 4.02333 28.6399 3.793C29.0523 3.56266 29.48 3.37838 29.9535 3.25554C30.427 3.13269 30.9158 3.05591 31.4504 3.05591C32.26 3.05591 32.9473 3.19411 33.5431 3.48588C34.1388 3.77764 34.5817 4.17689 34.9025 4.699C35.2233 5.2211 35.376 5.83534 35.376 6.55707C35.376 7.2788 35.2385 7.89304 34.9636 8.49193C34.6886 9.09081 34.3068 9.67433 33.8027 10.2579C33.2987 10.8414 32.7335 11.4556 32.0614 12.1159L29.2204 14.9721V15.0336H35.9106V16.4003H35.8801Z" fill="white"/>
<path d="M63.2062 13.1446H61.2511V16.2005H59.8V13.1446H53.4763V11.8854L59.7083 2.96362H61.2511V11.7933H63.2062V13.1446ZM59.8 11.7933V7.49364C59.8 7.17116 59.8 6.86404 59.8 6.60299C59.8 6.34194 59.8 6.08089 59.8305 5.85055C59.8611 5.62021 59.8458 5.40522 59.8611 5.19024C59.8764 4.97526 59.8764 4.77563 59.8764 4.576H59.8C59.6931 4.8217 59.5556 5.06739 59.4181 5.3438C59.2807 5.62021 59.1279 5.85055 58.9752 6.06553L54.9427 11.8087H59.8V11.7933Z" fill="white"/>
<path d="M68.7813 2.8562C69.545 2.8562 70.2171 2.97905 70.7975 3.20939C71.378 3.43973 71.8362 3.80827 72.1723 4.26895C72.5083 4.72963 72.6763 5.2978 72.6763 5.98882C72.6763 6.52628 72.5541 6.98696 72.325 7.38621C72.0959 7.78547 71.7904 8.13866 71.3933 8.43042C70.9961 8.72218 70.5684 8.99859 70.1102 9.22893C70.6754 9.48998 71.1794 9.78175 71.6224 10.1042C72.0653 10.4267 72.4319 10.8106 72.6916 11.2406C72.9513 11.6705 73.0887 12.1926 73.0887 12.7915C73.0887 13.5286 72.9054 14.1736 72.5541 14.711C72.2028 15.2485 71.6987 15.6631 71.0572 15.9549C70.4157 16.2466 69.6672 16.3848 68.8119 16.3848C67.8801 16.3848 67.1011 16.2466 66.4596 15.9702C65.818 15.6938 65.314 15.2945 64.9779 14.7571C64.6419 14.2196 64.4739 13.6054 64.4739 12.8683C64.4739 12.2694 64.5961 11.732 64.8557 11.2866C65.1154 10.8413 65.4515 10.4574 65.8791 10.1349C66.3068 9.81246 66.7651 9.53605 67.2691 9.32107C66.8262 9.07537 66.429 8.81432 66.0777 8.5072C65.7264 8.20008 65.4362 7.84689 65.2223 7.43228C65.0085 7.01767 64.9016 6.54164 64.9016 6.00418C64.9016 5.34387 65.0696 4.7757 65.4056 4.31502C65.7417 3.85434 66.1999 3.50115 66.7956 3.25546C67.3913 3.00976 68.0481 2.88691 68.7813 2.88691V2.8562ZM65.9402 12.8683C65.9402 13.544 66.1694 14.0968 66.6429 14.5267C67.1164 14.9567 67.8343 15.1717 68.7813 15.1717C69.7283 15.1717 70.3851 14.9567 70.8892 14.5267C71.3933 14.0968 71.6376 13.5133 71.6376 12.8069C71.6376 12.3616 71.5307 11.9777 71.3016 11.6552C71.0725 11.3327 70.7517 11.0256 70.3393 10.7645C69.9269 10.5035 69.4228 10.2578 68.8577 10.0428L68.5369 9.91995C67.987 10.1503 67.5135 10.396 67.1317 10.6878C66.7498 10.9795 66.4596 11.2866 66.2457 11.6398C66.0319 11.993 65.9402 12.4076 65.9402 12.8683ZM68.766 4.08468C68.0634 4.08468 67.483 4.2536 67.04 4.59143C66.597 4.92926 66.3679 5.42065 66.3679 6.05024C66.3679 6.51092 66.4748 6.89482 66.6887 7.20194C66.9025 7.50906 67.208 7.78547 67.5746 8.01581C67.9412 8.24615 68.3689 8.44578 68.8424 8.64541C69.3006 8.46113 69.6978 8.24615 70.0491 8.01581C70.4004 7.78547 70.6754 7.50906 70.8739 7.18659C71.0725 6.86411 71.1794 6.48021 71.1794 6.05024C71.1794 5.42065 70.9503 4.92926 70.5073 4.59143C70.0644 4.2536 69.4839 4.08468 68.7508 4.08468H68.766Z" fill="white"/>
<path d="M0.718018 34.6431V33.3071H5.16291V34.6431H0.718018Z" fill="white"/>
<path d="M14.8776 28.8539C14.8776 29.4374 14.7707 29.9442 14.5416 30.3895C14.3124 30.8348 13.9917 31.1727 13.5945 31.4491C13.1974 31.7255 12.7086 31.9097 12.1587 32.0172V32.094C13.1974 32.2322 13.9764 32.5547 14.4957 33.1075C15.0151 33.6603 15.2747 34.3513 15.2747 35.2266C15.2747 35.9944 15.0914 36.6701 14.7401 37.2536C14.3888 37.8372 13.8389 38.2978 13.1057 38.6357C12.3726 38.9735 11.4408 39.1424 10.2952 39.1424C9.60787 39.1424 8.96634 39.081 8.37063 38.9735C7.77492 38.866 7.22504 38.6817 6.69043 38.4207V37.0233C7.24031 37.2997 7.82075 37.4993 8.46228 37.6529C9.10381 37.8064 9.71479 37.8832 10.3105 37.8832C11.5019 37.8832 12.3726 37.6375 12.8919 37.1615C13.4112 36.6855 13.6862 36.0251 13.6862 35.2113C13.6862 34.6431 13.5334 34.1824 13.2432 33.8292C12.953 33.4761 12.5253 33.215 11.9754 33.0614C11.4255 32.9079 10.7535 32.8157 9.98973 32.8157H8.67612V31.5412H9.98973C10.6924 31.5412 11.3033 31.4337 11.7921 31.2187C12.2809 31.0037 12.6628 30.712 12.9224 30.3281C13.1821 29.9442 13.3043 29.4989 13.3043 28.9768C13.3043 28.3164 13.0905 27.7943 12.6475 27.4412C12.2045 27.088 11.6088 26.9037 10.8451 26.9037C10.3869 26.9037 9.95918 26.9498 9.57732 27.0419C9.19546 27.134 8.84414 27.2722 8.5081 27.4412C8.17206 27.6101 7.83602 27.8097 7.49998 28.0247L6.75153 26.9958C7.22504 26.6273 7.80547 26.3048 8.49283 26.0284C9.18018 25.752 9.95918 25.6292 10.8298 25.6292C12.174 25.6292 13.1668 25.9363 13.8389 26.5505C14.511 27.1647 14.847 27.9479 14.847 28.8846L14.8776 28.8539Z" fill="white"/>
<path d="M25.3559 28.8539C25.3559 29.4374 25.2489 29.9442 25.0198 30.3895C24.7907 30.8348 24.4699 31.1727 24.0728 31.4491C23.6757 31.7255 23.1869 31.9097 22.637 32.0172V32.094C23.6757 32.2322 24.4547 32.5547 24.974 33.1075C25.4933 33.6603 25.753 34.3513 25.753 35.2266C25.753 35.9944 25.5697 36.6701 25.2184 37.2536C24.8671 37.8372 24.3172 38.2978 23.584 38.6357C22.8508 38.9735 21.9191 39.1424 20.7735 39.1424C20.0861 39.1424 19.4446 39.081 18.8489 38.9735C18.2532 38.866 17.7033 38.6817 17.1687 38.4207V37.0233C17.7186 37.2997 18.299 37.4993 18.9405 37.6529C19.5821 37.8064 20.1931 37.8832 20.7888 37.8832C21.9802 37.8832 22.8508 37.6375 23.3702 37.1615C23.8895 36.6855 24.1644 36.0251 24.1644 35.2113C24.1644 34.6431 24.0117 34.1824 23.7215 33.8292C23.4313 33.4761 23.0036 33.215 22.4537 33.0614C21.9038 32.9079 21.2317 32.8157 20.468 32.8157H19.1544V31.5412H20.468C21.1706 31.5412 21.7816 31.4337 22.2704 31.2187C22.7592 31.0037 23.1411 30.712 23.4007 30.3281C23.6604 29.9442 23.7826 29.4989 23.7826 28.9768C23.7826 28.3164 23.5687 27.7943 23.1258 27.4412C22.6828 27.088 22.0871 26.9037 21.3234 26.9037C20.8651 26.9037 20.4375 26.9498 20.0556 27.0419C19.6737 27.134 19.3224 27.2722 18.9864 27.4412C18.6503 27.6101 18.3143 27.8097 17.9783 28.0247L17.2298 26.9958C17.7033 26.6273 18.2837 26.3048 18.9711 26.0284C19.6585 25.752 20.4375 25.6292 21.3081 25.6292C22.6523 25.6292 23.6451 25.9363 24.3172 26.5505C24.9893 27.1647 25.3253 27.9479 25.3253 28.8846L25.3559 28.8539Z" fill="white"/>
<path d="M27.8761 33.3071C27.8761 32.5086 27.9372 31.7408 28.0441 30.9883C28.1511 30.2359 28.3344 29.5295 28.6093 28.8846C28.8842 28.2396 29.2356 27.6561 29.6785 27.1647C30.1215 26.6733 30.7019 26.2894 31.374 26.013C32.0461 25.7366 32.8709 25.5984 33.8179 25.5984C34.0929 25.5984 34.3831 25.5984 34.6886 25.6445C34.9941 25.6905 35.2537 25.7212 35.4523 25.7673V27.0572C35.2384 26.9804 34.9788 26.919 34.6886 26.8883C34.3983 26.8576 34.1234 26.8269 33.8332 26.8269C32.7181 26.8269 31.8475 27.0726 31.2212 27.5486C30.595 28.0246 30.1215 28.7003 29.8465 29.5295C29.5716 30.3587 29.4036 31.2955 29.3577 32.3397H29.4494C29.6327 32.0325 29.8771 31.7715 30.152 31.5258C30.427 31.2801 30.7936 31.0958 31.1907 30.9423C31.5878 30.7887 32.0766 30.7273 32.6112 30.7273C33.375 30.7273 34.047 30.8808 34.6122 31.188C35.1774 31.4951 35.6203 31.9558 35.9411 32.5393C36.2618 33.1228 36.4146 33.8599 36.4146 34.7045C36.4146 35.6105 36.2466 36.3936 35.9105 37.0539C35.5745 37.7143 35.101 38.221 34.49 38.5742C33.879 38.9274 33.1306 39.1116 32.2905 39.1116C31.6489 39.1116 31.0685 38.9888 30.5339 38.7431C29.9993 38.4974 29.5258 38.1289 29.1286 37.6528C28.7315 37.1768 28.426 36.5626 28.1969 35.8408C27.9678 35.1191 27.8608 34.2745 27.8608 33.3224L27.8761 33.3071ZM32.2752 37.8525C33.0847 37.8525 33.7415 37.5914 34.2303 37.0693C34.7191 36.5472 34.9635 35.764 34.9635 34.7045C34.9635 33.8446 34.7497 33.1535 34.3067 32.6468C33.8637 32.14 33.2222 31.8943 32.3363 31.8943C31.7406 31.8943 31.2212 32.0172 30.7783 32.2629C30.3353 32.5086 29.9993 32.8311 29.7549 33.1996C29.5105 33.5681 29.3883 33.9674 29.3883 34.3513C29.3883 34.7352 29.4494 35.1498 29.5563 35.5644C29.6632 35.979 29.8465 36.3476 30.0909 36.7008C30.3353 37.0539 30.6255 37.3304 30.9921 37.53C31.3587 37.7296 31.7864 37.8525 32.2752 37.8525Z" fill="white"/>
<path d="M22.0412 65.8159H20.5901V56.4948C20.5901 56.1416 20.5901 55.8345 20.5901 55.5888C20.5901 55.3431 20.5901 55.0974 20.6054 54.8824C20.6207 54.6674 20.6207 54.4525 20.6512 54.2375C20.4679 54.4217 20.2999 54.5907 20.1319 54.7289C19.9639 54.8671 19.7653 55.036 19.5362 55.2356L18.0393 56.4487L17.2603 55.4352L20.804 52.6865H22.0412V65.8466V65.8159Z" fill="white"/>
<path d="M27.1276 60.1955C27.1276 59.397 27.1887 58.6292 27.2956 57.8768C27.4025 57.1243 27.5858 56.4179 27.8608 55.773C28.1357 55.128 28.487 54.5445 28.93 54.0531C29.3729 53.5617 29.9534 53.1778 30.6255 52.9014C31.2975 52.625 32.1224 52.4868 33.0694 52.4868C33.3443 52.4868 33.6345 52.4868 33.94 52.5329C34.2455 52.579 34.5052 52.6097 34.7038 52.6557V53.9456C34.4899 53.8689 34.2302 53.8074 33.94 53.7767C33.6498 53.746 33.3749 53.7153 33.0847 53.7153C31.9696 53.7153 31.099 53.961 30.4727 54.437C29.8465 54.9131 29.3729 55.5887 29.098 56.4179C28.8231 57.2472 28.655 58.1839 28.6092 59.2281H28.7009C28.8842 58.921 29.1285 58.6599 29.4035 58.4142C29.6784 58.1685 30.045 57.9843 30.4422 57.8307C30.8393 57.6771 31.3281 57.6157 31.8627 57.6157C32.6264 57.6157 33.2985 57.7693 33.8637 58.0764C34.4288 58.3835 34.8718 58.8442 35.1925 59.4277C35.5133 60.0112 35.6661 60.7483 35.6661 61.5929C35.6661 62.4989 35.498 63.2821 35.162 63.9424C34.826 64.6027 34.3524 65.1094 33.7415 65.4626C33.1305 65.8158 32.382 66.0001 31.5419 66.0001C30.9004 66.0001 30.32 65.8772 29.7854 65.6315C29.2507 65.3858 28.7772 65.0173 28.3801 64.5413C27.983 64.0652 27.6775 63.451 27.4483 62.7293C27.2192 62.0075 27.1123 61.1629 27.1123 60.2109L27.1276 60.1955ZM31.5266 64.7409C32.3362 64.7409 32.993 64.4798 33.4818 63.9577C33.9706 63.4356 34.215 62.6525 34.215 61.5929C34.215 60.733 34.0011 60.042 33.5582 59.5352C33.1152 59.0285 32.4737 58.7828 31.5877 58.7828C30.992 58.7828 30.4727 58.9056 30.0297 59.1513C29.5868 59.397 29.2507 59.7195 29.0063 60.088C28.762 60.4566 28.6398 60.8558 28.6398 61.2397C28.6398 61.6236 28.7009 62.0382 28.8078 62.4528C28.9147 62.8675 29.098 63.236 29.3424 63.5892C29.5868 63.9424 29.877 64.2188 30.2436 64.4184C30.6102 64.618 31.0379 64.7409 31.5266 64.7409Z" fill="white"/>
<path d="M79 20.3159H48.0996" stroke="white" stroke-miterlimit="10"/>
<path d="M38.6294 45.6072H0" stroke="white" stroke-miterlimit="10"/>
<path d="M48.0996 0V21.0377" stroke="white" stroke-miterlimit="10"/>
</g>
<defs>
<clipPath id="clip0_31_1023">
<rect width="79" height="66" fill="white"/>
</clipPath>
</defs>
</svg>
