<svg width="112" height="102" viewBox="0 0 112 102" fill="none" xmlns="http://www.w3.org/2000/svg">
<g clip-path="url(#clip0_106_99)">
<path d="M20.4445 4.42995C16.4483 3.28106 12.1432 6.15329 10.3864 9.94074C8.61993 13.7379 8.8516 18.1485 9.51764 22.2865C10.1837 26.4244 11.2455 30.5429 11.0428 34.7295C10.6953 41.5742 7.01758 47.7276 3.40747 53.5402C7.6064 57.0063 8.34966 63.1987 7.7898 68.6413C7.22994 74.0839 5.70482 79.546 6.59287 84.94C7.49057 90.3437 11.9501 95.7474 17.3363 95.1145" stroke="white" stroke-width="2" stroke-linecap="round" stroke-linejoin="round"/>
</g>
<path d="M36.7129 10.1211C37.9889 10.1211 38.9362 10.4076 39.5547 10.9805C40.1732 11.5534 40.4824 12.4681 40.4824 13.7246V21H39.3008L38.9883 19.418H38.9102C38.6107 19.8086 38.2982 20.1374 37.9727 20.4043C37.6471 20.6647 37.2695 20.8633 36.8398 21C36.4167 21.1302 35.8958 21.1953 35.2773 21.1953C34.6263 21.1953 34.0469 21.0814 33.5391 20.8535C33.0378 20.6257 32.6406 20.2806 32.3477 19.8184C32.0612 19.3561 31.918 18.7702 31.918 18.0605C31.918 16.9928 32.3411 16.1725 33.1875 15.5996C34.0339 15.0267 35.3229 14.7142 37.0547 14.6621L38.9004 14.584V13.9297C38.9004 13.0052 38.7018 12.3574 38.3047 11.9863C37.9076 11.6152 37.3477 11.4297 36.625 11.4297C36.0651 11.4297 35.5312 11.5111 35.0234 11.6738C34.5156 11.8366 34.0339 12.0286 33.5781 12.25L33.0801 11.0195C33.5618 10.7721 34.1152 10.5605 34.7402 10.3848C35.3652 10.209 36.0228 10.1211 36.7129 10.1211ZM38.8809 15.7266L37.25 15.7949C35.9154 15.847 34.9746 16.0651 34.4277 16.4492C33.8809 16.8333 33.6074 17.377 33.6074 18.0801C33.6074 18.6921 33.793 19.1445 34.1641 19.4375C34.5352 19.7305 35.0267 19.877 35.6387 19.877C36.5892 19.877 37.3672 19.6133 37.9727 19.0859C38.5781 18.5586 38.8809 17.7676 38.8809 16.7129V15.7266ZM57.709 18.627L48.3145 14.4668V13.5391L57.709 8.89062V10.3359L50.0723 13.9395L57.709 17.1914V18.627ZM67.2793 5.80469V9.60352C67.2793 10.0397 67.2663 10.4629 67.2402 10.873C67.2207 11.2832 67.2044 11.6022 67.1914 11.8301H67.2793C67.5723 11.3483 67.9954 10.9414 68.5488 10.6094C69.1022 10.2773 69.8086 10.1113 70.668 10.1113C72.0091 10.1113 73.0768 10.5768 73.8711 11.5078C74.6719 12.4323 75.0723 13.8092 75.0723 15.6387C75.0723 16.8431 74.89 17.8587 74.5254 18.6855C74.1608 19.5124 73.6465 20.1374 72.9824 20.5605C72.3184 20.9837 71.5339 21.1953 70.6289 21.1953C69.7826 21.1953 69.0859 21.0391 68.5391 20.7266C67.9987 20.4076 67.582 20.0202 67.2891 19.5645H67.1621L66.8301 21H65.6582V5.80469H67.2793ZM70.4043 11.4688C69.6296 11.4688 69.0143 11.6217 68.5586 11.9277C68.1029 12.2272 67.7741 12.6829 67.5723 13.2949C67.377 13.9004 67.2793 14.6686 67.2793 15.5996V15.6875C67.2793 17.0352 67.5039 18.0671 67.9531 18.7832C68.4023 19.4928 69.2194 19.8477 70.4043 19.8477C71.4004 19.8477 72.1458 19.4831 72.6406 18.7539C73.1419 18.0247 73.3926 16.9831 73.3926 15.6289C73.3926 14.2487 73.1452 13.2103 72.6504 12.5137C72.1621 11.8171 71.4134 11.4688 70.4043 11.4688ZM87.7578 13.2852H91.7812V14.6133H87.7578V18.7539H86.4199V14.6133H82.3965V13.2852H86.4199V9.125H87.7578V13.2852ZM104.027 21.1953C103.064 21.1953 102.214 20.9967 101.479 20.5996C100.743 20.2025 100.17 19.597 99.7598 18.7832C99.3496 17.9694 99.1445 16.944 99.1445 15.707C99.1445 14.4115 99.3594 13.3535 99.7891 12.5332C100.225 11.7064 100.824 11.0944 101.586 10.6973C102.348 10.3001 103.214 10.1016 104.184 10.1016C104.717 10.1016 105.232 10.1569 105.727 10.2676C106.228 10.3717 106.638 10.5052 106.957 10.668L106.469 12.0254C106.143 11.8952 105.766 11.778 105.336 11.6738C104.913 11.5697 104.516 11.5176 104.145 11.5176C103.402 11.5176 102.784 11.6771 102.289 11.9961C101.801 12.3151 101.433 12.7839 101.186 13.4023C100.945 14.0208 100.824 14.7826 100.824 15.6875C100.824 16.5534 100.941 17.2923 101.176 17.9043C101.417 18.5163 101.771 18.985 102.24 19.3105C102.715 19.6296 103.308 19.7891 104.018 19.7891C104.584 19.7891 105.095 19.7305 105.551 19.6133C106.007 19.4896 106.42 19.3464 106.791 19.1836V20.6289C106.433 20.8112 106.033 20.9512 105.59 21.0488C105.154 21.1465 104.633 21.1953 104.027 21.1953Z" fill="white"/>
<path d="M34.3301 42.8047V46.6035C34.3301 47.0397 34.3171 47.4629 34.291 47.873C34.2715 48.2832 34.2552 48.6022 34.2422 48.8301H34.3301C34.623 48.3483 35.0462 47.9414 35.5996 47.6094C36.153 47.2773 36.8594 47.1113 37.7188 47.1113C39.0599 47.1113 40.1276 47.5768 40.9219 48.5078C41.7227 49.4323 42.123 50.8092 42.123 52.6387C42.123 53.8431 41.9408 54.8587 41.5762 55.6855C41.2116 56.5124 40.6973 57.1374 40.0332 57.5605C39.3691 57.9837 38.5846 58.1953 37.6797 58.1953C36.8333 58.1953 36.1367 58.0391 35.5898 57.7266C35.0495 57.4076 34.6328 57.0202 34.3398 56.5645H34.2129L33.8809 58H32.709V42.8047H34.3301ZM37.4551 48.4688C36.6803 48.4688 36.0651 48.6217 35.6094 48.9277C35.1536 49.2272 34.8249 49.6829 34.623 50.2949C34.4277 50.9004 34.3301 51.6686 34.3301 52.5996V52.6875C34.3301 54.0352 34.5547 55.0671 35.0039 55.7832C35.4531 56.4928 36.2702 56.8477 37.4551 56.8477C38.4512 56.8477 39.1966 56.4831 39.6914 55.7539C40.1927 55.0247 40.4434 53.9831 40.4434 52.6289C40.4434 51.2487 40.196 50.2103 39.7012 49.5137C39.2129 48.8171 38.4642 48.4688 37.4551 48.4688ZM58.8418 55.627L49.4473 51.4668V50.5391L58.8418 45.8906V47.3359L51.2051 50.9395L58.8418 54.1914V55.627ZM70.7949 47.1211C72.071 47.1211 73.0182 47.4076 73.6367 47.9805C74.2552 48.5534 74.5645 49.4681 74.5645 50.7246V58H73.3828L73.0703 56.418H72.9922C72.6927 56.8086 72.3802 57.1374 72.0547 57.4043C71.7292 57.6647 71.3516 57.8633 70.9219 58C70.4987 58.1302 69.9779 58.1953 69.3594 58.1953C68.7083 58.1953 68.1289 58.0814 67.6211 57.8535C67.1198 57.6257 66.7227 57.2806 66.4297 56.8184C66.1432 56.3561 66 55.7702 66 55.0605C66 53.9928 66.4232 53.1725 67.2695 52.5996C68.1159 52.0267 69.4049 51.7142 71.1367 51.6621L72.9824 51.584V50.9297C72.9824 50.0052 72.7839 49.3574 72.3867 48.9863C71.9896 48.6152 71.4297 48.4297 70.707 48.4297C70.1471 48.4297 69.6133 48.5111 69.1055 48.6738C68.5977 48.8366 68.1159 49.0286 67.6602 49.25L67.1621 48.0195C67.6439 47.7721 68.1973 47.5605 68.8223 47.3848C69.4473 47.209 70.1048 47.1211 70.7949 47.1211ZM72.9629 52.7266L71.332 52.7949C69.9974 52.847 69.0566 53.0651 68.5098 53.4492C67.9629 53.8333 67.6895 54.377 67.6895 55.0801C67.6895 55.6921 67.875 56.1445 68.2461 56.4375C68.6172 56.7305 69.1087 56.877 69.7207 56.877C70.6712 56.877 71.4492 56.6133 72.0547 56.0859C72.6602 55.5586 72.9629 54.7676 72.9629 53.7129V52.7266ZM87.7578 50.2852H91.7812V51.6133H87.7578V55.7539H86.4199V51.6133H82.3965V50.2852H86.4199V46.125H87.7578V50.2852ZM104.027 58.1953C103.064 58.1953 102.214 57.9967 101.479 57.5996C100.743 57.2025 100.17 56.597 99.7598 55.7832C99.3496 54.9694 99.1445 53.944 99.1445 52.707C99.1445 51.4115 99.3594 50.3535 99.7891 49.5332C100.225 48.7064 100.824 48.0944 101.586 47.6973C102.348 47.3001 103.214 47.1016 104.184 47.1016C104.717 47.1016 105.232 47.1569 105.727 47.2676C106.228 47.3717 106.638 47.5052 106.957 47.668L106.469 49.0254C106.143 48.8952 105.766 48.778 105.336 48.6738C104.913 48.5697 104.516 48.5176 104.145 48.5176C103.402 48.5176 102.784 48.6771 102.289 48.9961C101.801 49.3151 101.433 49.7839 101.186 50.4023C100.945 51.0208 100.824 51.7826 100.824 52.6875C100.824 53.5534 100.941 54.2923 101.176 54.9043C101.417 55.5163 101.771 55.985 102.24 56.3105C102.715 56.6296 103.308 56.7891 104.018 56.7891C104.584 56.7891 105.095 56.7305 105.551 56.6133C106.007 56.4896 106.42 56.3464 106.791 56.1836V57.6289C106.433 57.8112 106.033 57.9512 105.59 58.0488C105.154 58.1465 104.633 58.1953 104.027 58.1953Z" fill="white"/>
<path d="M36.9961 96.1953C36.0326 96.1953 35.1829 95.9967 34.4473 95.5996C33.7116 95.2025 33.1387 94.597 32.7285 93.7832C32.3184 92.9694 32.1133 91.944 32.1133 90.707C32.1133 89.4115 32.3281 88.3535 32.7578 87.5332C33.194 86.7064 33.793 86.0944 34.5547 85.6973C35.3164 85.3001 36.1823 85.1016 37.1523 85.1016C37.6862 85.1016 38.2005 85.1569 38.6953 85.2676C39.1966 85.3717 39.6068 85.5052 39.9258 85.668L39.4375 87.0254C39.112 86.8952 38.7344 86.778 38.3047 86.6738C37.8815 86.5697 37.4844 86.5176 37.1133 86.5176C36.3711 86.5176 35.7526 86.6771 35.2578 86.9961C34.7695 87.3151 34.4017 87.7839 34.1543 88.4023C33.9134 89.0208 33.793 89.7826 33.793 90.6875C33.793 91.5534 33.9102 92.2923 34.1445 92.9043C34.3854 93.5163 34.7402 93.985 35.209 94.3105C35.6842 94.6296 36.2767 94.7891 36.9863 94.7891C37.5527 94.7891 38.0638 94.7305 38.5195 94.6133C38.9753 94.4896 39.3887 94.3464 39.7598 94.1836V95.6289C39.4017 95.8112 39.0013 95.9512 38.5586 96.0488C38.1224 96.1465 37.6016 96.1953 36.9961 96.1953ZM56.1855 93.627L46.791 89.4668V88.5391L56.1855 83.8906V85.3359L48.5488 88.9395L56.1855 92.1914V93.627ZM68.1387 85.1211C69.4147 85.1211 70.362 85.4076 70.9805 85.9805C71.599 86.5534 71.9082 87.4681 71.9082 88.7246V96H70.7266L70.4141 94.418H70.3359C70.0365 94.8086 69.724 95.1374 69.3984 95.4043C69.0729 95.6647 68.6953 95.8633 68.2656 96C67.8424 96.1302 67.3216 96.1953 66.7031 96.1953C66.0521 96.1953 65.4727 96.0814 64.9648 95.8535C64.4635 95.6257 64.0664 95.2806 63.7734 94.8184C63.487 94.3561 63.3438 93.7702 63.3438 93.0605C63.3438 91.9928 63.7669 91.1725 64.6133 90.5996C65.4596 90.0267 66.7487 89.7142 68.4805 89.6621L70.3262 89.584V88.9297C70.3262 88.0052 70.1276 87.3574 69.7305 86.9863C69.3333 86.6152 68.7734 86.4297 68.0508 86.4297C67.4909 86.4297 66.957 86.5111 66.4492 86.6738C65.9414 86.8366 65.4596 87.0286 65.0039 87.25L64.5059 86.0195C64.9876 85.7721 65.541 85.5605 66.166 85.3848C66.791 85.209 67.4486 85.1211 68.1387 85.1211ZM70.3066 90.7266L68.6758 90.7949C67.3411 90.847 66.4004 91.0651 65.8535 91.4492C65.3066 91.8333 65.0332 92.377 65.0332 93.0801C65.0332 93.6921 65.2188 94.1445 65.5898 94.4375C65.9609 94.7305 66.4525 94.877 67.0645 94.877C68.015 94.877 68.793 94.6133 69.3984 94.0859C70.0039 93.5586 70.3066 92.7676 70.3066 91.7129V90.7266ZM85.1016 88.2852H89.125V89.6133H85.1016V93.7539H83.7637V89.6133H79.7402V88.2852H83.7637V84.125H85.1016V88.2852ZM101.371 96.1953C100.408 96.1953 99.5579 95.9967 98.8223 95.5996C98.0866 95.2025 97.5137 94.597 97.1035 93.7832C96.6934 92.9694 96.4883 91.944 96.4883 90.707C96.4883 89.4115 96.7031 88.3535 97.1328 87.5332C97.569 86.7064 98.168 86.0944 98.9297 85.6973C99.6914 85.3001 100.557 85.1016 101.527 85.1016C102.061 85.1016 102.576 85.1569 103.07 85.2676C103.572 85.3717 103.982 85.5052 104.301 85.668L103.812 87.0254C103.487 86.8952 103.109 86.778 102.68 86.6738C102.257 86.5697 101.859 86.5176 101.488 86.5176C100.746 86.5176 100.128 86.6771 99.6328 86.9961C99.1445 87.3151 98.7767 87.7839 98.5293 88.4023C98.2884 89.0208 98.168 89.7826 98.168 90.6875C98.168 91.5534 98.2852 92.2923 98.5195 92.9043C98.7604 93.5163 99.1152 93.985 99.584 94.3105C100.059 94.6296 100.652 94.7891 101.361 94.7891C101.928 94.7891 102.439 94.7305 102.895 94.6133C103.35 94.4896 103.764 94.3464 104.135 94.1836V95.6289C103.777 95.8112 103.376 95.9512 102.934 96.0488C102.497 96.1465 101.977 96.1953 101.371 96.1953Z" fill="white"/>
<defs>
<clipPath id="clip0_106_99">
<rect width="96" height="23" fill="white" transform="translate(0 96) rotate(-90)"/>
</clipPath>
</defs>
</svg>
