<svg width="560" height="239" viewBox="0 0 560 239" fill="none" xmlns="http://www.w3.org/2000/svg">
<g clip-path="url(#clip0_28_195)">
<path d="M-244.39 -82.4512C-243.94 -76.0942 -235.259 -76.1643 -205.943 -76.4447C-168.22 -76.8187 -167.455 -76.2344 -156.129 -72.5884C-103.924 -55.7376 -62.9679 -62.9126 -13.4872 -55.2935C20.8847 -49.9882 -4.41415 -43.0702 -38.8253 -36.9469C-84.2691 -28.8603 -113.37 -22.8539 -68.1413 -16.4968C-7.92188 -8.03634 180.967 -20.9608 216.632 20.2198C242.166 49.7146 166.818 102.301 223.236 135.839C290.745 175.968 520.297 179.006 595.488 179.123V177.136C520.924 177.089 291.549 174.238 225.098 135.021C169.993 102.488 243.989 49.6913 218.161 20.1964C181.731 -21.4048 -6.92245 -8.29343 -67.2595 -16.7539C-149.094 -28.2293 21.3746 -38.5128 2.24863 -51.3204C-3.78705 -55.3636 -29.0859 -57.3502 -36.1993 -57.9345C-85.2685 -61.8843 -112.586 -58.846 -155.482 -72.6352C-161.047 -74.4348 -164.869 -75.6501 -170.316 -76.0708C-186.934 -77.3796 -221.169 -75.767 -232.809 -76.7486C-251.288 -78.3144 -237.885 -84.765 -248.898 -86.3542C-272.394 -89.7665 -309.842 -88.855 -384.328 -88.8083V-88.7615C-251.21 -88.8316 -244.822 -88.5044 -244.39 -82.4512Z" fill="black"/>
<path d="M-260.459 -81.6806C-262.164 -74.7393 -251.543 -74.3654 -213.918 -74.7393C-202.2 -74.8562 -191.167 -74.973 -184.935 -74.4589C-173.276 -73.5006 -160.244 -60.88 -95.6938 -57.795C105.795 -48.1425 -159.989 -36.0595 -117.602 -15.9366C-72.4329 5.49506 155.002 -16.1703 177.361 20.6398C193.959 47.9611 89.5109 99.1914 171.228 158.812C233.446 204.176 370.189 232.549 595.448 239.023V236.219C492.372 233.227 261.39 221.448 173.403 157.831C92.4308 99.2849 195.821 48.0546 178.87 20.6164C155.923 -16.5676 -71.4139 5.07437 -116.407 -16.1236C-142.059 -28.23 -47.3692 -39.7755 -30.6928 -43.7487C-5.198 -49.8253 -23.7361 -52.9337 -49.662 -55.154C-96.7324 -59.1505 -131.104 -56.2525 -172.786 -71.3271C-182.741 -74.9263 -181.957 -75.1133 -213.644 -74.8094C-226.832 -74.6692 -240.51 -74.529 -248.408 -75.2535C-261.106 -76.3753 -260.44 -79.2266 -259.872 -81.704C-258.657 -86.9392 -258.03 -87.991 -384.387 -87.7806V-87.7339C-258.617 -87.9442 -259.225 -86.8691 -260.518 -81.6573L-260.459 -81.6806Z" fill="black"/>
<path d="M-244.802 -82.4283C-244.41 -76.0713 -235.69 -76.118 -206.158 -76.3985C-168.533 -76.7724 -167.867 -76.1881 -156.579 -72.5422C-104.434 -55.668 -63.2422 -62.8196 -13.9183 -55.2239C20.1988 -49.9653 -5.04123 -43.0941 -39.2172 -37.0409C-84.955 -28.931 -114.408 -22.7843 -68.7292 -16.3337C-8.17661 -7.80312 180.379 -20.7743 215.613 20.2427C240.932 49.7141 164.741 102.207 222.002 136.399C267.818 163.767 395.938 180.08 595.507 180.454V179.122C520.159 179.005 290.726 175.967 223.256 135.838C166.858 102.3 242.166 49.6908 216.652 20.2193C180.908 -21.0781 -7.43198 -7.96673 -68.1217 -16.4973C-150.701 -28.113 20.1596 -38.6301 1.44516 -51.2507C-4.49252 -55.2473 -29.6346 -57.2338 -36.6893 -57.8181C-85.8172 -61.7913 -113.252 -58.7296 -156.129 -72.5889C-161.655 -74.3652 -165.457 -75.6038 -170.846 -76.0245C-187.424 -77.3333 -221.58 -75.7207 -233.397 -76.7023C-251.994 -78.2682 -238.453 -84.7421 -249.427 -86.3314C-272.805 -89.7202 -310.058 -88.8087 -384.328 -88.762C-251.602 -88.8087 -245.194 -88.4815 -244.802 -82.4283Z" fill="white"/>
<path d="M-259.813 -81.7039C-261.4 -74.9028 -251.602 -74.4354 -213.585 -74.8094C-182.015 -75.1366 -182.721 -74.9496 -172.727 -71.327C-131.339 -56.3459 -96.9675 -59.1738 -49.6032 -55.1539C-23.6773 -52.957 -5.15878 -49.8486 -30.634 -43.7486C-47.428 -39.7521 -142 -28.2299 -116.348 -16.1235C-71.2571 5.14457 155.982 -16.5676 178.929 20.6165C195.899 48.1014 92.4505 99.2616 173.462 157.831C261.449 221.448 492.411 233.227 595.507 236.219V234.442C493.881 231.591 262.586 220.209 174.931 157.2C94.4297 99.3317 197.173 48.1715 179.968 20.6165C156.609 -16.8013 -70.5321 4.88748 -115.525 -16.2404C-141 -28.2066 -47.0361 -39.6586 -30.1637 -43.7019C-4.43375 -49.8486 -23.1482 -53.0037 -49.2309 -55.224C-92.4603 -58.8934 -116.779 -56.7899 -152.601 -65.3673C-170.414 -69.6442 -176.607 -73.9446 -183.955 -74.5523C-190.363 -75.0664 -201.494 -74.973 -213.35 -74.8561C-252.19 -74.4588 -260.871 -75.0898 -259.362 -81.7273C-258.186 -86.9859 -257.638 -88.0143 -384.289 -87.8039C-257.932 -87.9909 -258.559 -86.9158 -259.774 -81.7039H-259.813Z" fill="white"/>
<path d="M-259.401 -81.7272C-260.949 -74.856 -250.74 -74.4821 -213.389 -74.856C-201.533 -74.9729 -190.403 -75.0897 -183.995 -74.5522C-176.646 -73.9445 -170.473 -69.6442 -152.641 -65.3672C-109.352 -54.9902 22.8835 -56.3925 -30.2029 -43.7018C-47.0753 -39.6819 -141.059 -28.2299 -115.564 -16.2403C-70.924 4.72396 156.609 -16.7544 179.928 20.6166C197.114 48.1716 94.3904 99.3318 174.892 157.2C262.527 220.186 493.685 231.568 595.468 234.442V206.327C591.216 206.256 586.983 206.21 582.789 206.116L580.614 204.55C585.2 204.644 589.805 204.714 594.469 204.761L595.448 205.438V180.478C395.88 180.08 267.779 163.79 221.943 136.422C164.702 102.23 240.873 49.7141 215.554 20.266C180.261 -20.8445 -7.72589 -7.70968 -68.788 -16.3104C-114.447 -22.7376 -85.0333 -28.8843 -39.2759 -37.0175C-29.9089 -38.6769 9.93036 -45.034 0.818085 -51.204C-1.37671 -52.6998 -6.39334 -54.032 -13.9771 -55.2006C-63.4578 -62.8431 -104.316 -55.5745 -156.638 -72.5188C-162.145 -74.2951 -165.927 -75.5338 -171.257 -75.9545C-205.786 -78.6656 -244.195 -71.6541 -244.861 -82.405C-244.959 -84.0877 -245.057 -85.5835 -249.838 -86.2847C-273.079 -89.6969 -310.214 -88.7854 -384.328 -88.7387V-88.2946C-383.955 -88.2946 -383.563 -88.2946 -383.191 -88.2946C-383.583 -88.2479 -383.857 -88.2712 -384.328 -88.2712V-87.8272C-257.481 -88.0375 -258.225 -86.9391 -259.401 -81.7506V-81.7272ZM566.72 204.246L568.797 205.812C564.075 205.696 559.372 205.579 554.727 205.462L552.728 203.896C557.353 204.013 562.017 204.13 566.72 204.246ZM538.698 203.475L540.618 205.018C535.836 204.854 531.114 204.691 526.43 204.527L524.608 202.984C529.252 203.171 533.955 203.312 538.698 203.475ZM510.459 202.423L512.203 203.966C507.383 203.756 502.64 203.545 497.918 203.312L496.271 201.769C500.955 202.003 505.678 202.213 510.459 202.423ZM482.045 201.021L483.593 202.54C478.752 202.283 473.971 201.979 469.248 201.699L467.798 200.18C472.482 200.46 477.243 200.741 482.045 201.021ZM453.512 199.245L454.865 200.741C450.024 200.414 445.184 200.063 440.481 199.689L439.227 198.193C443.91 198.544 448.711 198.894 453.512 199.222V199.245ZM424.921 197.071L426.078 198.544C421.198 198.123 416.358 197.702 411.674 197.258L410.616 195.786C415.26 196.23 420.062 196.651 424.902 197.048L424.921 197.071ZM396.37 194.407L397.31 195.856C392.431 195.342 387.61 194.828 382.966 194.314L382.123 192.888C386.748 193.402 391.529 193.916 396.37 194.43V194.407ZM367.935 191.182L368.66 192.584C363.84 191.976 359.058 191.345 354.414 190.714L353.806 189.335C358.411 189.966 363.154 190.574 367.935 191.182ZM339.775 187.326L340.265 188.681C335.503 187.957 330.761 187.209 326.215 186.461L325.862 185.129C330.369 185.876 335.053 186.624 339.775 187.326ZM312.086 182.721L312.301 184.03C307.637 183.165 303.013 182.277 298.564 181.366L298.486 180.104C302.895 180.992 307.461 181.88 312.086 182.721ZM272.031 174.121C276.244 175.172 280.634 176.224 285.121 177.252L285.062 178.468C280.536 177.439 276.087 176.364 271.815 175.289L272.031 174.121ZM247.007 167.016C250.926 168.278 255.061 169.516 259.293 170.708L258.921 171.83C254.61 170.615 250.416 169.329 246.458 168.067L247.007 167.016ZM224.196 158.649C227.685 160.121 231.408 161.593 235.268 162.996L234.543 163.977C230.624 162.528 226.842 161.033 223.295 159.537L224.196 158.649ZM204.698 149.02C207.559 150.702 210.675 152.362 213.948 153.974L212.87 154.746C209.538 153.086 206.364 151.38 203.444 149.674L204.698 149.02ZM180.066 75.6565L181.457 75.8668C180.869 77.0354 180.32 78.1572 179.791 79.2557L178.38 79.0453C178.909 77.9469 179.458 76.825 180.066 75.6565ZM173.932 90.0767L175.421 90.2637C175.01 91.5958 174.637 92.9514 174.324 94.2368L172.795 94.0499C173.109 92.741 173.501 91.4089 173.932 90.0533V90.0767ZM171.933 98.2567L173.501 98.4203C173.266 99.8927 173.109 101.342 173.011 102.767L171.424 102.627C171.522 101.202 171.698 99.7291 171.933 98.2567ZM171.345 107.231L172.972 107.325C173.05 108.914 173.226 110.527 173.501 112.093L171.855 112.046C171.58 110.48 171.424 108.844 171.345 107.231ZM175.147 122.306C174.324 120.576 173.618 118.824 173.07 117.071H174.735C175.304 118.8 175.989 120.53 176.832 122.236L175.166 122.329L175.147 122.306ZM176.734 86.4541L175.264 86.2438C175.715 85.0518 176.225 83.8131 176.754 82.5744L178.184 82.7848C177.655 84.0235 177.165 85.2622 176.715 86.4541H176.734ZM182.593 133.267C180.987 131.468 179.536 129.598 178.282 127.728L179.948 127.541C181.183 129.364 182.633 131.187 184.22 132.963L182.613 133.244L182.593 133.267ZM195.194 144.345C192.666 142.546 190.334 140.699 188.237 138.83L189.766 138.409C191.823 140.232 194.136 142.032 196.605 143.784L195.194 144.322V144.345ZM195.919 49.8543L194.684 49.6907C195.115 48.8493 195.547 48.008 195.958 47.1666L197.173 47.3302C196.781 48.1716 196.35 49.013 195.919 49.8543ZM198.31 44.8528L197.114 44.7126C197.487 43.8946 197.82 43.0766 198.133 42.3053L199.329 42.4456C199.035 43.2168 198.682 44.0348 198.329 44.8528H198.31ZM200.152 40.1084L198.976 39.9915C199.25 39.1969 199.485 38.4257 199.681 37.7011L200.838 37.818C200.642 38.5659 200.406 39.3372 200.152 40.1318V40.1084ZM201.367 35.5276L200.211 35.4341C200.367 34.6862 200.465 33.9383 200.544 33.2372L201.68 33.3307C201.602 34.0552 201.504 34.8031 201.347 35.551L201.367 35.5276ZM201.817 31.1338L200.7 31.0636C200.7 30.3391 200.681 29.638 200.602 28.9368L201.7 29.007C201.778 29.7081 201.817 30.4092 201.798 31.1338H201.817ZM201.347 26.9035L200.25 26.8568C200.093 26.1556 199.897 25.4779 199.662 24.8234H200.74C200.994 25.5246 201.19 26.2024 201.347 26.9035ZM198.643 20.8737C199.113 21.5281 199.505 22.2058 199.838 22.8369H198.78C198.408 22.1357 198.016 21.4813 197.604 20.8737H198.623H198.643ZM195.272 17.0875C195.938 17.6951 196.566 18.3028 197.114 18.9338H196.115C195.566 18.3262 194.939 17.7185 194.292 17.1109L195.253 17.0641L195.272 17.0875ZM194.547 52.4252C194.077 53.2899 193.587 54.1781 193.097 55.0662L191.843 54.8792C192.352 53.9911 192.842 53.103 193.313 52.2382L194.547 52.4018V52.4252ZM190.549 13.5818C191.451 14.1427 192.294 14.727 193.077 15.3112L192.137 15.3814C191.373 14.7971 190.53 14.2362 189.648 13.6752L190.53 13.6051L190.549 13.5818ZM190.275 57.5903L191.549 57.7773C191.02 58.6888 190.491 59.6236 189.942 60.5585L188.649 60.3715C189.197 59.4366 189.746 58.5018 190.275 57.5903ZM186.591 66.4014L185.259 66.191C185.827 65.2094 186.395 64.2044 186.983 63.2462L188.296 63.4565C187.728 64.4382 187.159 65.4198 186.591 66.4247V66.4014ZM184.514 10.3565C185.611 10.8707 186.689 11.3848 187.688 11.9224L186.846 12.0159C185.866 11.4783 184.808 10.9641 183.73 10.45L184.534 10.3331L184.514 10.3565ZM184.867 69.463C184.279 70.5147 183.71 71.5665 183.142 72.6182L181.77 72.4078C182.339 71.3561 182.927 70.3044 183.514 69.2527L184.867 69.463ZM177.342 7.45843C178.635 7.90248 179.87 8.39328 181.065 8.86071L180.301 9.00095C179.144 8.53352 177.91 8.06609 176.636 7.62202L177.342 7.48179V7.45843ZM169.288 4.9343C170.698 5.33161 172.09 5.7523 173.422 6.14962L172.756 6.31322C171.443 5.89253 170.071 5.49522 168.68 5.09791L169.288 4.9343ZM160.587 2.73738C162.096 3.08795 163.585 3.43853 164.996 3.7891L164.428 3.97607C163.017 3.6255 161.547 3.27493 160.058 2.92435L160.587 2.73738ZM151.475 0.820915C153.042 1.12475 154.59 1.42857 156.06 1.73241L155.57 1.91938C154.1 1.61555 152.552 1.31172 151.004 1.0079L151.475 0.820915ZM142.107 -0.815086C143.695 -0.558006 145.282 -0.300919 146.811 -0.0204544L146.379 0.166519C144.851 -0.0905685 143.283 -0.371025 141.696 -0.628113L142.107 -0.838455V-0.815086ZM132.603 -2.24075C134.21 -2.00703 135.817 -1.77332 137.365 -1.5396L136.973 -1.32925C135.425 -1.56297 133.838 -1.79669 132.231 -2.00703L132.603 -2.21738V-2.24075ZM123.021 -3.50281C124.608 -3.31583 126.234 -3.10549 127.822 -2.89515L127.469 -2.68481C125.901 -2.89515 124.216 -3.10549 122.688 -3.29247L123.021 -3.50281ZM113.379 -4.5779C114.986 -4.4143 116.613 -4.22733 118.2 -4.06373L117.886 -3.85339C116.299 -4.04035 114.673 -4.20396 113.085 -4.36756L113.379 -4.5779ZM103.699 -5.51276C105.325 -5.37253 106.952 -5.2323 108.559 -5.0687L108.284 -4.85836C106.697 -5.02196 105.051 -5.16219 103.444 -5.30241L103.718 -5.51276H103.699ZM93.9398 -6.26064C95.5662 -6.14378 97.2123 -6.02693 98.8192 -5.8867L98.5645 -5.67635C96.9576 -5.79321 95.3311 -5.93344 93.7046 -6.0503L93.9398 -6.26064ZM84.1612 -6.89168C85.8073 -6.79819 87.4534 -6.7047 89.0603 -6.58784L88.8447 -6.3775C87.2378 -6.47099 85.5917 -6.58784 83.9652 -6.68134L84.1808 -6.89168H84.1612ZM74.3239 -7.38248C75.9699 -7.31236 77.6356 -7.21888 79.2425 -7.14877L79.0466 -6.93842C77.4397 -7.00854 75.7936 -7.10202 74.1475 -7.17213L74.3434 -7.38248H74.3239ZM64.4473 -7.77979C66.113 -7.73306 67.7591 -7.66293 69.3856 -7.59282L69.2092 -7.38248C67.6023 -7.45259 65.9366 -7.49934 64.2709 -7.56945L64.4473 -7.77979ZM54.5708 -8.06025C56.256 -8.0135 57.9218 -7.96677 59.5091 -7.92003L59.3523 -7.70969C57.7454 -7.75642 56.0797 -7.80316 54.414 -7.84991L54.5708 -8.06025ZM44.6746 -8.29397C46.3599 -8.2706 48.0256 -8.22385 49.6325 -8.20049L49.4757 -7.99014C47.8884 -8.03688 46.2227 -8.06026 44.5375 -8.08363L44.6942 -8.29397H44.6746ZM34.7785 -8.45757C36.4246 -8.45757 38.0707 -8.41082 39.7364 -8.38745L39.5796 -8.17711C37.9335 -8.20048 36.2874 -8.22385 34.6217 -8.24723L34.7785 -8.45757ZM24.8628 -8.57442C26.5089 -8.57442 28.1549 -8.52769 29.8206 -8.50432L29.6638 -8.29397C28.0178 -8.29397 26.3521 -8.34071 24.706 -8.36408L24.8628 -8.57442ZM14.9862 -8.69128L19.9245 -8.64454L19.7481 -8.4342L14.7903 -8.48094L14.9666 -8.69128H14.9862ZM5.10968 -8.78477C6.75577 -8.78477 8.40189 -8.73803 10.0284 -8.73803L9.8324 -8.52768C8.18631 -8.52768 6.54022 -8.57442 4.89413 -8.57442L5.09009 -8.78477H5.10968ZM-4.68848 -8.925C-3.06198 -8.90162 -1.41589 -8.87825 0.210602 -8.85488L-0.00494385 -8.64454C-1.65103 -8.64454 -3.27753 -8.69128 -4.92361 -8.71465L-4.68848 -8.925ZM-14.4278 -9.11197C-12.8601 -9.0886 -11.2336 -9.04185 -9.56793 -9.01848L-9.8031 -8.80814C-11.4688 -8.83151 -13.0953 -8.87826 -14.6826 -8.90163L-14.4278 -9.11197ZM-24.03 -9.34568C-22.4819 -9.29893 -20.875 -9.2522 -19.2485 -9.20546L-19.5229 -8.99512C-21.1494 -9.04185 -22.7758 -9.08859 -24.3239 -9.13534L-24.03 -9.34568ZM-33.4558 -9.67289C-31.9273 -9.60278 -30.3596 -9.55602 -28.7723 -9.50928L-29.1054 -9.29893C-30.6927 -9.34568 -32.2801 -9.4158 -33.8086 -9.46255L-33.4558 -9.67289ZM-42.6661 -10.0936C-41.1768 -10.0235 -39.6483 -9.92997 -38.1002 -9.85986L-38.4725 -9.64951C-40.0206 -9.71963 -41.5687 -9.78974 -43.0776 -9.88322L-42.6857 -10.0936H-42.6661ZM-51.5628 -10.6311C-50.1323 -10.5376 -48.643 -10.4441 -47.1537 -10.3507L-47.5652 -10.1403C-49.0545 -10.2338 -50.5634 -10.3273 -51.994 -10.4208L-51.5432 -10.6077L-51.5628 -10.6311ZM-60.0872 -11.2855C-58.7155 -11.1687 -57.3045 -11.0518 -55.874 -10.9349L-56.3443 -10.748C-57.7749 -10.8648 -59.2054 -10.9817 -60.5771 -11.0985L-60.0872 -11.2855ZM-68.1805 -12.0802C-66.8871 -11.9399 -65.5546 -11.7997 -64.2025 -11.6828L-64.7315 -11.4959C-66.0837 -11.6361 -67.4358 -11.7763 -68.7292 -11.9165L-68.1805 -12.1035V-12.0802ZM-75.7251 -12.9916C-74.5101 -12.828 -73.2755 -12.6644 -72.0214 -12.5242L-72.5897 -12.3372C-73.8438 -12.5008 -75.1176 -12.6411 -76.3326 -12.8047L-75.7447 -12.9916H-75.7251ZM-82.7209 -14.02C-81.6236 -13.833 -80.4674 -13.6694 -79.2916 -13.4824L-79.9187 -13.3188C-81.1141 -13.4824 -82.2702 -13.6694 -83.3676 -13.8564L-82.7406 -14.02H-82.7209ZM-89.1289 -15.1652C-88.1295 -14.9782 -87.0909 -14.7679 -86.0132 -14.5809L-86.6598 -14.4173C-87.7572 -14.6043 -88.8154 -14.8146 -89.7952 -15.0016L-89.1289 -15.1652ZM-105.688 -22.831L-104.904 -22.8778C-105.08 -22.574 -105.159 -22.2467 -105.178 -21.9429L-105.982 -21.8728C-105.982 -22.1766 -105.884 -22.5038 -105.707 -22.8077L-105.688 -22.831ZM-105.002 -20.0732C-105.335 -20.3537 -105.57 -20.6575 -105.727 -20.9613L-104.924 -21.0314C-104.767 -20.751 -104.512 -20.4471 -104.199 -20.1667L-105.002 -20.0732ZM-104.884 -23.7893C-104.532 -24.1165 -104.101 -24.4203 -103.591 -24.7475H-102.846C-103.356 -24.4437 -103.767 -24.1165 -104.12 -23.8126H-104.884V-23.7893ZM-102.239 -18.4138C-102.846 -18.6709 -103.375 -18.9514 -103.826 -19.2085L-103.042 -19.3253C-102.592 -19.0682 -102.062 -18.7878 -101.475 -18.5307L-102.239 -18.4138ZM-101.847 -25.7057C-101.22 -26.0096 -100.495 -26.3368 -99.7109 -26.6406H-99.0447C-99.8089 -26.3134 -100.514 -26.0096 -101.141 -25.7057H-101.847ZM-98.0453 -16.9414C-98.8487 -17.1751 -99.613 -17.4322 -100.299 -17.6659L-99.5346 -17.8062C-98.8487 -17.5724 -98.104 -17.3387 -97.3006 -17.105L-98.0257 -16.9648L-98.0453 -16.9414ZM-97.281 -27.5287C-96.4384 -27.8092 -95.5369 -28.113 -94.5767 -28.3935L-93.9888 -28.3467C-94.9294 -28.0663 -95.8309 -27.7624 -96.6539 -27.482H-97.281V-27.5287ZM-92.7739 -15.6092C-93.7341 -15.8196 -94.6747 -16.0299 -95.537 -16.2636L-94.8315 -16.4039C-93.9692 -16.1935 -93.0678 -15.9832 -92.088 -15.7729L-92.7739 -15.6092ZM-91.1278 -29.2115L-91.6765 -29.2582C-90.7162 -29.5153 -89.6972 -29.7957 -88.6194 -30.0762L-88.0903 -30.0295C-89.1485 -29.7724 -90.1479 -29.4919 -91.1082 -29.2348L-91.1278 -29.2115ZM-84.9745 -30.7774L-85.4644 -30.8475C-84.4258 -31.1045 -83.3284 -31.3383 -82.2115 -31.5954L-81.7411 -31.5252C-82.8581 -31.2682 -83.9359 -31.0344 -84.9549 -30.7774H-84.9745ZM-78.4685 -32.2498L-78.9193 -32.3199C-77.8415 -32.5536 -76.7245 -32.7873 -75.5683 -33.021L-75.1372 -32.9509C-76.2738 -32.7172 -77.3907 -32.4835 -78.4685 -32.2498ZM-71.7666 -33.6053L-72.1782 -33.6754C-71.0807 -33.8858 -69.9442 -34.1195 -68.788 -34.3298L-68.3765 -34.2597C-69.5327 -34.0494 -70.6692 -33.8156 -71.747 -33.6053H-71.7666ZM-65.0255 -34.9141L-65.4174 -34.9842C-64.3396 -35.1946 -63.1834 -35.4049 -62.0273 -35.6153L-61.6353 -35.5451C-62.7915 -35.3348 -63.9477 -35.1244 -65.0255 -34.9141ZM-58.2648 -36.1294L-58.6371 -36.1995C-57.5201 -36.4099 -56.3835 -36.5969 -55.2665 -36.7838L-54.8942 -36.7137C-56.0112 -36.5267 -57.1282 -36.3164 -58.2452 -36.1294H-58.2648ZM-51.5628 -37.3214L-51.9352 -37.3915C-50.8182 -37.5785 -49.7208 -37.7654 -48.6234 -37.9758L-48.251 -37.9057C-49.3484 -37.7187 -50.4458 -37.5317 -51.5628 -37.3214ZM-44.9785 -38.4666L-45.3508 -38.5367C-44.2534 -38.7237 -43.1756 -38.9106 -42.1174 -39.0976L-41.7451 -39.0275C-42.8033 -38.8405 -43.8811 -38.6535 -44.9785 -38.4666ZM-38.5509 -39.5884L-38.9232 -39.6585C-37.7866 -39.8689 -36.7676 -40.0325 -35.7878 -40.2194L-35.3959 -40.1493C-36.3561 -39.9857 -37.3947 -39.7987 -38.5313 -39.5884H-38.5509ZM-32.3584 -40.6869L-32.7504 -40.757C-31.6922 -40.944 -30.6927 -41.1309 -29.7913 -41.3179L-29.3798 -41.2478C-30.3008 -41.0842 -31.3002 -40.8972 -32.3584 -40.6869ZM-26.4991 -41.8087L-26.9303 -41.8788C-25.9504 -42.0892 -25.049 -42.2761 -24.226 -42.4397L-23.7752 -42.393C-24.5787 -42.206 -25.4997 -42.019 -26.4991 -41.8087ZM-21.2865 -42.9773L-21.7568 -43.024C-20.9534 -43.211 -20.1891 -43.4213 -19.4641 -43.6083L-18.9742 -43.5616C-19.6992 -43.3746 -20.4831 -43.1642 -21.2669 -42.9539L-21.2865 -42.9773ZM-8.33337 -47.7918H-8.90167C-8.6861 -47.9788 -8.49014 -48.1891 -8.35297 -48.3761H-7.7847C-7.92188 -48.1891 -8.09824 -48.0021 -8.33337 -47.7918ZM-7.52994 -48.937H-8.09821C-8.05902 -49.1006 -8.05902 -49.2876 -8.09821 -49.4746H-7.52994C-7.47113 -49.311 -7.47113 -49.124 -7.52994 -48.937ZM-8.37256 -50.5496C-8.15698 -50.386 -7.96103 -50.1991 -7.82385 -50.0355H-8.39218C-8.52936 -50.1757 -8.70569 -50.3393 -8.92123 -50.5263L-8.37256 -50.573V-50.5496ZM-10.1558 -51.5312C-9.78351 -51.3676 -9.45038 -51.2274 -9.15643 -51.0638L-9.70511 -51.0171C-9.99905 -51.1807 -10.3322 -51.3209 -10.6849 -51.4845L-10.1558 -51.5312ZM-9.7247 -47.1841H-9.15643C-9.46997 -46.9738 -9.84229 -46.7868 -10.2342 -46.5765H-10.7829C-10.391 -46.7868 -10.0186 -46.9972 -9.70511 -47.1841H-9.7247ZM-12.7426 -52.396C-12.2527 -52.2558 -11.7823 -52.1155 -11.3708 -51.9753L-11.8803 -51.9286C-12.2918 -52.0688 -12.7621 -52.209 -13.2325 -52.3492L-12.7426 -52.396ZM-12.1154 -45.9922H-11.5668C-12.0371 -45.7819 -12.5662 -45.5715 -13.1149 -45.3612H-13.644C-13.0953 -45.5949 -12.5662 -45.7819 -12.0959 -45.9922H-12.1154ZM-15.9171 -53.1672C-15.3293 -53.0504 -14.7805 -52.9102 -14.2514 -52.7933L-14.7414 -52.7466C-15.2509 -52.8634 -15.8192 -53.0036 -16.3875 -53.1205L-15.9171 -53.1906V-53.1672ZM-15.4077 -44.8003H-14.8981C-15.5056 -44.5665 -16.1719 -44.3562 -16.8578 -44.1692L-17.3673 -44.216C-16.6814 -44.4263 -16.0347 -44.6133 -15.4272 -44.8236L-15.4077 -44.8003ZM-19.5816 -53.8684C-18.935 -53.7515 -18.3079 -53.6347 -17.7004 -53.5412L-18.1511 -53.4711C-18.739 -53.5879 -19.3661 -53.7048 -20.0128 -53.7983L-19.5816 -53.8684ZM-21.5413 -54.1956C-22.1488 -54.1021 -23.3441 -54.3358 -23.9908 -54.4293C-23.3833 -54.5228 -22.188 -54.2891 -21.5413 -54.1956ZM-25.6761 -54.7799C-26.2444 -54.6864 -27.5573 -54.8967 -28.2236 -54.9902C-27.6357 -55.0837 -26.2836 -54.8734 -25.6761 -54.7799ZM-30.0461 -55.3174C-30.5948 -55.2239 -32.0841 -55.4343 -32.672 -55.5044C-32.1037 -55.6213 -30.6144 -55.3875 -30.0461 -55.3174ZM-34.5924 -55.8082C-35.1411 -55.7147 -36.7284 -55.9017 -37.2771 -55.9718C-36.7284 -56.0887 -35.1411 -55.8783 -34.5924 -55.8082ZM-39.2759 -56.2523C-39.805 -56.1354 -41.4707 -56.3458 -41.9998 -56.3925C-41.4707 -56.5094 -39.805 -56.299 -39.2759 -56.2523ZM-44.0574 -56.6496C-44.567 -56.5327 -46.311 -56.7197 -46.8205 -56.7665C-46.311 -56.8833 -44.567 -56.6963 -44.0574 -56.6496ZM-48.9369 -57.0235C-49.4268 -56.9067 -51.2297 -57.0937 -51.7392 -57.117C-51.2297 -57.2339 -49.4464 -57.0469 -48.9369 -57.0235ZM-53.8752 -57.3741C-54.3651 -57.2573 -56.1876 -57.4442 -56.6971 -57.4676C-56.2072 -57.5845 -54.3847 -57.3975 -53.8752 -57.3741ZM-58.8723 -57.7013C-59.3426 -57.5845 -61.2238 -57.7481 -61.6941 -57.7714C-61.2042 -57.8883 -59.3622 -57.7247 -58.8723 -57.7013ZM-63.8889 -58.0051C-64.3592 -57.8883 -66.26 -58.0519 -66.7303 -58.0753C-66.26 -58.1921 -64.3788 -58.0285 -63.8889 -58.0051ZM-68.9447 -58.2856C-69.415 -58.1687 -71.3159 -58.3323 -71.7862 -58.3557C-71.3159 -58.4726 -69.415 -58.309 -68.9447 -58.2856ZM-74.0202 -58.5427C-74.4905 -58.4258 -76.4109 -58.5661 -76.8813 -58.5894C-76.4109 -58.7063 -74.4905 -58.5661 -74.0202 -58.5427ZM-79.1152 -58.7998C-79.5855 -58.6829 -81.506 -58.8232 -81.9763 -58.8465C-81.506 -58.9634 -79.5855 -58.8232 -79.1152 -58.7998ZM-84.2103 -59.0569C-84.6806 -58.94 -86.601 -59.0802 -87.0713 -59.1036C-86.601 -59.2205 -84.6806 -59.0802 -84.2103 -59.0569ZM-89.3053 -59.2906C-89.7756 -59.1737 -91.6765 -59.314 -92.1468 -59.3373C-91.6765 -59.4308 -89.7756 -59.314 -89.3053 -59.2906ZM-94.3416 -59.5243C-94.8315 -59.4074 -96.6735 -59.5477 -97.1635 -59.571C-96.6735 -59.6645 -94.8315 -59.5477 -94.3416 -59.5243ZM-99.2994 -59.7814C-99.8089 -59.6645 -101.514 -59.8281 -102.023 -59.8515C-101.514 -59.945 -99.8285 -59.8048 -99.2994 -59.7814ZM-103.807 -60.0852C-104.375 -59.9917 -105.609 -60.1553 -106.237 -60.2254C-105.668 -60.3189 -104.434 -60.1553 -103.807 -60.0852ZM-107.824 -60.4825C-108.412 -60.389 -109.529 -60.5526 -110.175 -60.6228C-109.587 -60.7162 -108.47 -60.5526 -107.824 -60.4825ZM-111.665 -60.9032C-112.272 -60.8097 -113.291 -60.9733 -113.938 -61.0434C-113.33 -61.1369 -112.311 -60.9733 -111.665 -60.9032ZM-115.329 -61.3239C-115.937 -61.2304 -116.858 -61.394 -117.524 -61.4875C-116.917 -61.581 -115.995 -61.4174 -115.329 -61.3239ZM-118.817 -61.768C-119.425 -61.6978 -120.228 -61.8381 -120.934 -61.9316C-120.326 -62.0017 -119.523 -61.8614 -118.817 -61.768ZM-122.129 -62.212C-122.737 -62.1419 -123.481 -62.2821 -124.167 -62.3756C-123.56 -62.4457 -122.835 -62.3055 -122.129 -62.212ZM-125.304 -62.6794C-125.931 -62.6093 -126.577 -62.7496 -127.283 -62.8664C-126.656 -62.9365 -126.029 -62.7963 -125.304 -62.6794ZM-128.302 -63.1469C-128.929 -63.0768 -129.478 -63.217 -130.203 -63.3338C-129.576 -63.404 -129.027 -63.2637 -128.302 -63.1469ZM-131.163 -63.6143C-131.77 -63.5442 -132.241 -63.6611 -133.005 -63.8013C-132.398 -63.8714 -131.927 -63.7312 -131.163 -63.6143ZM-133.887 -64.0817C-134.494 -64.0116 -134.906 -64.1285 -135.651 -64.2687C-135.043 -64.3388 -134.632 -64.222 -133.887 -64.0817ZM-136.474 -64.5725C-137.081 -64.5024 -137.473 -64.6193 -138.178 -64.7595C-137.571 -64.8296 -137.199 -64.7128 -136.474 -64.5725ZM-138.943 -65.0633C-139.55 -64.9932 -139.883 -65.1101 -140.589 -65.2503C-139.981 -65.3204 -139.727 -65.2036 -138.943 -65.0633ZM-142.392 -65.7879C-142.019 -65.7177 -141.647 -65.6243 -141.275 -65.5541C-141.882 -65.484 -142.117 -65.6009 -142.862 -65.7645L-142.392 -65.8112V-65.7879ZM-144.547 -66.2787C-144.195 -66.2085 -143.842 -66.1151 -143.489 -66.0449L-143.959 -65.9982C-144.312 -66.0683 -144.684 -66.1618 -145.018 -66.2319L-144.547 -66.2787ZM-146.605 -66.7695C-146.272 -66.6993 -145.939 -66.6059 -145.586 -66.5357L-146.056 -66.489C-146.389 -66.5591 -146.742 -66.6526 -147.075 -66.7227L-146.605 -66.7695ZM-148.565 -67.2603C-148.251 -67.1901 -147.918 -67.0967 -147.604 -67.0265L-148.075 -66.9798C-148.408 -67.0499 -148.721 -67.1434 -149.035 -67.2135L-148.565 -67.2603ZM-150.426 -67.7511C-150.132 -67.681 -149.819 -67.5875 -149.505 -67.5173L-149.975 -67.4706C-150.289 -67.5407 -150.603 -67.6342 -150.896 -67.7043L-150.426 -67.7511ZM-152.209 -68.2185C-151.916 -68.1484 -151.622 -68.0549 -151.328 -67.9848L-151.798 -67.938C-152.092 -68.0082 -152.386 -68.1016 -152.68 -68.1717L-152.209 -68.2185ZM-153.895 -68.7093C-153.62 -68.6392 -153.346 -68.5457 -153.052 -68.4756L-153.522 -68.4288C-153.797 -68.499 -154.091 -68.5924 -154.365 -68.6626L-153.895 -68.7093ZM-155.521 -69.1767C-155.266 -69.1066 -154.992 -69.0131 -154.718 -68.943L-155.188 -68.8963C-155.462 -68.9664 -155.717 -69.0599 -155.992 -69.13L-155.521 -69.1767ZM-157.069 -69.6675C-156.815 -69.5974 -156.56 -69.5039 -156.305 -69.4338L-156.756 -69.3871C-157.011 -69.4572 -157.265 -69.5507 -157.52 -69.6208L-157.069 -69.6675ZM-158.578 -70.135C-158.343 -70.0648 -158.088 -69.9714 -157.834 -69.9012L-158.284 -69.8545C-158.539 -69.9246 -158.774 -70.0181 -159.029 -70.0882L-158.578 -70.135ZM-160.009 -70.6024C-159.774 -70.5323 -159.538 -70.4388 -159.303 -70.3687L-159.754 -70.3219C-159.989 -70.392 -160.224 -70.4855 -160.46 -70.5556L-160.009 -70.6024ZM-161.4 -71.0698C-161.165 -70.9997 -160.949 -70.9062 -160.714 -70.8361L-161.165 -70.7894C-161.4 -70.8595 -161.635 -70.953 -161.851 -71.0231H-161.4V-71.0698ZM-162.752 -71.5139C-162.537 -71.4438 -162.302 -71.3736 -162.086 -71.2802H-162.537C-162.772 -71.3269 -162.987 -71.397 -163.203 -71.4671H-162.752V-71.5139ZM-164.085 -71.9579L-163.419 -71.7242H-163.869L-164.536 -71.9112H-164.085V-71.9579ZM-165.378 -72.402C-165.163 -72.3319 -164.947 -72.2618 -164.731 -72.1916H-165.182C-165.398 -72.2384 -165.613 -72.3085 -165.829 -72.3786H-165.378V-72.402ZM-166.691 -72.8461C-166.476 -72.7759 -166.26 -72.7058 -166.044 -72.6357H-166.495C-166.711 -72.6824 -166.926 -72.7526 -167.142 -72.8227H-166.691V-72.8461ZM-168.004 -73.2667C-167.789 -73.1966 -167.573 -73.1265 -167.338 -73.0564H-167.789C-168.004 -73.1031 -168.22 -73.1733 -168.435 -73.2434H-168.004V-73.2667ZM-169.337 -73.6874C-169.121 -73.6173 -168.886 -73.5472 -168.651 -73.4771H-169.082C-169.317 -73.5238 -169.533 -73.5939 -169.748 -73.6407H-169.317L-169.337 -73.6874ZM-170.748 -74.1081C-170.512 -74.038 -170.277 -73.9679 -170.042 -73.8978H-170.473C-170.708 -73.9445 -170.963 -73.9913 -171.179 -74.0614H-170.748V-74.1081ZM-172.276 -74.5054C-172.021 -74.4353 -171.767 -74.3886 -171.492 -74.3185H-171.923C-172.178 -74.3418 -172.452 -74.4119 -172.707 -74.4821H-172.276V-74.5054ZM-173.099 -74.6924C-173.667 -74.6457 -173.765 -74.6924 -174.412 -74.8326C-174.079 -74.856 -174.138 -74.9027 -173.099 -74.6924ZM-175.02 -75.043C-175.588 -74.9962 -175.921 -75.0897 -176.568 -75.1598C-176.039 -75.2066 -175.627 -75.1365 -175.02 -75.043ZM-177.567 -75.3234C-178.077 -75.2767 -178.939 -75.3468 -179.507 -75.3935C-178.998 -75.4637 -178.116 -75.3702 -177.567 -75.3234ZM-180.879 -75.5104C-181.33 -75.4403 -182.486 -75.5104 -183.034 -75.5338C-182.564 -75.6039 -181.369 -75.5338 -180.879 -75.5104ZM-184.661 -75.6506C-185.072 -75.5805 -186.523 -75.6506 -186.973 -75.6506C-186.542 -75.7207 -185.092 -75.6506 -184.661 -75.6506ZM-188.796 -75.7207C-189.168 -75.6506 -190.795 -75.6974 -191.226 -75.6974C-190.853 -75.7675 -189.188 -75.7207 -188.796 -75.7207ZM-193.205 -75.7675C-193.558 -75.6974 -195.341 -75.7207 -195.713 -75.7207C-195.361 -75.7909 -193.558 -75.7675 -193.205 -75.7675ZM-197.81 -75.7675C-198.124 -75.6974 -200.044 -75.7207 -200.377 -75.7207C-200.064 -75.7909 -198.143 -75.7675 -197.81 -75.7675ZM-202.513 -75.7207C-202.827 -75.6506 -204.786 -75.6506 -205.1 -75.6506C-204.786 -75.7207 -202.827 -75.7207 -202.513 -75.7207ZM-207.295 -75.6974C-207.608 -75.6273 -209.587 -75.6273 -209.901 -75.6273C-209.568 -75.6974 -207.647 -75.6974 -207.295 -75.6974ZM-212.115 -75.6506C-212.429 -75.5805 -214.408 -75.5805 -214.722 -75.5805C-214.408 -75.6506 -212.429 -75.6506 -212.115 -75.6506ZM-216.897 -75.6039C-217.23 -75.5338 -219.17 -75.5338 -219.503 -75.5338C-219.17 -75.6039 -217.25 -75.5805 -216.897 -75.6039ZM-221.62 -75.5805C-221.972 -75.5104 -223.814 -75.5338 -224.187 -75.5338C-223.814 -75.6039 -222.011 -75.5805 -221.62 -75.5805ZM-226.205 -75.5805C-226.617 -75.5104 -228.282 -75.5338 -228.694 -75.5571C-228.282 -75.6273 -226.617 -75.5805 -226.205 -75.5805ZM-230.555 -75.6039C-231.006 -75.5338 -232.456 -75.6039 -232.927 -75.6039C-232.476 -75.674 -231.045 -75.6039 -230.555 -75.6039ZM-234.553 -75.6974C-235.063 -75.6273 -236.199 -75.6974 -236.728 -75.6974C-236.238 -75.7675 -235.082 -75.6974 -234.553 -75.6974ZM-238.08 -75.8376C-238.629 -75.7675 -239.413 -75.8376 -240.001 -75.8843C-239.472 -75.9311 -238.708 -75.8843 -238.08 -75.8376ZM-240.981 -76.0479C-241.549 -76.0012 -242.019 -76.0479 -242.627 -76.1414C-242.059 -76.1882 -241.647 -76.1181 -240.981 -76.0479ZM-243.293 -76.305C-243.607 -76.2817 -243.548 -76.2349 -244.724 -76.4219C-244.155 -76.4686 -244.018 -76.4219 -243.293 -76.305ZM-251.817 -82.405V-82.2414H-252.249V-82.405H-251.817ZM-252.229 -82.5452C-252.229 -82.5452 -252.229 -82.6621 -252.229 -82.7088H-251.817C-251.817 -82.7088 -251.817 -82.6153 -251.817 -82.5686H-252.229V-82.5452ZM-251.837 -82.0544V-81.8908H-252.268V-82.0544H-251.837ZM-251.876 -81.7272C-251.876 -81.7272 -251.876 -81.6104 -251.876 -81.5636H-252.307C-252.307 -81.5636 -252.307 -81.6571 -252.307 -81.7272H-251.896H-251.876ZM-251.876 -81.3766C-251.876 -81.3766 -251.876 -81.2598 -251.876 -81.1897H-252.307C-252.307 -81.1897 -252.307 -81.2832 -252.307 -81.3533H-251.876V-81.3766ZM-252.307 -81.0027H-251.876C-251.876 -81.0027 -251.876 -80.9092 -251.876 -80.8391H-252.307C-252.307 -80.8391 -252.307 -80.9326 -252.307 -81.0027ZM-252.288 -80.6521H-251.857C-251.857 -80.6521 -251.857 -80.5586 -251.837 -80.4885H-252.268C-252.268 -80.4885 -252.268 -80.582 -252.288 -80.6521ZM-245.174 -76.5855C-245.547 -76.5621 -245.507 -76.5154 -246.409 -76.7023C-245.841 -76.7491 -245.88 -76.7023 -245.174 -76.5855ZM-247.33 -77.0763C-247.134 -77.0295 -246.899 -76.9594 -246.683 -76.9127C-247.154 -76.8893 -247.056 -76.8426 -247.781 -77.0529H-247.33V-77.0763ZM-248.427 -77.4269C-248.271 -77.3568 -248.094 -77.31 -247.918 -77.2633H-248.369C-248.545 -77.2866 -248.721 -77.3568 -248.878 -77.4035H-248.427V-77.4269ZM-248.898 -77.5905H-249.348C-249.486 -77.6138 -249.623 -77.684 -249.76 -77.7307H-249.309C-249.172 -77.7073 -249.035 -77.6372 -248.898 -77.5905ZM-249.662 -77.941H-250.113C-250.23 -77.9644 -250.328 -78.0345 -250.446 -78.1046H-249.995C-249.897 -78.0813 -249.779 -78.0112 -249.662 -77.941ZM-250.289 -78.315H-250.74C-250.74 -78.315 -250.916 -78.4085 -250.994 -78.4786H-250.544C-250.544 -78.4786 -250.367 -78.3851 -250.289 -78.315ZM-250.759 -78.6656H-251.21C-251.21 -78.6656 -251.347 -78.759 -251.406 -78.8292H-250.955C-250.955 -78.8292 -250.818 -78.7357 -250.759 -78.6656ZM-251.132 -79.0395H-251.582C-251.582 -79.0395 -251.68 -79.133 -251.739 -79.2031H-251.308C-251.308 -79.2031 -251.21 -79.1096 -251.151 -79.0395H-251.132ZM-251.406 -79.3901H-251.837C-251.837 -79.3901 -251.915 -79.4836 -251.935 -79.5537H-251.504C-251.504 -79.5537 -251.426 -79.4602 -251.386 -79.3901H-251.406ZM-251.602 -79.764H-252.033C-252.033 -79.764 -252.092 -79.8575 -252.111 -79.9276H-251.68C-251.68 -79.9276 -251.641 -79.8341 -251.602 -79.764ZM-251.739 -80.138H-252.17C-252.17 -80.138 -252.209 -80.2314 -252.209 -80.3016H-251.778C-251.778 -80.3016 -251.739 -80.2081 -251.739 -80.138ZM-251.798 -82.8958H-252.209C-252.209 -82.8958 -252.209 -82.9893 -252.209 -83.036H-251.798C-251.798 -83.036 -251.798 -82.9425 -251.798 -82.8958ZM-251.817 -83.223H-252.229C-252.229 -83.223 -252.229 -83.3165 -252.229 -83.3632H-251.817C-251.817 -83.3632 -251.817 -83.2697 -251.817 -83.223ZM-251.857 -83.5502H-252.268C-252.268 -83.5502 -252.288 -83.6437 -252.307 -83.6904H-251.896C-251.896 -83.6904 -251.876 -83.5969 -251.857 -83.5502ZM-251.935 -83.854H-252.347C-252.347 -83.854 -252.386 -83.9475 -252.405 -83.9943H-252.013C-252.013 -83.9943 -251.974 -83.9008 -251.955 -83.854H-251.935ZM-252.072 -84.1579H-252.464C-252.464 -84.1579 -252.523 -84.228 -252.562 -84.2981H-252.17C-252.17 -84.2981 -252.111 -84.228 -252.072 -84.1579ZM-252.288 -84.4617H-252.68C-252.68 -84.4617 -252.758 -84.5318 -252.817 -84.5785H-252.425C-252.425 -84.5785 -252.327 -84.5084 -252.288 -84.4617ZM-252.601 -84.7655H-252.993C-252.993 -84.7655 -253.111 -84.8356 -253.189 -84.8824H-252.797C-252.797 -84.8824 -252.66 -84.8123 -252.601 -84.7655ZM-253.013 -85.046H-253.405C-253.405 -85.046 -253.581 -85.1161 -253.66 -85.1628H-253.268C-253.268 -85.1628 -253.091 -85.0927 -252.993 -85.046H-253.013ZM-253.953 -85.4433C-253.836 -85.3965 -253.699 -85.3498 -253.601 -85.3031H-253.993C-254.11 -85.3031 -254.228 -85.3732 -254.345 -85.4199H-253.953V-85.4433ZM-254.365 -85.5601H-254.737C-254.894 -85.5601 -255.051 -85.6303 -255.227 -85.6536C-254.796 -85.677 -254.914 -85.7004 -254.365 -85.5601ZM-255.423 -85.7939C-255.894 -85.7705 -255.854 -85.7939 -256.462 -85.8873C-256.109 -85.8873 -256.187 -85.9341 -255.423 -85.7939ZM-256.815 -86.0276C-257.128 -86.0276 -257.03 -85.9808 -257.912 -86.0977C-257.598 -86.0977 -257.677 -86.1444 -256.815 -86.0276ZM-258.284 -86.2145C-258.755 -86.1912 -258.833 -86.2145 -259.421 -86.2847C-259.127 -86.2847 -259.225 -86.3314 -258.284 -86.2145ZM-259.852 -86.4249C-260.303 -86.4015 -260.42 -86.4249 -261.008 -86.495C-260.734 -86.495 -260.812 -86.5418 -259.852 -86.4249ZM-261.478 -86.6119C-261.949 -86.5885 -262.086 -86.6119 -262.674 -86.682C-262.223 -86.7054 -262.027 -86.682 -261.478 -86.6119ZM-263.203 -86.7755C-263.673 -86.7521 -263.85 -86.7755 -264.438 -86.8456C-263.967 -86.869 -263.732 -86.8456 -263.203 -86.7755ZM-265.006 -86.9624C-265.476 -86.9391 -265.711 -86.9624 -266.28 -87.0092C-265.809 -87.0326 -265.535 -87.0092 -265.006 -86.9624ZM-266.887 -87.126C-267.338 -87.1027 -267.651 -87.126 -268.22 -87.1728C-267.769 -87.1962 -267.455 -87.1728 -266.887 -87.126ZM-268.886 -87.2663C-269.337 -87.2429 -269.689 -87.2663 -270.258 -87.313C-269.787 -87.3364 -269.415 -87.313 -268.886 -87.2663ZM-270.983 -87.4299C-271.433 -87.4065 -271.865 -87.4299 -272.394 -87.4766C-271.943 -87.5234 -271.492 -87.4766 -270.983 -87.4299ZM-273.177 -87.5467C-273.628 -87.5234 -274.118 -87.5467 -274.647 -87.5935C-274.196 -87.6402 -273.687 -87.5935 -273.177 -87.5467ZM-275.49 -87.687C-275.941 -87.6402 -276.489 -87.687 -276.999 -87.7103C-276.548 -87.7571 -275.999 -87.7103 -275.49 -87.687ZM-277.92 -87.8038C-278.351 -87.7571 -278.978 -87.8038 -279.487 -87.8272C-279.056 -87.8739 -278.429 -87.8272 -277.92 -87.8038ZM-280.448 -87.8973C-280.898 -87.8506 -281.584 -87.8973 -282.055 -87.8973C-281.604 -87.944 -280.918 -87.8973 -280.448 -87.8973ZM-283.093 -87.9908C-283.524 -87.944 -284.289 -87.9908 -284.759 -87.9908C-284.328 -88.0375 -283.563 -87.9908 -283.093 -87.9908ZM-285.837 -88.0843C-286.268 -88.0375 -287.091 -88.0843 -287.542 -88.0843C-287.11 -88.131 -286.287 -88.0843 -285.837 -88.0843ZM-288.678 -88.1544C-289.09 -88.1076 -289.971 -88.1544 -290.422 -88.1544C-290.011 -88.2011 -289.129 -88.1544 -288.678 -88.1544ZM-291.637 -88.2011C-292.049 -88.1544 -292.989 -88.2011 -293.42 -88.2011C-293.009 -88.2479 -292.068 -88.2011 -291.637 -88.2011ZM-294.655 -88.2712C-295.047 -88.2245 -296.046 -88.2712 -296.477 -88.2712C-296.066 -88.318 -295.086 -88.2712 -294.655 -88.2712ZM-297.771 -88.318C-298.182 -88.2712 -299.221 -88.318 -299.632 -88.318C-299.221 -88.3647 -298.182 -88.318 -297.771 -88.318ZM-300.985 -88.3414C-301.377 -88.2946 -302.474 -88.3414 -302.885 -88.3414C-302.494 -88.3881 -301.396 -88.3414 -300.985 -88.3414ZM-304.257 -88.3647C-304.649 -88.318 -305.786 -88.3647 -306.178 -88.3647C-305.786 -88.4115 -304.649 -88.3647 -304.257 -88.3647ZM-307.589 -88.3881C-307.98 -88.3414 -309.137 -88.3881 -309.548 -88.3881C-309.156 -88.4348 -308 -88.3881 -307.589 -88.3881ZM-310.979 -88.4115C-311.371 -88.3647 -312.566 -88.4115 -312.958 -88.4115C-312.566 -88.4582 -311.371 -88.4115 -310.979 -88.4115ZM-314.408 -88.4348C-314.78 -88.3881 -316.015 -88.4115 -316.407 -88.4348C-316.015 -88.4816 -314.8 -88.4582 -314.408 -88.4348ZM-317.896 -88.4348C-318.269 -88.3881 -319.523 -88.4115 -319.915 -88.4115C-319.542 -88.4582 -318.288 -88.4348 -317.896 -88.4348ZM-321.424 -88.4348C-321.796 -88.3881 -323.07 -88.4115 -323.442 -88.4115C-323.07 -88.4582 -321.796 -88.4348 -321.424 -88.4348ZM-324.97 -88.4348C-325.343 -88.3881 -326.636 -88.4115 -327.009 -88.4115C-326.636 -88.4582 -325.343 -88.4348 -324.97 -88.4348ZM-328.557 -88.4348C-328.929 -88.3881 -330.222 -88.4115 -330.614 -88.4115C-330.242 -88.4582 -328.949 -88.4348 -328.557 -88.4348ZM-332.162 -88.4348C-332.535 -88.3881 -333.848 -88.4115 -334.22 -88.4115C-333.848 -88.4582 -332.535 -88.4348 -332.162 -88.4348ZM-335.768 -88.4115C-336.14 -88.3647 -337.453 -88.3881 -337.845 -88.3881C-337.473 -88.4348 -336.16 -88.4115 -335.768 -88.4115ZM-339.413 -88.4115C-339.785 -88.3647 -341.118 -88.3881 -341.49 -88.3881C-341.098 -88.4348 -339.805 -88.4115 -339.413 -88.4115ZM-343.058 -88.3881C-343.43 -88.3414 -344.763 -88.3647 -345.135 -88.3647C-344.743 -88.4115 -343.43 -88.3881 -343.058 -88.3881ZM-346.722 -88.3881C-347.114 -88.3414 -348.388 -88.3647 -348.819 -88.3647C-348.427 -88.4115 -347.154 -88.3881 -346.722 -88.3881ZM-350.367 -88.3647C-350.759 -88.318 -352.033 -88.3414 -352.464 -88.3414C-352.072 -88.3881 -350.798 -88.3647 -350.367 -88.3647ZM-354.032 -88.3647C-354.424 -88.318 -355.697 -88.3414 -356.129 -88.3414C-355.737 -88.3881 -354.463 -88.3647 -354.032 -88.3647ZM-381.663 -88.2712C-381.231 -88.318 -379.997 -88.2946 -379.566 -88.2946C-379.977 -88.2479 -381.231 -88.2712 -381.663 -88.2712ZM-378.057 -88.2712C-377.645 -88.318 -376.391 -88.2946 -375.96 -88.2946C-376.372 -88.2479 -377.626 -88.2712 -378.057 -88.2712ZM-374.412 -88.2946C-374 -88.3414 -372.727 -88.318 -372.315 -88.318C-372.727 -88.2712 -374 -88.2946 -374.412 -88.2946ZM-370.767 -88.2946C-370.356 -88.3414 -369.082 -88.318 -368.67 -88.318C-369.082 -88.2712 -370.356 -88.2946 -370.767 -88.2946ZM-367.122 -88.2946C-366.711 -88.3414 -365.437 -88.318 -365.025 -88.318C-365.437 -88.2712 -366.711 -88.2946 -367.122 -88.2946ZM-363.458 -88.318C-363.046 -88.3647 -361.753 -88.3414 -361.361 -88.3414C-361.753 -88.2946 -363.066 -88.318 -363.458 -88.318ZM-359.813 -88.318C-359.421 -88.3647 -358.147 -88.3414 -357.716 -88.3414C-358.108 -88.2946 -359.382 -88.318 -359.813 -88.318Z" fill="black"/>
<path d="M181.065 8.86054C179.889 8.39311 178.635 7.92568 177.342 7.45825L176.636 7.59848C177.91 8.04254 179.144 8.50997 180.301 8.9774L181.065 8.83717V8.86054Z" fill="#FFC054"/>
<path d="M173.403 6.14965C172.09 5.72896 170.698 5.33164 169.268 4.93433L168.66 5.09793C170.071 5.49525 171.443 5.89256 172.736 6.31325L173.403 6.14965Z" fill="#FFC054"/>
<path d="M183.142 72.6182C183.71 71.5665 184.279 70.5147 184.867 69.463L183.514 69.2527C182.927 70.3044 182.339 71.3561 181.77 72.4078L183.142 72.6182Z" fill="#FFC054"/>
<path d="M156.08 1.73229C154.59 1.42846 153.042 1.12463 151.494 0.820801L151.024 1.00778C152.572 1.31161 154.12 1.61543 155.59 1.91926L156.08 1.73229Z" fill="#FFC054"/>
<path d="M146.83 -0.0203099C145.302 -0.277397 143.714 -0.557855 142.127 -0.814941L141.716 -0.604598C143.303 -0.347511 144.87 -0.0904241 146.399 0.190034L146.83 0.00306654V-0.0203099Z" fill="#FFC054"/>
<path d="M164.996 3.78951C163.565 3.43894 162.096 3.06499 160.587 2.73779L160.058 2.92477C161.547 3.27534 163.017 3.62591 164.428 3.97648L164.996 3.78951Z" fill="#FFC054"/>
<path d="M187.688 11.9226C186.689 11.385 185.631 10.8709 184.514 10.3567L183.71 10.4735C184.808 10.9877 185.846 11.5019 186.826 12.0394L187.669 11.9459L187.688 11.9226Z" fill="#FFC054"/>
<path d="M193.097 55.0663C193.587 54.1782 194.077 53.2901 194.547 52.4253L193.313 52.2617C192.842 53.1265 192.352 54.0146 191.843 54.9027L193.097 55.0897V55.0663Z" fill="#FFC054"/>
<path d="M185.278 66.1911L186.611 66.4014C187.179 65.3965 187.747 64.4148 188.316 63.4332L187.003 63.2229C186.434 64.2045 185.866 65.1861 185.278 66.1677V66.1911Z" fill="#FFC054"/>
<path d="M197.114 18.9569C196.546 18.3259 195.919 17.6949 195.272 17.1106L194.312 17.1573C194.959 17.7416 195.586 18.3727 196.134 19.0037H197.134L197.114 18.9569Z" fill="#FFC054"/>
<path d="M198.799 22.8135H199.858C199.525 22.1825 199.113 21.5281 198.662 20.8503H197.643C198.074 21.458 198.466 22.1124 198.819 22.8135H198.799Z" fill="#FFC054"/>
<path d="M191.549 57.7773L190.275 57.5903C189.746 58.5018 189.197 59.4367 188.649 60.3715L189.942 60.5585C190.491 59.6237 191.02 58.6888 191.549 57.7773Z" fill="#FFC054"/>
<path d="M193.077 15.3113C192.294 14.727 191.451 14.1427 190.549 13.5818L189.668 13.6519C190.549 14.2128 191.392 14.7737 192.156 15.358L193.097 15.2879L193.077 15.3113Z" fill="#FFC054"/>
<path d="M200.269 26.8566L201.367 26.9034C201.21 26.2022 200.994 25.5245 200.759 24.8467H199.681C199.917 25.4777 200.132 26.1555 200.269 26.8566Z" fill="#FFC054"/>
<path d="M540.618 205.018L538.697 203.475C533.955 203.312 529.252 203.148 524.608 202.985L526.43 204.527C531.114 204.714 535.836 204.878 540.618 205.018Z" fill="#FFC054"/>
<path d="M397.31 195.856L396.37 194.407C391.529 193.916 386.748 193.402 382.123 192.865L382.966 194.29C387.61 194.828 392.45 195.342 397.31 195.833V195.856Z" fill="#FFC054"/>
<path d="M368.66 192.584L367.935 191.182C363.154 190.598 358.411 189.967 353.806 189.336L354.414 190.715C359.058 191.346 363.84 191.977 368.66 192.584Z" fill="#FFC054"/>
<path d="M426.077 198.544L424.921 197.071C420.081 196.651 415.28 196.23 410.635 195.809L411.694 197.282C416.377 197.726 421.217 198.146 426.097 198.567L426.077 198.544Z" fill="#FFC054"/>
<path d="M454.864 200.764L453.512 199.269C448.711 198.941 443.91 198.591 439.227 198.24L440.481 199.736C445.184 200.087 450.024 200.461 454.864 200.788V200.764Z" fill="#FFC054"/>
<path d="M285.121 177.252C280.653 176.247 276.244 175.196 272.031 174.121L271.815 175.289C276.068 176.364 280.536 177.439 285.062 178.468L285.121 177.252Z" fill="#FFC054"/>
<path d="M340.265 188.681L339.775 187.326C335.053 186.624 330.369 185.877 325.862 185.129L326.215 186.461C330.761 187.209 335.503 187.98 340.265 188.681Z" fill="#FFC054"/>
<path d="M312.301 184.03L312.086 182.721C307.481 181.88 302.895 180.992 298.486 180.104L298.564 181.366C303.013 182.277 307.637 183.165 312.301 184.03Z" fill="#FFC054"/>
<path d="M568.817 205.812L566.74 204.247C562.037 204.13 557.373 204.013 552.748 203.896L554.747 205.462C559.391 205.579 564.075 205.719 568.817 205.812Z" fill="#FFC054"/>
<path d="M259.293 170.709C255.041 169.517 250.906 168.255 247.006 167.016L246.458 168.068C250.416 169.353 254.61 170.615 258.921 171.831L259.293 170.709Z" fill="#FFC054"/>
<path d="M483.593 202.541L482.044 201.022C477.224 200.764 472.481 200.484 467.798 200.18L469.248 201.699C473.971 202.003 478.752 202.284 483.593 202.541Z" fill="#FFC054"/>
<path d="M512.184 203.943L510.44 202.4C505.658 202.19 500.935 201.98 496.252 201.746L497.898 203.288C502.601 203.522 507.363 203.732 512.184 203.943Z" fill="#FFC054"/>
<path d="M200.23 35.4344L201.386 35.5279C201.523 34.78 201.641 34.0321 201.719 33.3076L200.583 33.2141C200.504 33.9386 200.387 34.6631 200.25 35.411L200.23 35.4344Z" fill="#FFC054"/>
<path d="M188.237 138.83C190.334 140.676 192.686 142.546 195.194 144.345L196.605 143.808C194.136 142.055 191.823 140.232 189.766 138.432L188.237 138.853V138.83Z" fill="#FFC054"/>
<path d="M175.264 86.2435L176.734 86.4539C177.185 85.262 177.675 84.0233 178.204 82.7846L176.773 82.5742C176.244 83.8129 175.735 85.0516 175.284 86.2435H175.264Z" fill="#FFC054"/>
<path d="M194.684 49.6906L195.919 49.8542C196.35 49.0128 196.781 48.1715 197.173 47.3301L195.958 47.1665C195.546 48.0079 195.135 48.8259 194.684 49.6906Z" fill="#FFC054"/>
<path d="M179.928 127.541L178.263 127.728C179.517 129.598 180.967 131.444 182.574 133.267L184.181 132.987C182.593 131.211 181.163 129.388 179.909 127.565L179.928 127.541Z" fill="#FFC054"/>
<path d="M200.7 31.0636L201.817 31.1337C201.817 30.4092 201.778 29.6847 201.719 29.0069L200.622 28.9368C200.7 29.6145 200.72 30.3391 200.72 31.0636H200.7Z" fill="#FFC054"/>
<path d="M197.095 44.7129L198.29 44.8532C198.662 44.0352 198.996 43.2172 199.289 42.4459L198.094 42.3057C197.781 43.0769 197.447 43.8716 197.075 44.7129H197.095Z" fill="#FFC054"/>
<path d="M198.976 39.9681L200.152 40.0849C200.406 39.2903 200.642 38.519 200.838 37.7712L199.681 37.6543C199.485 38.4022 199.25 39.1735 198.976 39.9447V39.9681Z" fill="#FFC054"/>
<path d="M235.249 162.996C231.388 161.593 227.665 160.121 224.177 158.648L223.275 159.537C226.822 161.032 230.604 162.528 234.524 163.977L235.249 162.996Z" fill="#FFC054"/>
<path d="M175.421 90.2639L173.932 90.0769C173.501 91.4325 173.109 92.7646 172.795 94.0734L174.324 94.2604C174.637 92.9516 175.01 91.6194 175.421 90.2873V90.2639Z" fill="#FFC054"/>
<path d="M181.437 75.8903L180.046 75.6799C179.458 76.8485 178.89 77.9703 178.361 79.0688L179.771 79.2791C180.281 78.1807 180.849 77.0588 181.437 75.8903Z" fill="#FFC054"/>
<path d="M213.948 153.974C210.675 152.362 207.559 150.679 204.698 149.02L203.444 149.674C206.364 151.38 209.519 153.11 212.87 154.746L213.948 153.974Z" fill="#FFC054"/>
<path d="M173.481 98.4202L171.913 98.2566C171.678 99.729 171.502 101.201 171.404 102.627L172.991 102.767C173.07 101.342 173.246 99.8692 173.481 98.4202Z" fill="#FFC054"/>
<path d="M173.07 117.071C173.618 118.824 174.324 120.6 175.147 122.306L176.812 122.213C175.989 120.53 175.284 118.777 174.716 117.048H173.05L173.07 117.071Z" fill="#FFC054"/>
<path d="M172.972 107.325L171.345 107.231C171.404 108.844 171.58 110.457 171.855 112.046L173.501 112.093C173.226 110.527 173.05 108.938 172.972 107.325Z" fill="#FFC054"/>
</g>
<defs>
<clipPath id="clip0_28_195">
<rect width="560" height="239" fill="white"/>
</clipPath>
</defs>
</svg>
