<svg width="504" height="37" viewBox="0 0 504 37" fill="none" xmlns="http://www.w3.org/2000/svg">
<path d="M4.66406 31L16.3828 5.41406H0.816406V2.44531H19.8594V4.94531L8.21875 31H4.66406ZM32.8867 13.5391C34.8268 13.5391 36.513 13.8711 37.9453 14.5352C39.3776 15.1862 40.4844 16.1367 41.2656 17.3867C42.0599 18.6367 42.457 20.1536 42.457 21.9375C42.457 23.8906 42.0339 25.5768 41.1875 26.9961C40.3411 28.4023 39.1237 29.4896 37.5352 30.2578C35.9466 31.013 34.0456 31.3906 31.832 31.3906C30.3477 31.3906 28.9674 31.2604 27.6914 31C26.4154 30.7396 25.3411 30.349 24.4688 29.8281V26.7422C25.4193 27.3151 26.5716 27.7708 27.9258 28.1094C29.2799 28.4479 30.5951 28.6172 31.8711 28.6172C33.3164 28.6172 34.5794 28.3893 35.6602 27.9336C36.7539 27.4648 37.6003 26.7617 38.1992 25.8242C38.8112 24.8737 39.1172 23.6823 39.1172 22.25C39.1172 20.349 38.5312 18.8841 37.3594 17.8555C36.2005 16.8138 34.3646 16.293 31.8516 16.293C31.0443 16.293 30.1589 16.3581 29.1953 16.4883C28.2318 16.6185 27.4375 16.7617 26.8125 16.918L25.1719 15.8438L26.2656 2.44531H40.4648V5.41406H29.0391L28.3164 14.0273C28.8112 13.9232 29.4492 13.819 30.2305 13.7148C31.0117 13.5977 31.8971 13.5391 32.8867 13.5391ZM65.6211 16.6836C65.6211 19.0013 65.4453 21.0716 65.0938 22.8945C64.7422 24.7174 64.1888 26.2604 63.4336 27.5234C62.6784 28.7865 61.7018 29.75 60.5039 30.4141C59.306 31.0651 57.8672 31.3906 56.1875 31.3906C54.0651 31.3906 52.3073 30.8112 50.9141 29.6523C49.5339 28.4935 48.4987 26.8203 47.8086 24.6328C47.1315 22.4323 46.793 19.7826 46.793 16.6836C46.793 13.6367 47.099 11.0195 47.7109 8.83203C48.3359 6.63151 49.3385 4.94531 50.7188 3.77344C52.099 2.58854 53.9219 1.99609 56.1875 1.99609C58.3359 1.99609 60.1068 2.58203 61.5 3.75391C62.8932 4.91276 63.9284 6.59245 64.6055 8.79297C65.2826 10.9805 65.6211 13.6107 65.6211 16.6836ZM50.0547 16.6836C50.0547 19.3398 50.2565 21.5534 50.6602 23.3242C51.0638 25.0951 51.7148 26.4232 52.6133 27.3086C53.5247 28.181 54.7161 28.6172 56.1875 28.6172C57.6589 28.6172 58.8438 28.181 59.7422 27.3086C60.6536 26.4362 61.3112 25.1146 61.7148 23.3438C62.1315 21.5729 62.3398 19.3529 62.3398 16.6836C62.3398 14.0664 62.138 11.8789 61.7344 10.1211C61.3307 8.35026 60.6797 7.02214 59.7812 6.13672C58.8828 5.23828 57.6849 4.78906 56.1875 4.78906C54.6901 4.78906 53.4922 5.23828 52.5938 6.13672C51.6953 7.02214 51.0443 8.35026 50.6406 10.1211C50.25 11.8789 50.0547 14.0664 50.0547 16.6836ZM88.5117 16.6836C88.5117 19.0013 88.3359 21.0716 87.9844 22.8945C87.6328 24.7174 87.0794 26.2604 86.3242 27.5234C85.569 28.7865 84.5924 29.75 83.3945 30.4141C82.1966 31.0651 80.7578 31.3906 79.0781 31.3906C76.9557 31.3906 75.1979 30.8112 73.8047 29.6523C72.4245 28.4935 71.3893 26.8203 70.6992 24.6328C70.0221 22.4323 69.6836 19.7826 69.6836 16.6836C69.6836 13.6367 69.9896 11.0195 70.6016 8.83203C71.2266 6.63151 72.2292 4.94531 73.6094 3.77344C74.9896 2.58854 76.8125 1.99609 79.0781 1.99609C81.2266 1.99609 82.9974 2.58203 84.3906 3.75391C85.7839 4.91276 86.819 6.59245 87.4961 8.79297C88.1732 10.9805 88.5117 13.6107 88.5117 16.6836ZM72.9453 16.6836C72.9453 19.3398 73.1471 21.5534 73.5508 23.3242C73.9544 25.0951 74.6055 26.4232 75.5039 27.3086C76.4154 28.181 77.6068 28.6172 79.0781 28.6172C80.5495 28.6172 81.7344 28.181 82.6328 27.3086C83.5443 26.4362 84.2018 25.1146 84.6055 23.3438C85.0221 21.5729 85.2305 19.3529 85.2305 16.6836C85.2305 14.0664 85.0286 11.8789 84.625 10.1211C84.2214 8.35026 83.5703 7.02214 82.6719 6.13672C81.7734 5.23828 80.5755 4.78906 79.0781 4.78906C77.5807 4.78906 76.3828 5.23828 75.4844 6.13672C74.5859 7.02214 73.9349 8.35026 73.5312 10.1211C73.1406 11.8789 72.9453 14.0664 72.9453 16.6836ZM103.883 17.0547C103.883 16.1432 104.104 15.4987 104.547 15.1211C104.99 14.7305 105.53 14.5352 106.168 14.5352C106.832 14.5352 107.392 14.7305 107.848 15.1211C108.303 15.4987 108.531 16.1432 108.531 17.0547C108.531 17.9531 108.303 18.6107 107.848 19.0273C107.392 19.431 106.832 19.6328 106.168 19.6328C105.53 19.6328 104.99 19.431 104.547 19.0273C104.104 18.6107 103.883 17.9531 103.883 17.0547ZM135.895 31H132.73V10.7656C132.73 9.9974 132.73 9.33984 132.73 8.79297C132.743 8.23307 132.757 7.72526 132.77 7.26953C132.796 6.80078 132.828 6.32552 132.867 5.84375C132.464 6.26042 132.086 6.61849 131.734 6.91797C131.383 7.20443 130.947 7.5625 130.426 7.99219L127.164 10.6094L125.465 8.40234L133.199 2.44531H135.895V31ZM151.871 26.3516L152.125 26.8008C151.891 27.7513 151.591 28.7669 151.227 29.8477C150.875 30.9284 150.484 32.0091 150.055 33.0898C149.638 34.1836 149.215 35.2057 148.785 36.1562H146.363C146.637 35.1146 146.904 34.0143 147.164 32.8555C147.424 31.7096 147.659 30.5768 147.867 29.457C148.089 28.3242 148.264 27.2891 148.395 26.3516H151.871ZM175.777 31H157.066V28.2852L164.703 20.5312C166.122 19.099 167.314 17.8229 168.277 16.7031C169.254 15.5833 169.996 14.4831 170.504 13.4023C171.012 12.3086 171.266 11.1107 171.266 9.80859C171.266 8.19401 170.784 6.96354 169.82 6.11719C168.87 5.25781 167.613 4.82812 166.051 4.82812C164.684 4.82812 163.473 5.0625 162.418 5.53125C161.363 6 160.283 6.66406 159.176 7.52344L157.438 5.33594C158.193 4.69792 159.013 4.13151 159.898 3.63672C160.797 3.14193 161.754 2.7513 162.77 2.46484C163.798 2.17839 164.892 2.03516 166.051 2.03516C167.809 2.03516 169.326 2.34115 170.602 2.95312C171.878 3.5651 172.861 4.4375 173.551 5.57031C174.254 6.70312 174.605 8.05078 174.605 9.61328C174.605 11.1237 174.306 12.5299 173.707 13.832C173.108 15.1211 172.268 16.4036 171.188 17.6797C170.107 18.9427 168.844 20.2839 167.398 21.7031L161.188 27.8945V28.0312H175.777V31ZM190.621 14.2422V11.6055H208.941V14.2422H190.621ZM190.621 22.2305V19.5938H208.941V22.2305H190.621ZM242.379 14.6133C242.379 16.3451 242.255 18.0312 242.008 19.6719C241.773 21.3125 241.363 22.8424 240.777 24.2617C240.204 25.681 239.423 26.9245 238.434 27.9922C237.444 29.0599 236.201 29.8997 234.703 30.5117C233.219 31.1107 231.441 31.4102 229.371 31.4102C228.811 31.4102 228.173 31.3711 227.457 31.293C226.741 31.2279 226.155 31.1302 225.699 31V28.1875C226.181 28.3568 226.747 28.4935 227.398 28.5977C228.049 28.6888 228.688 28.7344 229.312 28.7344C231.747 28.7344 233.661 28.2135 235.055 27.1719C236.448 26.1172 237.451 24.6914 238.062 22.8945C238.674 21.0846 239.02 19.0534 239.098 16.8008H238.863C238.473 17.4258 237.958 18.0052 237.32 18.5391C236.695 19.0599 235.934 19.4831 235.035 19.8086C234.137 20.1211 233.089 20.2773 231.891 20.2773C230.237 20.2773 228.792 19.9388 227.555 19.2617C226.331 18.5846 225.374 17.6016 224.684 16.3125C224.007 15.0234 223.668 13.4674 223.668 11.6445C223.668 9.67839 224.039 7.97917 224.781 6.54688C225.536 5.10156 226.591 3.98828 227.945 3.20703C229.299 2.42578 230.895 2.03516 232.73 2.03516C234.137 2.03516 235.426 2.30208 236.598 2.83594C237.77 3.36979 238.785 4.17057 239.645 5.23828C240.517 6.29297 241.188 7.60156 241.656 9.16406C242.138 10.7266 242.379 12.543 242.379 14.6133ZM232.73 4.78906C230.999 4.78906 229.592 5.35547 228.512 6.48828C227.444 7.62109 226.91 9.32682 226.91 11.6055C226.91 13.4935 227.372 14.9844 228.297 16.0781C229.221 17.1719 230.647 17.7188 232.574 17.7188C233.902 17.7188 235.048 17.4518 236.012 16.918C236.988 16.3841 237.737 15.707 238.258 14.8867C238.792 14.0664 239.059 13.2266 239.059 12.3672C239.059 11.5078 238.928 10.6354 238.668 9.75C238.421 8.86458 238.036 8.05078 237.516 7.30859C236.995 6.55339 236.337 5.94792 235.543 5.49219C234.749 5.02344 233.811 4.78906 232.73 4.78906ZM265.387 16.6836C265.387 19.0013 265.211 21.0716 264.859 22.8945C264.508 24.7174 263.954 26.2604 263.199 27.5234C262.444 28.7865 261.467 29.75 260.27 30.4141C259.072 31.0651 257.633 31.3906 255.953 31.3906C253.831 31.3906 252.073 30.8112 250.68 29.6523C249.299 28.4935 248.264 26.8203 247.574 24.6328C246.897 22.4323 246.559 19.7826 246.559 16.6836C246.559 13.6367 246.865 11.0195 247.477 8.83203C248.102 6.63151 249.104 4.94531 250.484 3.77344C251.865 2.58854 253.688 1.99609 255.953 1.99609C258.102 1.99609 259.872 2.58203 261.266 3.75391C262.659 4.91276 263.694 6.59245 264.371 8.79297C265.048 10.9805 265.387 13.6107 265.387 16.6836ZM249.82 16.6836C249.82 19.3398 250.022 21.5534 250.426 23.3242C250.829 25.0951 251.48 26.4232 252.379 27.3086C253.29 28.181 254.482 28.6172 255.953 28.6172C257.424 28.6172 258.609 28.181 259.508 27.3086C260.419 26.4362 261.077 25.1146 261.48 23.3438C261.897 21.5729 262.105 19.3529 262.105 16.6836C262.105 14.0664 261.904 11.8789 261.5 10.1211C261.096 8.35026 260.445 7.02214 259.547 6.13672C258.648 5.23828 257.451 4.78906 255.953 4.78906C254.456 4.78906 253.258 5.23828 252.359 6.13672C251.461 7.02214 250.81 8.35026 250.406 10.1211C250.016 11.8789 249.82 14.0664 249.82 16.6836ZM288.277 16.6836C288.277 19.0013 288.102 21.0716 287.75 22.8945C287.398 24.7174 286.845 26.2604 286.09 27.5234C285.335 28.7865 284.358 29.75 283.16 30.4141C281.962 31.0651 280.523 31.3906 278.844 31.3906C276.721 31.3906 274.964 30.8112 273.57 29.6523C272.19 28.4935 271.155 26.8203 270.465 24.6328C269.788 22.4323 269.449 19.7826 269.449 16.6836C269.449 13.6367 269.755 11.0195 270.367 8.83203C270.992 6.63151 271.995 4.94531 273.375 3.77344C274.755 2.58854 276.578 1.99609 278.844 1.99609C280.992 1.99609 282.763 2.58203 284.156 3.75391C285.549 4.91276 286.585 6.59245 287.262 8.79297C287.939 10.9805 288.277 13.6107 288.277 16.6836ZM272.711 16.6836C272.711 19.3398 272.913 21.5534 273.316 23.3242C273.72 25.0951 274.371 26.4232 275.27 27.3086C276.181 28.181 277.372 28.6172 278.844 28.6172C280.315 28.6172 281.5 28.181 282.398 27.3086C283.31 26.4362 283.967 25.1146 284.371 23.3438C284.788 21.5729 284.996 19.3529 284.996 16.6836C284.996 14.0664 284.794 11.8789 284.391 10.1211C283.987 8.35026 283.336 7.02214 282.438 6.13672C281.539 5.23828 280.341 4.78906 278.844 4.78906C277.346 4.78906 276.148 5.23828 275.25 6.13672C274.352 7.02214 273.701 8.35026 273.297 10.1211C272.906 11.8789 272.711 14.0664 272.711 16.6836ZM311.168 16.6836C311.168 19.0013 310.992 21.0716 310.641 22.8945C310.289 24.7174 309.736 26.2604 308.98 27.5234C308.225 28.7865 307.249 29.75 306.051 30.4141C304.853 31.0651 303.414 31.3906 301.734 31.3906C299.612 31.3906 297.854 30.8112 296.461 29.6523C295.081 28.4935 294.046 26.8203 293.355 24.6328C292.678 22.4323 292.34 19.7826 292.34 16.6836C292.34 13.6367 292.646 11.0195 293.258 8.83203C293.883 6.63151 294.885 4.94531 296.266 3.77344C297.646 2.58854 299.469 1.99609 301.734 1.99609C303.883 1.99609 305.654 2.58203 307.047 3.75391C308.44 4.91276 309.475 6.59245 310.152 8.79297C310.829 10.9805 311.168 13.6107 311.168 16.6836ZM295.602 16.6836C295.602 19.3398 295.803 21.5534 296.207 23.3242C296.611 25.0951 297.262 26.4232 298.16 27.3086C299.072 28.181 300.263 28.6172 301.734 28.6172C303.206 28.6172 304.391 28.181 305.289 27.3086C306.201 26.4362 306.858 25.1146 307.262 23.3438C307.678 21.5729 307.887 19.3529 307.887 16.6836C307.887 14.0664 307.685 11.8789 307.281 10.1211C306.878 8.35026 306.227 7.02214 305.328 6.13672C304.43 5.23828 303.232 4.78906 301.734 4.78906C300.237 4.78906 299.039 5.23828 298.141 6.13672C297.242 7.02214 296.591 8.35026 296.188 10.1211C295.797 11.8789 295.602 14.0664 295.602 16.6836ZM350.27 9.20312C352.626 9.20312 354.404 9.82161 355.602 11.0586C356.799 12.2826 357.398 14.2552 357.398 16.9766V31H354.195V17.1328C354.195 15.401 353.818 14.1055 353.062 13.2461C352.32 12.3737 351.214 11.9375 349.742 11.9375C347.672 11.9375 346.168 12.5365 345.23 13.7344C344.293 14.9323 343.824 16.6966 343.824 19.0273V31H340.602V17.1328C340.602 15.974 340.432 15.0104 340.094 14.2422C339.768 13.474 339.273 12.901 338.609 12.5234C337.958 12.1328 337.132 11.9375 336.129 11.9375C334.71 11.9375 333.57 12.2305 332.711 12.8164C331.852 13.4023 331.227 14.2747 330.836 15.4336C330.458 16.5794 330.27 17.9922 330.27 19.6719V31H327.027V9.59375H329.645L330.133 12.6211H330.309C330.738 11.8789 331.279 11.2539 331.93 10.7461C332.581 10.2383 333.31 9.85417 334.117 9.59375C334.924 9.33333 335.784 9.20312 336.695 9.20312C338.323 9.20312 339.684 9.50911 340.777 10.1211C341.884 10.7201 342.685 11.638 343.18 12.875H343.355C344.059 11.638 345.022 10.7201 346.246 10.1211C347.47 9.50911 348.811 9.20312 350.27 9.20312ZM373.277 14.2422V11.6055H391.598V14.2422H373.277ZM373.277 22.2305V19.5938H391.598V22.2305H373.277ZM425.035 14.6133C425.035 16.3451 424.911 18.0312 424.664 19.6719C424.43 21.3125 424.02 22.8424 423.434 24.2617C422.861 25.681 422.079 26.9245 421.09 27.9922C420.1 29.0599 418.857 29.8997 417.359 30.5117C415.875 31.1107 414.098 31.4102 412.027 31.4102C411.467 31.4102 410.829 31.3711 410.113 31.293C409.397 31.2279 408.811 31.1302 408.355 31V28.1875C408.837 28.3568 409.404 28.4935 410.055 28.5977C410.706 28.6888 411.344 28.7344 411.969 28.7344C414.404 28.7344 416.318 28.2135 417.711 27.1719C419.104 26.1172 420.107 24.6914 420.719 22.8945C421.331 21.0846 421.676 19.0534 421.754 16.8008H421.52C421.129 17.4258 420.615 18.0052 419.977 18.5391C419.352 19.0599 418.59 19.4831 417.691 19.8086C416.793 20.1211 415.745 20.2773 414.547 20.2773C412.893 20.2773 411.448 19.9388 410.211 19.2617C408.987 18.5846 408.03 17.6016 407.34 16.3125C406.663 15.0234 406.324 13.4674 406.324 11.6445C406.324 9.67839 406.695 7.97917 407.438 6.54688C408.193 5.10156 409.247 3.98828 410.602 3.20703C411.956 2.42578 413.551 2.03516 415.387 2.03516C416.793 2.03516 418.082 2.30208 419.254 2.83594C420.426 3.36979 421.441 4.17057 422.301 5.23828C423.173 6.29297 423.844 7.60156 424.312 9.16406C424.794 10.7266 425.035 12.543 425.035 14.6133ZM415.387 4.78906C413.655 4.78906 412.249 5.35547 411.168 6.48828C410.1 7.62109 409.566 9.32682 409.566 11.6055C409.566 13.4935 410.029 14.9844 410.953 16.0781C411.878 17.1719 413.303 17.7188 415.23 17.7188C416.559 17.7188 417.704 17.4518 418.668 16.918C419.645 16.3841 420.393 15.707 420.914 14.8867C421.448 14.0664 421.715 13.2266 421.715 12.3672C421.715 11.5078 421.585 10.6354 421.324 9.75C421.077 8.86458 420.693 8.05078 420.172 7.30859C419.651 6.55339 418.993 5.94792 418.199 5.49219C417.405 5.02344 416.467 4.78906 415.387 4.78906ZM444.234 0.609375V16.3906C444.234 16.9115 444.215 17.5495 444.176 18.3047C444.137 19.0469 444.104 19.7044 444.078 20.2773H444.215C444.488 19.9388 444.885 19.4375 445.406 18.7734C445.94 18.1094 446.389 17.5755 446.754 17.1719L453.863 9.59375H457.672L449.059 18.7344L458.297 31H454.391L446.832 20.8633L444.234 23.2461V31H441.012V0.609375H444.234ZM485.27 9.20312C487.626 9.20312 489.404 9.82161 490.602 11.0586C491.799 12.2826 492.398 14.2552 492.398 16.9766V31H489.195V17.1328C489.195 15.401 488.818 14.1055 488.062 13.2461C487.32 12.3737 486.214 11.9375 484.742 11.9375C482.672 11.9375 481.168 12.5365 480.23 13.7344C479.293 14.9323 478.824 16.6966 478.824 19.0273V31H475.602V17.1328C475.602 15.974 475.432 15.0104 475.094 14.2422C474.768 13.474 474.273 12.901 473.609 12.5234C472.958 12.1328 472.132 11.9375 471.129 11.9375C469.71 11.9375 468.57 12.2305 467.711 12.8164C466.852 13.4023 466.227 14.2747 465.836 15.4336C465.458 16.5794 465.27 17.9922 465.27 19.6719V31H462.027V9.59375H464.645L465.133 12.6211H465.309C465.738 11.8789 466.279 11.2539 466.93 10.7461C467.581 10.2383 468.31 9.85417 469.117 9.59375C469.924 9.33333 470.784 9.20312 471.695 9.20312C473.323 9.20312 474.684 9.50911 475.777 10.1211C476.884 10.7201 477.685 11.638 478.18 12.875H478.355C479.059 11.638 480.022 10.7201 481.246 10.1211C482.47 9.50911 483.811 9.20312 485.27 9.20312ZM498.57 28.9688C498.57 28.0573 498.792 27.4128 499.234 27.0352C499.677 26.6445 500.217 26.4492 500.855 26.4492C501.52 26.4492 502.079 26.6445 502.535 27.0352C502.991 27.4128 503.219 28.0573 503.219 28.9688C503.219 29.8672 502.991 30.5247 502.535 30.9414C502.079 31.3451 501.52 31.5469 500.855 31.5469C500.217 31.5469 499.677 31.3451 499.234 30.9414C498.792 30.5247 498.57 29.8672 498.57 28.9688Z" fill="white"/>
</svg>
