<svg width="613" height="93" viewBox="0 0 613 93" fill="none" xmlns="http://www.w3.org/2000/svg">
<g clip-path="url(#clip0_31_1182)">
<path d="M59.8929 3.74684C57.9421 3.74684 56.1574 4.08364 54.6216 4.75725C53.0859 5.43086 51.7162 6.44127 50.6371 7.70428C49.5579 8.9673 48.6863 10.5671 48.1052 12.3774C47.5241 14.1878 47.2336 16.2507 47.2336 18.5241C47.2336 21.5553 47.6902 24.1656 48.6448 26.3969C49.5994 28.6282 50.9691 30.3543 52.8369 31.5753C54.7046 32.7962 57.029 33.3856 59.8099 33.3856C61.3871 33.3856 62.8813 33.2593 64.2925 32.9646C65.7037 32.6699 67.0734 32.3331 68.4016 31.9542V35.6169C67.1149 36.1221 65.7452 36.4589 64.334 36.7115C62.9228 36.9641 61.2211 37.0483 59.2703 37.0483C55.6593 37.0483 52.6294 36.2905 50.222 34.7749C47.8147 33.2593 45.9884 31.1122 44.7848 28.3335C43.5811 25.5549 42.9585 22.2711 42.9585 18.482C42.9585 15.7455 43.332 13.2615 44.0792 10.9881C44.8263 8.71469 45.9469 6.77807 47.3996 5.13615C48.8523 3.49423 50.6371 2.23122 52.7539 1.30501C54.8707 0.378796 57.195 0.0419922 59.9344 0.0419922C61.7191 0.0419922 63.4624 0.210394 65.1226 0.589299C66.7829 0.968203 68.3186 1.47341 69.6468 2.14702L67.9865 5.68346C66.8659 5.17825 65.6207 4.71515 64.251 4.29414C62.8813 3.87314 61.4286 3.70474 59.8514 3.70474L59.8929 3.74684Z" fill="white"/>
<path d="M86.9546 15.4509V12.125H109.783V15.4509H86.9546ZM86.9546 25.5551V22.2291H109.783V25.5551H86.9546Z" fill="white"/>
<path d="M151.33 36.6273H128.045V33.2172L137.55 23.4078C139.335 21.5974 140.788 19.9976 142.033 18.5662C143.278 17.1348 144.15 15.7455 144.814 14.3983C145.478 13.051 145.768 11.5354 145.768 9.85141C145.768 7.83058 145.187 6.27287 143.984 5.17825C142.78 4.08364 141.203 3.57843 139.294 3.57843C137.592 3.57843 136.098 3.87314 134.769 4.46254C133.441 5.05195 132.113 5.89396 130.743 6.98857L128.585 4.20994C129.54 3.41003 130.536 2.69432 131.656 2.06282C132.777 1.43131 133.939 0.926103 135.226 0.589299C136.513 0.252495 137.841 0.0419922 139.294 0.0419922C141.493 0.0419922 143.361 0.420897 144.98 1.22081C146.599 2.02072 147.802 3.11533 148.674 4.54675C149.545 5.97816 149.961 7.66218 149.961 9.64091C149.961 11.6196 149.587 13.3036 148.84 14.9456C148.093 16.5875 147.055 18.1873 145.685 19.7871C144.316 21.3869 142.78 23.071 140.954 24.8813L133.234 32.712V32.8804H151.413V36.6273H151.33Z" fill="white"/>
<path d="M170.63 19.0294C170.63 17.8927 170.921 17.0506 171.46 16.5875C172 16.1244 172.664 15.8718 173.494 15.8718C174.324 15.8718 175.03 16.1244 175.57 16.5875C176.109 17.0506 176.441 17.8927 176.441 19.0294C176.441 20.1661 176.151 21.0081 175.57 21.5133C174.988 22.0185 174.324 22.2711 173.494 22.2711C172.664 22.2711 172.042 22.0185 171.46 21.5133C170.879 21.0081 170.63 20.1661 170.63 19.0294Z" fill="white"/>
<path d="M217.449 8.96733C217.449 10.5671 217.159 11.9565 216.536 13.1774C215.914 14.3983 215.042 15.3245 213.963 16.0823C212.884 16.8401 211.555 17.3453 210.061 17.64V17.8505C212.884 18.2294 215 19.1135 216.412 20.6292C217.823 22.1448 218.528 24.0393 218.528 26.439C218.528 28.5441 218.03 30.3965 217.076 31.9963C216.121 33.5961 214.627 34.8591 212.635 35.7853C210.642 36.7116 208.11 37.1747 204.998 37.1747C203.13 37.1747 201.387 37.0063 199.768 36.7116C198.149 36.4169 196.655 35.9116 195.202 35.1959V31.3648C196.696 32.1226 198.274 32.6699 200.017 33.0909C201.76 33.5119 203.42 33.7224 205.039 33.7224C208.277 33.7224 210.642 33.0488 212.054 31.7437C213.465 30.4386 214.212 28.6283 214.212 26.3969C214.212 24.8392 213.797 23.5762 213.008 22.6079C212.22 21.6396 211.057 20.9239 209.563 20.5029C208.069 20.0819 206.243 19.8293 204.167 19.8293H200.598V16.3349H204.167C206.077 16.3349 207.737 16.0402 209.065 15.4508C210.393 14.8614 211.431 14.0615 212.137 13.009C212.842 11.9565 213.174 10.7355 213.174 9.30413C213.174 7.49381 212.593 6.06239 211.389 5.09408C210.186 4.12577 208.567 3.62056 206.492 3.62056C205.247 3.62056 204.084 3.74686 203.047 3.99947C202.009 4.25207 201.054 4.63097 200.141 5.09408C199.228 5.55719 198.315 6.10449 197.402 6.6939L195.368 3.87317C196.655 2.86275 198.232 1.97864 200.1 1.22083C201.968 0.463025 204.084 0.126221 206.45 0.126221C210.103 0.126221 212.801 0.968231 214.627 2.65225C216.453 4.33627 217.366 6.4834 217.366 9.05153L217.449 8.96733Z" fill="white"/>
<path d="M238.078 19.0294C238.078 17.8927 238.368 17.0506 238.908 16.5875C239.447 16.1244 240.111 15.8718 240.942 15.8718C241.772 15.8718 242.477 16.1244 243.017 16.5875C243.556 17.0506 243.888 17.8927 243.888 19.0294C243.888 20.1661 243.598 21.0081 243.017 21.5133C242.436 22.0185 241.772 22.2711 240.942 22.2711C240.111 22.2711 239.489 22.0185 238.908 21.5133C238.327 21.0081 238.078 20.1661 238.078 19.0294Z" fill="white"/>
<path d="M338.148 18.5663C338.148 21.5134 337.941 24.1236 337.484 26.397C337.027 28.6704 336.363 30.6492 335.409 32.249C334.454 33.8488 333.25 35.0697 331.756 35.8696C330.262 36.6695 328.477 37.1326 326.402 37.1326C323.746 37.1326 321.587 36.4169 319.844 34.9434C318.101 33.4699 316.814 31.3649 315.984 28.5862C315.154 25.8076 314.697 22.4817 314.697 18.5663C314.697 14.651 315.071 11.4092 315.859 8.6306C316.648 5.85197 317.893 3.74694 319.595 2.23133C321.297 0.715708 323.58 0 326.402 0C329.058 0 331.3 0.715708 333.001 2.18923C334.703 3.66274 336.031 5.76777 336.861 8.5464C337.692 11.325 338.107 14.651 338.107 18.5242L338.148 18.5663ZM318.765 18.5663C318.765 21.9344 319.014 24.713 319.512 26.9443C320.01 29.1756 320.84 30.8597 321.961 31.9543C323.081 33.0489 324.576 33.6383 326.402 33.6383C328.228 33.6383 329.722 33.091 330.843 31.9964C331.964 30.9018 332.794 29.2177 333.292 26.9864C333.79 24.7551 334.039 21.9344 334.039 18.5663C334.039 15.1983 333.79 12.5038 333.292 10.2725C332.794 8.04119 331.964 6.35717 330.843 5.22046C329.722 4.08375 328.228 3.53644 326.36 3.53644C324.493 3.53644 322.998 4.08375 321.878 5.22046C320.757 6.35717 319.969 8.04119 319.47 10.2725C318.972 12.5038 318.723 15.2825 318.723 18.5663H318.765Z" fill="white"/>
<path d="M349.562 30.7755L349.894 31.3228C349.604 32.5437 349.23 33.8067 348.774 35.154C348.317 36.5012 347.861 37.8905 347.321 39.2798C346.781 40.6691 346.283 41.9321 345.744 43.153H342.714C343.046 41.8479 343.378 40.4586 343.71 38.9851C344.042 37.5116 344.333 36.0802 344.582 34.6487C344.831 33.2173 345.08 31.9122 345.246 30.7334H349.562V30.7755Z" fill="white"/>
<path d="M379.322 36.6273H356.037V33.2172L365.542 23.4078C367.327 21.5974 368.779 19.9976 370.025 18.5662C371.27 17.1348 372.141 15.7455 372.805 14.3983C373.47 13.051 373.76 11.5354 373.76 9.85141C373.76 7.83058 373.179 6.27287 371.975 5.17825C370.772 4.08364 369.194 3.57843 367.285 3.57843C365.583 3.57843 364.089 3.87314 362.761 4.46254C361.433 5.05195 360.105 5.89396 358.735 6.98857L356.577 4.20994C357.531 3.41003 358.527 2.69432 359.648 2.06282C360.769 1.43131 361.931 0.926103 363.218 0.589299C364.504 0.252495 365.832 0.0419922 367.285 0.0419922C369.485 0.0419922 371.353 0.420897 372.972 1.22081C374.59 2.02072 375.794 3.11533 376.666 4.54675C377.537 5.97816 377.952 7.66218 377.952 9.64091C377.952 11.6196 377.579 13.3036 376.832 14.9456C376.084 16.5875 375.047 18.1873 373.677 19.7871C372.307 21.3869 370.772 23.071 368.945 24.8813L361.225 32.712V32.8804H379.405V36.6273H379.322Z" fill="white"/>
<path d="M449.55 15.4509V12.125H472.378V15.4509H449.55ZM449.55 25.5551V22.2291H472.378V25.5551H449.55Z" fill="white"/>
<path d="M505.624 36.6275H501.681V11.0725C501.681 10.1042 501.681 9.26219 501.681 8.58859C501.681 7.91498 501.681 7.24137 501.723 6.65196C501.764 6.06256 501.764 5.47315 501.847 4.88374C501.349 5.38895 500.892 5.85205 500.436 6.23096C499.979 6.60986 499.44 7.07297 498.817 7.62028L494.75 10.9462L492.633 8.16758L502.262 0.631592H505.624V36.7117V36.6275Z" fill="white"/>
<path d="M525.506 30.7755L525.838 31.3228C525.547 32.5437 525.174 33.8067 524.717 35.154C524.261 36.5012 523.804 37.8905 523.264 39.2798C522.725 40.6691 522.227 41.9321 521.687 43.153H518.657C518.989 41.8479 519.321 40.4586 519.653 38.9851C519.985 37.5116 520.276 36.0802 520.525 34.6487C520.774 33.2173 521.023 31.9122 521.189 30.7334H525.506V30.7755Z" fill="white"/>
<path d="M555.265 36.6273H531.98V33.2172L541.485 23.4078C543.27 21.5974 544.723 19.9976 545.968 18.5662C547.213 17.1348 548.085 15.7455 548.749 14.3983C549.413 13.051 549.703 11.5354 549.703 9.85141C549.703 7.83058 549.122 6.27287 547.919 5.17825C546.715 4.08364 545.138 3.57843 543.229 3.57843C541.527 3.57843 540.033 3.87314 538.704 4.46254C537.376 5.05195 536.048 5.89396 534.678 6.98857L532.52 4.20994C533.475 3.41003 534.471 2.69432 535.591 2.06282C536.712 1.43131 537.874 0.926103 539.161 0.589299C540.448 0.252495 541.776 0.0419922 543.229 0.0419922C545.428 0.0419922 547.296 0.420897 548.915 1.22081C550.534 2.02072 551.737 3.11533 552.609 4.54675C553.481 5.97816 553.896 7.66218 553.896 9.64091C553.896 11.6196 553.522 13.3036 552.775 14.9456C552.028 16.5875 550.99 18.1873 549.62 19.7871C548.251 21.3869 546.715 23.071 544.889 24.8813L537.169 32.712V32.8804H555.348V36.6273H555.265Z" fill="white"/>
<path d="M604.118 9.09375C607.064 9.09375 609.264 9.85156 610.758 11.4093C612.253 12.967 613 15.4509 613 18.9032V36.6275H609.015V19.1137C609.015 16.9244 608.559 15.2825 607.604 14.1879C606.649 13.0933 605.28 12.546 603.453 12.546C600.88 12.546 599.012 13.3038 597.85 14.8194C596.688 16.335 596.107 18.5664 596.107 21.5134V36.6275H592.081V19.1137C592.081 17.6402 591.873 16.4192 591.458 15.4509C591.043 14.4826 590.421 13.7669 589.591 13.2617C588.76 12.7565 587.723 12.546 586.478 12.546C584.693 12.546 583.282 12.9249 582.202 13.6406C581.123 14.3563 580.376 15.493 579.878 16.9244C579.38 18.3559 579.172 20.1662 579.172 22.2712V36.5854H575.146V9.59896H578.425L579.048 13.4301H579.256C579.795 12.5039 580.459 11.704 581.289 11.0725C582.119 10.441 582.991 9.93576 584.029 9.59896C585.066 9.26215 586.104 9.09375 587.225 9.09375C589.258 9.09375 590.96 9.47265 592.33 10.2305C593.7 10.9883 594.696 12.1671 595.318 13.7248H595.526C596.397 12.1671 597.601 10.9883 599.137 10.2305C600.673 9.47265 602.333 9.09375 604.159 9.09375H604.118Z" fill="white"/>
<path d="M12.9084 7.4519C13.946 7.4519 14.6931 7.74661 15.2327 8.33601C15.7723 8.92542 16.0213 9.80953 16.0213 11.0304C16.0213 12.2514 15.7723 13.0934 15.2327 13.6828C14.6931 14.2722 13.946 14.609 12.9084 14.609C11.8707 14.609 11.0406 14.3143 10.501 13.6828C9.96144 13.0513 9.6709 12.1672 9.6709 11.0304C9.6709 9.89373 9.96144 8.96752 10.501 8.37812C11.0406 7.78871 11.8292 7.4519 12.9084 7.4519Z" fill="white"/>
<path d="M22.6208 23.7449C23.6169 23.7449 24.364 24.0396 24.9036 24.6711C25.4432 25.3026 25.6922 26.1867 25.6922 27.3234C25.6922 28.4601 25.4016 29.4284 24.8621 30.0178C24.3225 30.6073 23.5754 30.902 22.5793 30.902C21.5416 30.902 20.7115 30.6073 20.2134 29.9757C19.7153 29.3442 19.4248 28.4601 19.4248 27.3234C19.4248 26.1867 19.6738 25.2605 20.2134 24.6711C20.753 24.0817 21.5416 23.7449 22.5793 23.7449H22.6208Z" fill="white"/>
<path d="M3.19595 23.7449C4.2336 23.7449 4.9807 24.0396 5.52028 24.629C6.05985 25.2184 6.30889 26.1025 6.30889 27.3234C6.30889 28.5443 6.05985 29.3863 5.52028 29.9757C4.9807 30.5652 4.2336 30.902 3.19595 30.902C2.1583 30.902 1.36969 30.6073 0.830117 29.9757C0.290541 29.3442 0 28.4601 0 27.3234C0 26.1867 0.290541 25.2605 0.830117 24.6711C1.36969 24.0817 2.19981 23.7449 3.19595 23.7449Z" fill="white"/>
<path d="M436.102 47.0684C436.102 48.584 435.853 49.8891 435.438 50.9416C435.023 51.9941 434.359 52.8782 433.529 53.4255C432.699 53.9728 431.62 54.3096 430.333 54.3096H351.223C350.393 54.3096 349.687 54.478 349.147 54.8149C348.608 55.1517 348.234 55.6569 347.985 56.3305C347.736 57.0041 347.612 57.8461 347.612 58.8144H345.121C345.121 57.8461 344.997 57.0041 344.748 56.3305C344.499 55.6569 344.125 55.1517 343.627 54.8149C343.129 54.478 342.423 54.3096 341.593 54.3096H262.442C261.155 54.3096 260.076 54.0149 259.246 53.3834C258.416 52.7519 257.752 51.9099 257.336 50.8574C256.921 49.8049 256.714 48.4998 256.714 47.0684H259.163C259.163 47.9525 259.329 48.7524 259.578 49.3839C259.827 50.0154 260.2 50.5206 260.74 50.8574C261.28 51.1942 261.902 51.3626 262.732 51.3626H341.759C343.005 51.3626 344.001 51.6994 344.748 52.3309C345.495 52.9624 345.993 53.9728 346.242 55.3201H346.45C346.657 53.9728 347.155 52.9624 347.944 52.3309C348.732 51.6994 349.687 51.3626 350.974 51.3626H430.125C430.955 51.3626 431.62 51.1942 432.118 50.8574C432.616 50.5206 432.989 50.0575 433.238 49.426C433.487 48.7945 433.612 47.9946 433.612 47.1105H436.102V47.0684Z" fill="white"/>
<path d="M274.727 89.5477H262.4V87.7374L267.422 82.5591C268.377 81.5907 269.165 80.7487 269.788 79.9909C270.411 79.2331 270.909 78.5174 271.241 77.7596C271.573 77.0439 271.739 76.244 271.739 75.3599C271.739 74.2653 271.407 73.4653 270.784 72.8759C270.161 72.2865 269.331 72.0339 268.294 72.0339C267.381 72.0339 266.592 72.2023 265.886 72.497C265.181 72.8338 264.475 73.2548 263.728 73.8443L262.566 72.3707C263.064 71.9497 263.604 71.5708 264.185 71.234C264.766 70.8972 265.388 70.6446 266.094 70.4341C266.758 70.2657 267.505 70.1394 268.252 70.1394C269.414 70.1394 270.411 70.3499 271.241 70.7709C272.071 71.1919 272.735 71.7813 273.191 72.5391C273.648 73.2969 273.897 74.1811 273.897 75.2336C273.897 76.2861 273.689 77.1702 273.316 78.0543C272.901 78.9384 272.361 79.7804 271.656 80.6224C270.95 81.4644 270.12 82.3907 269.165 83.3169L265.056 87.4427V87.5269H274.686V89.5056L274.727 89.5477Z" fill="white"/>
<path d="M289.918 79.9487C289.918 81.5064 289.794 82.8957 289.586 84.1167C289.337 85.3376 289.005 86.3901 288.507 87.2321C288.009 88.0741 287.345 88.7056 286.556 89.1687C285.767 89.6318 284.813 89.8423 283.692 89.8423C282.281 89.8423 281.119 89.4634 280.206 88.6635C279.293 87.9057 278.628 86.769 278.172 85.2955C277.715 83.822 277.508 82.0537 277.508 79.9908C277.508 77.9279 277.715 76.2018 278.13 74.7282C278.545 73.2547 279.21 72.118 280.123 71.3602C281.036 70.5603 282.239 70.1814 283.734 70.1814C285.145 70.1814 286.307 70.5603 287.22 71.3602C288.133 72.1601 288.839 73.2547 289.254 74.7282C289.669 76.2018 289.918 77.97 289.918 80.0329V79.9487ZM279.666 79.9487C279.666 81.7169 279.791 83.1904 280.081 84.4114C280.33 85.5902 280.787 86.4743 281.368 87.0637C281.949 87.6531 282.738 87.9478 283.734 87.9478C284.73 87.9478 285.477 87.6531 286.1 87.0637C286.722 86.4743 287.137 85.5902 287.386 84.4114C287.635 83.2325 287.801 81.759 287.801 79.9487C287.801 78.1384 287.677 76.7491 287.386 75.5703C287.137 74.3914 286.681 73.5073 286.1 72.9179C285.518 72.3285 284.73 72.0338 283.734 72.0338C282.738 72.0338 281.949 72.3285 281.368 72.9179C280.787 73.5073 280.33 74.3914 280.081 75.5703C279.832 76.7491 279.708 78.2226 279.708 79.9487H279.666Z" fill="white"/>
<path d="M306.023 89.8004C304.736 89.8004 303.615 89.5478 302.661 89.0005C301.706 88.4532 300.918 87.6533 300.378 86.5587C299.838 85.4641 299.548 84.1169 299.548 82.4329C299.548 80.7488 299.838 79.2753 300.419 78.1807C301.001 77.0861 301.789 76.2441 302.785 75.7389C303.781 75.2337 304.944 74.939 306.23 74.939C306.936 74.939 307.6 75.0232 308.264 75.1495C308.928 75.2758 309.468 75.4863 309.883 75.6968L309.219 77.5071C308.804 77.3387 308.306 77.1703 307.725 77.044C307.143 76.9177 306.645 76.8335 306.147 76.8335C305.151 76.8335 304.363 77.044 303.698 77.465C303.034 77.886 302.578 78.5175 302.246 79.3595C301.914 80.2015 301.748 81.2119 301.748 82.4329C301.748 83.6538 301.914 84.58 302.204 85.3799C302.536 86.1798 302.993 86.8113 303.615 87.2744C304.238 87.6954 305.027 87.9059 305.94 87.9059C306.687 87.9059 307.351 87.8217 307.974 87.6533C308.596 87.4849 309.136 87.3165 309.592 87.106V89.0426C309.136 89.2952 308.596 89.4636 308.015 89.5899C307.434 89.7162 306.728 89.8004 305.94 89.8004H306.023Z" fill="white"/>
<path d="M328.353 74.939C329.888 74.939 331.092 75.36 331.881 76.1599C332.669 77.0019 333.084 78.307 333.084 80.1173V89.5057H330.968V80.2436C330.968 79.0648 330.719 78.2228 330.221 77.6334C329.722 77.044 328.975 76.7493 328.021 76.7493C326.651 76.7493 325.655 77.1703 325.032 77.9702C324.41 78.7701 324.119 79.9489 324.119 81.5066V89.5057H322.002V80.2436C322.002 79.4858 321.878 78.8122 321.67 78.307C321.463 77.8018 321.131 77.4229 320.674 77.1703C320.259 76.9177 319.678 76.7914 319.014 76.7914C318.059 76.7914 317.312 77.0019 316.773 77.3808C316.192 77.7597 315.776 78.3491 315.527 79.149C315.278 79.9068 315.154 80.8751 315.154 81.9697V89.5478H312.996V75.2337H314.739L315.071 77.2545H315.195C315.486 76.7493 315.818 76.3283 316.275 75.9915C316.69 75.6547 317.188 75.4021 317.727 75.2337C318.267 75.0653 318.848 74.9811 319.429 74.9811C320.508 74.9811 321.421 75.1916 322.127 75.5705C322.832 75.9915 323.372 76.5809 323.704 77.4229H323.829C324.285 76.5809 324.908 75.9915 325.738 75.5705C326.527 75.1495 327.44 74.9811 328.394 74.9811L328.353 74.939Z" fill="white"/>
<path d="M343.544 78.3068V76.5386H355.622V78.3068H343.544ZM343.544 83.6536V81.8853H355.622V83.6536H343.544Z" fill="white"/>
<path d="M377.745 79.9487C377.745 81.5064 377.62 82.8957 377.413 84.1167C377.164 85.3376 376.832 86.3901 376.334 87.2321C375.835 88.0741 375.171 88.7056 374.383 89.1687C373.594 89.6318 372.64 89.8423 371.519 89.8423C370.108 89.8423 368.945 89.4634 368.032 88.6635C367.119 87.9057 366.455 86.769 365.999 85.2955C365.542 83.822 365.334 82.0537 365.334 79.9908C365.334 77.9279 365.542 76.2018 365.957 74.7282C366.372 73.2547 367.036 72.118 367.949 71.3602C368.862 70.5603 370.066 70.1814 371.56 70.1814C372.972 70.1814 374.134 70.5603 375.047 71.3602C375.96 72.1601 376.666 73.2547 377.081 74.7282C377.496 76.2018 377.745 77.97 377.745 80.0329V79.9487ZM367.451 79.9487C367.451 81.7169 367.576 83.1904 367.866 84.4114C368.115 85.5902 368.572 86.4743 369.153 87.0637C369.734 87.6531 370.523 87.9478 371.519 87.9478C372.515 87.9478 373.262 87.6531 373.885 87.0637C374.507 86.4743 374.922 85.5902 375.171 84.4114C375.42 83.2325 375.586 81.759 375.586 79.9487C375.586 78.1384 375.462 76.7491 375.171 75.5703C374.922 74.3914 374.466 73.5073 373.885 72.9179C373.304 72.3285 372.515 72.0338 371.519 72.0338C370.523 72.0338 369.734 72.3285 369.153 72.9179C368.572 73.5073 368.115 74.3914 367.866 75.5703C367.617 76.7491 367.493 78.2226 367.493 79.9487H367.451Z" fill="white"/>
<path d="M383.804 86.4324L383.97 86.7271C383.804 87.3586 383.638 88.0322 383.389 88.7479C383.14 89.4636 382.891 90.1793 382.601 90.9371C382.31 91.6949 382.061 92.3264 381.771 93H380.193C380.359 92.2843 380.567 91.5686 380.733 90.8108C380.899 90.053 381.065 89.2952 381.189 88.5374C381.314 87.7796 381.439 87.106 381.522 86.4745H383.804V86.4324Z" fill="white"/>
<path d="M399.577 89.5477H387.25V87.7374L392.272 82.5591C393.226 81.5907 394.015 80.7487 394.638 79.9909C395.26 79.2331 395.758 78.5174 396.09 77.7596C396.422 77.0439 396.588 76.244 396.588 75.3599C396.588 74.2653 396.256 73.4653 395.634 72.8759C395.011 72.2865 394.181 72.0339 393.143 72.0339C392.23 72.0339 391.442 72.2023 390.736 72.497C390.03 72.8338 389.325 73.2548 388.578 73.8443L387.416 72.3707C387.914 71.9497 388.453 71.5708 389.034 71.234C389.615 70.8972 390.238 70.6446 390.944 70.4341C391.608 70.2657 392.355 70.1394 393.102 70.1394C394.264 70.1394 395.26 70.3499 396.09 70.7709C396.92 71.1919 397.584 71.7813 398.041 72.5391C398.498 73.2969 398.747 74.1811 398.747 75.2336C398.747 76.2861 398.539 77.1702 398.166 78.0543C397.75 78.9384 397.211 79.7804 396.505 80.6224C395.8 81.4644 394.97 82.3907 394.015 83.3169L389.906 87.4427V87.5269H399.535V89.5056L399.577 89.5477Z" fill="white"/>
<path d="M425.435 74.939C426.971 74.939 428.174 75.36 428.963 76.1599C429.751 77.0019 430.166 78.307 430.166 80.1173V89.5057H428.05V80.2436C428.05 79.0648 427.801 78.2228 427.303 77.6334C426.804 77.044 426.057 76.7493 425.103 76.7493C423.733 76.7493 422.737 77.1703 422.114 77.9702C421.492 78.7701 421.201 79.9489 421.201 81.5066V89.5057H419.084V80.2436C419.084 79.4858 418.96 78.8122 418.752 78.307C418.545 77.8018 418.213 77.4229 417.756 77.1703C417.341 76.9177 416.76 76.7914 416.096 76.7914C415.141 76.7914 414.394 77.0019 413.855 77.3808C413.274 77.7597 412.859 78.3491 412.609 79.149C412.36 79.9068 412.236 80.8751 412.236 81.9697V89.5478H410.078V75.2337H411.821L412.153 77.2545H412.277C412.568 76.7493 412.9 76.3283 413.357 75.9915C413.772 75.6547 414.27 75.4021 414.809 75.2337C415.349 75.0653 415.93 74.9811 416.511 74.9811C417.59 74.9811 418.503 75.1916 419.209 75.5705C419.915 75.9915 420.454 76.5809 420.786 77.4229H420.911C421.367 76.5809 421.99 75.9915 422.82 75.5705C423.609 75.1495 424.522 74.9811 425.476 74.9811L425.435 74.939Z" fill="white"/>
</g>
<defs>
<clipPath id="clip0_31_1182">
<rect width="613" height="93" fill="white"/>
</clipPath>
</defs>
</svg>
