<svg width="573" height="58" viewBox="0 0 573 58" fill="none" xmlns="http://www.w3.org/2000/svg">
<g clip-path="url(#clip0_23_529)">
<path d="M7.8597 25.8107H0V11.7217H7.8597V13.1684H1.64774V17.7222H7.51367V19.1525H1.64774V24.364H7.8597V25.8107Z" fill="black"/>
<path d="M22.2279 15.0589C23.3978 15.0589 24.2711 15.3548 24.8643 15.9631C25.4575 16.5714 25.7541 17.5413 25.7541 18.8894V25.8106H24.1723V18.9716C24.1723 18.1167 23.991 17.4756 23.612 17.0481C23.2331 16.6207 22.6893 16.407 21.9643 16.407C20.9427 16.407 20.2012 16.7029 19.7399 17.2947C19.2785 17.8866 19.0478 18.7579 19.0478 19.9087V25.8106H17.4495V18.9716C17.4495 18.3962 17.3671 17.9195 17.2023 17.5413C17.0376 17.1632 16.7904 16.8838 16.4609 16.6865C16.1313 16.4892 15.7194 16.407 15.2251 16.407C14.5165 16.407 13.9563 16.555 13.5279 16.8344C13.0995 17.1139 12.8029 17.5578 12.6052 18.1167C12.4074 18.6757 12.325 19.3826 12.325 20.2046V25.7942H10.7267V15.2398H12.0285L12.2756 16.7358H12.358C12.5722 16.3741 12.8358 16.0618 13.1654 15.8152C13.4949 15.5686 13.841 15.3713 14.2529 15.2398C14.6648 15.1082 15.0768 15.0425 15.5217 15.0425C16.329 15.0425 17.0046 15.1904 17.5484 15.4864C18.0921 15.7823 18.4876 16.2426 18.7347 16.8509H18.8171C19.1632 16.2426 19.641 15.7823 20.2507 15.4864C20.8603 15.1904 21.5194 15.0425 22.2444 15.0425L22.2279 15.0589Z" fill="black"/>
<path d="M30.6479 10.8174V14.5657C30.6479 14.9931 30.6479 15.4206 30.6149 15.8151C30.582 16.2097 30.582 16.5385 30.5655 16.7522H30.6479C30.9445 16.2754 31.3564 15.8809 31.9002 15.5521C32.4439 15.2233 33.1524 15.0589 33.9928 15.0589C35.311 15.0589 36.382 15.5192 37.1564 16.4234C37.9309 17.3276 38.3428 18.6921 38.3428 20.5005C38.3428 21.6842 38.1616 22.687 37.7991 23.509C37.4366 24.331 36.9258 24.9393 36.2667 25.3503C35.6076 25.7613 34.8331 25.975 33.9434 25.975C33.103 25.975 32.4274 25.827 31.8837 25.5147C31.3399 25.2023 30.928 24.8242 30.6479 24.3803H30.5161L30.1865 25.7941H29.0331V10.8174H30.6314H30.6479ZM33.7456 16.407C32.9877 16.407 32.378 16.5549 31.9166 16.8508C31.4553 17.1467 31.1422 17.6071 30.9445 18.1989C30.7468 18.7907 30.6479 19.5634 30.6479 20.484V20.5662C30.6479 21.8979 30.8621 22.9172 31.307 23.6076C31.7519 24.2981 32.5593 24.6598 33.7292 24.6598C34.7178 24.6598 35.4593 24.2981 35.9371 23.5748C36.415 22.8514 36.6786 21.8321 36.6786 20.484C36.6786 19.136 36.4314 18.1003 35.9536 17.4098C35.4758 16.7193 34.7178 16.3741 33.7292 16.3741L33.7456 16.407Z" fill="black"/>
<path d="M50.2724 20.5005C50.2724 21.3718 50.1571 22.1445 49.9264 22.8186C49.6957 23.4926 49.3826 24.068 48.9542 24.5448C48.5258 25.0215 48.015 25.3667 47.4218 25.6133C46.8287 25.8599 46.1366 25.9915 45.3786 25.9915C44.6701 25.9915 44.0275 25.8599 43.4343 25.6133C42.8411 25.3667 42.3303 25.0051 41.9019 24.5448C41.4735 24.0844 41.144 23.509 40.9133 22.8186C40.6826 22.1281 40.5673 21.3718 40.5673 20.5005C40.5673 19.3497 40.765 18.3633 41.1604 17.5413C41.5559 16.7194 42.1161 16.1111 42.8411 15.6836C43.5661 15.2562 44.4394 15.0425 45.4446 15.0425C46.4497 15.0425 47.2571 15.2562 47.9821 15.6836C48.7071 16.1111 49.2673 16.7358 49.6792 17.5413C50.0912 18.3469 50.2889 19.3333 50.2889 20.4841L50.2724 20.5005ZM42.215 20.5005C42.215 21.3554 42.3303 22.0788 42.561 22.7035C42.7917 23.3282 43.1377 23.805 43.5991 24.1502C44.0605 24.4954 44.6701 24.6598 45.4116 24.6598C46.1531 24.6598 46.7463 24.4954 47.2241 24.1502C47.702 23.805 48.048 23.3282 48.2787 22.7035C48.5093 22.0788 48.6247 21.339 48.6247 20.5005C48.6247 19.6621 48.5093 18.9387 48.2787 18.314C48.048 17.6893 47.702 17.229 47.2406 16.9002C46.7792 16.5714 46.1696 16.407 45.4116 16.407C44.3076 16.407 43.5002 16.7687 42.9894 17.492C42.4786 18.2154 42.215 19.2182 42.215 20.5005Z" fill="black"/>
<path d="M57.852 15.059C58.0662 15.059 58.2804 15.059 58.5111 15.0918C58.7418 15.1247 58.956 15.1412 59.1372 15.1905L58.9395 16.6701C58.7582 16.6208 58.577 16.5879 58.3628 16.5714C58.1486 16.555 57.9508 16.5386 57.7696 16.5386C57.3412 16.5386 56.9457 16.6208 56.5667 16.8016C56.1878 16.9824 55.8582 17.2126 55.5781 17.5414C55.298 17.8702 55.0673 18.2483 54.919 18.6922C54.7707 19.1361 54.6718 19.6293 54.6718 20.1882V25.86H53.0571V15.3056H54.3917L54.573 17.2455H54.6389C54.8531 16.8509 55.1167 16.4892 55.4298 16.1769C55.7429 15.8645 56.1054 15.6015 56.5008 15.4042C56.8963 15.2069 57.3577 15.1083 57.8685 15.1083L57.852 15.059Z" fill="black"/>
<path d="M65.0856 15.0753C66.3543 15.0753 67.2771 15.3548 67.9032 15.9302C68.5293 16.5056 68.8259 17.3933 68.8259 18.6428V25.827H67.656L67.343 24.2652H67.2606C66.964 24.6433 66.6509 24.9721 66.3378 25.2352C66.0248 25.4982 65.6458 25.6955 65.2174 25.827C64.789 25.9585 64.2782 26.0243 63.6685 26.0243C63.0259 26.0243 62.4492 25.9092 61.9549 25.6791C61.4605 25.4489 61.0651 25.1201 60.785 24.6598C60.5049 24.1995 60.3566 23.6241 60.3566 22.9336C60.3566 21.8814 60.7685 21.0759 61.6088 20.5005C62.4492 19.9251 63.7179 19.6292 65.4316 19.5799L67.2606 19.4977V18.8565C67.2606 17.9523 67.0628 17.3111 66.6674 16.933C66.2719 16.5549 65.7282 16.3905 65.0032 16.3905C64.443 16.3905 63.9157 16.4727 63.4214 16.6371C62.927 16.8015 62.4492 16.9823 61.9878 17.2125L61.4935 15.996C61.9713 15.7494 62.5151 15.5356 63.1412 15.3712C63.7674 15.2068 64.41 15.1082 65.0856 15.1082V15.0753ZM67.2276 20.5991L65.6128 20.6649C64.2947 20.7142 63.3554 20.9279 62.8282 21.306C62.3009 21.6842 62.0208 22.2267 62.0208 22.9172C62.0208 23.5254 62.202 23.9693 62.5645 24.2488C62.927 24.5283 63.4214 24.6762 64.0145 24.6762C64.9537 24.6762 65.7282 24.4132 66.3214 23.9035C66.9146 23.3939 67.2111 22.6048 67.2111 21.5691V20.5991H67.2276Z" fill="black"/>
<path d="M86.3743 20.5005C86.3743 21.3718 86.2589 22.1445 86.0283 22.8186C85.7976 23.4926 85.4845 24.068 85.0561 24.5448C84.6277 25.0215 84.1169 25.3667 83.5237 25.6133C82.9305 25.8599 82.2385 25.9915 81.4805 25.9915C80.772 25.9915 80.1294 25.8599 79.5362 25.6133C78.943 25.3667 78.4322 25.0051 78.0038 24.5448C77.5754 24.0844 77.2458 23.509 77.0152 22.8186C76.7845 22.1281 76.6691 21.3718 76.6691 20.5005C76.6691 19.3497 76.8669 18.3633 77.2623 17.5413C77.6578 16.7194 78.218 16.1111 78.943 15.6836C79.668 15.2562 80.5413 15.0425 81.5464 15.0425C82.5515 15.0425 83.3589 15.2562 84.0839 15.6836C84.8089 16.1111 85.3692 16.7358 85.7811 17.5413C86.193 18.3469 86.3908 19.3333 86.3908 20.4841L86.3743 20.5005ZM78.3169 20.5005C78.3169 21.3554 78.4322 22.0788 78.6629 22.7035C78.8936 23.3282 79.2396 23.805 79.701 24.1502C80.1623 24.4954 80.772 24.6598 81.5135 24.6598C82.255 24.6598 82.8481 24.4954 83.326 24.1502C83.8038 23.805 84.1498 23.3282 84.3805 22.7035C84.6112 22.0788 84.7266 21.339 84.7266 20.5005C84.7266 19.6621 84.6112 18.9387 84.3805 18.314C84.1498 17.6893 83.8038 17.229 83.3425 16.9002C82.8811 16.5714 82.2714 16.407 81.5135 16.407C80.4095 16.407 79.6021 16.7687 79.0913 17.492C78.5805 18.2154 78.3169 19.2182 78.3169 20.5005Z" fill="black"/>
<path d="M99.2925 15.059C100.545 15.059 101.501 15.3713 102.143 15.9796C102.786 16.5879 103.115 17.5743 103.115 18.9388V25.8107H101.533V19.0374C101.533 18.1497 101.336 17.4921 100.924 17.0646C100.512 16.6372 99.9022 16.407 99.0783 16.407C97.9084 16.407 97.0846 16.7358 96.6067 17.3934C96.1289 18.051 95.8982 19.021 95.8982 20.2704V25.7942H94.2999V15.2398H95.6016L95.8488 16.7687H95.9312C96.1618 16.3906 96.442 16.0782 96.788 15.8316C97.134 15.585 97.5295 15.3878 97.9579 15.2562C98.3863 15.1247 98.8476 15.059 99.3255 15.059H99.2925Z" fill="black"/>
<path d="M115.144 15.2398V25.7942H113.826L113.595 24.3146H113.512C113.298 24.6763 113.018 24.9886 112.656 25.2352C112.293 25.4818 111.914 25.6791 111.486 25.7942C111.057 25.9093 110.596 25.975 110.102 25.975C109.261 25.975 108.569 25.8435 107.993 25.564C107.416 25.2846 107.004 24.8736 106.707 24.3146C106.411 23.7556 106.279 23.0158 106.279 22.1445V15.2233H107.894V22.0294C107.894 22.9172 108.091 23.5584 108.487 24.0022C108.882 24.4461 109.492 24.6598 110.316 24.6598C111.14 24.6598 111.733 24.5119 112.194 24.216C112.656 23.92 113.002 23.4926 113.199 22.9172C113.397 22.3418 113.512 21.6349 113.512 20.7965V15.2398H115.127H115.144ZM113.578 10.6859V10.8832C113.447 11.064 113.282 11.2942 113.051 11.5572C112.82 11.8203 112.59 12.0833 112.31 12.3792C112.03 12.6751 111.766 12.9382 111.486 13.2012C111.206 13.4643 110.958 13.678 110.728 13.8588H109.657V13.6287C109.855 13.3821 110.085 13.0861 110.332 12.7409C110.58 12.3957 110.81 12.0504 111.041 11.6887C111.272 11.3271 111.469 10.9983 111.618 10.7024H113.562L113.578 10.6859Z" fill="black"/>
<path d="M130.023 15.0589C131.193 15.0589 132.066 15.3548 132.659 15.9631C133.252 16.5714 133.549 17.5413 133.549 18.8894V25.8106H131.967V18.9716C131.967 18.1167 131.786 17.4756 131.407 17.0481C131.028 16.6207 130.484 16.407 129.759 16.407C128.738 16.407 127.996 16.7029 127.535 17.2947C127.073 17.8866 126.843 18.7579 126.843 19.9087V25.8106H125.244V18.9716C125.244 18.3962 125.162 17.9195 124.997 17.5413C124.832 17.1632 124.585 16.8838 124.256 16.6865C123.926 16.4892 123.514 16.407 123.02 16.407C122.311 16.407 121.751 16.555 121.323 16.8344C120.894 17.1139 120.598 17.5578 120.4 18.1167C120.202 18.6757 120.12 19.3826 120.12 20.2046V25.7942H118.522V15.2398H119.823L120.07 16.7358H120.153C120.367 16.3741 120.631 16.0618 120.96 15.8152C121.29 15.5686 121.636 15.3713 122.048 15.2398C122.46 15.1082 122.872 15.0425 123.317 15.0425C124.124 15.0425 124.799 15.1904 125.343 15.4864C125.887 15.7823 126.282 16.2426 126.53 16.8509H126.612C126.958 16.2426 127.436 15.7823 128.046 15.4864C128.655 15.1904 129.314 15.0425 130.039 15.0425L130.023 15.0589Z" fill="black"/>
<path d="M140.914 15.059C141.821 15.059 142.595 15.2562 143.238 15.6508C143.88 16.0454 144.375 16.6043 144.721 17.3277C145.067 18.051 145.231 18.873 145.231 19.843V20.8294H137.915C137.932 22.0624 138.245 23.0159 138.838 23.657C139.431 24.2982 140.288 24.627 141.376 24.627C142.051 24.627 142.644 24.5612 143.155 24.4461C143.666 24.3311 144.21 24.1502 144.754 23.9036V25.3175C144.226 25.5476 143.683 25.7285 143.172 25.8435C142.661 25.9586 142.035 26.0079 141.31 26.0079C140.288 26.0079 139.398 25.7942 138.657 25.3832C137.915 24.9722 137.306 24.3639 136.894 23.5584C136.482 22.7528 136.268 21.7664 136.268 20.6156C136.268 19.4649 136.465 18.4949 136.844 17.6565C137.223 16.818 137.767 16.1769 138.459 15.733C139.151 15.2891 139.975 15.059 140.931 15.059H140.914ZM140.898 16.3577C140.041 16.3577 139.365 16.6372 138.855 17.1961C138.344 17.7551 138.047 18.5278 137.948 19.5306H143.551C143.551 18.9059 143.452 18.3469 143.254 17.8702C143.056 17.3934 142.776 17.0153 142.397 16.7523C142.018 16.4892 141.507 16.3577 140.914 16.3577H140.898Z" fill="black"/>
<path d="M152.745 15.059C152.959 15.059 153.173 15.059 153.404 15.0918C153.635 15.1247 153.849 15.1412 154.03 15.1905L153.833 16.6701C153.651 16.6208 153.47 16.5879 153.256 16.5714C153.042 16.555 152.844 16.5386 152.663 16.5386C152.234 16.5386 151.839 16.6208 151.46 16.8016C151.081 16.9824 150.751 17.2126 150.471 17.5414C150.191 17.8702 149.96 18.2483 149.812 18.6922C149.664 19.1361 149.565 19.6293 149.565 20.1882V25.86H147.95V15.3056H149.285L149.466 17.2455H149.532C149.746 16.8509 150.01 16.4892 150.323 16.1769C150.636 15.8645 150.998 15.6015 151.394 15.4042C151.789 15.2069 152.251 15.1083 152.762 15.1083L152.745 15.059Z" fill="black"/>
<path d="M165.136 20.5005C165.136 21.3718 165.021 22.1445 164.79 22.8186C164.559 23.4926 164.246 24.068 163.818 24.5448C163.389 25.0215 162.879 25.3667 162.285 25.6133C161.692 25.8599 161 25.9915 160.242 25.9915C159.534 25.9915 158.891 25.8599 158.298 25.6133C157.705 25.3667 157.194 25.0051 156.766 24.5448C156.337 24.0844 156.008 23.509 155.777 22.8186C155.546 22.1281 155.431 21.3718 155.431 20.5005C155.431 19.3497 155.629 18.3633 156.024 17.5413C156.42 16.7194 156.98 16.1111 157.705 15.6836C158.43 15.2562 159.303 15.0425 160.308 15.0425C161.313 15.0425 162.121 15.2562 162.846 15.6836C163.571 16.1111 164.131 16.7358 164.543 17.5413C164.955 18.3469 165.153 19.3333 165.153 20.4841L165.136 20.5005ZM157.095 20.5005C157.095 21.3554 157.21 22.0788 157.441 22.7035C157.672 23.3282 158.018 23.805 158.479 24.1502C158.941 24.4954 159.55 24.6598 160.292 24.6598C161.033 24.6598 161.626 24.4954 162.104 24.1502C162.582 23.805 162.928 23.3282 163.159 22.7035C163.389 22.0788 163.505 21.339 163.505 20.5005C163.505 19.6621 163.389 18.9387 163.159 18.314C162.928 17.6893 162.582 17.229 162.121 16.9002C161.659 16.5714 161.05 16.407 160.292 16.407C159.188 16.407 158.38 16.7687 157.87 17.492C157.359 18.2154 157.095 19.2182 157.095 20.5005Z" fill="black"/>
<path d="M182.47 24.6927C182.651 24.6927 182.816 24.6763 182.965 24.6269C183.113 24.5776 183.228 24.5447 183.327 24.4954V25.7613C183.228 25.8106 183.063 25.8599 182.849 25.9092C182.635 25.9586 182.371 25.9914 182.075 25.9914C181.383 25.9914 180.855 25.7777 180.493 25.3667C180.13 24.9557 179.949 24.331 179.949 23.5255V16.5878H175.352V25.8106H173.77V16.5878H171.612V15.8645L173.062 15.2397H183.624V16.5714H181.531V23.3939C181.531 23.8707 181.613 24.1995 181.795 24.3803C181.976 24.5612 182.207 24.6763 182.487 24.6763L182.47 24.6927Z" fill="black"/>
<path d="M187.759 23.509L187.891 23.7227C187.776 24.1995 187.628 24.6927 187.446 25.2187C187.265 25.7448 187.084 26.2873 186.87 26.8299C186.655 27.3724 186.458 27.8656 186.244 28.3423H185.041C185.173 27.8327 185.304 27.2902 185.436 26.7148C185.568 26.1394 185.683 25.5804 185.782 25.0215C185.881 24.4625 185.98 23.9529 186.046 23.4926H187.759V23.509Z" fill="black"/>
<path d="M203.017 22.9172C203.017 23.5913 202.853 24.1502 202.507 24.6106C202.161 25.0709 201.683 25.4161 201.057 25.6463C200.431 25.8764 199.689 25.9915 198.816 25.9915C198.074 25.9915 197.432 25.9257 196.888 25.8107C196.344 25.6956 195.866 25.5312 195.471 25.3175V23.8379C195.899 24.0516 196.41 24.2489 197.02 24.4133C197.629 24.5777 198.223 24.6763 198.849 24.6763C199.755 24.6763 200.431 24.5284 200.842 24.2324C201.254 23.9365 201.469 23.542 201.469 23.0323C201.469 22.7364 201.386 22.4898 201.221 22.2596C201.057 22.0295 200.777 21.8158 200.398 21.6185C200.019 21.4212 199.475 21.1746 198.799 20.928C198.124 20.665 197.547 20.4184 197.053 20.1553C196.558 19.8923 196.179 19.5964 195.916 19.2183C195.652 18.8401 195.52 18.3798 195.52 17.788C195.52 16.9002 195.883 16.2098 196.608 15.733C197.333 15.2562 198.288 15.0096 199.458 15.0096C200.101 15.0096 200.694 15.0754 201.254 15.1905C201.815 15.3056 202.325 15.4864 202.82 15.7001L202.276 16.9824C201.831 16.8016 201.37 16.6372 200.875 16.5057C200.381 16.3742 199.87 16.3084 199.359 16.3084C198.618 16.3084 198.058 16.4235 197.662 16.6701C197.267 16.9167 197.069 17.2455 197.069 17.6729C197.069 18.0017 197.168 18.2647 197.349 18.4785C197.531 18.6922 197.827 18.8895 198.239 19.0703C198.651 19.2511 199.178 19.4813 199.837 19.7279C200.496 19.9745 201.073 20.2211 201.551 20.4841C202.029 20.7472 202.408 21.0595 202.671 21.4212C202.935 21.7829 203.067 22.2596 203.067 22.835L203.017 22.9172Z" fill="black"/>
<path d="M209.674 15.059C210.581 15.059 211.355 15.2562 211.998 15.6508C212.64 16.0454 213.135 16.6043 213.481 17.3277C213.827 18.051 213.991 18.873 213.991 19.843V20.8294H206.675C206.692 22.0624 207.005 23.0159 207.598 23.657C208.191 24.2982 209.048 24.627 210.136 24.627C210.811 24.627 211.404 24.5612 211.915 24.4461C212.426 24.3311 212.97 24.1502 213.514 23.9036V25.3175C212.986 25.5476 212.443 25.7285 211.932 25.8435C211.421 25.9586 210.795 26.0079 210.07 26.0079C209.048 26.0079 208.158 25.7942 207.417 25.3832C206.675 24.9722 206.066 24.3639 205.654 23.5584C205.242 22.7528 205.028 21.7664 205.028 20.6156C205.028 19.4649 205.225 18.4949 205.604 17.6565C205.983 16.818 206.527 16.1769 207.219 15.733C207.911 15.2891 208.735 15.059 209.691 15.059H209.674ZM209.658 16.3577C208.801 16.3577 208.125 16.6372 207.615 17.1961C207.104 17.7551 206.807 18.5278 206.708 19.5306H212.311C212.311 18.9059 212.212 18.3469 212.014 17.8702C211.816 17.3934 211.536 17.0153 211.157 16.7523C210.778 16.4892 210.268 16.3577 209.674 16.3577H209.658Z" fill="black"/>
<path d="M215.425 30.5453C215.095 30.5453 214.815 30.5289 214.568 30.4796C214.321 30.4302 214.107 30.3809 213.925 30.3152V29.0164C214.123 29.0822 214.321 29.1315 214.535 29.1644C214.749 29.1973 214.98 29.2137 215.227 29.2137C215.672 29.2137 216.018 29.0986 216.282 28.852C216.545 28.6054 216.694 28.1615 216.694 27.5204V15.2562H218.292V27.4875C218.292 28.1287 218.193 28.6876 217.979 29.1315C217.765 29.5754 217.452 29.937 217.04 30.1836C216.628 30.4302 216.068 30.5453 215.425 30.5453ZM216.562 12.3463C216.562 11.9847 216.661 11.7216 216.842 11.5572C217.023 11.3928 217.254 11.2942 217.534 11.2942C217.814 11.2942 218.028 11.3764 218.21 11.5572C218.391 11.7381 218.49 11.9847 218.49 12.3463C218.49 12.708 218.391 12.9711 218.21 13.1355C218.028 13.2999 217.798 13.3985 217.534 13.3985C217.27 13.3985 217.023 13.3163 216.842 13.1355C216.661 12.9546 216.562 12.6916 216.562 12.3463Z" fill="black"/>
<path d="M225.657 15.0753C226.926 15.0753 227.849 15.3548 228.475 15.9302C229.101 16.5056 229.398 17.3933 229.398 18.6428V25.827H228.228L227.915 24.2652H227.832C227.536 24.6433 227.223 24.9721 226.91 25.2352C226.597 25.4982 226.218 25.6955 225.789 25.827C225.361 25.9585 224.85 26.0243 224.24 26.0243C223.598 26.0243 223.021 25.9092 222.527 25.6791C222.032 25.4489 221.637 25.1201 221.357 24.6598C221.077 24.1995 220.928 23.6241 220.928 22.9336C220.928 21.8814 221.34 21.0759 222.181 20.5005C223.021 19.9251 224.29 19.6292 226.003 19.5799L227.832 19.4977V18.8565C227.832 17.9523 227.635 17.3111 227.239 16.933C226.844 16.5549 226.3 16.3905 225.575 16.3905C225.015 16.3905 224.487 16.4727 223.993 16.6371C223.499 16.8015 223.021 16.9823 222.56 17.2125L222.065 15.996C222.543 15.7494 223.087 15.5356 223.713 15.3712C224.339 15.2068 224.982 15.1082 225.657 15.1082V15.0753ZM227.799 20.5991L226.185 20.6649C224.866 20.7142 223.927 20.9279 223.4 21.306C222.873 21.6842 222.593 22.2267 222.593 22.9172C222.593 23.5254 222.774 23.9693 223.136 24.2488C223.499 24.5283 223.993 24.6762 224.586 24.6762C225.526 24.6762 226.3 24.4132 226.893 23.9035C227.486 23.3939 227.783 22.6048 227.783 21.5691V20.5991H227.799Z" fill="black"/>
<path d="M241.772 15.0753C243.041 15.0753 243.964 15.3548 244.59 15.9302C245.216 16.5056 245.513 17.3933 245.513 18.6428V25.827H244.343L244.03 24.2652H243.947C243.651 24.6433 243.338 24.9721 243.025 25.2352C242.711 25.4982 242.332 25.6955 241.904 25.827C241.476 25.9585 240.965 26.0243 240.355 26.0243C239.713 26.0243 239.136 25.9092 238.642 25.6791C238.147 25.4489 237.752 25.1201 237.472 24.6598C237.192 24.1995 237.043 23.6241 237.043 22.9336C237.043 21.8814 237.455 21.0759 238.295 20.5005C239.136 19.9251 240.405 19.6292 242.118 19.5799L243.947 19.4977V18.8565C243.947 17.9523 243.749 17.3111 243.354 16.933C242.959 16.5549 242.415 16.3905 241.69 16.3905C241.13 16.3905 240.602 16.4727 240.108 16.6371C239.614 16.8015 239.136 16.9823 238.674 17.2125L238.18 15.996C238.658 15.7494 239.202 15.5356 239.828 15.3712C240.454 15.2068 241.097 15.1082 241.772 15.1082V15.0753ZM243.914 20.5991L242.299 20.6649C240.981 20.7142 240.042 20.9279 239.515 21.306C238.988 21.6842 238.707 22.2267 238.707 22.9172C238.707 23.5254 238.889 23.9693 239.251 24.2488C239.614 24.5283 240.108 24.6762 240.701 24.6762C241.64 24.6762 242.415 24.4132 243.008 23.9035C243.601 23.3939 243.898 22.6048 243.898 21.5691V20.5991H243.914Z" fill="black"/>
<path d="M253.768 15.059C255.086 15.059 256.14 15.5193 256.931 16.4235C257.722 17.3277 258.101 18.6922 258.101 20.5006C258.101 21.7007 257.92 22.7035 257.558 23.5255C257.195 24.3475 256.684 24.9558 256.042 25.3668C255.399 25.7778 254.625 25.9915 253.735 25.9915C253.175 25.9915 252.68 25.9257 252.252 25.7778C251.823 25.6298 251.461 25.4325 251.164 25.1859C250.868 24.9393 250.604 24.6599 250.406 24.3639H250.291C250.307 24.6105 250.34 24.9229 250.357 25.2681C250.373 25.6134 250.406 25.9257 250.406 26.1888V30.5289H248.792V15.2562H250.11L250.324 16.818H250.406C250.604 16.4892 250.868 16.2098 251.164 15.9303C251.461 15.6508 251.823 15.4535 252.252 15.2891C252.68 15.1247 253.191 15.059 253.768 15.059ZM253.488 16.407C252.746 16.407 252.169 16.555 251.708 16.8345C251.247 17.1139 250.934 17.5414 250.736 18.1003C250.538 18.6593 250.423 19.3662 250.406 20.2211V20.5334C250.406 21.4212 250.505 22.1774 250.703 22.8022C250.901 23.4269 251.23 23.8872 251.675 24.216C252.12 24.5448 252.746 24.6927 253.504 24.6927C254.163 24.6927 254.707 24.5119 255.152 24.1667C255.597 23.8214 255.91 23.3282 256.124 22.6871C256.338 22.0459 256.454 21.3226 256.454 20.5006C256.454 19.2511 256.206 18.2647 255.729 17.5249C255.251 16.7852 254.493 16.4235 253.488 16.4235V16.407Z" fill="black"/>
<path d="M265.714 15.059C265.928 15.059 266.142 15.059 266.373 15.0918C266.604 15.1247 266.818 15.1412 266.999 15.1905L266.801 16.6701C266.62 16.6208 266.439 16.5879 266.225 16.5714C266.01 16.555 265.813 16.5386 265.631 16.5386C265.203 16.5386 264.808 16.6208 264.429 16.8016C264.05 16.9824 263.72 17.2126 263.44 17.5414C263.16 17.8702 262.929 18.2483 262.781 18.6922C262.633 19.1361 262.534 19.6293 262.534 20.1882V25.86H260.919V15.3056H262.254L262.435 17.2455H262.501C262.715 16.8509 262.979 16.4892 263.292 16.1769C263.605 15.8645 263.967 15.6015 264.363 15.4042C264.758 15.2069 265.22 15.1083 265.73 15.1083L265.714 15.059Z" fill="black"/>
<path d="M278.105 20.5005C278.105 21.3718 277.989 22.1445 277.759 22.8186C277.528 23.4926 277.215 24.068 276.787 24.5448C276.358 25.0215 275.847 25.3667 275.254 25.6133C274.661 25.8599 273.969 25.9915 273.211 25.9915C272.502 25.9915 271.86 25.8599 271.267 25.6133C270.674 25.3667 270.163 25.0051 269.734 24.5448C269.306 24.0844 268.976 23.509 268.746 22.8186C268.515 22.1281 268.4 21.3718 268.4 20.5005C268.4 19.3497 268.597 18.3633 268.993 17.5413C269.388 16.7194 269.949 16.1111 270.674 15.6836C271.399 15.2562 272.272 15.0425 273.277 15.0425C274.282 15.0425 275.089 15.2562 275.814 15.6836C276.539 16.1111 277.1 16.7358 277.512 17.5413C277.924 18.3469 278.121 19.3333 278.121 20.4841L278.105 20.5005ZM270.047 20.5005C270.047 21.3554 270.163 22.0788 270.393 22.7035C270.624 23.3282 270.97 23.805 271.431 24.1502C271.893 24.4954 272.502 24.6598 273.244 24.6598C273.985 24.6598 274.579 24.4954 275.056 24.1502C275.534 23.805 275.88 23.3282 276.111 22.7035C276.342 22.0788 276.457 21.339 276.457 20.5005C276.457 19.6621 276.342 18.9387 276.111 18.314C275.88 17.6893 275.534 17.229 275.073 16.9002C274.612 16.5714 274.002 16.407 273.244 16.407C272.14 16.407 271.333 16.7687 270.822 17.492C270.311 18.2154 270.047 19.2182 270.047 20.5005Z" fill="black"/>
<path d="M283.394 20.4019L279.736 15.2562H281.565L284.35 19.3169L287.134 15.2562H288.947L285.289 20.4019L289.145 25.8106H287.316L284.35 21.5034L281.367 25.8106H279.555L283.394 20.4019Z" fill="black"/>
<path d="M292.045 11.2942C292.308 11.2942 292.539 11.3764 292.72 11.5572C292.901 11.7381 293 11.9847 293 12.3463C293 12.708 292.901 12.9711 292.72 13.1355C292.539 13.2999 292.308 13.3985 292.045 13.3985C291.781 13.3985 291.534 13.3163 291.353 13.1355C291.171 12.9546 291.072 12.6916 291.072 12.3463C291.072 12.0011 291.171 11.7216 291.353 11.5572C291.534 11.3928 291.765 11.2942 292.045 11.2942ZM292.819 15.2398V25.7942H291.221V15.2398H292.819Z" fill="black"/>
<path d="M307.698 15.0589C308.868 15.0589 309.741 15.3548 310.335 15.9631C310.928 16.5714 311.224 17.5413 311.224 18.8894V25.8106H309.642V18.9716C309.642 18.1167 309.461 17.4756 309.082 17.0481C308.703 16.6207 308.16 16.407 307.434 16.407C306.413 16.407 305.671 16.7029 305.21 17.2947C304.749 17.8866 304.518 18.7579 304.518 19.9087V25.8106H302.92V18.9716C302.92 18.3962 302.837 17.9195 302.673 17.5413C302.508 17.1632 302.261 16.8838 301.931 16.6865C301.602 16.4892 301.19 16.407 300.695 16.407C299.987 16.407 299.427 16.555 298.998 16.8344C298.57 17.1139 298.273 17.5578 298.075 18.1167C297.878 18.6757 297.795 19.3826 297.795 20.2046V25.7942H296.197V15.2398H297.499L297.746 16.7358H297.828C298.042 16.3741 298.306 16.0618 298.636 15.8152C298.965 15.5686 299.311 15.3713 299.723 15.2398C300.135 15.1082 300.547 15.0425 300.992 15.0425C301.799 15.0425 302.475 15.1904 303.019 15.4864C303.562 15.7823 303.958 16.2426 304.205 16.8509H304.287C304.633 16.2426 305.111 15.7823 305.721 15.4864C306.331 15.1904 306.99 15.0425 307.715 15.0425L307.698 15.0589Z" fill="black"/>
<path d="M318.474 15.0753C319.743 15.0753 320.666 15.3548 321.292 15.9302C321.918 16.5056 322.215 17.3933 322.215 18.6428V25.827H321.045L320.732 24.2652H320.649C320.353 24.6433 320.04 24.9721 319.727 25.2352C319.413 25.4982 319.035 25.6955 318.606 25.827C318.178 25.9585 317.667 26.0243 317.057 26.0243C316.415 26.0243 315.838 25.9092 315.344 25.6791C314.849 25.4489 314.454 25.1201 314.174 24.6598C313.894 24.1995 313.745 23.6241 313.745 22.9336C313.745 21.8814 314.157 21.0759 314.998 20.5005C315.838 19.9251 317.107 19.6292 318.82 19.5799L320.649 19.4977V18.8565C320.649 17.9523 320.452 17.3111 320.056 16.933C319.661 16.5549 319.117 16.3905 318.392 16.3905C317.832 16.3905 317.304 16.4727 316.81 16.6371C316.316 16.8015 315.838 16.9823 315.377 17.2125L314.882 15.996C315.36 15.7494 315.904 15.5356 316.53 15.3712C317.156 15.2068 317.799 15.1082 318.474 15.1082V15.0753ZM320.616 20.5991L319.002 20.6649C317.683 20.7142 316.744 20.9279 316.217 21.306C315.69 21.6842 315.41 22.2267 315.41 22.9172C315.41 23.5254 315.591 23.9693 315.953 24.2488C316.316 24.5283 316.81 24.6762 317.403 24.6762C318.342 24.6762 319.117 24.4132 319.71 23.9035C320.303 23.3939 320.6 22.6048 320.6 21.5691V20.5991H320.616Z" fill="black"/>
<path d="M329.267 25.9915C327.932 25.9915 326.861 25.5312 326.087 24.627C325.312 23.7228 324.917 22.3583 324.917 20.5663C324.917 18.7744 325.312 17.377 326.12 16.4564C326.927 15.5357 327.982 15.059 329.3 15.059C329.86 15.059 330.354 15.1247 330.766 15.2727C331.178 15.4206 331.541 15.6179 331.854 15.8645C332.167 16.1111 332.414 16.3906 332.612 16.703H332.727C332.694 16.5057 332.678 16.2262 332.645 15.881C332.612 15.5357 332.612 15.2562 332.612 15.0261V10.801H334.21V25.7942H332.908L332.661 24.2982H332.595C332.398 24.6105 332.151 24.9065 331.837 25.1531C331.524 25.3997 331.162 25.6134 330.75 25.7613C330.338 25.9093 329.827 25.9915 329.251 25.9915H329.267ZM329.531 24.6599C330.668 24.6599 331.458 24.3311 331.936 23.6899C332.414 23.0488 332.645 22.0952 332.645 20.8294V20.5335C332.645 19.1854 332.414 18.1661 331.969 17.4427C331.524 16.7194 330.717 16.3577 329.531 16.3577C328.542 16.3577 327.817 16.7358 327.323 17.4921C326.828 18.2483 326.581 19.2676 326.581 20.5828C326.581 21.898 326.828 22.8844 327.306 23.5913C327.784 24.2982 328.525 24.6434 329.514 24.6434L329.531 24.6599Z" fill="black"/>
<path d="M341.559 15.0753C342.828 15.0753 343.751 15.3548 344.377 15.9302C345.003 16.5056 345.299 17.3933 345.299 18.6428V25.827H344.13L343.816 24.2652H343.734C343.438 24.6433 343.124 24.9721 342.811 25.2352C342.498 25.4982 342.119 25.6955 341.691 25.827C341.262 25.9585 340.752 26.0243 340.142 26.0243C339.499 26.0243 338.923 25.9092 338.428 25.6791C337.934 25.4489 337.539 25.1201 337.258 24.6598C336.978 24.1995 336.83 23.6241 336.83 22.9336C336.83 21.8814 337.242 21.0759 338.082 20.5005C338.923 19.9251 340.191 19.6292 341.905 19.5799L343.734 19.4977V18.8565C343.734 17.9523 343.536 17.3111 343.141 16.933C342.745 16.5549 342.202 16.3905 341.477 16.3905C340.916 16.3905 340.389 16.4727 339.895 16.6371C339.401 16.8015 338.923 16.9823 338.461 17.2125L337.967 15.996C338.445 15.7494 338.989 15.5356 339.615 15.3712C340.241 15.2068 340.883 15.1082 341.559 15.1082V15.0753ZM343.701 20.5991L342.086 20.6649C340.768 20.7142 339.829 20.9279 339.302 21.306C338.774 21.6842 338.494 22.2267 338.494 22.9172C338.494 23.5254 338.676 23.9693 339.038 24.2488C339.401 24.5283 339.895 24.6762 340.488 24.6762C341.427 24.6762 342.202 24.4132 342.795 23.9035C343.388 23.3939 343.685 22.6048 343.685 21.5691V20.5991H343.701Z" fill="black"/>
<path d="M360.08 15.0589C361.25 15.0589 362.123 15.3548 362.716 15.9631C363.309 16.5714 363.606 17.5413 363.606 18.8894V25.8106H362.024V18.9716C362.024 18.1167 361.843 17.4756 361.464 17.0481C361.085 16.6207 360.541 16.407 359.816 16.407C358.794 16.407 358.053 16.7029 357.592 17.2947C357.13 17.8866 356.9 18.7579 356.9 19.9087V25.8106H355.301V18.9716C355.301 18.3962 355.219 17.9195 355.054 17.5413C354.889 17.1632 354.642 16.8838 354.313 16.6865C353.983 16.4892 353.571 16.407 353.077 16.407C352.368 16.407 351.808 16.555 351.38 16.8344C350.951 17.1139 350.655 17.5578 350.457 18.1167C350.259 18.6757 350.177 19.3826 350.177 20.2046V25.7942H348.578V15.2398H349.88L350.127 16.7358H350.21C350.424 16.3741 350.688 16.0618 351.017 15.8152C351.347 15.5686 351.693 15.3713 352.105 15.2398C352.517 15.1082 352.928 15.0425 353.373 15.0425C354.181 15.0425 354.856 15.1904 355.4 15.4864C355.944 15.7823 356.339 16.2426 356.586 16.8509H356.669C357.015 16.2426 357.493 15.7823 358.102 15.4864C358.712 15.1904 359.371 15.0425 360.096 15.0425L360.08 15.0589Z" fill="black"/>
<path d="M370.971 15.059C371.877 15.059 372.652 15.2562 373.294 15.6508C373.937 16.0454 374.431 16.6043 374.777 17.3277C375.123 18.051 375.288 18.873 375.288 19.843V20.8294H367.972C367.989 22.0624 368.302 23.0159 368.895 23.657C369.488 24.2982 370.345 24.627 371.433 24.627C372.108 24.627 372.701 24.5612 373.212 24.4461C373.723 24.3311 374.267 24.1502 374.81 23.9036V25.3175C374.283 25.5476 373.739 25.7285 373.229 25.8435C372.718 25.9586 372.092 26.0079 371.367 26.0079C370.345 26.0079 369.455 25.7942 368.714 25.3832C367.972 24.9722 367.363 24.3639 366.951 23.5584C366.539 22.7528 366.325 21.7664 366.325 20.6156C366.325 19.4649 366.522 18.4949 366.901 17.6565C367.28 16.818 367.824 16.1769 368.516 15.733C369.208 15.2891 370.032 15.059 370.988 15.059H370.971ZM370.955 16.3577C370.098 16.3577 369.422 16.6372 368.912 17.1961C368.401 17.7551 368.104 18.5278 368.005 19.5306H373.608C373.608 18.9059 373.509 18.3469 373.311 17.8702C373.113 17.3934 372.833 17.0153 372.454 16.7523C372.075 16.4892 371.564 16.3577 370.971 16.3577H370.955Z" fill="black"/>
<path d="M383.016 15.059C384.268 15.059 385.224 15.3713 385.867 15.9796C386.509 16.5879 386.839 17.5743 386.839 18.9388V25.8107H385.257V19.0374C385.257 18.1497 385.059 17.4921 384.647 17.0646C384.235 16.6372 383.626 16.407 382.802 16.407C381.632 16.407 380.808 16.7358 380.33 17.3934C379.852 18.051 379.622 19.021 379.622 20.2704V25.7942H378.023V15.2398H379.325L379.572 16.7687H379.655C379.885 16.3906 380.165 16.0782 380.512 15.8316C380.858 15.585 381.253 15.3878 381.681 15.2562C382.11 15.1247 382.571 15.059 383.049 15.059H383.016Z" fill="black"/>
<path d="M393.545 24.6927C393.809 24.6927 394.072 24.6763 394.353 24.627C394.633 24.5777 394.847 24.5283 395.028 24.4626V25.712C394.847 25.7942 394.583 25.86 394.254 25.9257C393.924 25.9915 393.595 26.0079 393.281 26.0079C392.721 26.0079 392.21 25.9093 391.749 25.712C391.288 25.5147 390.925 25.1859 390.645 24.7092C390.365 24.2324 390.233 23.5913 390.233 22.7693V16.5057H388.734V15.733L390.25 15.1083L390.892 12.8231H391.864V15.2727H394.962V16.5221H391.864V22.7364C391.864 23.394 392.013 23.8872 392.326 24.216C392.639 24.5448 393.034 24.7092 393.545 24.7092V24.6927Z" fill="black"/>
<path d="M401.257 15.059C402.163 15.059 402.937 15.2562 403.58 15.6508C404.222 16.0454 404.717 16.6043 405.063 17.3277C405.409 18.051 405.574 18.873 405.574 19.843V20.8294H398.258C398.274 22.0624 398.587 23.0159 399.18 23.657C399.774 24.2982 400.63 24.627 401.718 24.627C402.393 24.627 402.987 24.5612 403.497 24.4461C404.008 24.3311 404.552 24.1502 405.096 23.9036V25.3175C404.568 25.5476 404.025 25.7285 403.514 25.8435C403.003 25.9586 402.377 26.0079 401.652 26.0079C400.63 26.0079 399.741 25.7942 398.999 25.3832C398.258 24.9722 397.648 24.3639 397.236 23.5584C396.824 22.7528 396.61 21.7664 396.61 20.6156C396.61 19.4649 396.808 18.4949 397.187 17.6565C397.566 16.818 398.109 16.1769 398.801 15.733C399.493 15.2891 400.317 15.059 401.273 15.059H401.257ZM401.224 16.3577C400.367 16.3577 399.691 16.6372 399.18 17.1961C398.67 17.7551 398.373 18.5278 398.274 19.5306H403.876C403.876 18.9059 403.778 18.3469 403.58 17.8702C403.382 17.3934 403.102 17.0153 402.723 16.7523C402.344 16.4892 401.833 16.3577 401.24 16.3577H401.224Z" fill="black"/>
<path d="M421.425 15.0096C421.425 15.6343 421.309 16.1769 421.062 16.6536C420.815 17.1304 420.469 17.4921 420.041 17.788C419.612 18.0839 419.085 18.2812 418.492 18.3963V18.4785C419.612 18.6264 420.453 18.9716 421.013 19.5635C421.573 20.1553 421.853 20.8951 421.853 21.8322C421.853 22.6542 421.656 23.3775 421.277 24.0023C420.898 24.627 420.304 25.1202 419.513 25.4819C418.723 25.8435 417.717 26.0244 416.482 26.0244C415.74 26.0244 415.048 25.9586 414.405 25.8435C413.763 25.7285 413.17 25.5312 412.593 25.2517V23.7557C413.186 24.0516 413.812 24.2653 414.504 24.4297C415.196 24.5941 415.855 24.6763 416.498 24.6763C417.783 24.6763 418.723 24.4133 419.283 23.9036C419.843 23.394 420.14 22.6871 420.14 21.8158C420.14 21.2075 419.975 20.7143 419.662 20.3362C419.349 19.958 418.887 19.6786 418.294 19.5142C417.701 19.3498 416.976 19.2511 416.152 19.2511H414.735V17.8866H416.152C416.91 17.8866 417.569 17.7715 418.096 17.5414C418.624 17.3112 419.036 16.9989 419.316 16.5879C419.596 16.1769 419.728 15.7001 419.728 15.1412C419.728 14.4342 419.497 13.8753 419.019 13.4972C418.541 13.119 417.899 12.9218 417.075 12.9218C416.58 12.9218 416.119 12.9711 415.707 13.0697C415.295 13.1684 414.916 13.3163 414.554 13.4972C414.191 13.678 413.829 13.8917 413.466 14.1219L412.659 13.0204C413.17 12.6258 413.796 12.2806 414.537 11.9847C415.279 11.6888 416.119 11.5573 417.058 11.5573C418.508 11.5573 419.579 11.886 420.304 12.5436C421.029 13.2012 421.392 14.0397 421.392 15.0425L421.425 15.0096Z" fill="black"/>
<path d="M426.549 23.509L426.681 23.7227C426.566 24.1995 426.417 24.6927 426.236 25.2187C426.055 25.7448 425.874 26.2873 425.659 26.8299C425.445 27.3724 425.248 27.8656 425.033 28.3423H423.831C423.962 27.8327 424.094 27.2902 424.226 26.7148C424.358 26.1394 424.473 25.5804 424.572 25.0215C424.671 24.4625 424.77 23.9529 424.836 23.4926H426.549V23.509Z" fill="black"/>
<path d="M435.085 25.8106H433.519V15.8316C433.519 15.4535 433.519 15.1247 433.519 14.8617C433.519 14.5986 433.519 14.3356 433.536 14.1054C433.552 13.8753 433.552 13.6451 433.585 13.4149C433.387 13.6122 433.206 13.7931 433.025 13.941C432.844 14.089 432.629 14.2698 432.382 14.4835L430.767 15.7823L429.927 14.6973L433.75 11.7545H435.085V25.8435V25.8106Z" fill="black"/>
<path d="M450.375 22.5391H448.266V25.8106H446.701V22.5391H439.879V21.191L446.602 11.6394H448.266V21.0924H450.375V22.5391ZM446.701 21.0924V16.4892C446.701 16.1439 446.701 15.8151 446.701 15.5357C446.701 15.2562 446.701 14.9767 446.734 14.7301C446.767 14.4835 446.751 14.2533 446.767 14.0232C446.783 13.793 446.783 13.5793 446.783 13.3656H446.701C446.586 13.6286 446.437 13.8917 446.289 14.1876C446.141 14.4835 445.976 14.7301 445.811 14.9603L441.461 21.1088H446.701V21.0924Z" fill="black"/>
<path d="M454.281 23.509L454.412 23.7227C454.297 24.1995 454.149 24.6927 453.968 25.2187C453.786 25.7448 453.605 26.2873 453.391 26.8299C453.177 27.3724 452.979 27.8656 452.765 28.3423H451.562C451.694 27.8327 451.826 27.2902 451.957 26.7148C452.089 26.1394 452.204 25.5804 452.303 25.0215C452.402 24.4625 452.501 23.9529 452.567 23.4926H454.281V23.509Z" fill="black"/>
<path d="M466.655 15.0753C467.924 15.0753 468.847 15.3548 469.473 15.9302C470.099 16.5056 470.396 17.3933 470.396 18.6428V25.827H469.226L468.913 24.2652H468.83C468.534 24.6433 468.221 24.9721 467.907 25.2352C467.594 25.4982 467.215 25.6955 466.787 25.827C466.359 25.9585 465.848 26.0243 465.238 26.0243C464.595 26.0243 464.019 25.9092 463.524 25.6791C463.03 25.4489 462.635 25.1201 462.355 24.6598C462.074 24.1995 461.926 23.6241 461.926 22.9336C461.926 21.8814 462.338 21.0759 463.178 20.5005C464.019 19.9251 465.288 19.6292 467.001 19.5799L468.83 19.4977V18.8565C468.83 17.9523 468.632 17.3111 468.237 16.933C467.842 16.5549 467.298 16.3905 466.573 16.3905C466.013 16.3905 465.485 16.4727 464.991 16.6371C464.497 16.8015 464.019 16.9823 463.557 17.2125L463.063 15.996C463.541 15.7494 464.085 15.5356 464.711 15.3712C465.337 15.2068 465.98 15.1082 466.655 15.1082V15.0753ZM468.797 20.5991L467.182 20.6649C465.864 20.7142 464.925 20.9279 464.398 21.306C463.87 21.6842 463.59 22.2267 463.59 22.9172C463.59 23.5254 463.772 23.9693 464.134 24.2488C464.497 24.5283 464.991 24.6762 465.584 24.6762C466.523 24.6762 467.298 24.4132 467.891 23.9035C468.484 23.3939 468.781 22.6048 468.781 21.5691V20.5991H468.797Z" fill="black"/>
<path d="M482.589 25.9915C481.254 25.9915 480.183 25.5312 479.409 24.627C478.634 23.7228 478.239 22.3583 478.239 20.5663C478.239 18.7744 478.634 17.377 479.442 16.4564C480.249 15.5357 481.304 15.059 482.622 15.059C483.182 15.059 483.676 15.1247 484.088 15.2727C484.5 15.4206 484.863 15.6179 485.176 15.8645C485.489 16.1111 485.736 16.3906 485.934 16.703H486.049C486.016 16.5057 486 16.2262 485.967 15.881C485.934 15.5357 485.934 15.2562 485.934 15.0261V10.801H487.532V25.7942H486.23L485.983 24.2982H485.917C485.719 24.6105 485.472 24.9065 485.159 25.1531C484.846 25.3997 484.484 25.6134 484.072 25.7613C483.66 25.9093 483.149 25.9915 482.572 25.9915H482.589ZM482.836 24.6599C483.973 24.6599 484.764 24.3311 485.242 23.6899C485.719 23.0488 485.95 22.0952 485.95 20.8294V20.5335C485.95 19.1854 485.719 18.1661 485.275 17.4427C484.83 16.7194 484.022 16.3577 482.836 16.3577C481.847 16.3577 481.122 16.7358 480.628 17.4921C480.134 18.2483 479.886 19.2676 479.886 20.5828C479.886 21.898 480.134 22.8844 480.611 23.5913C481.089 24.2982 481.831 24.6434 482.819 24.6434L482.836 24.6599Z" fill="black"/>
<path d="M491.75 11.2942C492.014 11.2942 492.244 11.3764 492.426 11.5572C492.607 11.7381 492.706 11.9847 492.706 12.3463C492.706 12.708 492.607 12.9711 492.426 13.1355C492.244 13.2999 492.014 13.3985 491.75 13.3985C491.487 13.3985 491.239 13.3163 491.058 13.1355C490.877 12.9546 490.778 12.6916 490.778 12.3463C490.778 12.0011 490.877 11.7216 491.058 11.5572C491.239 11.3928 491.47 11.2942 491.75 11.2942ZM492.525 15.2398V25.7942H490.926V15.2398H492.525Z" fill="black"/>
<path d="M498.242 25.8106L494.222 15.2562H495.935L498.259 21.6349C498.424 22.0787 498.588 22.5555 498.753 23.0816C498.918 23.6077 499.033 24.0351 499.099 24.3475H499.165C499.247 24.0187 499.363 23.6077 499.544 23.0651C499.725 22.5226 499.89 22.0623 500.038 21.6184L502.362 15.2397H504.075L500.055 25.7942H498.226L498.242 25.8106Z" fill="black"/>
<path d="M506.613 11.2942C506.876 11.2942 507.107 11.3764 507.288 11.5572C507.47 11.7381 507.568 11.9847 507.568 12.3463C507.568 12.708 507.47 12.9711 507.288 13.1355C507.107 13.2999 506.876 13.3985 506.613 13.3985C506.349 13.3985 506.102 13.3163 505.921 13.1355C505.739 12.9546 505.641 12.6916 505.641 12.3463C505.641 12.0011 505.739 11.7216 505.921 11.5572C506.102 11.3928 506.333 11.2942 506.613 11.2942ZM507.387 15.2398V25.7942H505.789V15.2398H507.387Z" fill="black"/>
<path d="M517.62 22.9172C517.62 23.5913 517.455 24.1502 517.109 24.6106C516.763 25.0709 516.285 25.4161 515.659 25.6463C515.033 25.8764 514.291 25.9915 513.418 25.9915C512.676 25.9915 512.034 25.9257 511.49 25.8107C510.946 25.6956 510.468 25.5312 510.073 25.3175V23.8379C510.501 24.0516 511.012 24.2489 511.622 24.4133C512.232 24.5777 512.825 24.6763 513.451 24.6763C514.357 24.6763 515.033 24.5284 515.445 24.2324C515.857 23.9365 516.071 23.542 516.071 23.0323C516.071 22.7364 515.988 22.4898 515.824 22.2596C515.659 22.0295 515.379 21.8158 515 21.6185C514.621 21.4212 514.077 21.1746 513.401 20.928C512.726 20.665 512.149 20.4184 511.655 20.1553C511.16 19.8923 510.782 19.5964 510.518 19.2183C510.254 18.8401 510.122 18.3798 510.122 17.788C510.122 16.9002 510.485 16.2098 511.21 15.733C511.935 15.2562 512.891 15.0096 514.061 15.0096C514.703 15.0096 515.296 15.0754 515.857 15.1905C516.417 15.3056 516.928 15.4864 517.422 15.7001L516.878 16.9824C516.433 16.8016 515.972 16.6372 515.478 16.5057C514.983 16.3742 514.472 16.3084 513.962 16.3084C513.22 16.3084 512.66 16.4235 512.265 16.6701C511.869 16.9167 511.671 17.2455 511.671 17.6729C511.671 18.0017 511.77 18.2647 511.951 18.4785C512.133 18.6922 512.429 18.8895 512.841 19.0703C513.253 19.2511 513.78 19.4813 514.439 19.7279C515.099 19.9745 515.675 20.2211 516.153 20.4841C516.631 20.7472 517.01 21.0595 517.274 21.4212C517.537 21.7829 517.669 22.2596 517.669 22.835L517.62 22.9172Z" fill="black"/>
<path d="M524.161 15.0754C525.43 15.0754 526.353 15.3549 526.979 15.9303C527.605 16.5057 527.902 17.3934 527.902 18.6429V25.8271H526.732L526.419 24.2653H526.336C526.04 24.6434 525.726 24.9722 525.413 25.2353C525.1 25.4983 524.721 25.6956 524.293 25.8271C523.865 25.9586 523.354 26.0244 522.744 26.0244C522.101 26.0244 521.525 25.9093 521.03 25.6791C520.536 25.449 520.141 25.1202 519.861 24.6599C519.58 24.1996 519.432 23.6242 519.432 22.9337C519.432 21.8815 519.844 21.076 520.684 20.5006C521.525 19.9252 522.794 19.6293 524.507 19.5799L526.336 19.4977V18.8566C526.336 17.9524 526.138 17.3112 525.743 16.9331C525.348 16.555 524.804 16.3906 524.079 16.3906C523.519 16.3906 522.991 16.4728 522.497 16.6372C522.003 16.8016 521.525 16.9824 521.063 17.2126L520.569 15.996C521.047 15.7494 521.591 15.5357 522.217 15.3713C522.843 15.2069 523.486 15.1083 524.161 15.1083V15.0754ZM520.355 13.826C520.388 13.4479 520.47 13.1026 520.569 12.7903C520.668 12.4779 520.816 12.2313 520.997 12.0176C521.179 11.8039 521.393 11.6395 521.64 11.5244C521.887 11.4093 522.167 11.36 522.464 11.36C522.761 11.36 523.041 11.4257 523.321 11.5408C523.601 11.6559 523.848 11.7874 524.095 11.9518C524.342 12.1162 524.573 12.2313 524.804 12.3628C525.034 12.4943 525.249 12.5437 525.463 12.5437C525.776 12.5437 526.007 12.445 526.188 12.2642C526.369 12.0833 526.484 11.771 526.583 11.36H527.523C527.44 12.1162 527.209 12.7081 526.863 13.1519C526.517 13.5958 526.023 13.826 525.413 13.826C525.133 13.826 524.853 13.7602 524.59 13.6451C524.326 13.5301 524.079 13.3985 523.832 13.2341C523.584 13.0697 523.354 12.9547 523.107 12.8231C522.859 12.6916 522.645 12.6423 522.415 12.6423C522.101 12.6423 521.854 12.7409 521.69 12.9218C521.525 13.1026 521.393 13.415 521.311 13.8095H520.371L520.355 13.826ZM526.303 20.5992L524.688 20.665C523.37 20.7143 522.431 20.928 521.904 21.3061C521.376 21.6842 521.096 22.2268 521.096 22.9172C521.096 23.5255 521.278 23.9694 521.64 24.2489C522.003 24.5284 522.497 24.6763 523.09 24.6763C524.029 24.6763 524.804 24.4133 525.397 23.9036C525.99 23.394 526.287 22.6049 526.287 21.5692V20.5992H526.303Z" fill="black"/>
<path d="M540.309 20.5005C540.309 21.3718 540.194 22.1445 539.963 22.8186C539.732 23.4926 539.419 24.068 538.991 24.5448C538.562 25.0215 538.052 25.3667 537.458 25.6133C536.865 25.8599 536.173 25.9915 535.415 25.9915C534.707 25.9915 534.064 25.8599 533.471 25.6133C532.878 25.3667 532.367 25.0051 531.938 24.5448C531.51 24.0844 531.181 23.509 530.95 22.8186C530.719 22.1281 530.604 21.3718 530.604 20.5005C530.604 19.3497 530.802 18.3633 531.197 17.5413C531.592 16.7194 532.153 16.1111 532.878 15.6836C533.603 15.2562 534.476 15.0425 535.481 15.0425C536.486 15.0425 537.294 15.2562 538.019 15.6836C538.744 16.1111 539.304 16.7358 539.716 17.5413C540.128 18.3469 540.325 19.3333 540.325 20.4841L540.309 20.5005ZM532.268 20.5005C532.268 21.3554 532.383 22.0788 532.614 22.7035C532.845 23.3282 533.191 23.805 533.652 24.1502C534.113 24.4954 534.723 24.6598 535.465 24.6598C536.206 24.6598 536.799 24.4954 537.277 24.1502C537.755 23.805 538.101 23.3282 538.332 22.7035C538.562 22.0788 538.678 21.339 538.678 20.5005C538.678 19.6621 538.562 18.9387 538.332 18.314C538.101 17.6893 537.755 17.229 537.294 16.9002C536.832 16.5714 536.223 16.407 535.465 16.407C534.361 16.407 533.553 16.7687 533.042 17.492C532.532 18.2154 532.268 19.2182 532.268 20.5005Z" fill="black"/>
<path d="M4.66291 44.7001C5.56916 44.7001 6.3436 44.8974 6.98622 45.2919C7.62883 45.6865 8.12315 46.2454 8.46918 46.9688C8.8152 47.6921 8.97998 48.5141 8.97998 49.4841V50.4705H1.66403C1.68051 51.7035 1.99358 52.657 2.58676 53.2981C3.17995 53.9393 4.03677 54.2681 5.12428 54.2681C5.79985 54.2681 6.39303 54.2023 6.90383 54.0873C7.41463 53.9722 7.95838 53.7913 8.50213 53.5448V54.9586C7.97486 55.1887 7.43111 55.3696 6.92031 55.4847C6.40951 55.5997 5.78337 55.6491 5.05837 55.6491C4.03677 55.6491 3.14699 55.4353 2.40551 55.0243C1.66403 54.6133 1.05437 54.0051 0.642436 53.1995C0.230502 52.394 0.0162964 51.4076 0.0162964 50.2568C0.0162964 49.106 0.214025 48.136 0.593004 47.2976C0.971983 46.4592 1.51574 45.818 2.20778 45.3741C2.89983 44.9302 3.7237 44.7001 4.67939 44.7001H4.66291ZM4.64643 46.0153C3.78961 46.0153 3.11404 46.2948 2.60324 46.8537C2.09244 47.4127 1.79585 48.1853 1.69699 49.1882H7.29929C7.29929 48.5635 7.20042 48.0045 7.00269 47.5277C6.80497 47.051 6.52485 46.6729 6.14587 46.4098C5.76689 46.1468 5.25609 46.0153 4.66291 46.0153H4.64643ZM7.31576 40.3435V40.5408C7.18395 40.7216 7.01917 40.9518 6.78849 41.2148C6.55781 41.4779 6.32712 41.7409 6.04701 42.0368C5.76689 42.3327 5.50326 42.5958 5.22314 42.8588C4.94303 43.1218 4.69587 43.3356 4.46518 43.5164H3.39415V43.2862C3.59188 43.0396 3.82257 42.7437 4.06973 42.3985C4.31689 42.0533 4.54757 41.708 4.77825 41.3463C5.00893 40.9847 5.20666 40.6559 5.35496 40.3599H7.29929L7.31576 40.3435Z" fill="black"/>
<path d="M25.5729 44.8973V55.4517H24.2547L24.024 53.9721H23.9416C23.7274 54.3338 23.4473 54.6462 23.0848 54.8928C22.7223 55.1394 22.3433 55.3366 21.9149 55.4517C21.4865 55.5668 21.0251 55.6326 20.5308 55.6326C19.6904 55.6326 18.9984 55.501 18.4217 55.2216C17.845 54.9421 17.433 54.5311 17.1364 53.9721C16.8399 53.4132 16.708 52.6734 16.708 51.8021V44.8809H18.3228V51.687C18.3228 52.5747 18.5205 53.2159 18.916 53.6598C19.3115 54.1036 19.9211 54.3174 20.745 54.3174C21.5689 54.3174 22.162 54.1694 22.6234 53.8735C23.0848 53.5776 23.4308 53.1501 23.6285 52.5747C23.8263 51.9993 23.9416 51.2924 23.9416 50.454V44.8973H25.5564H25.5729Z" fill="black"/>
<path d="M40.4354 44.7C41.6053 44.7 42.4786 44.996 43.0718 45.6042C43.665 46.2125 43.9616 47.1825 43.9616 48.5305V55.4517H42.3798V48.6127C42.3798 47.7579 42.1985 47.1167 41.8195 46.6893C41.4405 46.2618 40.8968 46.0481 40.1718 46.0481C39.1502 46.0481 38.4087 46.344 37.9473 46.9359C37.486 47.5277 37.2553 48.399 37.2553 49.5498V55.4517H35.657V48.6127C35.657 48.0373 35.5746 47.5606 35.4098 47.1825C35.2451 46.8043 34.9979 46.5249 34.6684 46.3276C34.3388 46.1303 33.9269 46.0481 33.4326 46.0481C32.724 46.0481 32.1638 46.1961 31.7354 46.4755C31.307 46.755 31.0104 47.1989 30.8127 47.7579C30.6149 48.3168 30.5325 49.0237 30.5325 49.8457V55.4353H28.9342V44.8809H30.2359L30.4831 46.3769H30.5655C30.7797 46.0152 31.0433 45.7029 31.3729 45.4563C31.7024 45.2097 32.0485 45.0124 32.4604 44.8809C32.8723 44.7494 33.2843 44.6836 33.7291 44.6836C34.5365 44.6836 35.2121 44.8316 35.7559 45.1275C36.2996 45.4234 36.6951 45.8837 36.9422 46.492H37.0246C37.3706 45.8837 37.8485 45.4234 38.4581 45.1275C39.0678 44.8316 39.7269 44.6836 40.4519 44.6836L40.4354 44.7Z" fill="black"/>
<path d="M57.4071 44.7001C58.6594 44.7001 59.6151 45.0124 60.2577 45.6207C60.9003 46.229 61.2298 47.2154 61.2298 48.5799V55.4518H59.648V48.6785C59.648 47.7908 59.4503 47.1332 59.0384 46.7057C58.6264 46.2783 58.0168 46.0481 57.1929 46.0481C56.023 46.0481 55.1991 46.3769 54.7213 47.0345C54.2434 47.6921 54.0128 48.6621 54.0128 49.9115V55.4353H52.4145V44.8809H53.7162L53.9633 46.4098H54.0457C54.2764 46.0317 54.5565 45.7193 54.9025 45.4727C55.2486 45.2261 55.644 45.0289 56.0724 44.8974C56.5008 44.7658 56.9622 44.7001 57.4401 44.7001H57.4071Z" fill="black"/>
<path d="M73.2583 44.8974V55.4518H71.9401L71.7094 53.9722H71.6271C71.4128 54.3339 71.1327 54.6462 70.7702 54.8928C70.4077 55.1394 70.0287 55.3367 69.6003 55.4518C69.1719 55.5669 68.7106 55.6326 68.2162 55.6326C67.3759 55.6326 66.6838 55.5011 66.1071 55.2216C65.5304 54.9421 65.1185 54.5311 64.8219 53.9722C64.5253 53.4132 64.3935 52.6734 64.3935 51.8021V44.8809H66.0083V51.687C66.0083 52.5748 66.206 53.216 66.6015 53.6598C66.9969 54.1037 67.6066 54.3174 68.4304 54.3174C69.2543 54.3174 69.8475 54.1695 70.3089 53.8736C70.7702 53.5776 71.1162 53.1502 71.314 52.5748C71.5117 51.9994 71.6271 51.2925 71.6271 50.4541V44.8974H73.2418H73.2583ZM71.693 40.3435V40.5408C71.5611 40.7216 71.3964 40.9518 71.1657 41.2148C70.935 41.4779 70.7043 41.7409 70.4242 42.0368C70.1441 42.3327 69.8805 42.5958 69.6003 42.8588C69.3202 43.1218 69.0731 43.3356 68.8424 43.5164H67.7713V43.2862C67.9691 43.0396 68.1998 42.7437 68.4469 42.3985C68.6941 42.0533 68.9248 41.708 69.1554 41.3463C69.3861 40.9847 69.5839 40.6559 69.7322 40.3599H71.6765L71.693 40.3435Z" fill="black"/>
<path d="M88.1374 44.7C89.3073 44.7 90.1806 44.996 90.7737 45.6042C91.3669 46.2125 91.6635 47.1825 91.6635 48.5305V55.4517H90.0817V48.6127C90.0817 47.7579 89.9004 47.1167 89.5215 46.6893C89.1425 46.2618 88.5987 46.0481 87.8737 46.0481C86.8521 46.0481 86.1107 46.344 85.6493 46.9359C85.1879 47.5277 84.9572 48.399 84.9572 49.5498V55.4517H83.3589V48.6127C83.3589 48.0373 83.2765 47.5606 83.1118 47.1825C82.947 46.8043 82.6998 46.5249 82.3703 46.3276C82.0407 46.1303 81.6288 46.0481 81.1345 46.0481C80.426 46.0481 79.8657 46.1961 79.4373 46.4755C79.0089 46.755 78.7123 47.1989 78.5146 47.7579C78.3169 48.3168 78.2345 49.0237 78.2345 49.8457V55.4353H76.6362V44.8809H77.9379L78.185 46.3769H78.2674C78.4816 46.0152 78.7453 45.7029 79.0748 45.4563C79.4044 45.2097 79.7504 45.0124 80.1623 44.8809C80.5743 44.7494 80.9862 44.6836 81.4311 44.6836C82.2385 44.6836 82.914 44.8316 83.4578 45.1275C84.0016 45.4234 84.397 45.8837 84.6442 46.492H84.7266C85.0726 45.8837 85.5504 45.4234 86.1601 45.1275C86.7697 44.8316 87.4288 44.6836 88.1538 44.6836L88.1374 44.7Z" fill="black"/>
<path d="M99.0289 44.7001C99.9351 44.7001 100.71 44.8974 101.352 45.2919C101.995 45.6865 102.489 46.2454 102.835 46.9688C103.181 47.6921 103.346 48.5141 103.346 49.4841V50.4705H96.03C96.0465 51.7035 96.3595 52.657 96.9527 53.2981C97.5459 53.9393 98.4027 54.2681 99.4902 54.2681C100.166 54.2681 100.759 54.2023 101.27 54.0873C101.781 53.9722 102.324 53.7913 102.868 53.5447V54.9586C102.341 55.1887 101.797 55.3696 101.286 55.4847C100.775 55.5997 100.149 55.649 99.4243 55.649C98.4027 55.649 97.513 55.4353 96.7715 55.0243C96.03 54.6133 95.4203 54.0051 95.0084 53.1995C94.5965 52.394 94.3823 51.4076 94.3823 50.2568C94.3823 49.106 94.58 48.136 94.959 47.2976C95.338 46.4591 95.8817 45.818 96.5738 45.3741C97.2658 44.9302 98.0897 44.7001 99.0454 44.7001H99.0289ZM99.0124 46.0153C98.1556 46.0153 97.48 46.2947 96.9692 46.8537C96.4584 47.4127 96.1618 48.1853 96.063 49.1882H101.665C101.665 48.5635 101.566 48.0045 101.369 47.5277C101.171 47.051 100.891 46.6729 100.512 46.4098C100.133 46.1468 99.6221 46.0153 99.0289 46.0153H99.0124Z" fill="black"/>
<path d="M110.86 44.7001C111.074 44.7001 111.288 44.7001 111.519 44.733C111.749 44.7658 111.964 44.7823 112.145 44.8316L111.947 46.3112C111.766 46.2619 111.585 46.229 111.37 46.2125C111.156 46.1961 110.959 46.1797 110.777 46.1797C110.349 46.1797 109.953 46.2619 109.574 46.4427C109.195 46.6235 108.866 46.8537 108.586 47.1825C108.306 47.5113 108.075 47.8894 107.927 48.3333C107.778 48.7772 107.68 49.2704 107.68 49.8293V55.5011H106.065V44.9467H107.399L107.581 46.8866H107.647C107.861 46.492 108.124 46.1303 108.437 45.818C108.751 45.5056 109.113 45.2426 109.508 45.0453C109.904 44.848 110.365 44.7494 110.876 44.7494L110.86 44.7001Z" fill="black"/>
<path d="M123.267 50.1581C123.267 51.0294 123.152 51.8021 122.921 52.4762C122.69 53.1502 122.377 53.7256 121.949 54.2023C121.52 54.6791 121.01 55.0243 120.417 55.2709C119.823 55.5175 119.131 55.649 118.373 55.649C117.665 55.649 117.022 55.5175 116.429 55.2709C115.836 55.0243 115.325 54.6627 114.897 54.2023C114.468 53.742 114.139 53.1666 113.908 52.4762C113.677 51.7857 113.562 51.0294 113.562 50.1581C113.562 49.0073 113.76 48.0209 114.155 47.1989C114.551 46.3769 115.111 45.7687 115.836 45.3412C116.561 44.9138 117.434 44.7001 118.439 44.7001C119.444 44.7001 120.252 44.9138 120.977 45.3412C121.702 45.7687 122.262 46.3934 122.674 47.1989C123.086 48.0045 123.284 48.9909 123.284 50.1417L123.267 50.1581ZM115.21 50.1581C115.21 51.013 115.325 51.7364 115.556 52.3611C115.786 52.9858 116.132 53.4625 116.594 53.8078C117.055 54.153 117.665 54.3174 118.406 54.3174C119.148 54.3174 119.741 54.153 120.219 53.8078C120.697 53.4625 121.043 52.9858 121.273 52.3611C121.504 51.7364 121.619 50.9966 121.619 50.1581C121.619 49.3197 121.504 48.5963 121.273 47.9716C121.043 47.3469 120.697 46.8866 120.235 46.5578C119.774 46.229 119.164 46.0646 118.406 46.0646C117.302 46.0646 116.495 46.4263 115.984 47.1496C115.473 47.873 115.21 48.8758 115.21 50.1581Z" fill="black"/>
<path d="M131.984 40.9518C132.247 40.9518 132.478 41.034 132.659 41.2148C132.84 41.3957 132.939 41.6423 132.939 42.0039C132.939 42.3656 132.84 42.6287 132.659 42.7931C132.478 42.9575 132.247 43.0561 131.984 43.0561C131.72 43.0561 131.473 42.9739 131.292 42.7931C131.11 42.6122 131.011 42.3492 131.011 42.0039C131.011 41.6587 131.11 41.3792 131.292 41.2148C131.473 41.0504 131.703 40.9518 131.984 40.9518ZM132.775 44.8974V55.4518H131.176V44.8974H132.775Z" fill="black"/>
<path d="M140.964 44.7001C141.178 44.7001 141.392 44.7001 141.623 44.733C141.854 44.7658 142.068 44.7823 142.249 44.8316L142.051 46.3112C141.87 46.2619 141.689 46.229 141.475 46.2125C141.26 46.1961 141.063 46.1797 140.881 46.1797C140.453 46.1797 140.058 46.2619 139.679 46.4427C139.3 46.6235 138.97 46.8537 138.69 47.1825C138.41 47.5113 138.179 47.8894 138.031 48.3333C137.882 48.7772 137.784 49.2704 137.784 49.8293V55.5011H136.169V44.9467H137.504L137.685 46.8866H137.751C137.965 46.492 138.229 46.1303 138.542 45.818C138.855 45.5056 139.217 45.2426 139.613 45.0453C140.008 44.848 140.469 44.7494 140.98 44.7494L140.964 44.7001Z" fill="black"/>
<path d="M149.054 44.7001C149.268 44.7001 149.483 44.7001 149.713 44.733C149.944 44.7658 150.158 44.7823 150.339 44.8316L150.142 46.3112C149.96 46.2619 149.779 46.229 149.565 46.2125C149.351 46.1961 149.153 46.1797 148.972 46.1797C148.543 46.1797 148.148 46.2619 147.769 46.4427C147.39 46.6235 147.06 46.8537 146.78 47.1825C146.5 47.5113 146.269 47.8894 146.121 48.3333C145.973 48.7772 145.874 49.2704 145.874 49.8293V55.5011H144.259V44.9467H145.594L145.775 46.8866H145.841C146.055 46.492 146.319 46.1303 146.632 45.818C146.945 45.5056 147.308 45.2426 147.703 45.0453C148.098 44.848 148.56 44.7494 149.071 44.7494L149.054 44.7001Z" fill="black"/>
<path d="M156.288 44.7166C157.556 44.7166 158.479 44.996 159.105 45.5714C159.731 46.1468 160.028 47.0346 160.028 48.284V55.4683H158.858L158.545 53.9065H158.463C158.166 54.2846 157.853 54.6134 157.54 54.8764C157.227 55.1395 156.848 55.3367 156.42 55.4683C155.991 55.5998 155.48 55.6655 154.871 55.6655C154.228 55.6655 153.651 55.5505 153.157 55.3203C152.663 55.0901 152.267 54.7613 151.987 54.301C151.707 53.8407 151.559 53.2653 151.559 52.5748C151.559 51.5227 151.971 50.7171 152.811 50.1417C153.651 49.5663 154.92 49.2704 156.634 49.2211L158.463 49.1389V48.4977C158.463 47.5935 158.265 46.9524 157.87 46.5743C157.474 46.1961 156.93 46.0317 156.205 46.0317C155.645 46.0317 155.118 46.1139 154.623 46.2783C154.129 46.4427 153.651 46.6236 153.19 46.8537L152.696 45.6372C153.173 45.3906 153.717 45.1769 154.343 45.0125C154.97 44.8481 155.612 44.7494 156.288 44.7494V44.7166ZM158.43 50.2568L156.815 50.3226C155.497 50.3719 154.558 50.5856 154.03 50.9637C153.503 51.3418 153.223 51.8844 153.223 52.5748C153.223 53.1831 153.404 53.627 153.767 53.9065C154.129 54.1859 154.623 54.3339 155.217 54.3339C156.156 54.3339 156.93 54.0709 157.524 53.5612C158.117 53.0516 158.413 52.2625 158.413 51.2268V50.2568H158.43Z" fill="black"/>
<path d="M167.542 55.649C166.586 55.649 165.746 55.4517 165.021 55.0572C164.296 54.6626 163.719 54.0708 163.324 53.2652C162.928 52.4597 162.714 51.4568 162.714 50.2238C162.714 48.9908 162.928 47.9058 163.356 47.0838C163.785 46.2618 164.378 45.67 165.136 45.2754C165.894 44.8809 166.751 44.6836 167.707 44.6836C168.234 44.6836 168.745 44.7329 169.239 44.848C169.733 44.9631 170.129 45.0946 170.458 45.2426L169.98 46.5742C169.651 46.4427 169.288 46.3276 168.86 46.2289C168.432 46.1303 168.036 46.081 167.674 46.081C166.932 46.081 166.322 46.2454 165.845 46.5577C165.367 46.8701 164.988 47.3304 164.757 47.9387C164.526 48.547 164.395 49.3032 164.395 50.191C164.395 51.0787 164.51 51.7692 164.741 52.3775C164.971 52.9857 165.334 53.4461 165.795 53.7584C166.257 54.0708 166.85 54.2352 167.542 54.2352C168.102 54.2352 168.613 54.1694 169.058 54.0543C169.503 53.9393 169.914 53.7913 170.277 53.6433V55.0736C169.931 55.2545 169.535 55.386 169.091 55.4846C168.646 55.5833 168.135 55.6326 167.542 55.6326V55.649Z" fill="black"/>
<path d="M173.605 40.9518C173.869 40.9518 174.1 41.034 174.281 41.2148C174.462 41.3957 174.561 41.6423 174.561 42.0039C174.561 42.3656 174.462 42.6287 174.281 42.7931C174.1 42.9575 173.869 43.0561 173.605 43.0561C173.342 43.0561 173.095 42.9739 172.913 42.7931C172.732 42.6122 172.633 42.3492 172.633 42.0039C172.633 41.6587 172.732 41.3792 172.913 41.2148C173.095 41.0504 173.325 40.9518 173.605 40.9518ZM174.38 44.8974V55.4518H172.782V44.8974H174.38Z" fill="black"/>
<path d="M186.903 50.1581C186.903 51.0294 186.787 51.8021 186.557 52.4762C186.326 53.1502 186.013 53.7256 185.584 54.2023C185.156 54.6791 184.645 55.0243 184.052 55.2709C183.459 55.5175 182.767 55.649 182.009 55.649C181.3 55.649 180.658 55.5175 180.065 55.2709C179.471 55.0243 178.961 54.6627 178.532 54.2023C178.104 53.742 177.774 53.1666 177.543 52.4762C177.313 51.7857 177.197 51.0294 177.197 50.1581C177.197 49.0073 177.395 48.0209 177.791 47.1989C178.186 46.3769 178.746 45.7687 179.471 45.3412C180.196 44.9138 181.07 44.7001 182.075 44.7001C183.08 44.7001 183.887 44.9138 184.612 45.3412C185.337 45.7687 185.898 46.3934 186.309 47.1989C186.721 48.0045 186.919 48.9909 186.919 50.1417L186.903 50.1581ZM178.845 50.1581C178.845 51.013 178.961 51.7364 179.191 52.3611C179.422 52.9858 179.768 53.4625 180.229 53.8078C180.691 54.153 181.3 54.3174 182.042 54.3174C182.783 54.3174 183.376 54.153 183.854 53.8078C184.332 53.4625 184.678 52.9858 184.909 52.3611C185.14 51.7364 185.255 50.9966 185.255 50.1581C185.255 49.3197 185.14 48.5963 184.909 47.9716C184.678 47.3469 184.332 46.8866 183.871 46.5578C183.409 46.229 182.8 46.0646 182.042 46.0646C180.938 46.0646 180.13 46.4263 179.62 47.1496C179.109 47.873 178.845 48.8758 178.845 50.1581Z" fill="black"/>
<path d="M194.68 44.7001C195.932 44.7001 196.888 45.0124 197.53 45.6207C198.173 46.229 198.503 47.2154 198.503 48.5799V55.4518H196.921V48.6785C196.921 47.7908 196.723 47.1332 196.311 46.7057C195.899 46.2783 195.29 46.0481 194.466 46.0481C193.296 46.0481 192.472 46.3769 191.994 47.0345C191.516 47.6921 191.286 48.6621 191.286 49.9115V55.4353H189.687V44.8809H190.989L191.236 46.4098H191.319C191.549 46.0317 191.829 45.7193 192.175 45.4727C192.521 45.2261 192.917 45.0289 193.345 44.8974C193.774 44.7658 194.235 44.7001 194.713 44.7001H194.68Z" fill="black"/>
<path d="M205.753 44.7166C207.021 44.7166 207.944 44.996 208.57 45.5714C209.196 46.1468 209.493 47.0346 209.493 48.284V55.4683H208.323L208.01 53.9065H207.928C207.631 54.2846 207.318 54.6134 207.005 54.8764C206.692 55.1395 206.313 55.3367 205.885 55.4683C205.456 55.5998 204.945 55.6655 204.336 55.6655C203.693 55.6655 203.116 55.5505 202.622 55.3203C202.128 55.0901 201.732 54.7613 201.452 54.301C201.172 53.8407 201.024 53.2653 201.024 52.5748C201.024 51.5227 201.436 50.7171 202.276 50.1417C203.116 49.5663 204.385 49.2704 206.099 49.2211L207.928 49.1389V48.4977C207.928 47.5935 207.73 46.9524 207.335 46.5743C206.939 46.1961 206.395 46.0317 205.67 46.0317C205.11 46.0317 204.583 46.1139 204.089 46.2783C203.594 46.4427 203.116 46.6236 202.655 46.8537L202.161 45.6372C202.638 45.3906 203.182 45.1769 203.808 45.0125C204.435 44.8481 205.077 44.7494 205.753 44.7494V44.7166ZM207.895 50.2568L206.28 50.3226C204.962 50.3719 204.023 50.5856 203.495 50.9637C202.968 51.3418 202.688 51.8844 202.688 52.5748C202.688 53.1831 202.869 53.627 203.232 53.9065C203.594 54.1859 204.089 54.3339 204.682 54.3339C205.621 54.3339 206.395 54.0709 206.989 53.5612C207.582 53.0516 207.878 52.2625 207.878 51.2268V50.2568H207.895Z" fill="black"/>
<path d="M214.387 55.4518H212.772V40.4586H214.387V55.4518Z" fill="black"/>
<path d="M219.61 53.1666L219.742 53.3803C219.627 53.8571 219.478 54.3503 219.297 54.8763C219.116 55.4024 218.935 55.9449 218.72 56.4874C218.506 57.03 218.308 57.5232 218.094 57.9999H216.891C217.023 57.4903 217.155 56.9478 217.287 56.3724C217.419 55.797 217.534 55.238 217.633 54.6791C217.732 54.1201 217.831 53.6105 217.897 53.1501H219.61V53.1666Z" fill="black"/>
<path d="M228.838 40.9518C229.101 40.9518 229.332 41.034 229.513 41.2148C229.694 41.3957 229.793 41.6423 229.793 42.0039C229.793 42.3656 229.694 42.6287 229.513 42.7931C229.332 42.9575 229.101 43.0561 228.838 43.0561C228.574 43.0561 228.327 42.9739 228.145 42.7931C227.964 42.6122 227.865 42.3492 227.865 42.0039C227.865 41.6587 227.964 41.3792 228.145 41.2148C228.327 41.0504 228.557 40.9518 228.838 40.9518ZM229.628 44.8974V55.4518H228.03V44.8974H229.628Z" fill="black"/>
<path d="M239.861 52.5584C239.861 53.2324 239.696 53.7913 239.35 54.2517C239.004 54.712 238.526 55.0572 237.9 55.2874C237.274 55.5175 236.532 55.6326 235.659 55.6326C234.918 55.6326 234.275 55.5669 233.731 55.4518C233.188 55.3367 232.71 55.1723 232.314 54.9586V53.479C232.743 53.6927 233.253 53.89 233.863 54.0544C234.473 54.2188 235.066 54.3174 235.692 54.3174C236.598 54.3174 237.274 54.1695 237.686 53.8735C238.098 53.5776 238.312 53.1831 238.312 52.6734C238.312 52.3775 238.23 52.1309 238.065 51.9008C237.9 51.6706 237.62 51.4569 237.241 51.2596C236.862 51.0623 236.318 50.8157 235.643 50.5691C234.967 50.3061 234.39 50.0595 233.896 49.7965C233.402 49.5334 233.023 49.2375 232.759 48.8594C232.495 48.4813 232.364 48.0209 232.364 47.4291C232.364 46.5413 232.726 45.8509 233.451 45.3741C234.176 44.8974 235.132 44.6508 236.302 44.6508C236.944 44.6508 237.538 44.7165 238.098 44.8316C238.658 44.9467 239.169 45.1275 239.663 45.3412L239.119 46.6235C238.674 46.4427 238.213 46.2783 237.719 46.1468C237.224 46.0153 236.714 45.9495 236.203 45.9495C235.461 45.9495 234.901 46.0646 234.506 46.3112C234.11 46.5578 233.913 46.8866 233.913 47.314C233.913 47.6428 234.011 47.9059 234.193 48.1196C234.374 48.3333 234.67 48.5306 235.082 48.7114C235.494 48.8923 236.022 49.1224 236.681 49.369C237.34 49.6156 237.917 49.8622 238.394 50.1252C238.872 50.3883 239.251 50.7006 239.515 51.0623C239.778 51.424 239.91 51.9008 239.91 52.4762L239.861 52.5584Z" fill="black"/>
<path d="M245.859 54.3338C246.122 54.3338 246.386 54.3174 246.666 54.2681C246.946 54.2188 247.16 54.1694 247.342 54.1037V55.3531C247.16 55.4353 246.897 55.5011 246.567 55.5668C246.238 55.6326 245.908 55.649 245.595 55.649C245.035 55.649 244.524 55.5504 244.063 55.3531C243.601 55.1558 243.239 54.827 242.959 54.3503C242.678 53.8735 242.547 53.2324 242.547 52.4104V46.1468H241.047V45.3741L242.563 44.7494L243.206 42.4642H244.178V44.9138H247.276V46.1632H244.178V52.3775C244.178 53.0351 244.326 53.5283 244.639 53.8571C244.952 54.1859 245.348 54.3503 245.859 54.3503V54.3338Z" fill="black"/>
<path d="M258.612 50.1581C258.612 51.0294 258.497 51.8021 258.266 52.4762C258.035 53.1502 257.722 53.7256 257.294 54.2023C256.865 54.6791 256.355 55.0243 255.761 55.2709C255.168 55.5175 254.476 55.649 253.718 55.649C253.01 55.649 252.367 55.5175 251.774 55.2709C251.181 55.0243 250.67 54.6627 250.242 54.2023C249.813 53.742 249.484 53.1666 249.253 52.4762C249.022 51.7857 248.907 51.0294 248.907 50.1581C248.907 49.0073 249.105 48.0209 249.5 47.1989C249.896 46.3769 250.456 45.7687 251.181 45.3412C251.906 44.9138 252.779 44.7001 253.784 44.7001C254.789 44.7001 255.597 44.9138 256.322 45.3412C257.047 45.7687 257.607 46.3934 258.019 47.1989C258.431 48.0045 258.629 48.9909 258.629 50.1417L258.612 50.1581ZM250.555 50.1581C250.555 51.013 250.67 51.7364 250.901 52.3611C251.131 52.9858 251.477 53.4625 251.939 53.8078C252.4 54.153 253.01 54.3174 253.751 54.3174C254.493 54.3174 255.086 54.153 255.564 53.8078C256.042 53.4625 256.388 52.9858 256.618 52.3611C256.849 51.7364 256.964 50.9966 256.964 50.1581C256.964 49.3197 256.849 48.5963 256.618 47.9716C256.388 47.3469 256.042 46.8866 255.58 46.5578C255.119 46.229 254.509 46.0646 253.751 46.0646C252.647 46.0646 251.84 46.4263 251.329 47.1496C250.818 47.873 250.555 48.8758 250.555 50.1581Z" fill="black"/>
<path d="M270.591 44.7001C271.497 44.7001 272.272 44.8974 272.914 45.2919C273.557 45.6865 274.051 46.2454 274.397 46.9688C274.743 47.6921 274.908 48.5141 274.908 49.4841V50.4705H267.592C267.609 51.7035 267.922 52.657 268.515 53.2981C269.108 53.9393 269.965 54.2681 271.052 54.2681C271.728 54.2681 272.321 54.2023 272.832 54.0873C273.343 53.9722 273.887 53.7913 274.43 53.5448V54.9586C273.903 55.1887 273.359 55.3696 272.849 55.4847C272.338 55.5997 271.712 55.6491 270.987 55.6491C269.965 55.6491 269.075 55.4353 268.334 55.0243C267.592 54.6133 266.983 54.0051 266.571 53.1995C266.159 52.394 265.944 51.4076 265.944 50.2568C265.944 49.106 266.142 48.136 266.521 47.2976C266.9 46.4592 267.444 45.818 268.136 45.3741C268.828 44.9302 269.652 44.7001 270.608 44.7001H270.591ZM270.575 46.0153C269.718 46.0153 269.042 46.2948 268.531 46.8537C268.021 47.4127 267.724 48.1853 267.625 49.1882H273.228C273.228 48.5635 273.129 48.0045 272.931 47.5277C272.733 47.051 272.453 46.6729 272.074 46.4098C271.695 46.1468 271.184 46.0153 270.591 46.0153H270.575ZM273.244 40.3435V40.5408C273.112 40.7216 272.947 40.9518 272.717 41.2148C272.486 41.4779 272.255 41.7409 271.975 42.0368C271.695 42.3327 271.431 42.5958 271.151 42.8588C270.871 43.1218 270.624 43.3356 270.393 43.5164H269.322V43.2862C269.52 43.0396 269.751 42.7437 269.998 42.3985C270.245 42.0533 270.476 41.708 270.706 41.3463C270.937 40.9847 271.135 40.6559 271.283 40.3599H273.228L273.244 40.3435Z" fill="black"/>
<path d="M279.456 53.1666L279.588 53.3803C279.472 53.8571 279.324 54.3503 279.143 54.8763C278.962 55.4024 278.78 55.9449 278.566 56.4874C278.352 57.03 278.154 57.5232 277.94 57.9999H276.737C276.869 57.4903 277.001 56.9478 277.133 56.3724C277.264 55.797 277.38 55.238 277.479 54.6791C277.577 54.1201 277.676 53.6105 277.742 53.1501H279.456V53.1666Z" fill="black"/>
<path d="M297.301 54.3338C297.482 54.3338 297.647 54.3174 297.795 54.268C297.944 54.2187 298.059 54.1859 298.158 54.1365V55.4024C298.059 55.4517 297.894 55.501 297.68 55.5504C297.466 55.5997 297.202 55.6326 296.905 55.6326C296.213 55.6326 295.686 55.4188 295.324 55.0078C294.961 54.5968 294.78 53.9721 294.78 53.1666V46.2289H290.183V55.4517H288.601V46.2289H286.442V45.5056L287.892 44.8809H298.454V46.2125H296.362V53.0351C296.362 53.5118 296.444 53.8406 296.625 54.0215C296.807 54.2023 297.037 54.3174 297.317 54.3174L297.301 54.3338Z" fill="black"/>
<path d="M305.309 47.1825V45.8838H314.371V47.1825H305.309ZM305.309 51.1281V49.8294H314.371V51.1281H305.309Z" fill="black"/>
<path d="M330.338 44.6507C330.338 45.2755 330.223 45.818 329.975 46.2947C329.728 46.7715 329.382 47.1332 328.954 47.4291C328.525 47.725 327.998 47.9223 327.405 48.0374V48.1196C328.525 48.2675 329.366 48.6128 329.926 49.2046C330.486 49.7964 330.766 50.5362 330.766 51.4733C330.766 52.2953 330.569 53.0187 330.19 53.6434C329.811 54.2681 329.218 54.7613 328.427 55.123C327.636 55.4846 326.631 55.6655 325.395 55.6655C324.653 55.6655 323.961 55.5997 323.319 55.4846C322.676 55.3696 322.083 55.1723 321.506 54.8928V53.3968C322.099 53.6927 322.725 53.9064 323.418 54.0708C324.11 54.2352 324.769 54.3174 325.411 54.3174C326.697 54.3174 327.636 54.0544 328.196 53.5447C328.756 53.0351 329.053 52.3282 329.053 51.4569C329.053 50.8486 328.888 50.3554 328.575 49.9773C328.262 49.5992 327.8 49.3197 327.207 49.1553C326.614 48.9909 325.889 48.8922 325.065 48.8922H323.648V47.5277H325.065C325.823 47.5277 326.482 47.4127 327.01 47.1825C327.537 46.9523 327.949 46.64 328.229 46.229C328.509 45.818 328.641 45.3412 328.641 44.7823C328.641 44.0753 328.41 43.5164 327.932 43.1383C327.454 42.7602 326.812 42.5629 325.988 42.5629C325.494 42.5629 325.032 42.6122 324.62 42.7108C324.208 42.8095 323.829 42.9574 323.467 43.1383C323.104 43.3191 322.742 43.5328 322.379 43.763L321.572 42.6615C322.083 42.267 322.709 41.9217 323.45 41.6258C324.192 41.3299 325.032 41.1984 325.972 41.1984C327.422 41.1984 328.493 41.5272 329.218 42.1848C329.943 42.8424 330.305 43.6808 330.305 44.6836L330.338 44.6507Z" fill="black"/>
<path d="M335.462 53.1666L335.594 53.3803C335.479 53.8571 335.331 54.3503 335.149 54.8763C334.968 55.4024 334.787 55.9449 334.573 56.4874C334.358 57.03 334.161 57.5232 333.947 57.9999H332.744C332.876 57.4903 333.007 56.9478 333.139 56.3724C333.271 55.797 333.386 55.238 333.485 54.6791C333.584 54.1201 333.683 53.6105 333.749 53.1501H335.462V53.1666Z" fill="black"/>
<path d="M343.998 55.4518H342.432V45.4727C342.432 45.0946 342.432 44.7658 342.432 44.5028C342.432 44.2397 342.432 43.9767 342.449 43.7465C342.465 43.5164 342.465 43.2862 342.498 43.0561C342.301 43.2533 342.119 43.4342 341.938 43.5821C341.757 43.7301 341.543 43.9109 341.295 44.1247L339.681 45.4234L338.84 44.3384L342.663 41.3956H343.998V55.4846V55.4518Z" fill="black"/>
<path d="M359.289 52.1803H357.18V55.4518H355.614V52.1803H348.793V50.8322L355.515 41.2806H357.18V50.7336H359.289V52.1803ZM355.614 50.75V46.1469C355.614 45.8016 355.614 45.4728 355.614 45.1933C355.614 44.9139 355.614 44.6344 355.647 44.3878C355.68 44.1412 355.664 43.911 355.68 43.6809C355.697 43.4507 355.697 43.237 355.697 43.0233H355.614C355.499 43.2863 355.351 43.5493 355.202 43.8453C355.054 44.1412 354.889 44.3878 354.724 44.6179L350.374 50.7665H355.614V50.75Z" fill="black"/>
<path d="M366.605 55.4518H365.039V45.4727C365.039 45.0946 365.039 44.7658 365.039 44.5028C365.039 44.2397 365.039 43.9767 365.056 43.7465C365.072 43.5164 365.072 43.2862 365.105 43.0561C364.908 43.2533 364.726 43.4342 364.545 43.5821C364.364 43.7301 364.15 43.9109 363.902 44.1247L362.288 45.4234L361.447 44.3384L365.27 41.3956H366.605V55.4846V55.4518Z" fill="black"/>
<path d="M376.409 46.8373C377.364 46.8373 378.205 47.0017 378.913 47.3305C379.622 47.6593 380.166 48.1196 380.561 48.7443C380.956 49.369 381.138 50.1088 381.138 50.9966C381.138 51.9665 380.923 52.7885 380.512 53.479C380.1 54.1695 379.49 54.712 378.699 55.0901C377.908 55.4682 376.969 55.6491 375.881 55.6491C375.14 55.6491 374.464 55.5833 373.838 55.4518C373.212 55.3203 372.668 55.123 372.24 54.8764V53.3475C372.718 53.627 373.278 53.8571 373.954 54.0215C374.629 54.1859 375.272 54.2681 375.898 54.2681C376.606 54.2681 377.233 54.153 377.776 53.9229C378.32 53.6927 378.732 53.3475 379.029 52.8872C379.325 52.4268 379.473 51.835 379.473 51.1281C379.473 50.191 379.193 49.4677 378.617 48.958C378.04 48.4484 377.134 48.1854 375.881 48.1854C375.486 48.1854 375.041 48.2182 374.563 48.284C374.085 48.3498 373.69 48.4155 373.393 48.4977L372.586 47.9716L373.13 41.3628H380.149V42.8259H374.497L374.135 47.0674C374.382 47.0181 374.695 46.9688 375.074 46.903C375.453 46.8373 375.898 46.8208 376.392 46.8208L376.409 46.8373Z" fill="black"/>
<path d="M383.725 54.4489C383.725 54.0051 383.84 53.6763 384.054 53.4954C384.268 53.3146 384.532 53.2159 384.862 53.2159C385.191 53.2159 385.471 53.3146 385.685 53.4954C385.9 53.6763 386.031 54.0051 386.031 54.4489C386.031 54.8928 385.916 55.2216 385.685 55.4189C385.455 55.6162 385.191 55.7148 384.862 55.7148C384.532 55.7148 384.285 55.6162 384.054 55.4189C383.823 55.2216 383.725 54.8928 383.725 54.4489Z" fill="black"/>
<path d="M388.915 54.4489C388.915 54.0051 389.03 53.6763 389.245 53.4954C389.459 53.3146 389.722 53.2159 390.052 53.2159C390.381 53.2159 390.662 53.3146 390.876 53.4954C391.09 53.6763 391.222 54.0051 391.222 54.4489C391.222 54.8928 391.107 55.2216 390.876 55.4189C390.645 55.6162 390.381 55.7148 390.052 55.7148C389.722 55.7148 389.475 55.6162 389.245 55.4189C389.014 55.2216 388.915 54.8928 388.915 54.4489Z" fill="black"/>
<path d="M394.122 54.4489C394.122 54.0051 394.237 53.6763 394.451 53.4954C394.666 53.3146 394.929 53.2159 395.259 53.2159C395.588 53.2159 395.868 53.3146 396.083 53.4954C396.297 53.6763 396.429 54.0051 396.429 54.4489C396.429 54.8928 396.313 55.2216 396.083 55.4189C395.852 55.6162 395.588 55.7148 395.259 55.7148C394.929 55.7148 394.682 55.6162 394.451 55.4189C394.221 55.2216 394.122 54.8928 394.122 54.4489Z" fill="black"/>
<path d="M404.453 54.4489C404.453 54.0051 404.568 53.6763 404.783 53.4954C404.997 53.3146 405.261 53.2159 405.59 53.2159C405.92 53.2159 406.2 53.3146 406.414 53.4954C406.628 53.6763 406.76 54.0051 406.76 54.4489C406.76 54.8928 406.645 55.2216 406.414 55.4189C406.183 55.6162 405.92 55.7148 405.59 55.7148C405.261 55.7148 405.013 55.6162 404.783 55.4189C404.552 55.2216 404.453 54.8928 404.453 54.4489Z" fill="black"/>
<path d="M562.108 1.44675C561.334 1.44675 560.625 1.57827 560.016 1.84131C559.406 2.10435 558.862 2.49891 558.434 2.99211C558.006 3.4853 557.66 4.11002 557.429 4.81694C557.198 5.52385 557.083 6.32941 557.083 7.21716C557.083 8.40084 557.264 9.42011 557.643 10.2914C558.022 11.1627 558.566 11.8368 559.307 12.3135C560.049 12.7903 560.972 13.0205 562.076 13.0205C562.702 13.0205 563.295 12.9711 563.855 12.8561C564.415 12.741 564.959 12.6095 565.486 12.4615V13.8918C564.976 14.089 564.432 14.2206 563.872 14.3192C563.311 14.4178 562.636 14.4507 561.861 14.4507C560.428 14.4507 559.225 14.1548 558.269 13.563C557.314 12.9711 556.589 12.1327 556.111 11.0477C555.633 9.96263 555.386 8.68032 555.386 7.20072C555.386 6.13213 555.534 5.16217 555.831 4.27442C556.127 3.38666 556.572 2.63043 557.149 1.98927C557.726 1.34812 558.434 0.854918 559.274 0.49324C560.115 0.131562 561.07 -0.0328369 562.158 -0.0328369C562.866 -0.0328369 563.558 0.0329227 564.218 0.180882C564.877 0.328841 565.486 0.52612 566.014 0.789159L565.354 2.17011C564.91 1.97283 564.415 1.79199 563.872 1.62759C563.328 1.46319 562.751 1.39744 562.125 1.39744L562.108 1.44675Z" fill="black"/>
<path d="M558.846 40.9848H549.602V39.6531L553.375 35.8226C554.084 35.1157 554.661 34.491 555.155 33.932C555.649 33.3731 555.995 32.8306 556.259 32.3045C556.523 31.7784 556.638 31.1866 556.638 30.529C556.638 29.7399 556.407 29.1316 555.929 28.7042C555.452 28.2767 554.825 28.0794 554.068 28.0794C553.392 28.0794 552.799 28.1945 552.272 28.4247C551.744 28.6548 551.217 28.9836 550.673 29.4111L549.816 28.326C550.195 28.0137 550.591 27.7342 551.036 27.4876C551.481 27.241 551.942 27.0437 552.453 26.9122C552.964 26.7807 553.491 26.6985 554.068 26.6985C554.941 26.6985 555.682 26.8464 556.325 27.1588C556.968 27.4712 557.445 27.8986 557.791 28.4576C558.137 29.0165 558.302 29.6741 558.302 30.4468C558.302 31.2195 558.154 31.8771 557.857 32.5182C557.561 33.1594 557.149 33.7841 556.605 34.4088C556.061 35.0335 555.452 35.6911 554.727 36.398L551.662 39.4559V39.5216H558.879V40.9848H558.846Z" fill="black"/>
<path d="M565.668 26.9122C566.821 26.9122 567.777 27.0601 568.535 27.3396C569.293 27.6191 569.853 28.063 570.232 28.6384C570.611 29.2138 570.792 29.97 570.792 30.8742C570.792 31.614 570.66 32.2387 570.38 32.7319C570.1 33.2251 569.754 33.6361 569.326 33.9485C568.897 34.2608 568.419 34.491 567.925 34.6554L571.797 40.9848H569.886L566.426 35.1157H563.493V40.9848H561.845V26.8958H565.651L565.668 26.9122ZM565.585 28.326H563.509V33.7348H565.75C566.903 33.7348 567.744 33.5046 568.288 33.0278C568.831 32.5511 569.111 31.8606 569.111 30.9564C569.111 30.0029 568.831 29.3289 568.255 28.9179C567.678 28.5069 566.788 28.326 565.602 28.326H565.585Z" fill="black"/>
<path d="M547.757 20.5006H573" stroke="black" stroke-width="0.5" stroke-miterlimit="10"/>
</g>
<defs>
<clipPath id="clip0_23_529">
<rect width="573" height="58" fill="white"/>
</clipPath>
</defs>
</svg>
