<svg width="378" height="56" viewBox="0 0 378 56" fill="none" xmlns="http://www.w3.org/2000/svg">
<g clip-path="url(#clip0_31_811)">
<path d="M14.1701 18.9822L11.8951 13.1283H4.46337L2.18835 18.9822H0L7.2584 0.473389H9.20841L16.4235 18.9822H14.1918H14.1701ZM11.2451 11.2343L9.07841 5.42343C9.03508 5.27277 8.94841 5.01451 8.84008 4.67016C8.73174 4.32581 8.60174 3.95994 8.49341 3.59406C8.38507 3.22819 8.27674 2.92689 8.21174 2.69014C8.12507 3.0345 8.0384 3.37885 7.93007 3.7232C7.82173 4.06755 7.73507 4.36885 7.6484 4.67016C7.56173 4.97147 7.47507 5.20821 7.41006 5.4019L5.20005 11.2128H11.2668L11.2451 11.2343Z" fill="white"/>
<path d="M27.6685 15.2161C27.6685 16.0984 27.4519 16.8302 26.9969 17.4328C26.5419 18.0354 25.9135 18.4874 25.0902 18.7887C24.2668 19.09 23.2918 19.2406 22.1435 19.2406C21.1685 19.2406 20.3235 19.1546 19.6085 19.0039C18.8935 18.8533 18.2651 18.638 17.7451 18.3582V16.4213C18.3085 16.7011 18.9801 16.9593 19.7818 17.1745C20.5835 17.3898 21.3635 17.5189 22.1868 17.5189C23.3785 17.5189 24.2668 17.3252 24.8085 16.9378C25.3502 16.5504 25.6319 16.0339 25.6319 15.3667C25.6319 14.9793 25.5235 14.6565 25.3069 14.3552C25.0902 14.0539 24.7218 13.7741 24.2235 13.5158C23.7252 13.2576 23.0102 12.9347 22.1218 12.6119C21.2335 12.2675 20.4751 11.9447 19.8251 11.6004C19.1751 11.256 18.6768 10.8686 18.3301 10.3736C17.9835 9.87862 17.8101 9.276 17.8101 8.50122C17.8101 7.33903 18.2868 6.43511 19.2401 5.81098C20.1935 5.18684 21.4501 4.86401 22.9885 4.86401C23.8335 4.86401 24.6135 4.9501 25.3502 5.10075C26.0869 5.25141 26.7585 5.48815 27.4085 5.76793L26.6935 7.44664C26.1085 7.2099 25.5019 6.99468 24.8518 6.82251C24.2018 6.65033 23.5302 6.56424 22.8585 6.56424C21.8835 6.56424 21.1468 6.7149 20.6268 7.03773C20.1068 7.36055 19.8468 7.79099 19.8468 8.35056C19.8468 8.781 19.9768 9.12535 20.2151 9.40514C20.4535 9.68492 20.8435 9.94318 21.3851 10.1799C21.9268 10.4167 22.6202 10.718 23.4868 11.0408C24.3535 11.3636 25.1118 11.6865 25.7402 12.0308C26.3685 12.3752 26.8669 12.7841 27.2135 13.2576C27.5602 13.731 27.7335 14.3552 27.7335 15.1084L27.6685 15.2161Z" fill="white"/>
<path d="M40.0621 15.2161C40.0621 16.0984 39.8454 16.8302 39.3904 17.4328C38.9354 18.0354 38.3071 18.4874 37.4837 18.7887C36.6604 19.09 35.6854 19.2406 34.537 19.2406C33.562 19.2406 32.717 19.1546 32.002 19.0039C31.287 18.8533 30.6587 18.638 30.1387 18.3582V16.4213C30.702 16.7011 31.3737 16.9593 32.1754 17.1745C32.977 17.3898 33.757 17.5189 34.5804 17.5189C35.7721 17.5189 36.6604 17.3252 37.2021 16.9378C37.7437 16.5504 38.0254 16.0339 38.0254 15.3667C38.0254 14.9793 37.9171 14.6565 37.7004 14.3552C37.4837 14.0539 37.1154 13.7741 36.6171 13.5158C36.1187 13.2576 35.4037 12.9347 34.5154 12.6119C33.627 12.2675 32.8687 11.9447 32.2187 11.6004C31.5687 11.256 31.0703 10.8686 30.7237 10.3736C30.377 9.87862 30.2037 9.276 30.2037 8.50122C30.2037 7.33903 30.6803 6.43511 31.6337 5.81098C32.587 5.18684 33.8437 4.86401 35.3821 4.86401C36.2271 4.86401 37.0071 4.9501 37.7437 5.10075C38.4804 5.25141 39.1521 5.48815 39.8021 5.76793L39.0871 7.44664C38.5021 7.2099 37.8954 6.99468 37.2454 6.82251C36.5954 6.65033 35.9237 6.56424 35.2521 6.56424C34.277 6.56424 33.5404 6.7149 33.0204 7.03773C32.5004 7.36055 32.2404 7.79099 32.2404 8.35056C32.2404 8.781 32.3704 9.12535 32.6087 9.40514C32.847 9.68492 33.237 9.94318 33.7787 10.1799C34.3204 10.4167 35.0137 10.718 35.8804 11.0408C36.7471 11.3636 37.5054 11.6865 38.1337 12.0308C38.7621 12.3752 39.2604 12.7841 39.6071 13.2576C39.9538 13.731 40.1271 14.3552 40.1271 15.1084L40.0621 15.2161Z" fill="white"/>
<path d="M44.5254 0C44.8721 0 45.1754 0.10761 45.4138 0.344351C45.6521 0.581091 45.7821 0.90392 45.7821 1.3774C45.7821 1.85088 45.6521 2.19523 45.4138 2.41045C45.1754 2.62567 44.8721 2.7548 44.5254 2.7548C44.1787 2.7548 43.8537 2.64719 43.6154 2.41045C43.3771 2.17371 43.2471 1.82936 43.2471 1.3774C43.2471 0.925442 43.3771 0.55957 43.6154 0.344351C43.8537 0.129131 44.1571 0 44.5254 0ZM45.5438 5.16526V18.9823H43.4421V5.16526H45.5438Z" fill="white"/>
<path d="M65.1088 4.9285C66.6472 4.9285 67.7955 5.3159 68.5755 6.11221C69.3555 6.90852 69.7455 8.17831 69.7455 9.94311V19.0038H67.6655V10.0507C67.6655 8.93158 67.4272 8.09222 66.9288 7.53265C66.4305 6.97309 65.7155 6.6933 64.7621 6.6933C63.4188 6.6933 62.4438 7.08069 61.8371 7.85548C61.2305 8.63027 60.9271 9.77093 60.9271 11.2775V19.0038H58.8254V10.0507C58.8254 9.29745 58.7171 8.67332 58.5004 8.17831C58.2838 7.68331 57.9588 7.31744 57.5254 7.05917C57.0921 6.80091 56.5504 6.6933 55.9004 6.6933C54.9687 6.6933 54.2321 6.887 53.6687 7.25287C53.1054 7.61874 52.7154 8.19983 52.4554 8.93158C52.1954 9.66332 52.087 10.5888 52.087 11.6649V18.9823H49.9854V5.16525H51.697L52.022 7.12374H52.1304C52.412 6.65026 52.7587 6.24134 53.192 5.91851C53.6254 5.59568 54.0804 5.33742 54.6221 5.16525C55.1637 4.99307 55.7054 4.90698 56.2904 4.90698C57.3521 4.90698 58.2404 5.10068 58.9554 5.48807C59.6704 5.87547 60.1904 6.47808 60.5154 7.27439H60.6238C61.0788 6.47808 61.7071 5.87547 62.5088 5.48807C63.3105 5.10068 64.1771 4.90698 65.1305 4.90698L65.1088 4.9285Z" fill="white"/>
<path d="M73.7539 6.49968C73.7539 5.89707 73.9056 5.46663 74.1872 5.22989C74.4689 4.99315 74.8156 4.86401 75.2489 4.86401C75.6823 4.86401 76.0506 4.99315 76.3323 5.22989C76.6139 5.46663 76.7873 5.89707 76.7873 6.49968C76.7873 7.08077 76.6356 7.48969 76.3323 7.74795C76.0289 8.00621 75.6823 8.13534 75.2489 8.13534C74.8156 8.13534 74.4906 8.00621 74.1872 7.74795C73.8839 7.48969 73.7539 7.08077 73.7539 6.49968ZM73.7539 17.6695C73.7539 17.0885 73.9056 16.658 74.1872 16.4213C74.4689 16.1845 74.8156 16.0554 75.2489 16.0554C75.6823 16.0554 76.0506 16.1845 76.3323 16.4213C76.6139 16.658 76.7873 17.0885 76.7873 17.6695C76.7873 18.2506 76.6356 18.6811 76.3323 18.9393C76.0289 19.1976 75.6823 19.3267 75.2489 19.3267C74.8156 19.3267 74.4906 19.1976 74.1872 18.9393C73.8839 18.6811 73.7539 18.2506 73.7539 17.6695Z" fill="white"/>
<path d="M98.1942 4.86384C98.1942 5.68167 98.0426 6.39189 97.7176 7.01603C97.3926 7.64016 96.9376 8.11365 96.3742 8.50104C95.8109 8.88844 95.1176 9.1467 94.3375 9.29735V9.40496C95.8109 9.59866 96.9159 10.0506 97.6526 10.8254C98.3892 11.6002 98.7576 12.5687 98.7576 13.7954C98.7576 14.8715 98.4976 15.8185 97.9992 16.6363C97.5009 17.4542 96.7209 18.0998 95.6809 18.5733C94.6409 19.0468 93.3192 19.2835 91.6942 19.2835C90.7192 19.2835 89.8092 19.1974 88.9642 19.0468C88.1192 18.8961 87.3392 18.6379 86.5808 18.272V16.3135C87.3608 16.7009 88.1842 16.9807 89.0942 17.1959C90.0042 17.4111 90.8709 17.5187 91.7159 17.5187C93.4059 17.5187 94.6409 17.1744 95.3776 16.5072C96.1142 15.84 96.5042 14.9146 96.5042 13.7739C96.5042 12.9776 96.2876 12.3319 95.8759 11.8369C95.4642 11.3419 94.8575 10.9761 94.0775 10.7608C93.2975 10.5456 92.3442 10.4165 91.2609 10.4165H89.3975V8.63017H91.2609C92.2575 8.63017 93.1242 8.47952 93.8175 8.17821C94.5109 7.87691 95.0526 7.46799 95.4209 6.92994C95.7892 6.39189 95.9626 5.76776 95.9626 5.03601C95.9626 4.11057 95.6592 3.37883 95.0309 2.88382C94.4025 2.38882 93.5575 2.13056 92.4742 2.13056C91.8242 2.13056 91.2175 2.19512 90.6758 2.32425C90.1342 2.45339 89.6358 2.64708 89.1592 2.88382C88.6825 3.12056 88.2058 3.40035 87.7292 3.70166L86.6675 2.25969C87.3392 1.74316 88.1625 1.2912 89.1375 0.903808C90.1125 0.516413 91.2175 0.344238 92.4525 0.344238C94.3592 0.344238 95.7676 0.774676 96.7209 1.63555C97.6742 2.49643 98.1509 3.59405 98.1509 4.90688L98.1942 4.86384Z" fill="white"/>
<path d="M108.963 9.98621C108.963 9.40512 109.114 8.97468 109.396 8.73794C109.678 8.5012 110.024 8.37207 110.458 8.37207C110.891 8.37207 111.259 8.5012 111.541 8.73794C111.823 8.97468 111.996 9.40512 111.996 9.98621C111.996 10.5673 111.844 10.9977 111.541 11.256C111.238 11.5143 110.891 11.6434 110.458 11.6434C110.024 11.6434 109.699 11.5143 109.396 11.256C109.093 10.9977 108.963 10.5673 108.963 9.98621Z" fill="white"/>
<path d="M128.506 23.0715H122.764V0.55957H128.506V2.28132H124.801V21.3497H128.506V23.093V23.0715Z" fill="white"/>
<path d="M142.59 18.9823H130.435V17.239L135.396 12.2244C136.328 11.299 137.086 10.4812 137.736 9.74942C138.386 9.01768 138.841 8.30746 139.188 7.61875C139.535 6.93005 139.686 6.15527 139.686 5.29439C139.686 4.26134 139.383 3.46503 138.755 2.90546C138.126 2.34589 137.303 2.08763 136.306 2.08763C135.418 2.08763 134.638 2.23828 133.945 2.53959C133.251 2.84089 132.558 3.27133 131.843 3.8309L130.716 2.41045C131.215 2.00154 131.735 1.63567 132.32 1.31284C132.905 0.990008 133.511 0.731745 134.183 0.55957C134.855 0.387395 135.548 0.279785 136.306 0.279785C137.455 0.279785 138.43 0.473482 139.275 0.882399C140.12 1.29131 140.748 1.85088 141.203 2.58263C141.658 3.31437 141.875 4.17525 141.875 5.18678C141.875 6.19831 141.68 7.05919 141.29 7.89854C140.9 8.73789 140.358 9.55573 139.643 10.3736C138.928 11.1914 138.126 12.0523 137.173 12.9777L133.143 16.9808V17.0669H142.633V18.9823H142.59Z" fill="white"/>
<path d="M152.665 9.98621C152.665 9.40512 152.816 8.97468 153.098 8.73794C153.38 8.5012 153.726 8.37207 154.16 8.37207C154.593 8.37207 154.961 8.5012 155.243 8.73794C155.525 8.97468 155.698 9.40512 155.698 9.98621C155.698 10.5673 155.546 10.9977 155.243 11.256C154.94 11.5143 154.593 11.6434 154.16 11.6434C153.726 11.6434 153.401 11.5143 153.098 11.256C152.795 10.9977 152.665 10.5673 152.665 9.98621Z" fill="white"/>
<path d="M158.645 11.9231C158.645 10.5027 158.775 9.12529 159.056 7.76941C159.338 6.41353 159.75 5.14374 160.313 3.91699C160.876 2.69024 161.591 1.5711 162.458 0.55957H164.473C163.238 2.15219 162.328 3.93851 161.7 5.87548C161.071 7.81245 160.768 9.83551 160.768 11.8801C160.768 13.2145 160.898 14.5488 161.18 15.8616C161.461 17.1745 161.873 18.4228 162.415 19.628C162.956 20.8332 163.628 21.9739 164.43 23.05H162.436C161.57 22.0384 160.855 20.9408 160.291 19.7571C159.728 18.5734 159.295 17.3036 159.035 15.9908C158.775 14.6779 158.623 13.3005 158.623 11.9016L158.645 11.9231Z" fill="white"/>
<path d="M178.708 18.9823H166.553V17.239L171.515 12.2244C172.447 11.299 173.205 10.4812 173.855 9.74942C174.505 9.01768 174.96 8.30746 175.307 7.61875C175.653 6.93005 175.805 6.15527 175.805 5.29439C175.805 4.26134 175.502 3.46503 174.873 2.90546C174.245 2.34589 173.422 2.08763 172.425 2.08763C171.537 2.08763 170.757 2.23828 170.063 2.53959C169.37 2.84089 168.677 3.27133 167.962 3.8309L166.835 2.41045C167.333 2.00154 167.853 1.63567 168.438 1.31284C169.023 0.990008 169.63 0.731745 170.302 0.55957C170.973 0.387395 171.667 0.279785 172.425 0.279785C173.573 0.279785 174.548 0.473482 175.393 0.882399C176.238 1.29131 176.867 1.85088 177.322 2.58263C177.777 3.31437 177.993 4.17525 177.993 5.18678C177.993 6.19831 177.798 7.05919 177.408 7.89854C177.018 8.73789 176.477 9.55573 175.762 10.3736C175.047 11.1914 174.245 12.0523 173.292 12.9777L169.262 16.9808V17.0669H178.752V18.9823H178.708Z" fill="white"/>
<path d="M183.822 18.9823L191.448 2.4535H181.33V0.55957H193.702V2.17371L186.14 19.0038H183.822V18.9823Z" fill="white"/>
<path d="M210.039 9.03917H215.26V10.7609H210.039V16.0984H208.305V10.7609H203.083V9.03917H208.305V3.65869H210.039V9.03917Z" fill="white"/>
<path d="M232.507 18.9823H230.449V5.91849C230.449 5.42348 230.449 4.99305 230.449 4.6487C230.449 4.30434 230.449 3.95999 230.47 3.65869C230.492 3.35738 230.492 3.05607 230.535 2.75477C230.275 3.01303 230.037 3.24977 229.799 3.44347C229.56 3.63717 229.279 3.87391 228.954 4.15369L226.83 5.85392L225.725 4.43348L230.752 0.581055H232.507V19.0253V18.9823Z" fill="white"/>
<path d="M239.722 11.1053C239.722 9.98613 239.809 8.91003 239.96 7.85546C240.112 6.80089 240.372 5.81088 240.762 4.90696C241.152 4.00304 241.65 3.1852 242.279 2.4965C242.907 1.8078 243.73 1.26976 244.684 0.882361C245.637 0.494967 246.807 0.30127 248.151 0.30127C248.541 0.30127 248.952 0.30127 249.386 0.365835C249.819 0.430401 250.187 0.473445 250.469 0.538011V2.34585C250.166 2.23824 249.797 2.15215 249.386 2.10911C248.974 2.06607 248.584 2.02302 248.172 2.02302C246.591 2.02302 245.355 2.36737 244.467 3.03455C243.579 3.70173 242.907 4.64869 242.517 5.81088C242.127 6.97306 241.889 8.2859 241.824 9.74939H241.954C242.214 9.31895 242.56 8.95308 242.95 8.60873C243.34 8.26437 243.86 8.00611 244.424 7.79089C244.987 7.57567 245.68 7.48959 246.439 7.48959C247.522 7.48959 248.476 7.70481 249.277 8.13524C250.079 8.56568 250.707 9.21134 251.162 10.0292C251.617 10.847 251.834 11.8801 251.834 13.0638C251.834 14.3336 251.596 15.4312 251.119 16.3566C250.642 17.2821 249.971 17.9923 249.104 18.4873C248.237 18.9823 247.176 19.2405 245.984 19.2405C245.074 19.2405 244.25 19.0684 243.492 18.724C242.734 18.3797 242.062 17.8631 241.499 17.196C240.935 16.5288 240.502 15.6679 240.177 14.6564C239.852 13.6449 239.7 12.4611 239.7 11.1268L239.722 11.1053ZM245.962 17.4758C247.111 17.4758 248.042 17.1099 248.736 16.3781C249.429 15.6464 249.776 14.5488 249.776 13.0638C249.776 11.8585 249.472 10.89 248.844 10.1798C248.216 9.4696 247.306 9.12525 246.049 9.12525C245.204 9.12525 244.467 9.29743 243.839 9.64178C243.21 9.98613 242.734 10.4381 242.387 10.9546C242.04 11.4711 241.867 12.0307 241.867 12.5688C241.867 13.1068 241.954 13.6879 242.105 14.269C242.257 14.8501 242.517 15.3666 242.864 15.8616C243.21 16.3566 243.622 16.744 244.142 17.0238C244.662 17.3036 245.269 17.4758 245.962 17.4758Z" fill="white"/>
<path d="M259.742 11.9016C259.742 13.3005 259.612 14.6779 259.331 16.0123C259.049 17.3466 258.637 18.6164 258.074 19.8001C257.511 20.9838 256.796 22.0814 255.929 23.093H253.935C254.759 22.0169 255.43 20.8762 255.972 19.671C256.514 18.4658 256.926 17.196 257.207 15.8831C257.489 14.5703 257.619 13.2575 257.619 11.9016C257.619 10.5457 257.489 9.18982 257.207 7.85546C256.926 6.5211 256.514 5.25131 255.972 4.02456C255.43 2.79781 254.737 1.65715 253.914 0.581055H255.929C256.796 1.61411 257.511 2.73325 258.074 3.95999C258.637 5.18674 259.049 6.45653 259.331 7.79089C259.612 9.12525 259.742 10.5027 259.742 11.9231V11.9016Z" fill="white"/>
<path d="M261.432 21.3282H265.137V2.2598H261.432V0.55957H267.196V23.0715H261.432V21.3282Z" fill="white"/>
<path d="M277.488 8.17826V6.47803H289.404V8.17826H277.488ZM277.488 13.322V11.6218H289.404V13.322H277.488Z" fill="white"/>
<path d="M311.093 18.9823H298.938V17.239L303.899 12.2244C304.831 11.299 305.589 10.4812 306.239 9.74942C306.889 9.01768 307.344 8.30746 307.691 7.61875C308.038 6.93005 308.189 6.15527 308.189 5.29439C308.189 4.26134 307.886 3.46503 307.258 2.90546C306.629 2.34589 305.806 2.08763 304.809 2.08763C303.921 2.08763 303.141 2.23828 302.448 2.53959C301.754 2.84089 301.061 3.27133 300.346 3.8309L299.219 2.41045C299.718 2.00154 300.238 1.63567 300.823 1.31284C301.408 0.990008 302.014 0.731745 302.686 0.55957C303.358 0.387395 304.051 0.279785 304.809 0.279785C305.958 0.279785 306.933 0.473482 307.778 0.882399C308.623 1.29131 309.251 1.85088 309.706 2.58263C310.161 3.31437 310.378 4.17525 310.378 5.18678C310.378 6.19831 310.183 7.05919 309.793 7.89854C309.403 8.73789 308.861 9.55573 308.146 10.3736C307.431 11.1914 306.629 12.0523 305.676 12.9777L301.646 16.9808V17.0669H311.136V18.9823H311.093Z" fill="white"/>
<path d="M319.673 7.72637C320.93 7.72637 322.035 7.94158 322.966 8.37202C323.898 8.80246 324.613 9.40507 325.133 10.2229C325.653 11.0407 325.891 12.0092 325.891 13.1714C325.891 14.4412 325.61 15.5173 325.068 16.4212C324.526 17.3251 323.725 18.0354 322.685 18.5304C321.645 19.0254 320.41 19.2621 318.98 19.2621C318.005 19.2621 317.116 19.176 316.293 19.0038C315.47 18.8317 314.755 18.5734 314.191 18.2506V16.249C314.82 16.6149 315.556 16.9162 316.445 17.1314C317.333 17.3467 318.178 17.4543 319.001 17.4543C319.933 17.4543 320.756 17.3036 321.471 17.0023C322.186 16.701 322.728 16.249 323.118 15.6464C323.508 15.0438 323.703 14.269 323.703 13.3436C323.703 12.1168 323.335 11.1699 322.576 10.5027C321.818 9.83551 320.626 9.49116 318.98 9.49116C318.46 9.49116 317.875 9.53421 317.246 9.62029C316.618 9.70638 316.098 9.79247 315.708 9.90008L314.646 9.21138L315.361 0.55957H324.591V2.47502H317.16L316.683 8.02767C317.008 7.96311 317.42 7.89854 317.918 7.81245C318.416 7.72637 319.001 7.70484 319.651 7.70484L319.673 7.72637Z" fill="white"/>
<path d="M334.796 0.279785C335.88 0.279785 336.833 0.45196 337.656 0.774789C338.48 1.09762 339.13 1.61414 339.606 2.2598C340.083 2.90546 340.321 3.70177 340.321 4.67025C340.321 5.42352 340.148 6.06918 339.823 6.62875C339.498 7.18832 339.065 7.68332 338.501 8.09224C337.938 8.50115 337.331 8.88855 336.681 9.21138C337.483 9.57725 338.198 9.98617 338.826 10.4381C339.455 10.8901 339.975 11.4281 340.343 12.0307C340.711 12.6334 340.906 13.3651 340.906 14.2045C340.906 15.2375 340.646 16.1414 340.148 16.8947C339.65 17.648 338.935 18.2291 338.025 18.638C337.115 19.0469 336.053 19.2406 334.84 19.2406C333.518 19.2406 332.413 19.0469 331.503 18.6595C330.593 18.2721 329.878 17.7125 329.401 16.9593C328.925 16.206 328.686 15.3451 328.686 14.3121C328.686 13.4727 328.86 12.7194 329.228 12.0953C329.596 11.4712 330.073 10.9331 330.68 10.4812C331.286 10.0292 331.936 9.64182 332.651 9.34051C332.023 8.99616 331.46 8.63028 330.961 8.19985C330.463 7.76941 330.051 7.27441 329.748 6.69331C329.445 6.11222 329.293 5.44504 329.293 4.69178C329.293 3.76633 329.531 2.97002 330.008 2.32437C330.485 1.67871 331.135 1.18371 331.98 0.839355C332.825 0.495004 333.756 0.322829 334.796 0.322829V0.279785ZM330.766 14.3336C330.766 15.2806 331.091 16.0553 331.763 16.658C332.435 17.2606 333.453 17.5619 334.796 17.5619C336.14 17.5619 337.071 17.2606 337.786 16.658C338.501 16.0553 338.848 15.2375 338.848 14.2475C338.848 13.6234 338.696 13.0853 338.371 12.6334C338.046 12.1814 337.591 11.751 337.006 11.3851C336.421 11.0192 335.706 10.6749 334.905 10.3736L334.45 10.2014C333.67 10.5242 332.998 10.8686 332.456 11.2775C331.915 11.6864 331.503 12.1168 331.2 12.6118C330.896 13.1068 330.766 13.6879 330.766 14.3336ZM334.775 2.00154C333.778 2.00154 332.955 2.23828 332.326 2.71176C331.698 3.18524 331.373 3.87394 331.373 4.75634C331.373 5.402 331.525 5.94005 331.828 6.37048C332.131 6.80092 332.565 7.18832 333.085 7.51115C333.605 7.83397 334.211 8.11376 334.883 8.39354C335.533 8.13528 336.096 7.83397 336.595 7.51115C337.093 7.18832 337.483 6.80092 337.765 6.34896C338.046 5.897 338.198 5.35895 338.198 4.75634C338.198 3.87394 337.873 3.18524 337.245 2.71176C336.616 2.23828 335.793 2.00154 334.753 2.00154H334.775Z" fill="white"/>
<path d="M366.343 4.9285C367.882 4.9285 369.03 5.3159 369.81 6.11221C370.59 6.90852 370.98 8.17831 370.98 9.94311V19.0038H368.9V10.0507C368.9 8.93158 368.662 8.09222 368.163 7.53265C367.665 6.97309 366.95 6.6933 365.997 6.6933C364.653 6.6933 363.678 7.08069 363.071 7.85548C362.465 8.63027 362.161 9.77093 362.161 11.2775V19.0038H360.06V10.0507C360.06 9.29745 359.951 8.67332 359.735 8.17831C359.518 7.68331 359.193 7.31744 358.76 7.05917C358.326 6.80091 357.785 6.6933 357.135 6.6933C356.203 6.6933 355.466 6.887 354.903 7.25287C354.34 7.61874 353.95 8.19983 353.69 8.93158C353.43 9.66332 353.321 10.5888 353.321 11.6649V18.9823H351.22V5.16525H352.931L353.256 7.12374H353.365C353.646 6.65026 353.993 6.24134 354.426 5.91851C354.86 5.59568 355.315 5.33742 355.856 5.16525C356.398 4.99307 356.94 4.90698 357.525 4.90698C358.586 4.90698 359.475 5.10068 360.19 5.48807C360.905 5.87547 361.425 6.47808 361.75 7.27439H361.858C362.313 6.47808 362.941 5.87547 363.743 5.48807C364.545 5.10068 365.411 4.90698 366.365 4.90698L366.343 4.9285Z" fill="white"/>
<path d="M374.988 17.6696C374.988 17.0885 375.14 16.658 375.422 16.4213C375.703 16.1846 376.05 16.0554 376.483 16.0554C376.917 16.0554 377.285 16.1846 377.567 16.4213C377.848 16.658 378.022 17.0885 378.022 17.6696C378.022 18.2507 377.87 18.6811 377.567 18.9394C377.263 19.1976 376.917 19.3267 376.483 19.3267C376.05 19.3267 375.725 19.1976 375.422 18.9394C375.118 18.6811 374.988 18.2507 374.988 17.6696Z" fill="white"/>
<path d="M159.511 42.5059C160.66 42.5059 161.591 42.8933 162.285 43.6896C162.978 44.4859 163.325 45.6696 163.325 47.2407C163.325 48.2953 163.173 49.1562 162.848 49.8664C162.523 50.5766 162.09 51.1147 161.526 51.4805C160.963 51.8464 160.27 52.0186 159.511 52.0186C159.013 52.0186 158.601 51.954 158.211 51.8249C157.821 51.6958 157.518 51.5236 157.258 51.3084C156.998 51.0931 156.781 50.8564 156.608 50.5981H156.5C156.5 50.8134 156.543 51.0716 156.565 51.3944C156.586 51.6958 156.608 51.9755 156.608 52.2123V55.9786H155.2V42.6781H156.348L156.543 44.034H156.608C156.781 43.7542 156.998 43.4959 157.258 43.2592C157.518 43.0224 157.843 42.8502 158.211 42.6996C158.58 42.5489 159.035 42.4844 159.533 42.4844L159.511 42.5059ZM159.273 43.6896C158.623 43.6896 158.125 43.8187 157.735 44.0555C157.345 44.2922 157.063 44.6796 156.868 45.1531C156.673 45.6266 156.586 46.2507 156.586 47.004V47.2622C156.586 48.037 156.673 48.7042 156.846 49.2423C157.02 49.7803 157.301 50.1892 157.691 50.469C158.081 50.7488 158.623 50.8994 159.295 50.8994C159.88 50.8994 160.356 50.7488 160.725 50.4475C161.115 50.1462 161.396 49.7157 161.591 49.1562C161.786 48.5966 161.873 47.9725 161.873 47.2622C161.873 46.1861 161.656 45.3037 161.245 44.6796C160.833 44.0555 160.161 43.7111 159.295 43.7111L159.273 43.6896Z" fill="white"/>
<path d="M169.326 42.5059C170.106 42.5059 170.8 42.678 171.363 43.0224C171.926 43.3667 172.36 43.8617 172.663 44.4859C172.966 45.11 173.118 45.8418 173.118 46.6811V47.542H166.726C166.726 48.6181 167.008 49.4359 167.528 50.017C168.048 50.5766 168.785 50.8564 169.738 50.8564C170.323 50.8564 170.843 50.8133 171.298 50.7057C171.753 50.5981 172.208 50.4474 172.706 50.2322V51.459C172.23 51.6742 171.775 51.8248 171.32 51.9109C170.865 51.997 170.323 52.0616 169.695 52.0616C168.806 52.0616 168.026 51.8894 167.376 51.5235C166.726 51.1577 166.206 50.6411 165.838 49.9309C165.47 49.2207 165.296 48.3813 165.296 47.3698C165.296 46.3583 165.47 45.5189 165.795 44.7872C166.12 44.0554 166.596 43.4959 167.225 43.1085C167.831 42.7211 168.546 42.5274 169.391 42.5274L169.326 42.5059ZM169.305 43.6465C168.546 43.6465 167.961 43.8833 167.506 44.3783C167.051 44.8733 166.791 45.5404 166.705 46.4228H171.601C171.601 45.8848 171.515 45.3898 171.341 44.9809C171.168 44.572 170.93 44.2491 170.583 44.0124C170.236 43.7757 169.803 43.668 169.283 43.668L169.305 43.6465Z" fill="white"/>
<path d="M179.683 42.5059C179.878 42.5059 180.073 42.5059 180.268 42.5274C180.463 42.5274 180.658 42.5704 180.81 42.6135L180.637 43.9048C180.485 43.8617 180.312 43.8402 180.138 43.8187C179.965 43.7972 179.77 43.7757 179.618 43.7757C179.25 43.7757 178.903 43.8402 178.557 43.9909C178.232 44.1415 177.928 44.3567 177.69 44.6365C177.452 44.9163 177.257 45.2391 177.105 45.6265C176.975 46.0139 176.888 46.4444 176.888 46.9178V51.8464H175.48V42.6565H176.65L176.802 44.3567H176.867C177.062 44.0124 177.278 43.7111 177.56 43.4313C177.82 43.1515 178.145 42.9148 178.492 42.7641C178.838 42.6135 179.25 42.5059 179.683 42.5059Z" fill="white"/>
<path d="M185.707 38.718V38.8902C185.598 39.0624 185.447 39.2561 185.252 39.4713C185.057 39.6865 184.84 39.9448 184.602 40.1815C184.363 40.4398 184.125 40.6765 183.887 40.8917C183.648 41.1069 183.432 41.3006 183.215 41.4728H182.283V41.2791C182.457 41.0639 182.652 40.8056 182.868 40.5043C183.085 40.203 183.302 39.9017 183.497 39.5789C183.692 39.2561 183.865 38.9763 183.995 38.718H185.685H185.707ZM183.952 51.8894H182.543V42.6996H183.952V51.8894Z" fill="white"/>
<path d="M196.973 42.5059C197.992 42.5059 198.772 42.7642 199.27 43.3022C199.79 43.8403 200.05 44.6796 200.05 45.8418V51.8679H198.663V45.9064C198.663 45.1531 198.49 44.615 198.187 44.2276C197.883 43.8403 197.385 43.6681 196.735 43.6681C195.847 43.6681 195.197 43.9263 194.785 44.4429C194.373 44.9594 194.178 45.7127 194.178 46.7242V51.8679H192.792V45.9064C192.792 45.4114 192.727 45.0024 192.575 44.6581C192.423 44.3137 192.207 44.077 191.925 43.9263C191.643 43.7542 191.275 43.6681 190.842 43.6681C190.235 43.6681 189.737 43.7972 189.368 44.0555C189 44.3137 188.718 44.6796 188.567 45.1746C188.393 45.6696 188.328 46.2722 188.328 47.004V51.8679H186.92V42.6781H188.047L188.263 43.9694H188.35C188.523 43.6466 188.762 43.3883 189.043 43.1516C189.325 42.9363 189.65 42.7642 189.997 42.6566C190.343 42.5489 190.712 42.4844 191.102 42.4844C191.817 42.4844 192.402 42.6135 192.878 42.8718C193.355 43.13 193.702 43.5174 193.918 44.0555H194.005C194.308 43.5174 194.72 43.13 195.262 42.8718C195.782 42.6135 196.367 42.4844 196.995 42.4844L196.973 42.5059Z" fill="white"/>
<path d="M206.485 42.5059C207.265 42.5059 207.958 42.678 208.522 43.0224C209.085 43.3667 209.518 43.8617 209.822 44.4859C210.125 45.11 210.277 45.8418 210.277 46.6811V47.542H203.885C203.885 48.6181 204.167 49.4359 204.687 50.017C205.207 50.5766 205.943 50.8564 206.897 50.8564C207.482 50.8564 208.002 50.8133 208.457 50.7057C208.912 50.5981 209.367 50.4474 209.865 50.2322V51.459C209.388 51.6742 208.933 51.8248 208.478 51.9109C208.023 51.997 207.482 52.0616 206.853 52.0616C205.965 52.0616 205.185 51.8894 204.535 51.5235C203.885 51.1577 203.365 50.6411 202.997 49.9309C202.628 49.2207 202.455 48.3813 202.455 47.3698C202.455 46.3583 202.628 45.5189 202.953 44.7872C203.278 44.0554 203.755 43.4959 204.383 43.1085C204.99 42.7211 205.705 42.5274 206.55 42.5274L206.485 42.5059ZM206.485 43.6465C205.727 43.6465 205.142 43.8833 204.687 44.3783C204.232 44.8733 203.972 45.5404 203.885 46.4228H208.782C208.782 45.8848 208.695 45.3898 208.522 44.9809C208.348 44.572 208.11 44.2491 207.763 44.0124C207.417 43.7757 206.983 43.668 206.463 43.668L206.485 43.6465Z" fill="white"/>
<path d="M215.629 50.8994C215.867 50.8994 216.105 50.8994 216.344 50.8348C216.582 50.7918 216.777 50.7487 216.929 50.6842V51.7603C216.755 51.8248 216.539 51.8894 216.257 51.954C215.975 52.0185 215.694 52.0401 215.412 52.0401C214.914 52.0401 214.48 51.954 214.069 51.7818C213.657 51.6096 213.354 51.3298 213.115 50.9209C212.877 50.512 212.747 49.9524 212.747 49.2207V43.7756H211.425V43.0869L212.747 42.5489L213.31 40.5474H214.155V42.678H216.864V43.7756H214.155V49.1776C214.155 49.7587 214.285 50.1892 214.567 50.469C214.849 50.7487 215.195 50.8994 215.629 50.8994Z" fill="white"/>
<path d="M223.017 42.5059C223.212 42.5059 223.407 42.5059 223.602 42.5274C223.797 42.5274 223.992 42.5704 224.144 42.6135L223.97 43.9048C223.819 43.8617 223.645 43.8402 223.472 43.8187C223.299 43.7972 223.104 43.7757 222.952 43.7757C222.584 43.7757 222.237 43.8402 221.89 43.9909C221.565 44.1415 221.262 44.3567 221.024 44.6365C220.785 44.9163 220.59 45.2391 220.438 45.6265C220.308 46.0139 220.222 46.4444 220.222 46.9178V51.8464H218.813V42.6565H219.983L220.135 44.3567H220.2C220.395 44.0124 220.612 43.7111 220.893 43.4313C221.153 43.1515 221.478 42.9148 221.825 42.7641C222.172 42.6135 222.584 42.5059 223.017 42.5059Z" fill="white"/>
<path d="M233.872 47.2622C233.872 48.0155 233.764 48.6826 233.569 49.2853C233.374 49.8879 233.092 50.3829 232.724 50.7918C232.355 51.2007 231.9 51.502 231.38 51.7172C230.86 51.9325 230.254 52.0401 229.604 52.0401C228.975 52.0401 228.412 51.9325 227.892 51.7172C227.372 51.502 226.939 51.1792 226.549 50.7918C226.159 50.4044 225.877 49.8879 225.682 49.2853C225.487 48.6826 225.379 48.0155 225.379 47.2622C225.379 46.2507 225.552 45.3898 225.899 44.6796C226.245 43.9693 226.722 43.4313 227.372 43.0654C228.022 42.6996 228.78 42.5059 229.669 42.5059C230.557 42.5059 231.25 42.6996 231.879 43.0654C232.507 43.4313 233.005 43.9693 233.352 44.6796C233.699 45.3898 233.872 46.2507 233.872 47.2407V47.2622ZM226.83 47.2622C226.83 47.9939 226.917 48.6396 227.134 49.1777C227.329 49.7157 227.632 50.1461 228.044 50.4259C228.455 50.7057 228.975 50.8779 229.625 50.8779C230.275 50.8779 230.795 50.7272 231.207 50.4259C231.619 50.1246 231.922 49.7157 232.117 49.1777C232.312 48.6396 232.42 47.9939 232.42 47.2622C232.42 46.5305 232.334 45.9063 232.117 45.3683C231.922 44.8302 231.619 44.4213 231.207 44.12C230.795 43.8187 230.254 43.6896 229.604 43.6896C228.629 43.6896 227.935 44.0124 227.48 44.6365C227.025 45.2607 226.809 46.1431 226.809 47.2622H226.83Z" fill="white"/>
<path d="M257.597 25.6111C257.597 26.6441 257.424 27.5481 257.142 28.3013C256.861 29.0546 256.384 29.6357 255.799 30.0231C255.214 30.4105 254.456 30.6257 253.546 30.6257H197.667C197.06 30.6257 196.583 30.7333 196.215 30.97C195.847 31.2068 195.587 31.5511 195.413 32.0246C195.24 32.4981 195.153 33.0577 195.153 33.7464H193.398C193.398 33.0577 193.312 32.4981 193.138 32.0246C192.965 31.5511 192.705 31.2068 192.337 30.97C191.968 30.7333 191.492 30.6257 190.885 30.6257H134.985C134.075 30.6257 133.338 30.4105 132.731 30.0016C132.125 29.5926 131.691 28.99 131.388 28.2368C131.085 27.4835 130.933 26.6011 130.933 25.6111H132.666C132.666 26.2352 132.775 26.7733 132.948 27.2037C133.121 27.6341 133.403 27.9785 133.771 28.2152C134.14 28.452 134.595 28.5596 135.18 28.5596H190.993C191.882 28.5596 192.575 28.7748 193.117 29.2268C193.658 29.6787 194.005 30.3674 194.178 31.2929H194.33C194.482 30.3459 194.828 29.6572 195.37 29.2268C195.912 28.7963 196.605 28.5811 197.493 28.5811H253.394C253.979 28.5811 254.434 28.4735 254.802 28.2368C255.171 28 255.431 27.6772 255.604 27.2252C255.777 26.7733 255.864 26.2567 255.864 25.6111H257.619H257.597Z" fill="white"/>
</g>
<defs>
<clipPath id="clip0_31_811">
<rect width="378" height="56" fill="white"/>
</clipPath>
</defs>
</svg>
