<svg width="257" height="124" viewBox="0 0 257 124" fill="none" xmlns="http://www.w3.org/2000/svg">
<g clip-path="url(#clip0_18_13187)">
<path d="M257 0H0V124H257V0Z" fill="#E31E2C"/>
<mask id="mask0_18_13187" style="mask-type:luminance" maskUnits="userSpaceOnUse" x="0" y="10" width="257" height="114">
<path d="M257 10.6705H0V124H257V10.6705Z" fill="white"/>
</mask>
<g mask="url(#mask0_18_13187)">
<path d="M204.676 88.3881L204.807 87.5723C205.352 90.1828 205.755 92.6846 206.158 95.7628H203.457C203.86 93.3154 204.132 90.9442 204.676 88.3881ZM206.789 99.4284C207.127 100.832 207.334 102.278 207.737 103.964C208.009 105.879 208.412 109.947 208.815 111.926L208.881 112.329C208.946 112.448 209.011 112.448 209.153 112.448H209.556C212.061 112.22 213.411 111.981 214.217 111.981L214.49 111.861L213.477 106.988C213.27 105.879 213.074 104.66 213.074 103.616C212.867 102.572 212.399 100.94 212.399 101.06C211.919 98.6779 211.919 96.3502 211.516 94.0333C211.386 93.3916 210.972 92.6954 210.972 92.0537C210.972 91.9884 210.972 91.9449 211.037 91.8797L208.608 78.9358C208.543 78.0003 208.336 77.2498 208.205 76.6733C208.205 76.6081 208.075 76.4993 208.075 76.4449C207.737 74.7046 207.737 74.2368 207.127 74.2368C206.92 74.2368 206.517 74.3021 206.114 74.4109C205.232 74.6393 204.491 74.759 202.324 74.759L201.311 78.0112C201.311 78.0765 201.246 78.1853 201.246 78.2396C201.115 78.8161 200.843 79.5775 200.701 80.5021L200.57 81.9488L198.272 93.446C198.403 93.446 198.479 93.5112 198.479 93.5547C198.479 93.5547 198.479 93.62 198.414 93.7288C198.283 94.3053 198.076 94.8818 198.011 95.5344C197.466 97.9165 197.466 100.244 196.998 102.561C196.998 102.452 196.519 104.127 196.322 105.117C196.322 106.227 196.192 107.445 195.985 108.544C195.778 109.707 195.506 110.806 195.244 111.796L195.516 111.905C196.333 111.905 197.684 112.133 200.178 112.372H200.581C200.712 112.372 200.788 112.372 200.853 112.264L202.346 102.507C202.618 101.571 202.618 100.647 202.749 99.7221L205.722 99.4284H206.811H206.789ZM186.705 101.517C186.705 98.9063 186.367 96.2305 186.367 93.5547C186.367 90.3025 187.108 79.8495 188.47 79.8495C189.624 79.8495 189.689 81.8291 189.689 83.9175C189.689 85.4839 189.689 87.1154 189.962 88.04C189.962 88.3337 189.831 88.5621 189.831 88.7905L190.844 88.6165L195.44 87.2242H195.843C195.713 85.6579 195.506 84.0263 195.506 81.9379L194.155 77.1737C193.676 75.3681 192.391 74.3239 190.103 73.6821H187.337C181.989 73.6821 181.521 81.2853 180.976 83.7326C180.845 84.5484 180.497 85.2446 180.497 86.18C180.497 86.4084 180.562 88.0944 180.562 87.9204C180.562 90.1284 180.225 91.7491 180.225 93.794C180.225 96.8179 180.628 99.8853 180.628 102.909C180.965 104.247 181.575 109.066 184.342 110.752C185.017 111.219 186.237 111.219 187.108 111.219C194.068 111.219 194.068 105.346 195.081 102.039L193.186 101.397H190.691L189.341 100.995V102.039C189.341 102.855 188.666 105.574 188.121 105.574C187.239 105.574 186.694 102.039 186.694 101.506M178.177 75.4333C178.046 75.3246 177.97 75.3246 177.839 75.3246H177.36C174.528 75.553 172.829 75.7923 171.816 75.7923L171.544 75.9011C171.544 76.9453 171.609 78.0547 171.609 79.2077C171.609 80.3607 171.544 81.5354 171.272 82.634C171.272 83.6782 171.544 85.3642 171.544 85.2446C171.544 87.6267 171.065 89.9544 171.065 92.3365C171.065 92.9782 171.195 93.6091 171.195 94.1965C171.195 94.3053 171.195 94.4249 171.065 94.4902C171.065 95.654 170.934 101.876 170.934 106.161L170.803 107.608C170.803 108.544 170.869 109.294 170.869 109.871C170.869 111.85 170.869 112.361 171.544 112.361C171.816 112.361 172.219 112.296 172.764 112.187C173.842 111.959 174.659 111.839 177.164 111.839V99.5916C177.164 94.773 177.643 90.1175 177.643 85.3098C177.643 84.494 177.578 83.6891 177.578 82.8625V82.286C177.643 80.3063 178.188 77.8698 178.188 75.8358V75.4333H178.177ZM158.43 110.458C158.496 110.578 158.561 110.578 158.768 110.578H159.171C162.003 110.349 163.702 110.11 164.715 110.11L164.987 109.99C164.987 108.946 164.922 107.836 164.922 106.684C164.922 105.531 164.987 104.356 165.259 103.257C165.259 102.213 164.987 100.527 164.987 100.647C164.987 98.2646 165.532 95.9368 165.532 93.5547C165.532 92.913 165.325 92.2821 165.325 91.6947C165.325 91.586 165.325 91.4663 165.532 91.4011C165.532 90.2372 165.597 84.0263 165.597 79.7298L165.728 78.2832C167.623 78.0547 168.44 78.0547 170.259 78.0547L170.389 73.4754C170.389 73.3558 169.986 73.3558 169.714 73.3558C169.039 73.3558 168.429 73.5842 167.95 73.5842C163.484 74.1063 159.16 74.1607 154.498 74.1607C154.095 75.3789 154.095 76.7168 154.095 77.9895V79.2077C155.446 79.2077 158.757 78.914 158.964 78.74C159.302 78.8488 159.443 82.1663 159.443 84.494V86.2996C159.443 91.1182 158.899 95.7737 158.899 100.581C158.899 101.397 158.964 102.202 158.964 103.029V103.605C158.899 105.585 158.419 108.021 158.419 110.055V110.458H158.43ZM141.799 69.3965C141.799 69.3965 141.733 70.7344 141.592 71.4305C141.592 71.7242 141.799 73.0512 141.799 73.0512L143.694 72.2354C143.759 72.1702 144.304 72.1267 148.29 70.4951C148.29 70.4951 148.421 70.4298 148.497 70.4298C149.107 69.9077 149.238 68.9179 149.238 67.8737C149.238 66.3618 148.9 64.8498 148.759 64.8498C148.759 64.8498 148.693 64.9151 148.693 65.0239L146.123 66.5358C145.447 67.0579 142.474 68.7982 141.799 69.1463V69.3747V69.3965ZM146.46 88.3881L146.591 87.5723C147.136 90.1828 147.539 92.6846 147.942 95.7628H145.241C145.644 93.3154 145.916 90.9442 146.46 88.3881ZM148.573 99.4284C148.911 100.832 149.118 102.278 149.521 103.964C149.793 105.879 150.196 109.947 150.599 111.926L150.665 112.329C150.73 112.448 150.795 112.448 150.937 112.448H151.34C153.834 112.22 155.195 111.981 156.001 111.981L156.274 111.861L155.261 106.988C155.054 105.879 154.858 104.66 154.858 103.616C154.651 102.572 154.183 100.94 154.183 101.06C153.703 98.6779 153.703 96.3502 153.3 94.0333C153.17 93.3916 152.756 92.6954 152.756 92.0537C152.756 91.9884 152.756 91.9449 152.821 91.8797L150.381 78.9358C150.316 78.0003 150.109 77.2498 149.978 76.6733C149.978 76.6081 149.848 76.4993 149.848 76.4449C149.51 74.7046 149.51 74.2368 148.9 74.2368C148.693 74.2368 148.29 74.3021 147.887 74.4109C147.005 74.6393 146.264 74.759 144.097 74.759L143.084 78.0112C143.084 78.0765 143.019 78.1853 143.019 78.2396C142.888 78.8161 142.616 79.5775 142.474 80.5021L142.343 81.9488L140.045 93.446C140.176 93.446 140.252 93.5112 140.252 93.5547C140.252 93.5547 140.252 93.62 140.187 93.7288C140.056 94.3053 139.849 94.8818 139.784 95.5344C139.239 97.9165 139.239 100.244 138.771 102.561C138.771 102.452 138.292 104.127 138.096 105.117C138.096 106.227 137.965 107.445 137.758 108.544C137.551 109.707 137.279 110.806 137.017 111.796L137.29 111.905C138.106 111.905 139.457 112.133 141.951 112.372H142.354C142.485 112.372 142.561 112.372 142.627 112.264L144.119 102.507C144.391 101.571 144.391 100.647 144.522 99.7221L147.495 99.4284H148.595H148.573ZM128.827 111.861C128.827 112.089 128.892 112.089 129.099 112.089C130.863 112.089 133.02 111.513 134.578 111.154C134.915 111.154 134.981 110.219 134.981 109.294C134.981 108.544 134.915 107.728 134.915 107.554C134.85 107.032 134.578 104.53 134.578 104.019V92.4018C134.371 92.1081 134.371 91.8253 134.371 91.5316V90.9551C134.371 90.9551 134.981 82.8189 134.981 79.0554C134.981 78.0656 134.708 77.0758 134.708 76.0968C134.708 75.4007 134.915 74.6502 134.915 74.0084C134.708 73.8996 134.708 73.8344 134.708 73.78C134.708 73.78 134.164 73.7147 133.826 73.7147C131.125 73.7147 128.751 74.0628 128.751 74.0628C128.271 74.1281 126.256 83.7544 126.376 83.4716L123.882 92.3582L123 88.4642C123 86.2561 122.455 83.2975 121.845 81.3288L121.028 74.0737C121.028 73.7256 120.288 73.7256 119.95 73.7256C118.055 73.7256 116.029 73.8996 114.069 74.0737L113.938 74.2477V74.9439C113.938 75.3463 113.938 75.814 113.731 76.1621V80.4042C113.731 86.7347 111.966 97.8295 111.966 100.092C111.966 102.006 111.694 103.747 111.563 105.552C111.498 106.662 111.498 107.815 111.226 108.805V111.654H111.563C112.99 111.426 114.537 111.187 115.964 111.187C116.367 111.187 116.911 111.187 117.314 111.252L118.741 91.4446C119.754 92.4888 120.636 110.034 120.636 110.719C120.636 110.784 120.636 110.839 120.767 110.893C122.39 110.599 124.013 110.545 125.701 110.545C125.832 109.555 126.104 108.456 126.104 107.347V106.825C126.844 97.5358 127.531 93.2937 127.999 92.6628L128.064 92.4888C128.064 93.5982 128.544 100.266 128.544 102.648V104.269C128.881 105.541 128.881 106.825 128.881 108.098C128.881 109.49 128.881 110.48 128.816 111.872M103.199 106.292L101.369 106.466L101.162 99.6133C101.162 97.4597 101.227 95.3168 101.369 93.1632C103.406 93.2284 105.497 93.2719 107.86 93.2719C107.926 91.586 108.133 91.0095 108.47 90.3133C108.677 89.9653 108.808 89.6716 108.808 89.4975C108.808 89.0298 107.991 88.9754 105.159 88.9754C104.277 88.9102 103.199 88.8667 101.848 88.8667C101.717 88.1705 101.717 87.4744 101.717 86.7782V85.3316C101.717 84.5158 101.587 81.5572 101.587 80.7523V80.1758C101.587 79.4253 101.717 78.5551 101.794 77.6849L109.233 77.4565L108.557 73.334L97.0557 73.5081C96.5112 73.6821 96.1735 73.6821 95.8359 73.6821L95.6289 73.7909C95.6289 74.8351 95.6943 75.9446 95.6943 77.1084C95.6943 78.2723 95.6289 79.4361 95.3566 80.5347C95.3566 81.5789 95.6289 85.4077 95.6289 85.2989C95.6289 87.6811 95.0843 90.0088 95.0843 92.3909C95.0843 93.0326 95.2913 93.6635 95.2913 94.2509C95.2913 94.3597 95.2913 94.4793 95.0843 94.5446C95.0843 95.7084 95.1497 100.418 95.1497 104.704L95.019 106.151C95.019 107.086 95.0843 107.836 95.0843 108.413C95.0843 110.393 95.0843 110.904 95.7596 110.904C96.0319 110.904 96.4349 110.839 96.9795 110.73H109.211L108.873 106.433C106.913 106.368 105.224 106.325 103.188 106.325M82.6352 110.469C82.7005 110.588 82.7659 110.588 82.9728 110.588H83.3758C86.2076 110.36 87.9067 110.121 88.9197 110.121L89.1919 110.001C89.1919 108.957 89.1266 107.847 89.1266 106.694C89.1266 105.541 89.1919 104.367 89.4642 103.268C89.4642 102.224 89.1919 100.538 89.1919 100.658C89.1919 98.2754 89.7365 95.9477 89.7365 93.5656C89.7365 92.9239 89.5296 92.293 89.5296 91.7056C89.5296 91.5968 89.5296 91.4772 89.7365 91.4119C89.7365 90.2481 89.8019 84.0372 89.8019 79.7407L89.9326 78.294C91.8277 78.0656 92.6337 78.0656 94.4635 78.0656L94.5942 73.4863C94.5942 73.3667 94.1912 73.3667 93.9189 73.3667C93.2437 73.3667 92.6337 73.5951 92.1545 73.5951C87.6889 74.1172 83.3649 74.1716 78.7033 74.1716C78.3003 75.3898 78.3003 76.7277 78.3003 78.0003V79.2186C79.6508 79.2186 82.9619 78.9249 83.1688 78.7509C83.5065 78.8597 83.6481 82.1772 83.6481 84.5049V86.3105C83.6481 91.1291 83.1035 95.7846 83.1035 100.592C83.1035 101.408 83.1688 102.213 83.1688 103.04V103.616C83.1035 105.596 82.6243 108.032 82.6243 110.066V110.469H82.6352ZM70.6652 88.4098L70.7959 87.594C71.3405 90.2046 71.7435 92.7063 72.1465 95.7846H69.4453C69.8483 93.3372 70.1206 90.966 70.6652 88.4098ZM72.7673 99.4502C73.1049 100.853 73.3119 102.3 73.7149 103.986C73.9872 105.9 74.3902 109.968 74.7931 111.948L74.8585 112.351C74.9239 112.47 74.9892 112.47 75.1308 112.47H75.5338C78.028 112.242 79.3894 112.002 80.1954 112.002L80.4677 111.883L79.4548 107.01C79.2478 105.9 79.0518 104.682 79.0518 103.638C78.8449 102.594 78.3765 100.962 78.3765 101.082C77.8973 98.6996 77.8973 96.3719 77.4943 94.0551C77.3636 93.4133 76.9497 92.7172 76.9497 92.0754C76.9497 92.0102 76.9497 91.9667 77.0151 91.9014L74.5862 78.9575C74.5209 78.0221 74.3139 77.2716 74.1832 76.6951C74.1832 76.6298 74.0525 76.5211 74.0525 76.4667C73.7149 74.7263 73.7149 74.2586 73.1049 74.2586C72.898 74.2586 72.495 74.3239 72.092 74.4326C71.2098 74.6611 70.4692 74.7807 68.3017 74.7807L67.2888 78.033C67.2888 78.0982 67.2234 78.207 67.2234 78.2614C67.0927 78.8379 66.8204 79.5993 66.6789 80.5239L66.5482 81.9705L64.25 93.4677C64.3807 93.4677 64.457 93.533 64.457 93.5765C64.457 93.5765 64.4569 93.6418 64.3916 93.7505C64.2609 94.327 64.054 94.9035 63.9886 95.5561C63.444 97.9382 63.444 100.266 62.9757 102.583C62.9757 102.474 62.4965 104.149 62.3004 105.139C62.3004 106.248 62.1697 107.467 61.9628 108.565C61.7558 109.729 61.4835 110.828 61.2221 111.818L61.4944 111.926C62.3113 111.926 63.6619 112.155 66.1561 112.394H66.559C66.6897 112.394 66.766 112.394 66.8313 112.285L68.3235 102.528C68.5958 101.593 68.5958 100.668 68.7265 99.7439L71.6999 99.4502H72.7891H72.7673ZM53.0207 111.883C53.0207 112.111 53.086 112.111 53.293 112.111C55.0574 112.111 57.214 111.535 58.7715 111.176C59.1091 111.176 59.1745 110.24 59.1745 109.316C59.1745 108.565 59.1091 107.749 59.1091 107.575C59.0438 107.053 58.7715 104.552 58.7715 104.04V92.4235C58.5646 92.1298 58.5646 91.847 58.5646 91.5533V90.9768C58.5646 90.9768 59.1745 82.8407 59.1745 79.0772C59.1745 78.0874 58.9022 77.0975 58.9022 76.1186C58.9022 75.4225 59.1091 74.6719 59.1091 74.0302C58.9022 73.9214 58.9022 73.8561 58.9022 73.8018C58.9022 73.8018 58.3576 73.7365 58.02 73.7365C55.3188 73.7365 52.9445 74.0846 52.9445 74.0846C52.4652 74.1498 50.4503 83.7761 50.581 83.4933L48.0868 92.38L47.2045 88.486C47.2045 86.2779 46.66 83.3193 46.05 81.3505L45.2331 74.0954C45.2331 73.7474 44.4925 73.7474 44.1549 73.7474C42.2597 73.7474 40.2339 73.9214 38.2734 74.0954L38.1427 74.2695V74.9656C38.1427 75.3681 38.1427 75.8358 37.9357 76.1839V80.426C37.9357 86.7565 36.1713 97.8512 36.1713 100.114C36.1713 102.028 35.899 103.768 35.7683 105.574C35.7029 106.684 35.7029 107.836 35.4306 108.826V111.676H35.7683C37.1951 111.448 38.7417 111.208 40.1685 111.208C40.5715 111.208 41.1161 111.208 41.5191 111.274L42.9459 91.4663C43.9588 92.5105 44.841 110.055 44.841 110.741C44.841 110.806 44.841 110.86 44.9717 110.915C46.5946 110.621 48.2175 110.567 49.9057 110.567C50.0364 109.577 50.3087 108.478 50.3087 107.369V106.847C51.0493 97.5575 51.7355 93.3154 52.2038 92.6846L52.2692 92.5105C52.2692 93.62 52.7484 100.288 52.7484 102.67V104.291C53.086 105.563 53.086 106.847 53.086 108.119C53.086 109.512 53.086 110.501 53.0207 111.894" fill="white"/>
<path d="M227.179 55.0386C227.179 51.8407 226.765 48.5558 226.765 45.2818C226.765 41.2898 227.68 28.4765 229.335 28.4765C230.74 28.4765 230.827 30.8912 230.827 33.4582C230.827 35.3835 230.827 37.374 231.154 38.5161C230.991 42.6495 231.154 46.0649 230.413 50.0568V55.6912C230.413 56.6919 229.586 60.0312 228.921 60.0312C227.843 60.0312 227.179 55.6912 227.179 55.0495M219.718 56.7463C220.132 58.3888 220.872 64.2951 224.281 66.3618C225.109 66.9382 226.601 66.9382 227.68 66.9382C236.72 66.9382 236.219 58.9653 237.624 55.0495C237.874 52.5586 238.201 50.4158 238.201 47.2179C238.288 47.0112 238.615 45.6516 238.615 45.5102C238.615 44.6509 238.364 43.3021 238.364 43.0193C238.364 42.3775 238.615 41.6705 238.615 41.0288C238.615 37.6895 237.95 35.1225 237.95 31.0544L236.295 25.2133C235.718 23.0053 234.138 21.7218 231.317 20.9495H227.919C221.373 20.9495 220.796 30.2712 220.121 33.2625C219.957 34.2632 219.544 35.1116 219.544 36.2537C219.544 36.5365 219.631 38.6032 219.631 38.3856C219.631 41.094 219.217 43.0846 219.217 45.5754C219.217 49.2846 219.718 53.0481 219.718 56.7572M207.279 28.4221C208.848 28.4982 208.935 30.7716 208.935 33.48C208.935 35.4053 208.935 37.3958 209.262 38.5379C209.098 42.6712 209.262 46.0867 208.521 50.0786V55.713C208.521 56.6375 207.857 59.2807 207.279 59.9116L207.443 60.3358L203.707 60.8361L203.206 60.6947V51.2968C203.206 45.3144 203.87 39.4733 203.87 33.4909C203.87 32.4902 203.707 31.4242 203.707 30.4235V28.6397L204.121 28.2916L207.279 28.433V28.4221ZM205.787 66.9382C214.827 66.9382 214.326 58.9653 215.731 55.0495C215.982 52.5586 216.309 50.4158 216.309 47.2179C216.396 47.0112 216.723 45.6516 216.723 45.5102C216.723 44.6509 216.472 43.3021 216.472 43.0193C216.472 42.3775 216.723 41.6705 216.723 41.0288C216.723 37.6895 216.058 35.1225 216.058 31.0544L214.403 25.2133C213.825 23.0053 212.246 21.7218 209.425 20.9495H207.018C205.613 20.9495 205.199 21.0256 204.862 21.0909L204.284 21.1561C204.121 21.0147 203.87 21.0147 203.457 21.0147C201.888 21.0147 198.566 21.5912 197.237 21.5912L196.573 21.7326C196.573 23.0161 196.66 24.4411 196.66 25.866C196.66 27.2909 196.573 28.7811 196.246 30.1298C196.246 31.4133 196.573 33.5453 196.573 33.4039C196.573 36.3298 195.996 39.2449 195.996 42.2361C195.996 43.0193 196.159 43.8025 196.159 44.5095C196.159 44.6509 196.159 44.7923 195.996 44.9337C195.996 46.3586 195.832 54.114 195.832 59.4656L195.669 61.2495C195.669 62.4568 195.756 63.3814 195.756 64.0993C195.756 66.5902 195.756 67.2319 196.584 67.2319C196.911 67.2319 197.412 67.1558 198.076 67.0253L203.217 66.7425C203.958 66.9491 204.872 66.9491 205.787 66.9491M172.72 57.1923V67.0905C172.884 67.1558 177.36 66.3074 177.948 66.166C179.604 65.8832 179.93 65.3828 179.93 64.5235C179.93 64.0232 179.843 63.4575 179.843 62.6744V60.1074C179.93 57.0509 180.257 53.9182 180.257 50.8509C180.257 49.3607 180.007 47.9249 180.007 46.5109C180.007 46.5109 180.007 46.3695 180.257 46.3042C180.758 47.8705 181.085 49.2954 181.826 50.7856C182.817 53.1351 183.318 55.4846 183.982 57.8993C184.309 59.2481 185.137 60.3902 185.551 61.7498C185.964 63.3923 186.128 65.0891 186.465 66.8077H186.879C190.201 65.6656 192.184 65.3828 192.184 65.1653V47.7182C192.598 45.6516 192.598 43.5197 192.598 41.453C192.598 38.7446 192.347 35.1225 192.347 33.3386C192.761 28.4982 193.175 23.1575 193.175 20.3077C193.175 20.1011 193.011 19.8835 192.674 19.8835C192.587 19.8835 189.276 20.1663 187.62 20.1663C186.792 20.1663 185.964 20.1663 185.714 20.0902L185.551 20.373C185.551 21.8632 185.964 24.7891 185.964 27.3561C185.964 29.2053 185.224 36.1123 185.224 39.8214C184.483 38.9621 184.309 37.2544 183.895 36.406C183.154 34.9158 181.989 33.2733 181.564 31.6309C180.736 28.3568 180.649 24.8653 178.58 21.7326C176.837 21.9502 175.596 22.1568 173.602 22.233L171.947 22.5811V25.2242C171.947 27.3561 171.947 29.4989 172.034 31.4895L172.862 36.5474C172.862 37.3305 172.698 37.8961 172.698 38.5379C172.698 39.3211 172.698 39.7453 172.862 40.6046V47.653C172.949 48.2295 172.949 48.6537 172.949 49.0779C172.949 51.7211 172.698 54.6361 172.698 57.1923M162.09 60.8905L159.857 61.0972L159.607 52.7C159.607 50.0568 159.694 47.4354 159.857 44.7923C162.34 44.8575 164.911 44.9337 167.819 44.9337C167.906 42.867 168.146 42.16 168.56 41.3007C168.81 40.8765 168.973 40.5175 168.973 40.3C168.973 39.7235 167.982 39.6582 164.497 39.6582C163.419 39.593 162.09 39.5168 160.434 39.5168C160.271 38.6575 160.271 37.8091 160.271 36.9498V35.166C160.271 34.1653 160.108 30.5323 160.108 29.5316V28.8137C160.108 27.8891 160.271 26.8232 160.358 25.7572L169.474 25.4744L168.647 20.4165L154.553 20.6232C153.888 20.8298 153.475 20.8298 153.061 20.8298L152.81 20.9712C152.81 22.2547 152.897 23.6144 152.897 25.0284C152.897 26.4425 152.81 27.8782 152.483 29.227C152.483 30.5105 152.81 35.2095 152.81 35.0681C152.81 37.9832 152.146 40.833 152.146 43.7589C152.146 44.5421 152.396 45.3253 152.396 46.0323C152.396 46.1737 152.396 46.3151 152.146 46.3804C152.146 47.8053 152.233 53.5702 152.233 58.8456L152.07 60.6295C152.07 61.7716 152.157 62.6961 152.157 63.4032C152.157 65.8179 152.157 66.4596 152.984 66.4596C153.311 66.4596 153.812 66.3944 154.477 66.253H169.485L169.071 60.9884C166.675 60.9232 164.595 60.847 162.112 60.847M140.121 28.4004C141.69 28.4765 141.777 30.7498 141.777 33.4582C141.777 35.3835 141.777 37.374 142.104 38.5161C141.94 42.6495 142.104 46.0649 141.363 50.0568V55.6912C141.363 56.6158 140.699 59.259 140.121 59.8898L140.285 60.314L136.549 60.8144L136.048 60.673V51.2751C136.048 45.2926 136.712 39.4516 136.712 33.4691C136.712 32.4684 136.549 31.4025 136.549 30.4018V28.6179L136.963 28.2698L140.121 28.4112V28.4004ZM138.64 66.9165C147.68 66.9165 147.179 58.9435 148.584 55.0277C148.835 52.5368 149.161 50.394 149.161 47.1961C149.249 46.9895 149.575 45.6298 149.575 45.4884C149.575 44.6291 149.325 43.2804 149.325 42.9975C149.325 42.3558 149.575 41.6488 149.575 41.007C149.575 37.6677 148.911 35.1007 148.911 31.0326L147.255 25.1916C146.678 22.9835 145.099 21.7 142.278 20.9277H139.871C138.466 20.9277 138.052 21.0039 137.714 21.0691L137.137 21.1344C136.974 20.993 136.723 20.993 136.309 20.993C134.741 20.993 131.419 21.5695 130.09 21.5695L129.426 21.7109C129.426 22.9944 129.513 24.4193 129.513 25.8442C129.513 27.2691 129.426 28.7593 129.099 30.1081C129.099 31.3916 129.426 33.5235 129.426 33.3821C129.426 36.3081 128.849 39.2232 128.849 42.2144C128.849 42.9975 129.012 43.7807 129.012 44.4877C129.012 44.6291 129.012 44.7705 128.849 44.9119C128.849 46.3368 128.685 54.0923 128.685 59.4439L128.522 61.2277C128.522 62.4351 128.609 63.3597 128.609 64.0775C128.609 66.5684 128.609 67.2102 129.437 67.2102C129.763 67.2102 130.264 67.134 130.929 67.0035L136.07 66.7207C136.81 66.9274 137.725 66.9274 138.64 66.9274M105.551 57.1705V67.0688C105.715 67.134 110.191 66.2856 110.779 66.1442C112.435 65.8614 112.762 65.3611 112.762 64.5018C112.762 64.0014 112.674 63.4358 112.674 62.6526V60.0856C112.762 57.0291 113.088 53.8965 113.088 50.8291C113.088 49.3389 112.838 47.9032 112.838 46.4891C112.838 46.4891 112.838 46.3477 113.088 46.2825C113.589 47.8488 113.916 49.2737 114.657 50.7639C115.648 53.1133 116.149 55.4628 116.813 57.8775C117.14 59.2263 117.968 60.3684 118.382 61.7281C118.796 63.3705 118.959 65.0674 119.297 66.786H119.71C123.032 65.6439 125.015 65.3611 125.015 65.1435V47.6965C125.429 45.6298 125.429 43.4979 125.429 41.4312C125.429 38.7228 125.178 35.1007 125.178 33.3168C125.592 28.4765 126.006 23.1358 126.006 20.286C126.006 20.0793 125.842 19.8618 125.505 19.8618C125.418 19.8618 122.107 20.1446 120.451 20.1446C119.623 20.1446 118.796 20.1446 118.545 20.0684L118.382 20.3512C118.382 21.8414 118.796 24.7674 118.796 27.3344C118.796 29.1835 118.055 36.0905 118.055 39.7997C117.314 38.9404 117.14 37.2326 116.726 36.3842C115.985 34.894 114.82 33.2516 114.406 31.6091C113.578 28.3351 113.491 24.8435 111.422 21.7109C109.679 21.9284 108.438 22.1351 106.444 22.2112L104.789 22.5593V25.2025C104.789 27.3344 104.789 29.4772 104.876 31.4677L105.704 36.5256C105.704 37.3088 105.54 37.8744 105.54 38.5161C105.54 39.2993 105.54 39.7235 105.704 40.5828V47.6312C105.791 48.2077 105.791 48.6319 105.791 49.0561C105.791 51.6993 105.54 54.6144 105.54 57.1705M94.9427 60.8688L92.7099 61.0754L92.4594 52.6782C92.4594 50.0351 92.5466 47.4137 92.7099 44.7705C95.2041 44.8358 97.7637 44.9119 100.672 44.9119C100.759 42.8453 100.999 42.1382 101.412 41.2789C101.663 40.8547 101.826 40.4958 101.826 40.2782C101.826 39.7018 100.835 39.6365 97.3498 39.6365C96.2715 39.5712 94.9427 39.4951 93.2872 39.4951C93.1238 38.6358 93.1238 37.7874 93.1238 36.9281V35.1442C93.1238 34.1435 92.9604 30.5105 92.9604 29.5098V28.7919C92.9604 27.8674 93.1238 26.8014 93.211 25.7354L102.327 25.4526L101.5 20.3947L87.4057 20.6014C86.7413 20.8081 86.3274 20.8081 85.9135 20.8081L85.663 20.9495C85.663 22.233 85.7502 23.5926 85.7502 25.0067C85.7502 26.4207 85.663 27.8565 85.3363 29.2053C85.3363 30.4888 85.663 35.1877 85.663 35.0463C85.663 37.9614 84.9986 40.8112 84.9986 43.7372C84.9986 44.5204 85.2491 45.3035 85.2491 46.0105C85.2491 46.1519 85.2491 46.2933 84.9986 46.3586C84.9986 47.7835 85.0858 53.5484 85.0858 58.8239L84.9224 60.6077C84.9224 61.7498 85.0095 62.6744 85.0095 63.3814C85.0095 65.7961 85.0095 66.4379 85.8373 66.4379C86.164 66.4379 86.6651 66.3726 87.3295 66.2312H102.338L101.924 60.9667C99.5172 60.9014 97.4478 60.8253 94.9645 60.8253M71.0682 42.8344C69.4127 42.8344 69.0859 41.4095 69.0859 39.6365V30.5975C69.0859 28.7484 69.4127 27.9544 69.9137 27.9544C69.8265 27.9544 70.1642 27.813 70.6543 27.813C74.6407 27.813 75.2942 27.8891 75.2942 30.8042C75.2942 32.2291 75.1308 34.3719 75.1308 37.4284V39.2123C75.1308 42.4863 74.8803 42.8453 71.0682 42.8453M74.6407 67.1123C74.9674 67.3951 78.0389 67.3951 80.2825 67.3951H82.4391L75.1417 48.0989C78.2131 47.8161 81.7747 46.1084 81.7747 37.3414C81.7747 33.0775 81.5242 27.0189 80.2063 25.4526C77.8101 22.6681 73.2356 22.1786 68.1819 22.1786C65.9491 22.1786 63.542 22.32 61.4726 22.32C61.4726 22.8204 61.5598 24.2453 61.5598 25.594L61.9736 67.3951C62.0608 67.6126 66.1234 67.6126 66.5372 67.6126C68.1056 67.6126 69.5216 67.6126 69.4453 67.5365C69.5325 66.5358 69.5325 65.546 69.5325 64.4691C69.5325 60.6947 69.282 56.6375 69.282 52.9284V50.7204L74.6733 67.1014L74.6407 67.1123ZM48.2719 40.9091C46.6164 40.9091 46.2896 39.5604 46.2896 37.9179C46.2896 36.7758 46.5401 35.3509 46.5401 34.0674C46.5401 33.6432 46.453 33.2081 46.453 32.7839C46.2896 31.8593 46.2025 31 46.2025 30.3691C46.2025 28.5853 46.5292 27.8782 47.0303 27.8782C46.9431 27.8782 47.2808 27.7368 47.7709 27.7368C49.1759 27.7368 52.3345 28.6614 52.3345 35.8512V37.4937C52.3345 39.06 50.8423 40.9091 48.2719 40.9091ZM46.9431 46.5979C47.4441 46.4565 47.9343 46.3912 48.3481 46.2498L49.5027 45.967C56.8872 44.3246 58.9566 43.9004 58.9566 39.06C58.9566 36.8519 58.5428 31.2937 58.5428 27.2365C58.5428 26.66 58.216 26.0291 57.715 25.5288C55.9723 23.5382 54.894 22.8204 51.2453 22.2547C47.6729 21.7544 47.9234 21.9067 43.6974 21.8305C42.8696 21.8305 38.9704 22.0372 38.5565 22.5484C38.5565 23.0488 38.6437 24.3975 38.6437 25.6811C38.6437 28.3895 38.3932 28.8789 38.3932 30.0972L38.5565 41.2028C38.306 41.9207 38.2298 42.6277 38.2298 43.1933C38.2298 43.2586 38.3169 43.9765 38.3932 44.0526L38.807 68.3305C38.9704 68.4719 39.3081 68.4719 39.3081 68.4719C40.5497 68.4719 46.355 67.8302 46.4312 67.6126C46.5183 66.6119 46.5183 65.4046 46.5183 64.1211C46.5183 60.2053 46.2678 55.3649 46.2678 51.5905V49.3825C46.4312 48.6646 46.2678 46.5979 46.9322 46.5979M24.3865 38.8968L24.5498 37.8961C25.2142 41.094 25.7044 44.1614 26.2054 47.9358H22.8834C23.3844 44.9446 23.7112 42.0186 24.3756 38.8968M26.946 52.4281C27.3599 54.1358 27.6104 55.9197 28.1005 57.9863C28.4273 60.3358 28.9283 65.3175 29.4293 67.7432L29.5164 68.2435C29.6036 68.3849 29.6798 68.3849 29.8432 68.3849H30.3442C33.4157 68.1021 35.0712 67.8084 36.0623 67.8084L36.3891 67.667L35.1474 61.6846C34.8969 60.3358 34.6464 58.8347 34.6464 57.5512C34.3959 56.2677 33.8187 54.2772 33.8187 54.4186C33.2414 51.4926 33.2414 48.6428 32.7404 45.793C32.577 45.0098 32.076 44.1505 32.076 43.3782C32.076 43.313 32.076 43.2368 32.1631 43.1716L29.1788 27.2909C29.0917 26.1488 28.8521 25.2242 28.6778 24.5063C28.6778 24.4411 28.5144 24.2997 28.5144 24.2235C28.1005 22.0916 28.1005 21.5151 27.3599 21.5151C27.1094 21.5151 26.6193 21.5912 26.1182 21.7218C25.04 22.0046 24.136 22.146 21.4784 22.146L20.2367 26.1379C20.2367 26.214 20.1496 26.3446 20.1496 26.4207C19.9862 27.1386 19.6486 28.0632 19.4852 29.1944L19.3218 30.9782L16.5009 45.0751C16.6643 45.0751 16.7514 45.1512 16.7514 45.2165C16.7514 45.2165 16.7514 45.2926 16.6643 45.4232C16.5009 46.1411 16.2504 46.8481 16.1632 47.6312C15.4989 50.5572 15.4989 53.407 14.9216 56.2568C14.9216 56.1154 14.3443 58.1821 14.0938 59.3895C14.0938 60.7382 13.9305 62.2393 13.6799 63.5881C13.4294 65.013 13.1027 66.3726 12.765 67.58L13.0918 67.7214C14.0829 67.7214 15.7494 68.0042 18.8099 68.2979H19.3109C19.4743 68.2979 19.5615 68.2979 19.6377 68.1565L21.4566 56.1916C21.7834 55.0495 21.7834 53.9182 21.9576 52.7761L25.6063 52.4281H26.9351H26.946Z" fill="white"/>
</g>
</g>
<defs>
<clipPath id="clip0_18_13187">
<rect width="257" height="124" fill="white"/>
</clipPath>
</defs>
</svg>
