<svg width="360" height="194" viewBox="0 0 360 194" fill="none" xmlns="http://www.w3.org/2000/svg">
<path d="M91.7654 3L22.4078 170.525L354.257 162.522L91.7654 3Z" stroke="black" stroke-width="3"/>
<path d="M0.917969 79.8043C0.917969 78.9644 0.976562 78.1376 1.09375 77.3238C1.21745 76.51 1.42578 75.7483 1.71875 75.0386C2.01172 74.329 2.41536 73.704 2.92969 73.1636C3.45052 72.6233 4.10482 72.2001 4.89258 71.8941C5.68034 71.5816 6.6276 71.4254 7.73438 71.4254C8.02083 71.4254 8.3431 71.4384 8.70117 71.4644C9.05924 71.4905 9.35547 71.5328 9.58984 71.5914V73.4957C9.33594 73.4241 9.05599 73.3687 8.75 73.3297C8.45052 73.2906 8.15104 73.2711 7.85156 73.2711C6.65365 73.2711 5.7194 73.4989 5.04883 73.9547C4.37826 74.4039 3.89974 75.0224 3.61328 75.8101C3.32682 76.5914 3.16081 77.4866 3.11523 78.4957H3.23242C3.42773 78.1701 3.67188 77.8804 3.96484 77.6265C4.25781 77.3726 4.61589 77.1708 5.03906 77.0211C5.46224 76.8648 5.95378 76.7867 6.51367 76.7867C7.34701 76.7867 8.07292 76.9625 8.69141 77.314C9.3099 77.6591 9.78516 78.1604 10.1172 78.8179C10.4557 79.4755 10.625 80.273 10.625 81.2105C10.625 82.2196 10.4329 83.0888 10.0488 83.8179C9.67122 84.5471 9.13086 85.107 8.42773 85.4976C7.73112 85.8882 6.90104 86.0836 5.9375 86.0836C5.22786 86.0836 4.56706 85.9533 3.95508 85.6929C3.34961 85.4325 2.81901 85.0419 2.36328 84.5211C1.90755 84.0002 1.55273 83.3492 1.29883 82.5679C1.04492 81.7802 0.917969 80.8589 0.917969 79.8043ZM5.89844 84.189C6.64062 84.189 7.23633 83.9481 7.68555 83.4664C8.14128 82.9781 8.36914 82.2326 8.36914 81.23C8.36914 80.4162 8.16732 79.7717 7.76367 79.2964C7.36654 78.8212 6.76758 78.5836 5.9668 78.5836C5.41992 78.5836 4.94141 78.7007 4.53125 78.9351C4.12109 79.1695 3.80208 79.4657 3.57422 79.8238C3.35286 80.1819 3.24219 80.5464 3.24219 80.9175C3.24219 81.2951 3.29753 81.676 3.4082 82.0601C3.51888 82.4442 3.6849 82.7991 3.90625 83.1246C4.1276 83.4436 4.4043 83.7007 4.73633 83.8961C5.06836 84.0914 5.45573 84.189 5.89844 84.189ZM22.6367 86.0836C21.6146 86.0836 20.7292 85.885 19.9805 85.4879C19.2318 85.0907 18.6556 84.482 18.252 83.6617C17.8483 82.8414 17.6465 81.7997 17.6465 80.5367C17.6465 79.2216 17.8678 78.1474 18.3105 77.314C18.7533 76.4807 19.3652 75.8655 20.1465 75.4683C20.9342 75.0712 21.8359 74.8726 22.8516 74.8726C23.4961 74.8726 24.0788 74.9377 24.5996 75.0679C25.127 75.1916 25.5729 75.3446 25.9375 75.5269L25.2539 77.3629C24.8568 77.2001 24.4499 77.0634 24.0332 76.9527C23.6165 76.842 23.2161 76.7867 22.832 76.7867C22.2005 76.7867 21.6732 76.9267 21.25 77.2066C20.8333 77.4866 20.5208 77.9032 20.3125 78.4566C20.1107 79.01 20.0098 79.6968 20.0098 80.5172C20.0098 81.3114 20.1139 81.982 20.3223 82.5289C20.5306 83.0692 20.8398 83.4794 21.25 83.7593C21.6602 84.0328 22.1647 84.1695 22.7637 84.1695C23.3561 84.1695 23.8867 84.0979 24.3555 83.9547C24.8242 83.8114 25.2669 83.6259 25.6836 83.398V85.3902C25.2734 85.6246 24.834 85.7971 24.3652 85.9078C23.8965 86.025 23.3203 86.0836 22.6367 86.0836ZM40.4395 74.8726C41.6504 74.8726 42.5618 75.1851 43.1738 75.8101C43.7923 76.4351 44.1016 77.4377 44.1016 78.8179V85.8882H41.8066V79.2281C41.8066 78.4078 41.6471 77.7893 41.3281 77.3726C41.0091 76.956 40.5241 76.7476 39.873 76.7476C38.9616 76.7476 38.304 77.0406 37.9004 77.6265C37.5033 78.206 37.3047 79.0491 37.3047 80.1558V85.8882H35.0098V79.2281C35.0098 78.6812 34.9382 78.2255 34.7949 77.8609C34.6582 77.4898 34.4466 77.2131 34.1602 77.0308C33.8737 76.842 33.5124 76.7476 33.0762 76.7476C32.4447 76.7476 31.9401 76.8908 31.5625 77.1773C31.1914 77.4638 30.9245 77.8869 30.7617 78.4468C30.599 79.0002 30.5176 79.6806 30.5176 80.4879V85.8882H28.2227V75.0777H30.0098L30.332 76.5328H30.459C30.6803 76.1552 30.9538 75.8459 31.2793 75.605C31.6113 75.3576 31.9792 75.1754 32.3828 75.0582C32.7865 74.9345 33.2064 74.8726 33.6426 74.8726C34.4499 74.8726 35.1302 75.0158 35.6836 75.3023C36.237 75.5823 36.6504 76.0119 36.9238 76.5914H37.0996C37.4382 76.0054 37.9102 75.5725 38.5156 75.2925C39.1211 75.0126 39.7624 74.8726 40.4395 74.8726Z" fill="black"/>
<path d="M223.955 60.6223C223.955 61.4687 223.893 62.2987 223.769 63.1125C223.652 63.9264 223.444 64.6881 223.144 65.3977C222.851 66.1073 222.444 66.7356 221.923 67.2825C221.409 67.8228 220.758 68.246 219.97 68.552C219.183 68.858 218.232 69.011 217.119 69.011C216.839 69.011 216.513 68.9947 216.142 68.9622C215.778 68.9361 215.478 68.8971 215.244 68.845V66.9309C215.491 67.0025 215.768 67.0611 216.074 67.1067C216.386 67.1458 216.696 67.1653 217.002 67.1653C218.206 67.1653 219.143 66.9407 219.814 66.4915C220.491 66.0422 220.97 65.4237 221.25 64.636C221.536 63.8482 221.699 62.953 221.738 61.9504H221.621C221.432 62.2629 221.194 62.5494 220.908 62.8098C220.621 63.0637 220.267 63.2688 219.843 63.425C219.42 63.5748 218.906 63.6497 218.3 63.6497C217.48 63.6497 216.764 63.4771 216.152 63.1321C215.546 62.787 215.074 62.2857 214.736 61.6282C214.404 60.9641 214.238 60.1666 214.238 59.2356C214.238 58.2265 214.43 57.3573 214.814 56.6282C215.198 55.899 215.742 55.3391 216.445 54.9485C217.148 54.5514 217.975 54.3528 218.925 54.3528C219.642 54.3528 220.302 54.483 220.908 54.7434C221.52 54.9973 222.054 55.3879 222.509 55.9153C222.965 56.4361 223.32 57.0904 223.574 57.8782C223.828 58.6594 223.955 59.5741 223.955 60.6223ZM218.955 56.2473C218.232 56.2473 217.643 56.4915 217.187 56.9797C216.731 57.4615 216.504 58.2037 216.504 59.2063C216.504 60.0201 216.699 60.6646 217.089 61.1399C217.48 61.6152 218.079 61.8528 218.886 61.8528C219.446 61.8528 219.928 61.7389 220.332 61.511C220.742 61.2766 221.058 60.9804 221.279 60.6223C221.507 60.2642 221.621 59.8997 221.621 59.5286C221.621 59.1444 221.565 58.7603 221.455 58.3762C221.351 57.9921 221.188 57.6405 220.966 57.3215C220.745 57.0025 220.465 56.7454 220.127 56.55C219.795 56.3482 219.404 56.2473 218.955 56.2473ZM236.045 69.011C235.022 69.011 234.137 68.8124 233.388 68.4153C232.64 68.0181 232.063 67.4094 231.66 66.5891C231.256 65.7688 231.054 64.7271 231.054 63.4641C231.054 62.149 231.276 61.0748 231.718 60.2415C232.161 59.4081 232.773 58.7929 233.554 58.3958C234.342 57.9986 235.244 57.8 236.259 57.8C236.904 57.8 237.487 57.8652 238.007 57.9954C238.535 58.1191 238.981 58.2721 239.345 58.4543L238.662 60.2903C238.265 60.1275 237.858 59.9908 237.441 59.8801C237.024 59.7694 236.624 59.7141 236.24 59.7141C235.608 59.7141 235.081 59.8541 234.658 60.134C234.241 60.414 233.929 60.8306 233.72 61.384C233.518 61.9374 233.418 62.6243 233.418 63.4446C233.418 64.2389 233.522 64.9094 233.73 65.4563C233.938 65.9967 234.248 66.4068 234.658 66.6868C235.068 66.9602 235.573 67.0969 236.171 67.0969C236.764 67.0969 237.295 67.0253 237.763 66.8821C238.232 66.7389 238.675 66.5533 239.091 66.3254V68.3176C238.681 68.552 238.242 68.7245 237.773 68.8352C237.304 68.9524 236.728 69.011 236.045 69.011ZM253.847 57.8C255.058 57.8 255.97 58.1125 256.582 58.7375C257.2 59.3625 257.509 60.3652 257.509 61.7454V68.8157H255.214V62.1555C255.214 61.3352 255.055 60.7167 254.736 60.3C254.417 59.8834 253.932 59.675 253.281 59.675C252.369 59.675 251.712 59.968 251.308 60.554C250.911 61.1334 250.713 61.9765 250.713 63.0833V68.8157H248.418V62.1555C248.418 61.6086 248.346 61.1529 248.203 60.7883C248.066 60.4172 247.854 60.1405 247.568 59.9583C247.282 59.7694 246.92 59.675 246.484 59.675C245.852 59.675 245.348 59.8183 244.97 60.1047C244.599 60.3912 244.332 60.8144 244.17 61.3743C244.007 61.9277 243.925 62.608 243.925 63.4153V68.8157H241.63V58.0051H243.418L243.74 59.4602H243.867C244.088 59.0826 244.362 58.7734 244.687 58.5325C245.019 58.2851 245.387 58.1028 245.791 57.9856C246.194 57.8619 246.614 57.8 247.05 57.8C247.858 57.8 248.538 57.9433 249.091 58.2297C249.645 58.5097 250.058 58.9394 250.332 59.5188H250.507C250.846 58.9329 251.318 58.4999 251.923 58.22C252.529 57.94 253.17 57.8 253.847 57.8Z" fill="black"/>
<path d="M155.965 187.257H153.66V178.068C153.66 177.762 153.663 177.456 153.67 177.15C153.677 176.844 153.683 176.544 153.69 176.251C153.703 175.958 153.719 175.678 153.738 175.411C153.602 175.561 153.432 175.724 153.231 175.9C153.035 176.075 152.827 176.258 152.606 176.446L150.965 177.755L149.813 176.3L154.051 172.98H155.965V187.257ZM170.33 187.257H160.662V185.528L164.363 181.778C165.08 181.049 165.669 180.421 166.131 179.894C166.593 179.36 166.935 178.855 167.156 178.38C167.384 177.905 167.498 177.387 167.498 176.827C167.498 176.137 167.3 175.616 166.902 175.265C166.505 174.907 165.981 174.728 165.33 174.728C164.712 174.728 164.139 174.851 163.611 175.099C163.091 175.34 162.55 175.685 161.99 176.134L160.731 174.62C161.128 174.282 161.551 173.972 162 173.693C162.456 173.413 162.964 173.191 163.524 173.028C164.083 172.859 164.721 172.775 165.438 172.775C166.343 172.775 167.124 172.937 167.781 173.263C168.439 173.582 168.943 174.028 169.295 174.601C169.653 175.174 169.832 175.841 169.832 176.603C169.832 177.371 169.679 178.081 169.373 178.732C169.067 179.383 168.631 180.027 168.065 180.665C167.498 181.297 166.824 181.984 166.043 182.726L163.572 185.138V185.245H170.33V187.257ZM177.205 187.452C176.183 187.452 175.298 187.254 174.549 186.857C173.8 186.459 173.224 185.851 172.82 185.03C172.417 184.21 172.215 183.168 172.215 181.905C172.215 180.59 172.436 179.516 172.879 178.683C173.322 177.849 173.934 177.234 174.715 176.837C175.503 176.44 176.404 176.241 177.42 176.241C178.065 176.241 178.647 176.306 179.168 176.437C179.695 176.56 180.141 176.713 180.506 176.896L179.822 178.732C179.425 178.569 179.018 178.432 178.602 178.321C178.185 178.211 177.785 178.155 177.4 178.155C176.769 178.155 176.242 178.295 175.818 178.575C175.402 178.855 175.089 179.272 174.881 179.825C174.679 180.379 174.578 181.066 174.578 181.886C174.578 182.68 174.682 183.351 174.891 183.898C175.099 184.438 175.408 184.848 175.818 185.128C176.229 185.401 176.733 185.538 177.332 185.538C177.925 185.538 178.455 185.467 178.924 185.323C179.393 185.18 179.835 184.995 180.252 184.767V186.759C179.842 186.993 179.402 187.166 178.934 187.276C178.465 187.394 177.889 187.452 177.205 187.452ZM195.008 176.241C196.219 176.241 197.13 176.554 197.742 177.179C198.361 177.804 198.67 178.806 198.67 180.187V187.257H196.375V180.597C196.375 179.776 196.216 179.158 195.897 178.741C195.578 178.325 195.093 178.116 194.441 178.116C193.53 178.116 192.872 178.409 192.469 178.995C192.072 179.575 191.873 180.418 191.873 181.525V187.257H189.578V180.597C189.578 180.05 189.507 179.594 189.363 179.23C189.227 178.859 189.015 178.582 188.729 178.4C188.442 178.211 188.081 178.116 187.645 178.116C187.013 178.116 186.509 178.26 186.131 178.546C185.76 178.832 185.493 179.256 185.33 179.816C185.167 180.369 185.086 181.049 185.086 181.857V187.257H182.791V176.446H184.578L184.9 177.901H185.027C185.249 177.524 185.522 177.215 185.848 176.974C186.18 176.726 186.548 176.544 186.951 176.427C187.355 176.303 187.775 176.241 188.211 176.241C189.018 176.241 189.699 176.385 190.252 176.671C190.805 176.951 191.219 177.381 191.492 177.96H191.668C192.007 177.374 192.479 176.941 193.084 176.661C193.69 176.381 194.331 176.241 195.008 176.241Z" fill="black"/>
</svg>
