<svg width="514" height="154" viewBox="0 0 514 154" fill="none" xmlns="http://www.w3.org/2000/svg">
<path d="M90.4453 11.5859C89.8151 11.5859 89.2474 11.6953 88.7422 11.9141C88.2422 12.1276 87.8151 12.4401 87.4609 12.8516C87.112 13.2578 86.8438 13.75 86.6562 14.3281C86.4688 14.9062 86.375 15.5573 86.375 16.2812C86.375 17.2396 86.5234 18.0729 86.8203 18.7812C87.1224 19.4844 87.5703 20.0286 88.1641 20.4141C88.763 20.7995 89.5104 20.9922 90.4062 20.9922C90.9167 20.9922 91.3958 20.9505 91.8438 20.8672C92.2969 20.7786 92.737 20.6693 93.1641 20.5391V21.6953C92.7474 21.8516 92.3099 21.9661 91.8516 22.0391C91.3932 22.1172 90.849 22.1562 90.2188 22.1562C89.0573 22.1562 88.0859 21.9167 87.3047 21.4375C86.5286 20.9531 85.9453 20.2708 85.5547 19.3906C85.1693 18.5104 84.9766 17.4714 84.9766 16.2734C84.9766 15.4089 85.0964 14.6198 85.3359 13.9062C85.5807 13.1875 85.9349 12.5677 86.3984 12.0469C86.8672 11.526 87.4401 11.125 88.1172 10.8438C88.7995 10.5573 89.5807 10.4141 90.4609 10.4141C91.0391 10.4141 91.5964 10.4714 92.1328 10.5859C92.6693 10.7005 93.1536 10.8646 93.5859 11.0781L93.0547 12.2031C92.6901 12.0365 92.2891 11.8932 91.8516 11.7734C91.4193 11.6484 90.9505 11.5859 90.4453 11.5859Z" fill="white"/>
<path d="M191.445 6.58594C190.815 6.58594 190.247 6.69531 189.742 6.91406C189.242 7.1276 188.815 7.4401 188.461 7.85156C188.112 8.25781 187.844 8.75 187.656 9.32812C187.469 9.90625 187.375 10.5573 187.375 11.2812C187.375 12.2396 187.523 13.0729 187.82 13.7812C188.122 14.4844 188.57 15.0286 189.164 15.4141C189.763 15.7995 190.51 15.9922 191.406 15.9922C191.917 15.9922 192.396 15.9505 192.844 15.8672C193.297 15.7786 193.737 15.6693 194.164 15.5391V16.6953C193.747 16.8516 193.31 16.9661 192.852 17.0391C192.393 17.1172 191.849 17.1562 191.219 17.1562C190.057 17.1562 189.086 16.9167 188.305 16.4375C187.529 15.9531 186.945 15.2708 186.555 14.3906C186.169 13.5104 185.977 12.4714 185.977 11.2734C185.977 10.4089 186.096 9.61979 186.336 8.90625C186.581 8.1875 186.935 7.56771 187.398 7.04688C187.867 6.52604 188.44 6.125 189.117 5.84375C189.799 5.55729 190.581 5.41406 191.461 5.41406C192.039 5.41406 192.596 5.47135 193.133 5.58594C193.669 5.70052 194.154 5.86458 194.586 6.07812L194.055 7.20312C193.69 7.03646 193.289 6.89323 192.852 6.77344C192.419 6.64844 191.951 6.58594 191.445 6.58594Z" fill="white"/>
<path d="M332.445 6.58594C331.815 6.58594 331.247 6.69531 330.742 6.91406C330.242 7.1276 329.815 7.4401 329.461 7.85156C329.112 8.25781 328.844 8.75 328.656 9.32812C328.469 9.90625 328.375 10.5573 328.375 11.2812C328.375 12.2396 328.523 13.0729 328.82 13.7812C329.122 14.4844 329.57 15.0286 330.164 15.4141C330.763 15.7995 331.51 15.9922 332.406 15.9922C332.917 15.9922 333.396 15.9505 333.844 15.8672C334.297 15.7786 334.737 15.6693 335.164 15.5391V16.6953C334.747 16.8516 334.31 16.9661 333.852 17.0391C333.393 17.1172 332.849 17.1562 332.219 17.1562C331.057 17.1562 330.086 16.9167 329.305 16.4375C328.529 15.9531 327.945 15.2708 327.555 14.3906C327.169 13.5104 326.977 12.4714 326.977 11.2734C326.977 10.4089 327.096 9.61979 327.336 8.90625C327.581 8.1875 327.935 7.56771 328.398 7.04688C328.867 6.52604 329.44 6.125 330.117 5.84375C330.799 5.55729 331.581 5.41406 332.461 5.41406C333.039 5.41406 333.596 5.47135 334.133 5.58594C334.669 5.70052 335.154 5.86458 335.586 6.07812L335.055 7.20312C334.69 7.03646 334.289 6.89323 333.852 6.77344C333.419 6.64844 332.951 6.58594 332.445 6.58594Z" fill="white"/>
<path d="M8.72656 140L7.32031 136.375H2.74219L1.34375 140H0L4.46875 128.531H5.66406L10.1016 140H8.72656ZM6.92188 135.195L5.58594 131.594C5.55469 131.5 5.5026 131.346 5.42969 131.133C5.36198 130.919 5.29167 130.698 5.21875 130.469C5.14583 130.24 5.08594 130.055 5.03906 129.914C4.98698 130.128 4.92969 130.341 4.86719 130.555C4.8099 130.763 4.7526 130.958 4.69531 131.141C4.63802 131.318 4.58854 131.469 4.54688 131.594L3.1875 135.195H6.92188Z" fill="white"/>
<path d="M184.727 143L183.32 139.375H178.742L177.344 143H176L180.469 131.531H181.664L186.102 143H184.727ZM182.922 138.195L181.586 134.594C181.555 134.5 181.503 134.346 181.43 134.133C181.362 133.919 181.292 133.698 181.219 133.469C181.146 133.24 181.086 133.055 181.039 132.914C180.987 133.128 180.93 133.341 180.867 133.555C180.81 133.763 180.753 133.958 180.695 134.141C180.638 134.318 180.589 134.469 180.547 134.594L179.188 138.195H182.922Z" fill="white"/>
<path d="M358.727 143L357.32 139.375H352.742L351.344 143H350L354.469 131.531H355.664L360.102 143H358.727ZM356.922 138.195L355.586 134.594C355.555 134.5 355.503 134.346 355.43 134.133C355.362 133.919 355.292 133.698 355.219 133.469C355.146 133.24 355.086 133.055 355.039 132.914C354.987 133.128 354.93 133.341 354.867 133.555C354.81 133.763 354.753 133.958 354.695 134.141C354.638 134.318 354.589 134.469 354.547 134.594L353.188 138.195H356.922Z" fill="white"/>
<path d="M149.562 128.578H152.797C154.224 128.578 155.297 128.792 156.016 129.219C156.734 129.646 157.094 130.372 157.094 131.398C157.094 131.841 157.008 132.24 156.836 132.594C156.669 132.943 156.424 133.232 156.102 133.461C155.779 133.69 155.38 133.849 154.906 133.938V134.016C155.406 134.094 155.849 134.237 156.234 134.445C156.62 134.654 156.922 134.945 157.141 135.32C157.359 135.695 157.469 136.172 157.469 136.75C157.469 137.453 157.305 138.047 156.977 138.531C156.654 139.016 156.195 139.383 155.602 139.633C155.008 139.878 154.305 140 153.492 140H149.562V128.578ZM150.891 133.477H153.078C154.073 133.477 154.76 133.312 155.141 132.984C155.526 132.656 155.719 132.177 155.719 131.547C155.719 130.896 155.49 130.427 155.031 130.141C154.578 129.854 153.854 129.711 152.859 129.711H150.891V133.477ZM150.891 134.594V138.867H153.266C154.281 138.867 155 138.669 155.422 138.273C155.844 137.872 156.055 137.333 156.055 136.656C156.055 136.224 155.958 135.854 155.766 135.547C155.578 135.24 155.271 135.005 154.844 134.844C154.422 134.677 153.857 134.594 153.148 134.594H150.891Z" fill="white"/>
<path d="M323.562 131.578H326.797C328.224 131.578 329.297 131.792 330.016 132.219C330.734 132.646 331.094 133.372 331.094 134.398C331.094 134.841 331.008 135.24 330.836 135.594C330.669 135.943 330.424 136.232 330.102 136.461C329.779 136.69 329.38 136.849 328.906 136.938V137.016C329.406 137.094 329.849 137.237 330.234 137.445C330.62 137.654 330.922 137.945 331.141 138.32C331.359 138.695 331.469 139.172 331.469 139.75C331.469 140.453 331.305 141.047 330.977 141.531C330.654 142.016 330.195 142.383 329.602 142.633C329.008 142.878 328.305 143 327.492 143H323.562V131.578ZM324.891 136.477H327.078C328.073 136.477 328.76 136.312 329.141 135.984C329.526 135.656 329.719 135.177 329.719 134.547C329.719 133.896 329.49 133.427 329.031 133.141C328.578 132.854 327.854 132.711 326.859 132.711H324.891V136.477ZM324.891 137.594V141.867H327.266C328.281 141.867 329 141.669 329.422 141.273C329.844 140.872 330.055 140.333 330.055 139.656C330.055 139.224 329.958 138.854 329.766 138.547C329.578 138.24 329.271 138.005 328.844 137.844C328.422 137.677 327.857 137.594 327.148 137.594H324.891Z" fill="white"/>
<path d="M497.562 131.578H500.797C502.224 131.578 503.297 131.792 504.016 132.219C504.734 132.646 505.094 133.372 505.094 134.398C505.094 134.841 505.008 135.24 504.836 135.594C504.669 135.943 504.424 136.232 504.102 136.461C503.779 136.69 503.38 136.849 502.906 136.938V137.016C503.406 137.094 503.849 137.237 504.234 137.445C504.62 137.654 504.922 137.945 505.141 138.32C505.359 138.695 505.469 139.172 505.469 139.75C505.469 140.453 505.305 141.047 504.977 141.531C504.654 142.016 504.195 142.383 503.602 142.633C503.008 142.878 502.305 143 501.492 143H497.562V131.578ZM498.891 136.477H501.078C502.073 136.477 502.76 136.312 503.141 135.984C503.526 135.656 503.719 135.177 503.719 134.547C503.719 133.896 503.49 133.427 503.031 133.141C502.578 132.854 501.854 132.711 500.859 132.711H498.891V136.477ZM498.891 137.594V141.867H501.266C502.281 141.867 503 141.669 503.422 141.273C503.844 140.872 504.055 140.333 504.055 139.656C504.055 139.224 503.958 138.854 503.766 138.547C503.578 138.24 503.271 138.005 502.844 137.844C502.422 137.677 501.857 137.594 501.148 137.594H498.891Z" fill="white"/>
<path d="M37.4976 75.6035V78.4526C37.4976 78.7798 37.4878 79.0972 37.4683 79.4048C37.4536 79.7124 37.4414 79.9517 37.4316 80.1226H37.4976C37.7173 79.7612 38.0347 79.4561 38.4497 79.207C38.8647 78.958 39.3945 78.8335 40.0391 78.8335C41.0449 78.8335 41.8457 79.1826 42.4414 79.8809C43.042 80.5742 43.3423 81.6069 43.3423 82.979C43.3423 83.8823 43.2056 84.644 42.9321 85.2642C42.6587 85.8843 42.2729 86.353 41.7749 86.6704C41.2769 86.9878 40.6885 87.1465 40.0098 87.1465C39.375 87.1465 38.8525 87.0293 38.4424 86.7949C38.0371 86.5557 37.7246 86.2651 37.5049 85.9233H37.4097L37.1606 87H36.2817V75.6035H37.4976ZM39.8413 79.8516C39.2603 79.8516 38.7988 79.9663 38.457 80.1958C38.1152 80.4204 37.8687 80.7622 37.7173 81.2212C37.5708 81.6753 37.4976 82.2515 37.4976 82.9497V83.0156C37.4976 84.0264 37.666 84.8003 38.0029 85.3374C38.3398 85.8696 38.9526 86.1357 39.8413 86.1357C40.5884 86.1357 41.1475 85.8623 41.5186 85.3154C41.8945 84.7686 42.0825 83.9873 42.0825 82.9717C42.0825 81.9365 41.897 81.1577 41.5259 80.6353C41.1597 80.1128 40.5981 79.8516 39.8413 79.8516Z" fill="white"/>
<path d="M178.498 75.6035V78.4526C178.498 78.7798 178.488 79.0972 178.468 79.4048C178.454 79.7124 178.441 79.9517 178.432 80.1226H178.498C178.717 79.7612 179.035 79.4561 179.45 79.207C179.865 78.958 180.395 78.8335 181.039 78.8335C182.045 78.8335 182.846 79.1826 183.441 79.8809C184.042 80.5742 184.342 81.6069 184.342 82.979C184.342 83.8823 184.206 84.644 183.932 85.2642C183.659 85.8843 183.273 86.353 182.775 86.6704C182.277 86.9878 181.688 87.1465 181.01 87.1465C180.375 87.1465 179.853 87.0293 179.442 86.7949C179.037 86.5557 178.725 86.2651 178.505 85.9233H178.41L178.161 87H177.282V75.6035H178.498ZM180.841 79.8516C180.26 79.8516 179.799 79.9663 179.457 80.1958C179.115 80.4204 178.869 80.7622 178.717 81.2212C178.571 81.6753 178.498 82.2515 178.498 82.9497V83.0156C178.498 84.0264 178.666 84.8003 179.003 85.3374C179.34 85.8696 179.953 86.1357 180.841 86.1357C181.588 86.1357 182.147 85.8623 182.519 85.3154C182.895 84.7686 183.083 83.9873 183.083 82.9717C183.083 81.9365 182.897 81.1577 182.526 80.6353C182.16 80.1128 181.598 79.8516 180.841 79.8516Z" fill="white"/>
<path d="M337.498 79.6035V82.4526C337.498 82.7798 337.488 83.0972 337.468 83.4048C337.454 83.7124 337.441 83.9517 337.432 84.1226H337.498C337.717 83.7612 338.035 83.4561 338.45 83.207C338.865 82.958 339.395 82.8335 340.039 82.8335C341.045 82.8335 341.846 83.1826 342.441 83.8809C343.042 84.5742 343.342 85.6069 343.342 86.979C343.342 87.8823 343.206 88.644 342.932 89.2642C342.659 89.8843 342.273 90.353 341.775 90.6704C341.277 90.9878 340.688 91.1465 340.01 91.1465C339.375 91.1465 338.853 91.0293 338.442 90.7949C338.037 90.5557 337.725 90.2651 337.505 89.9233H337.41L337.161 91H336.282V79.6035H337.498ZM339.841 83.8516C339.26 83.8516 338.799 83.9663 338.457 84.1958C338.115 84.4204 337.869 84.7622 337.717 85.2212C337.571 85.6753 337.498 86.2515 337.498 86.9497V87.0156C337.498 88.0264 337.666 88.8003 338.003 89.3374C338.34 89.8696 338.953 90.1357 339.841 90.1357C340.588 90.1357 341.147 89.8623 341.519 89.3154C341.895 88.7686 342.083 87.9873 342.083 86.9717C342.083 85.9365 341.897 85.1577 341.526 84.6353C341.16 84.1128 340.598 83.8516 339.841 83.8516Z" fill="white"/>
<path d="M79.4971 150.146C78.7744 150.146 78.1372 149.998 77.5854 149.7C77.0337 149.402 76.604 148.948 76.2964 148.337C75.9888 147.727 75.835 146.958 75.835 146.03C75.835 145.059 75.9961 144.265 76.3184 143.65C76.6455 143.03 77.0947 142.571 77.666 142.273C78.2373 141.975 78.8867 141.826 79.6143 141.826C80.0146 141.826 80.4004 141.868 80.7715 141.951C81.1475 142.029 81.4551 142.129 81.6943 142.251L81.3281 143.269C81.084 143.171 80.8008 143.083 80.4785 143.005C80.1611 142.927 79.8633 142.888 79.585 142.888C79.0283 142.888 78.5645 143.008 78.1934 143.247C77.8271 143.486 77.5513 143.838 77.3657 144.302C77.1851 144.766 77.0947 145.337 77.0947 146.016C77.0947 146.665 77.1826 147.219 77.3584 147.678C77.5391 148.137 77.8052 148.489 78.1567 148.733C78.5132 148.972 78.9575 149.092 79.4897 149.092C79.9146 149.092 80.2979 149.048 80.6396 148.96C80.9814 148.867 81.2915 148.76 81.5698 148.638V149.722C81.3013 149.858 81.001 149.963 80.6689 150.037C80.3418 150.11 79.9512 150.146 79.4971 150.146Z" fill="white"/>
<path d="M248.497 150.146C247.774 150.146 247.137 149.998 246.585 149.7C246.034 149.402 245.604 148.948 245.296 148.337C244.989 147.727 244.835 146.958 244.835 146.03C244.835 145.059 244.996 144.265 245.318 143.65C245.646 143.03 246.095 142.571 246.666 142.273C247.237 141.975 247.887 141.826 248.614 141.826C249.015 141.826 249.4 141.868 249.771 141.951C250.147 142.029 250.455 142.129 250.694 142.251L250.328 143.269C250.084 143.171 249.801 143.083 249.479 143.005C249.161 142.927 248.863 142.888 248.585 142.888C248.028 142.888 247.564 143.008 247.193 143.247C246.827 143.486 246.551 143.838 246.366 144.302C246.185 144.766 246.095 145.337 246.095 146.016C246.095 146.665 246.183 147.219 246.358 147.678C246.539 148.137 246.805 148.489 247.157 148.733C247.513 148.972 247.958 149.092 248.49 149.092C248.915 149.092 249.298 149.048 249.64 148.96C249.981 148.867 250.292 148.76 250.57 148.638V149.722C250.301 149.858 250.001 149.963 249.669 150.037C249.342 150.11 248.951 150.146 248.497 150.146Z" fill="white"/>
<path d="M421.497 150.146C420.774 150.146 420.137 149.998 419.585 149.7C419.034 149.402 418.604 148.948 418.296 148.337C417.989 147.727 417.835 146.958 417.835 146.03C417.835 145.059 417.996 144.265 418.318 143.65C418.646 143.03 419.095 142.571 419.666 142.273C420.237 141.975 420.887 141.826 421.614 141.826C422.015 141.826 422.4 141.868 422.771 141.951C423.147 142.029 423.455 142.129 423.694 142.251L423.328 143.269C423.084 143.171 422.801 143.083 422.479 143.005C422.161 142.927 421.863 142.888 421.585 142.888C421.028 142.888 420.564 143.008 420.193 143.247C419.827 143.486 419.551 143.838 419.366 144.302C419.185 144.766 419.095 145.337 419.095 146.016C419.095 146.665 419.183 147.219 419.358 147.678C419.539 148.137 419.805 148.489 420.157 148.733C420.513 148.972 420.958 149.092 421.49 149.092C421.915 149.092 422.298 149.048 422.64 148.96C422.981 148.867 423.292 148.76 423.57 148.638V149.722C423.301 149.858 423.001 149.963 422.669 150.037C422.342 150.11 421.951 150.146 421.497 150.146Z" fill="white"/>
<path d="M124.285 78.8408C125.242 78.8408 125.952 79.0557 126.416 79.4854C126.88 79.915 127.112 80.6011 127.112 81.5435V87H126.226L125.991 85.8135H125.933C125.708 86.1064 125.474 86.353 125.229 86.5532C124.985 86.7485 124.702 86.8975 124.38 87C124.062 87.0977 123.672 87.1465 123.208 87.1465C122.72 87.1465 122.285 87.061 121.904 86.8901C121.528 86.7192 121.23 86.4604 121.011 86.1138C120.796 85.7671 120.688 85.3276 120.688 84.7954C120.688 83.9946 121.006 83.3794 121.641 82.9497C122.275 82.52 123.242 82.2856 124.541 82.2466L125.925 82.188V81.6973C125.925 81.0039 125.776 80.5181 125.479 80.2397C125.181 79.9614 124.761 79.8223 124.219 79.8223C123.799 79.8223 123.398 79.8833 123.018 80.0054C122.637 80.1274 122.275 80.2715 121.934 80.4375L121.56 79.5146C121.921 79.3291 122.336 79.1704 122.805 79.0386C123.274 78.9067 123.767 78.8408 124.285 78.8408ZM125.911 83.0449L124.688 83.0962C123.687 83.1353 122.981 83.2988 122.571 83.5869C122.161 83.875 121.956 84.2827 121.956 84.8101C121.956 85.269 122.095 85.6084 122.373 85.8281C122.651 86.0479 123.02 86.1577 123.479 86.1577C124.192 86.1577 124.775 85.96 125.229 85.5645C125.684 85.1689 125.911 84.5757 125.911 83.7847V83.0449Z" fill="white"/>
<path d="M257.285 68.8408C258.242 68.8408 258.952 69.0557 259.416 69.4854C259.88 69.915 260.112 70.6011 260.112 71.5435V77H259.226L258.991 75.8135H258.933C258.708 76.1064 258.474 76.353 258.229 76.5532C257.985 76.7485 257.702 76.8975 257.38 77C257.062 77.0977 256.672 77.1465 256.208 77.1465C255.72 77.1465 255.285 77.061 254.904 76.8901C254.528 76.7192 254.23 76.4604 254.011 76.1138C253.796 75.7671 253.688 75.3276 253.688 74.7954C253.688 73.9946 254.006 73.3794 254.641 72.9497C255.275 72.52 256.242 72.2856 257.541 72.2466L258.925 72.188V71.6973C258.925 71.0039 258.776 70.5181 258.479 70.2397C258.181 69.9614 257.761 69.8223 257.219 69.8223C256.799 69.8223 256.398 69.8833 256.018 70.0054C255.637 70.1274 255.275 70.2715 254.934 70.4375L254.56 69.5146C254.921 69.3291 255.336 69.1704 255.805 69.0386C256.274 68.9067 256.767 68.8408 257.285 68.8408ZM258.911 73.0449L257.688 73.0962C256.687 73.1353 255.981 73.2988 255.571 73.5869C255.161 73.875 254.956 74.2827 254.956 74.8101C254.956 75.269 255.095 75.6084 255.373 75.8281C255.651 76.0479 256.02 76.1577 256.479 76.1577C257.192 76.1577 257.775 75.96 258.229 75.5645C258.684 75.1689 258.911 74.5757 258.911 73.7847V73.0449Z" fill="white"/>
<path d="M421.285 69.8408C422.242 69.8408 422.952 70.0557 423.416 70.4854C423.88 70.915 424.112 71.6011 424.112 72.5435V78H423.226L422.991 76.8135H422.933C422.708 77.1064 422.474 77.353 422.229 77.5532C421.985 77.7485 421.702 77.8975 421.38 78C421.062 78.0977 420.672 78.1465 420.208 78.1465C419.72 78.1465 419.285 78.061 418.904 77.8901C418.528 77.7192 418.23 77.4604 418.011 77.1138C417.796 76.7671 417.688 76.3276 417.688 75.7954C417.688 74.9946 418.006 74.3794 418.641 73.9497C419.275 73.52 420.242 73.2856 421.541 73.2466L422.925 73.188V72.6973C422.925 72.0039 422.776 71.5181 422.479 71.2397C422.181 70.9614 421.761 70.8223 421.219 70.8223C420.799 70.8223 420.398 70.8833 420.018 71.0054C419.637 71.1274 419.275 71.2715 418.934 71.4375L418.56 70.5146C418.921 70.3291 419.336 70.1704 419.805 70.0386C420.274 69.9067 420.767 69.8408 421.285 69.8408ZM422.911 74.0449L421.688 74.0962C420.687 74.1353 419.981 74.2988 419.571 74.5869C419.161 74.875 418.956 75.2827 418.956 75.8101C418.956 76.269 419.095 76.6084 419.373 76.8281C419.651 77.0479 420.02 77.1577 420.479 77.1577C421.192 77.1577 421.775 76.96 422.229 76.5645C422.684 76.1689 422.911 75.5757 422.911 74.7847V74.0449Z" fill="white"/>
<path d="M139.5 136.5L88.5 31.5L18 136.5H139.5Z" stroke="white"/>
<path d="M313.5 136.5L191.5 28V136.5H313.5Z" stroke="white"/>
<path d="M488.5 136.5L335 28L366 136.5H488.5Z" stroke="white"/>
</svg>
