<svg width="152" height="182" viewBox="0 0 152 182" fill="none" xmlns="http://www.w3.org/2000/svg">
<g clip-path="url(#clip0_18_18469)">
<path fill-rule="evenodd" clip-rule="evenodd" d="M8.0679 57.7841C-2.66473 64.6655 -2.55619e-06 91.1646 11.8069 107.971C21.5969 121.918 40.982 133.896 50.2559 128.262C61.8048 121.239 59.4771 85.8047 40.1078 67.9298C31.7924 60.2534 16.5624 52.34 8.06264 57.7841H8.0679Z" stroke="black" stroke-miterlimit="10"/>
<path d="M50.4771 128.12C82.8066 108.192 115.141 88.2634 147.471 68.3352C148.235 66.4871 157.082 44.0527 143.2 22.9504C129.476 2.09018 105.773 1.11088 103.677 1.05823C72.1477 19.7755 40.6239 38.4928 9.09482 57.2048" stroke="black" stroke-miterlimit="10"/>
</g>
<path d="M38.8555 176.195C37.7031 176.195 36.7396 175.967 35.9648 175.512C35.1901 175.049 34.6042 174.402 34.207 173.568C33.8164 172.729 33.6211 171.739 33.6211 170.6C33.6211 169.76 33.7155 168.91 33.9043 168.051C34.0996 167.191 34.3926 166.371 34.7832 165.59C35.1738 164.802 35.6719 164.102 36.2773 163.49C36.8828 162.878 37.599 162.393 38.4258 162.035C39.2526 161.677 40.1966 161.498 41.2578 161.498C42.1628 161.498 42.931 161.583 43.5625 161.752C44.194 161.921 44.8255 162.178 45.457 162.523L44.3047 164.965C43.8424 164.698 43.3672 164.473 42.8789 164.291C42.3971 164.109 41.8568 164.018 41.2578 164.018C40.6133 164.018 40.0404 164.148 39.5391 164.408C39.0378 164.669 38.6048 165.023 38.2402 165.473C37.8822 165.915 37.5859 166.417 37.3516 166.977C37.1172 167.53 36.9414 168.106 36.8242 168.705C36.7135 169.304 36.6582 169.883 36.6582 170.443C36.6582 171.524 36.8828 172.331 37.332 172.865C37.7812 173.393 38.4909 173.656 39.4609 173.656C40.0013 173.656 40.5482 173.588 41.1016 173.451C41.6549 173.308 42.2083 173.126 42.7617 172.904V175.443C42.3646 175.6 41.8307 175.766 41.1602 175.941C40.4961 176.111 39.7279 176.195 38.8555 176.195ZM45.0273 176L47.3418 165.082H50.2812L47.9668 176H45.0273ZM49.2852 163.725C48.8685 163.725 48.5169 163.633 48.2305 163.451C47.9505 163.269 47.8105 162.96 47.8105 162.523C47.8105 162.146 47.8789 161.83 48.0156 161.576C48.1589 161.322 48.3639 161.13 48.6309 161C48.8978 160.87 49.2168 160.805 49.5879 160.805C49.9785 160.805 50.3171 160.889 50.6035 161.059C50.8965 161.228 51.043 161.534 51.043 161.977C51.043 162.497 50.8997 162.921 50.6133 163.246C50.3268 163.565 49.8841 163.725 49.2852 163.725ZM50.9648 176L54.1875 160.805H57.127L53.9043 176H50.9648ZM56.9023 176L59.2168 165.082H62.1562L59.8418 176H56.9023ZM59.3145 163.881V163.637C59.5358 163.389 59.7734 163.096 60.0273 162.758C60.2878 162.413 60.5417 162.058 60.7891 161.693C61.043 161.329 61.2741 160.99 61.4824 160.678H64.7539V160.844C64.6107 161.02 64.4023 161.244 64.1289 161.518C63.8555 161.785 63.5527 162.068 63.2207 162.367C62.8887 162.66 62.5566 162.94 62.2246 163.207C61.8991 163.474 61.6094 163.699 61.3555 163.881H59.3145ZM62.8398 176L65.1543 165.082H67.4004L67.1953 167.104H67.2832C67.5632 166.667 67.8724 166.283 68.2109 165.951C68.5495 165.619 68.9238 165.359 69.334 165.17C69.7507 164.975 70.2129 164.877 70.7207 164.877C71.3457 164.877 71.8665 165.007 72.2832 165.268C72.7064 165.521 73.0221 165.883 73.2305 166.352C73.4388 166.82 73.543 167.377 73.543 168.021C73.543 168.262 73.5234 168.533 73.4844 168.832C73.4453 169.132 73.39 169.447 73.3184 169.779L72.0195 176H69.0801L70.418 169.623C70.4701 169.402 70.5091 169.193 70.5352 168.998C70.5612 168.803 70.5742 168.624 70.5742 168.461C70.5742 168.051 70.4863 167.748 70.3105 167.553C70.1348 167.357 69.8711 167.26 69.5195 167.26C69.0768 167.26 68.6764 167.452 68.3184 167.836C67.9603 168.214 67.6478 168.721 67.3809 169.359C67.1204 169.997 66.9056 170.704 66.7363 171.479L65.7793 176H62.8398ZM78.5332 176.195C78.0059 176.195 77.5078 176.065 77.0391 175.805C76.5703 175.544 76.1862 175.124 75.8867 174.545C75.5938 173.959 75.4473 173.184 75.4473 172.221C75.4473 171.511 75.5221 170.805 75.6719 170.102C75.8281 169.398 76.0495 168.734 76.3359 168.109C76.6289 167.478 76.9805 166.921 77.3906 166.439C77.8073 165.951 78.276 165.57 78.7969 165.297C79.3242 165.017 79.8939 164.877 80.5059 164.877C80.9421 164.877 81.3099 164.949 81.6094 165.092C81.9154 165.235 82.179 165.427 82.4004 165.668C82.6217 165.909 82.8171 166.179 82.9863 166.479H83.0645C83.0645 166.439 83.0742 166.296 83.0938 166.049C83.1133 165.801 83.1426 165.518 83.1816 165.199C83.2207 164.874 83.2695 164.574 83.3281 164.301L84.0703 160.805H87.0098L83.7871 176H81.5508L81.7266 174.584H81.6484C81.388 174.903 81.1048 175.183 80.7988 175.424C80.4993 175.665 80.1641 175.854 79.793 175.99C79.4219 176.127 79.002 176.195 78.5332 176.195ZM79.7637 173.822C80.0697 173.822 80.3464 173.741 80.5938 173.578C80.8477 173.409 81.069 173.188 81.2578 172.914C81.4531 172.634 81.6191 172.322 81.7559 171.977C81.8991 171.632 82.0163 171.28 82.1074 170.922C82.1986 170.557 82.2637 170.206 82.3027 169.867C82.3483 169.529 82.3711 169.232 82.3711 168.979C82.3711 168.458 82.2474 168.041 82 167.729C81.7591 167.416 81.4271 167.26 81.0039 167.26C80.7174 167.26 80.444 167.354 80.1836 167.543C79.9297 167.725 79.6953 167.979 79.4805 168.305C79.2656 168.624 79.0768 168.992 78.9141 169.408C78.7578 169.818 78.6374 170.255 78.5527 170.717C78.4681 171.179 78.4258 171.641 78.4258 172.104C78.4258 172.67 78.5397 173.1 78.7676 173.393C79.002 173.679 79.334 173.822 79.7637 173.822ZM86.8242 176L89.1387 165.082H91.3848L91.1797 167.104H91.2871C91.5801 166.641 91.8991 166.244 92.2441 165.912C92.5892 165.58 92.9635 165.326 93.3672 165.15C93.7708 164.968 94.2103 164.877 94.6855 164.877C94.8418 164.877 95.0078 164.887 95.1836 164.906C95.3659 164.926 95.5124 164.952 95.623 164.984L94.9785 167.816C94.8743 167.777 94.7344 167.742 94.5586 167.709C94.3893 167.676 94.2038 167.66 94.002 167.66C93.6374 167.66 93.2891 167.735 92.957 167.885C92.625 168.028 92.319 168.243 92.0391 168.529C91.7591 168.816 91.5117 169.177 91.2969 169.613C91.0885 170.043 90.9225 170.544 90.7988 171.117L89.7637 176H86.8242ZM99.9395 176.195C99.1191 176.195 98.3932 176.026 97.7617 175.688C97.1367 175.349 96.6452 174.867 96.2871 174.242C95.9355 173.611 95.7598 172.862 95.7598 171.996C95.7598 171.221 95.8346 170.482 95.9844 169.779C96.1406 169.07 96.3717 168.419 96.6777 167.826C96.9902 167.227 97.3776 166.71 97.8398 166.273C98.3086 165.831 98.8522 165.489 99.4707 165.248C100.089 165.001 100.786 164.877 101.561 164.877C102.407 164.877 103.139 165.049 103.758 165.395C104.376 165.733 104.855 166.225 105.193 166.869C105.532 167.514 105.701 168.292 105.701 169.203C105.701 169.945 105.626 170.661 105.477 171.352C105.333 172.035 105.112 172.673 104.812 173.266C104.513 173.852 104.135 174.366 103.68 174.809C103.224 175.245 102.684 175.587 102.059 175.834C101.44 176.075 100.734 176.195 99.9395 176.195ZM100.184 173.803C100.509 173.803 100.805 173.721 101.072 173.559C101.339 173.389 101.577 173.158 101.785 172.865C101.993 172.566 102.166 172.224 102.303 171.84C102.446 171.449 102.553 171.029 102.625 170.58C102.703 170.131 102.742 169.672 102.742 169.203C102.742 168.832 102.697 168.503 102.605 168.217C102.521 167.924 102.374 167.696 102.166 167.533C101.964 167.364 101.691 167.279 101.346 167.279C100.988 167.279 100.665 167.38 100.379 167.582C100.099 167.777 99.8548 168.041 99.6465 168.373C99.4382 168.705 99.2656 169.076 99.1289 169.486C98.9922 169.896 98.888 170.32 98.8164 170.756C98.7513 171.186 98.7188 171.599 98.7188 171.996C98.7188 172.589 98.8392 173.038 99.0801 173.344C99.321 173.65 99.6888 173.803 100.184 173.803Z" fill="black"/>
<defs>
<clipPath id="clip0_18_18469">
<rect width="152" height="131" fill="white"/>
</clipPath>
</defs>
</svg>
