<svg width="113" height="174" viewBox="0 0 113 174" fill="none" xmlns="http://www.w3.org/2000/svg">
<g clip-path="url(#clip0_18_18465)">
<path d="M2.70785 106.556L1.08638 106.426C1.23231 104.752 1.86468 103.111 2.9835 101.536L4.29688 102.478C3.34022 103.81 2.80513 105.191 2.69163 106.556H2.70785Z" fill="#3B3B3B"/>
<path d="M11.9826 96.3858L11.2206 94.9562C13.3285 93.8352 15.7607 92.7955 18.4523 91.8532C19.2306 91.5771 20.0251 91.3171 20.8358 91.0572L21.3223 92.6005C20.5278 92.8442 19.7495 93.1042 18.9874 93.3803C16.3768 94.2901 14.0257 95.3136 11.9826 96.3858ZM100.985 96.3695C98.9419 95.2973 96.5908 94.2901 94.0126 93.3803C93.2343 93.1042 92.456 92.8442 91.6291 92.5843L92.1155 91.041C92.9425 91.3009 93.7532 91.5771 94.5477 91.8532C97.2069 92.7955 99.6229 93.8352 101.731 94.9399L100.969 96.3695H100.985ZM31.1646 90.1312L30.8565 88.5391C32.4293 88.2304 34.0508 87.9543 35.7047 87.7106C37.4397 87.4507 39.2395 87.2232 41.0393 87.0283L41.2177 88.6366C39.4341 88.8315 37.6505 89.059 35.9479 89.3189C34.3102 89.5626 32.7212 89.8388 31.1646 90.1474V90.1312ZM81.7868 90.1312C80.2464 89.8388 78.6736 89.5626 77.0521 89.3189C75.3171 89.059 73.5335 88.8315 71.7337 88.6366L71.912 87.0283C73.7281 87.2232 75.5441 87.4507 77.2953 87.7268C78.933 87.9705 80.5382 88.2467 82.1111 88.5554L81.803 90.1474L81.7868 90.1312ZM51.3843 87.9218L51.3356 86.2972C54.7245 86.1835 58.2431 86.1835 61.6319 86.2972L61.5833 87.9218C58.2269 87.8081 54.7569 87.8081 51.4005 87.9218H51.3843Z" fill="#3B3B3B"/>
<path d="M110.276 106.556C110.162 105.191 109.627 103.81 108.671 102.478L109.984 101.536C111.103 103.111 111.751 104.752 111.881 106.426L110.26 106.556H110.276Z" fill="#3B3B3B"/>
<path d="M56.5081 128C49.0169 128 41.769 127.464 34.9426 126.392C28.3594 125.352 22.4735 123.89 17.3983 122.005C12.3394 120.121 8.36677 117.944 5.57784 115.491C2.62678 112.892 1.1026 110.114 1.07017 107.222L0 18.5851C0 18.1303 0.356723 17.7729 0.794519 17.7566C1.2161 17.7404 1.60525 18.114 1.62147 18.5526C1.6539 20.6321 2.9835 22.6791 5.61027 24.661C8.30191 26.708 12.1934 28.5438 17.1551 30.1521C22.2141 31.7767 28.1324 33.0601 34.748 33.9536C41.623 34.8958 48.9521 35.367 56.5081 35.367C64.0641 35.367 71.3769 34.8958 78.252 33.9536C84.8513 33.0601 90.7697 31.7767 95.8287 30.1521C100.79 28.56 104.682 26.708 107.374 24.661C109.984 22.6791 111.33 20.6321 111.362 18.5526C111.362 18.0978 111.719 17.7241 112.189 17.7566C112.643 17.7566 113 18.1303 112.984 18.5851L111.914 107.206C111.881 110.097 110.357 112.875 107.406 115.475C104.617 117.911 100.628 120.105 95.5854 121.989C90.5265 123.874 84.6243 125.352 78.0574 126.375C71.231 127.448 63.9831 127.984 56.5081 127.984V128ZM1.67011 23.1014L2.67542 107.189C2.70785 109.594 4.03745 111.966 6.6318 114.24C9.27479 116.547 13.0852 118.643 17.9496 120.446C22.9113 122.282 28.7 123.744 35.1696 124.751C41.9149 125.807 49.0818 126.343 56.4919 126.343C63.902 126.343 71.0527 125.807 77.798 124.751C84.2676 123.744 90.0562 122.282 95.0179 120.446C99.8823 118.643 103.693 116.547 106.336 114.24C108.93 111.966 110.26 109.594 110.292 107.189L111.297 23.1014C110.552 24.0924 109.579 25.0347 108.346 25.9769C105.509 28.1376 101.455 30.0546 96.3151 31.7117C91.1588 33.3687 85.1594 34.6684 78.4628 35.5782C71.5067 36.5204 64.1128 37.0078 56.4919 37.0078C48.871 37.0078 41.4609 36.5367 34.5048 35.5782C27.8081 34.6684 21.7925 33.3687 16.6362 31.7117C11.4962 30.0546 7.44253 28.1376 4.60496 25.9769C3.38886 25.0509 2.39977 24.0924 1.6539 23.1014H1.67011Z" fill="#3B3B3B"/>
<path d="M56.508 36.9915C48.7087 36.9915 41.1689 36.4879 34.0831 35.5131C27.2567 34.5709 21.1762 33.2062 16.0038 31.4842C10.8313 29.7622 6.81004 27.7639 4.08597 25.522C1.11869 23.1339 -0.227127 20.5508 0.0323078 17.8703C0.291742 15.2547 2.09157 12.7691 5.36693 10.4785C8.38286 8.38279 12.55 6.53078 17.7549 4.9387C22.8788 3.37911 28.7971 2.16068 35.3316 1.3159C42.0607 0.438634 49.179 0 56.4918 0C63.8046 0 70.9228 0.438634 77.6519 1.3159C84.1864 2.16068 90.1048 3.37911 95.2286 4.9387C100.434 6.53078 104.601 8.38279 107.617 10.4785C110.892 12.7529 112.692 15.2385 112.951 17.854C113.211 20.5508 111.865 23.1177 108.914 25.522C106.174 27.7477 102.168 29.7622 96.996 31.4842C91.8235 33.2062 85.743 34.5546 78.9166 35.5131C71.8308 36.5041 64.291 36.9915 56.4918 36.9915H56.508ZM56.508 1.62457C49.26 1.62457 42.2066 2.06321 35.5586 2.92423C29.1052 3.76901 23.2841 4.95494 18.2414 6.49829C13.1824 8.02538 9.17738 9.82866 6.30738 11.8106C3.43739 13.8089 1.86456 15.8883 1.65377 18.0165C1.44298 20.1284 2.61044 22.2404 5.09128 24.2711C7.66941 26.383 11.5123 28.2838 16.5064 29.9409C21.5978 31.6304 27.581 32.9626 34.3101 33.8886C41.3311 34.8633 48.7898 35.3507 56.508 35.3507C64.2262 35.3507 71.6849 34.8633 78.7059 33.8886C85.4349 32.9463 91.4182 31.6304 96.4933 29.9409C101.487 28.2838 105.33 26.3668 107.908 24.2711C110.406 22.2404 111.557 20.1284 111.346 18.0165C111.135 15.8883 109.579 13.8089 106.692 11.8106C103.822 9.81241 99.8011 8.02538 94.7584 6.49829C89.7156 4.97119 83.8945 3.76901 77.4411 2.92423C70.7931 2.06321 63.7397 1.62457 56.4918 1.62457H56.508Z" fill="#3B3B3B"/>
</g>
<path d="M25.8555 168.195C24.7031 168.195 23.7396 167.967 22.9648 167.512C22.1901 167.049 21.6042 166.402 21.207 165.568C20.8164 164.729 20.6211 163.739 20.6211 162.6C20.6211 161.76 20.7155 160.91 20.9043 160.051C21.0996 159.191 21.3926 158.371 21.7832 157.59C22.1738 156.802 22.6719 156.102 23.2773 155.49C23.8828 154.878 24.599 154.393 25.4258 154.035C26.2526 153.677 27.1966 153.498 28.2578 153.498C29.1628 153.498 29.931 153.583 30.5625 153.752C31.194 153.921 31.8255 154.178 32.457 154.523L31.3047 156.965C30.8424 156.698 30.3672 156.473 29.8789 156.291C29.3971 156.109 28.8568 156.018 28.2578 156.018C27.6133 156.018 27.0404 156.148 26.5391 156.408C26.0378 156.669 25.6048 157.023 25.2402 157.473C24.8822 157.915 24.5859 158.417 24.3516 158.977C24.1172 159.53 23.9414 160.106 23.8242 160.705C23.7135 161.304 23.6582 161.883 23.6582 162.443C23.6582 163.524 23.8828 164.331 24.332 164.865C24.7812 165.393 25.4909 165.656 26.4609 165.656C27.0013 165.656 27.5482 165.588 28.1016 165.451C28.6549 165.308 29.2083 165.126 29.7617 164.904V167.443C29.3646 167.6 28.8307 167.766 28.1602 167.941C27.4961 168.111 26.7279 168.195 25.8555 168.195ZM32.0273 168L34.3418 157.082H37.2812L34.9668 168H32.0273ZM36.2852 155.725C35.8685 155.725 35.5169 155.633 35.2305 155.451C34.9505 155.269 34.8105 154.96 34.8105 154.523C34.8105 154.146 34.8789 153.83 35.0156 153.576C35.1589 153.322 35.3639 153.13 35.6309 153C35.8978 152.87 36.2168 152.805 36.5879 152.805C36.9785 152.805 37.3171 152.889 37.6035 153.059C37.8965 153.228 38.043 153.534 38.043 153.977C38.043 154.497 37.8997 154.921 37.6133 155.246C37.3268 155.565 36.8841 155.725 36.2852 155.725ZM37.9648 168L41.1875 152.805H44.127L40.9043 168H37.9648ZM43.9023 168L46.2168 157.082H49.1562L46.8418 168H43.9023ZM46.3145 155.881V155.637C46.5358 155.389 46.7734 155.096 47.0273 154.758C47.2878 154.413 47.5417 154.058 47.7891 153.693C48.043 153.329 48.2741 152.99 48.4824 152.678H51.7539V152.844C51.6107 153.02 51.4023 153.244 51.1289 153.518C50.8555 153.785 50.5527 154.068 50.2207 154.367C49.8887 154.66 49.5566 154.94 49.2246 155.207C48.8991 155.474 48.6094 155.699 48.3555 155.881H46.3145ZM49.8398 168L52.1543 157.082H54.4004L54.1953 159.104H54.2832C54.5632 158.667 54.8724 158.283 55.2109 157.951C55.5495 157.619 55.9238 157.359 56.334 157.17C56.7507 156.975 57.2129 156.877 57.7207 156.877C58.3457 156.877 58.8665 157.007 59.2832 157.268C59.7064 157.521 60.0221 157.883 60.2305 158.352C60.4388 158.82 60.543 159.377 60.543 160.021C60.543 160.262 60.5234 160.533 60.4844 160.832C60.4453 161.132 60.39 161.447 60.3184 161.779L59.0195 168H56.0801L57.418 161.623C57.4701 161.402 57.5091 161.193 57.5352 160.998C57.5612 160.803 57.5742 160.624 57.5742 160.461C57.5742 160.051 57.4863 159.748 57.3105 159.553C57.1348 159.357 56.8711 159.26 56.5195 159.26C56.0768 159.26 55.6764 159.452 55.3184 159.836C54.9603 160.214 54.6478 160.721 54.3809 161.359C54.1204 161.997 53.9056 162.704 53.7363 163.479L52.7793 168H49.8398ZM65.5332 168.195C65.0059 168.195 64.5078 168.065 64.0391 167.805C63.5703 167.544 63.1862 167.124 62.8867 166.545C62.5938 165.959 62.4473 165.184 62.4473 164.221C62.4473 163.511 62.5221 162.805 62.6719 162.102C62.8281 161.398 63.0495 160.734 63.3359 160.109C63.6289 159.478 63.9805 158.921 64.3906 158.439C64.8073 157.951 65.276 157.57 65.7969 157.297C66.3242 157.017 66.8939 156.877 67.5059 156.877C67.9421 156.877 68.3099 156.949 68.6094 157.092C68.9154 157.235 69.179 157.427 69.4004 157.668C69.6217 157.909 69.8171 158.179 69.9863 158.479H70.0645C70.0645 158.439 70.0742 158.296 70.0938 158.049C70.1133 157.801 70.1426 157.518 70.1816 157.199C70.2207 156.874 70.2695 156.574 70.3281 156.301L71.0703 152.805H74.0098L70.7871 168H68.5508L68.7266 166.584H68.6484C68.388 166.903 68.1048 167.183 67.7988 167.424C67.4993 167.665 67.1641 167.854 66.793 167.99C66.4219 168.127 66.002 168.195 65.5332 168.195ZM66.7637 165.822C67.0697 165.822 67.3464 165.741 67.5938 165.578C67.8477 165.409 68.069 165.188 68.2578 164.914C68.4531 164.634 68.6191 164.322 68.7559 163.977C68.8991 163.632 69.0163 163.28 69.1074 162.922C69.1986 162.557 69.2637 162.206 69.3027 161.867C69.3483 161.529 69.3711 161.232 69.3711 160.979C69.3711 160.458 69.2474 160.041 69 159.729C68.7591 159.416 68.4271 159.26 68.0039 159.26C67.7174 159.26 67.444 159.354 67.1836 159.543C66.9297 159.725 66.6953 159.979 66.4805 160.305C66.2656 160.624 66.0768 160.992 65.9141 161.408C65.7578 161.818 65.6374 162.255 65.5527 162.717C65.4681 163.179 65.4258 163.641 65.4258 164.104C65.4258 164.67 65.5397 165.1 65.7676 165.393C66.002 165.679 66.334 165.822 66.7637 165.822ZM73.8242 168L76.1387 157.082H78.3848L78.1797 159.104H78.2871C78.5801 158.641 78.8991 158.244 79.2441 157.912C79.5892 157.58 79.9635 157.326 80.3672 157.15C80.7708 156.968 81.2103 156.877 81.6855 156.877C81.8418 156.877 82.0078 156.887 82.1836 156.906C82.3659 156.926 82.5124 156.952 82.623 156.984L81.9785 159.816C81.8743 159.777 81.7344 159.742 81.5586 159.709C81.3893 159.676 81.2038 159.66 81.002 159.66C80.6374 159.66 80.2891 159.735 79.957 159.885C79.625 160.028 79.319 160.243 79.0391 160.529C78.7591 160.816 78.5117 161.177 78.2969 161.613C78.0885 162.043 77.9225 162.544 77.7988 163.117L76.7637 168H73.8242ZM86.9395 168.195C86.1191 168.195 85.3932 168.026 84.7617 167.688C84.1367 167.349 83.6452 166.867 83.2871 166.242C82.9355 165.611 82.7598 164.862 82.7598 163.996C82.7598 163.221 82.8346 162.482 82.9844 161.779C83.1406 161.07 83.3717 160.419 83.6777 159.826C83.9902 159.227 84.3776 158.71 84.8398 158.273C85.3086 157.831 85.8522 157.489 86.4707 157.248C87.0892 157.001 87.7858 156.877 88.5605 156.877C89.4069 156.877 90.1393 157.049 90.7578 157.395C91.3763 157.733 91.8548 158.225 92.1934 158.869C92.5319 159.514 92.7012 160.292 92.7012 161.203C92.7012 161.945 92.6263 162.661 92.4766 163.352C92.3333 164.035 92.112 164.673 91.8125 165.266C91.513 165.852 91.1354 166.366 90.6797 166.809C90.224 167.245 89.6836 167.587 89.0586 167.834C88.4401 168.075 87.7337 168.195 86.9395 168.195ZM87.1836 165.803C87.5091 165.803 87.8053 165.721 88.0723 165.559C88.3392 165.389 88.5768 165.158 88.7852 164.865C88.9935 164.566 89.166 164.224 89.3027 163.84C89.446 163.449 89.5534 163.029 89.625 162.58C89.7031 162.131 89.7422 161.672 89.7422 161.203C89.7422 160.832 89.6966 160.503 89.6055 160.217C89.5208 159.924 89.3743 159.696 89.166 159.533C88.9642 159.364 88.6908 159.279 88.3457 159.279C87.9876 159.279 87.6654 159.38 87.3789 159.582C87.099 159.777 86.8548 160.041 86.6465 160.373C86.4382 160.705 86.2656 161.076 86.1289 161.486C85.9922 161.896 85.888 162.32 85.8164 162.756C85.7513 163.186 85.7188 163.599 85.7188 163.996C85.7188 164.589 85.8392 165.038 86.0801 165.344C86.321 165.65 86.6888 165.803 87.1836 165.803Z" fill="black"/>
<defs>
<clipPath id="clip0_18_18465">
<rect width="113" height="128" fill="white"/>
</clipPath>
</defs>
</svg>
