<svg width="126" height="181" viewBox="0 0 126 181" fill="none" xmlns="http://www.w3.org/2000/svg">
<g clip-path="url(#clip0_18_18467)">
<path d="M63.0088 130C27.6881 130 0 121.297 0 110.168C0 110.009 0.0350926 109.869 0.122824 109.728L62.2367 0.404383C62.5526 -0.140654 63.4474 -0.140654 63.7633 0.404383L125.895 109.728C125.965 109.869 126.018 110.009 126.018 110.168C126.018 121.297 98.347 130 63.0088 130ZM1.75463 110.396C2.17574 120.101 30.0568 128.242 62.9912 128.242C95.9256 128.242 123.807 120.084 124.228 110.396L63.0088 2.61969L1.75463 110.396Z" fill="#3B3B3B"/>
<path d="M5.08843 104.436L3.94792 103.1C5.17616 102.062 6.70269 101.043 8.47487 100.076L9.29954 101.623C7.63265 102.52 6.2114 103.469 5.07089 104.436H5.08843Z" fill="#3B3B3B"/>
<path d="M18.4412 97.8956L17.9148 96.2254C20.8977 95.2759 24.1964 94.432 27.7407 93.676L28.1092 95.399C24.635 96.1199 21.3889 96.9638 18.4587 97.8956H18.4412ZM107.366 97.8253C104.453 96.911 101.19 96.0671 97.7154 95.3463L98.0663 93.6232C101.611 94.3617 104.909 95.2056 107.892 96.1374L107.366 97.8077V97.8253ZM37.9527 93.7112L37.7246 91.9706C40.9706 91.531 44.3571 91.1794 47.7786 90.9156L47.919 92.6738C44.5325 92.9376 41.1812 93.2892 37.9702 93.7112H37.9527ZM87.8543 93.6936C84.6609 93.2716 81.3096 92.92 77.9056 92.6562L78.0284 90.8981C81.4675 91.1618 84.8539 91.5134 88.0825 91.9354L87.8543 93.676V93.6936ZM57.9028 92.164L57.8502 90.4058C59.5522 90.3706 61.2191 90.353 63.0088 90.3354C64.6757 90.3354 66.325 90.353 67.9568 90.3882L67.9217 92.1464C66.2373 92.1112 64.5529 92.0936 62.8333 92.0936C61.1664 92.0936 59.5346 92.1112 57.9028 92.164Z" fill="#3B3B3B"/>
<path d="M120.789 104.33C119.648 103.381 118.209 102.432 116.543 101.553L117.367 100.005C119.139 100.955 120.666 101.957 121.912 102.994L120.789 104.348V104.33Z" fill="#3B3B3B"/>
</g>
<path d="M45.8418 175.195C44.6895 175.195 43.7259 174.967 42.9512 174.512C42.1764 174.049 41.5905 173.402 41.1934 172.568C40.8027 171.729 40.6074 170.739 40.6074 169.6C40.6074 168.76 40.7018 167.91 40.8906 167.051C41.0859 166.191 41.3789 165.371 41.7695 164.59C42.1602 163.802 42.6582 163.102 43.2637 162.49C43.8691 161.878 44.5853 161.393 45.4121 161.035C46.2389 160.677 47.1829 160.498 48.2441 160.498C49.1491 160.498 49.9173 160.583 50.5488 160.752C51.1803 160.921 51.8118 161.178 52.4434 161.523L51.291 163.965C50.8288 163.698 50.3535 163.473 49.8652 163.291C49.3835 163.109 48.8431 163.018 48.2441 163.018C47.5996 163.018 47.0267 163.148 46.5254 163.408C46.0241 163.669 45.5911 164.023 45.2266 164.473C44.8685 164.915 44.5723 165.417 44.3379 165.977C44.1035 166.53 43.9277 167.106 43.8105 167.705C43.6999 168.304 43.6445 168.883 43.6445 169.443C43.6445 170.524 43.8691 171.331 44.3184 171.865C44.7676 172.393 45.4772 172.656 46.4473 172.656C46.9876 172.656 47.5345 172.588 48.0879 172.451C48.6413 172.308 49.1947 172.126 49.748 171.904V174.443C49.3509 174.6 48.8171 174.766 48.1465 174.941C47.4824 175.111 46.7142 175.195 45.8418 175.195ZM56.7109 175.195C55.8906 175.195 55.1647 175.026 54.5332 174.688C53.9082 174.349 53.4167 173.867 53.0586 173.242C52.707 172.611 52.5312 171.862 52.5312 170.996C52.5312 170.221 52.6061 169.482 52.7559 168.779C52.9121 168.07 53.1432 167.419 53.4492 166.826C53.7617 166.227 54.1491 165.71 54.6113 165.273C55.0801 164.831 55.6237 164.489 56.2422 164.248C56.8607 164.001 57.5573 163.877 58.332 163.877C59.1784 163.877 59.9108 164.049 60.5293 164.395C61.1478 164.733 61.6263 165.225 61.9648 165.869C62.3034 166.514 62.4727 167.292 62.4727 168.203C62.4727 168.945 62.3978 169.661 62.248 170.352C62.1048 171.035 61.8835 171.673 61.584 172.266C61.2845 172.852 60.9069 173.366 60.4512 173.809C59.9954 174.245 59.4551 174.587 58.8301 174.834C58.2116 175.075 57.5052 175.195 56.7109 175.195ZM56.9551 172.803C57.2806 172.803 57.5768 172.721 57.8438 172.559C58.1107 172.389 58.3483 172.158 58.5566 171.865C58.765 171.566 58.9375 171.224 59.0742 170.84C59.2174 170.449 59.3249 170.029 59.3965 169.58C59.4746 169.131 59.5137 168.672 59.5137 168.203C59.5137 167.832 59.4681 167.503 59.377 167.217C59.2923 166.924 59.1458 166.696 58.9375 166.533C58.7357 166.364 58.4622 166.279 58.1172 166.279C57.7591 166.279 57.4368 166.38 57.1504 166.582C56.8704 166.777 56.6263 167.041 56.418 167.373C56.2096 167.705 56.0371 168.076 55.9004 168.486C55.7637 168.896 55.6595 169.32 55.5879 169.756C55.5228 170.186 55.4902 170.599 55.4902 170.996C55.4902 171.589 55.6107 172.038 55.8516 172.344C56.0924 172.65 56.4603 172.803 56.9551 172.803ZM63.7129 175L66.0273 164.082H68.2734L68.0684 166.104H68.1562C68.4362 165.667 68.7454 165.283 69.084 164.951C69.4225 164.619 69.7969 164.359 70.207 164.17C70.6237 163.975 71.0859 163.877 71.5938 163.877C72.2188 163.877 72.7396 164.007 73.1562 164.268C73.5794 164.521 73.8952 164.883 74.1035 165.352C74.3118 165.82 74.416 166.377 74.416 167.021C74.416 167.262 74.3965 167.533 74.3574 167.832C74.3184 168.132 74.263 168.447 74.1914 168.779L72.8926 175H69.9531L71.291 168.623C71.3431 168.402 71.3822 168.193 71.4082 167.998C71.4342 167.803 71.4473 167.624 71.4473 167.461C71.4473 167.051 71.3594 166.748 71.1836 166.553C71.0078 166.357 70.7441 166.26 70.3926 166.26C69.9499 166.26 69.5495 166.452 69.1914 166.836C68.8333 167.214 68.5208 167.721 68.2539 168.359C67.9935 168.997 67.7786 169.704 67.6094 170.479L66.6523 175H63.7129ZM80.6367 175.195C79.7839 175.195 79.0319 175.042 78.3809 174.736C77.7363 174.424 77.2318 173.955 76.8672 173.33C76.5026 172.705 76.3203 171.921 76.3203 170.977C76.3203 170.065 76.4505 169.186 76.7109 168.34C76.9714 167.487 77.3587 166.725 77.873 166.055C78.3939 165.384 79.0319 164.854 79.7871 164.463C80.5488 164.072 81.4277 163.877 82.4238 163.877C83.6478 163.877 84.5625 164.157 85.168 164.717C85.7799 165.27 86.0859 165.983 86.0859 166.855C86.0859 167.428 85.9557 167.949 85.6953 168.418C85.4414 168.887 85.054 169.29 84.5332 169.629C84.0124 169.961 83.3581 170.218 82.5703 170.4C81.7826 170.576 80.8581 170.664 79.7969 170.664H79.2988C79.2923 170.742 79.2858 170.811 79.2793 170.869C79.2793 170.928 79.2793 170.993 79.2793 171.064C79.2793 171.65 79.4486 172.116 79.7871 172.461C80.1257 172.806 80.6042 172.979 81.2227 172.979C81.7956 172.979 82.3164 172.913 82.7852 172.783C83.2539 172.653 83.8073 172.438 84.4453 172.139V174.355C83.8724 174.635 83.2897 174.847 82.6973 174.99C82.1048 175.127 81.418 175.195 80.6367 175.195ZM79.6211 168.682H80.0605C80.8158 168.682 81.4277 168.6 81.8965 168.438C82.3717 168.275 82.7168 168.06 82.9316 167.793C83.153 167.526 83.2637 167.236 83.2637 166.924C83.2637 166.611 83.1725 166.38 82.9902 166.23C82.8145 166.074 82.5638 165.996 82.2383 165.996C81.8737 165.996 81.5124 166.11 81.1543 166.338C80.7962 166.566 80.4805 166.882 80.207 167.285C79.9336 167.689 79.7383 168.154 79.6211 168.682Z" fill="black"/>
<defs>
<clipPath id="clip0_18_18467">
<rect width="126" height="130" fill="white"/>
</clipPath>
</defs>
</svg>
