<svg width="249" height="331" viewBox="0 0 249 331" fill="none" xmlns="http://www.w3.org/2000/svg">
<g clip-path="url(#clip0_11_1567)">
<path d="M167.067 243.156C166.816 243.156 166.564 243.093 166.312 242.968C165.809 242.687 165.494 242.155 165.494 241.592L165.935 61.8448C165.935 61.2504 166.249 60.7186 166.784 60.4683L246.526 19.2073C247.029 18.957 247.596 18.957 248.068 19.2698C248.54 19.5826 248.823 20.0832 248.823 20.615L246.967 191.196C246.967 191.728 246.683 192.197 246.243 192.479L167.886 242.906C167.634 243.062 167.319 243.156 167.036 243.156H167.067ZM169.081 62.8145L168.641 238.714L243.851 190.32L245.676 23.1801L169.113 62.7832L169.081 62.8145Z" fill="#3B3B3B"/>
<path d="M167.508 63.4403C167.508 63.4403 167.382 63.4403 167.319 63.4403L1.38445 42.0433C0.692139 41.9495 0.125702 41.4177 0.031296 40.7295C-0.0631101 40.0413 0.314515 39.353 0.943889 39.0715L87.4829 0.125303C87.7346 0.000174414 88.0493 -0.0311077 88.3325 0.000174419L247.47 19.051C248.162 19.1448 248.697 19.6453 248.823 20.3335C248.949 21.0217 248.603 21.6787 248.005 21.9915L168.263 63.2526C168.043 63.3777 167.791 63.4403 167.539 63.4403H167.508ZM7.2691 39.6659L167.225 60.2495L242.026 21.5535L88.3955 3.15967L7.2691 39.6659Z" fill="#3B3B3B"/>
<path d="M11.4757 209.259L3.37079 214.071L4.98448 216.757L13.0894 211.945L11.4757 209.259Z" fill="#3B3B3B"/>
<path d="M28.8568 202.614L27.2519 199.924L42.9863 190.602L44.5912 193.292L28.8568 202.614ZM217.764 188.287L199.669 185.346L200.173 182.249L218.267 185.19L217.764 188.287ZM60.3255 183.939L58.7206 181.248L74.455 171.926L76.0599 174.617L60.3255 183.939ZM181.606 182.406L163.511 179.465L164.015 176.368L182.109 179.309L181.606 182.406ZM145.417 176.525L127.322 173.584L127.826 170.487L145.92 173.428L145.417 176.525ZM109.259 170.644L91.1649 167.703L91.6684 164.606L109.763 167.547L109.259 170.644Z" fill="#3B3B3B"/>
<path d="M236.366 188.141L235.859 191.229L245.176 192.742L245.683 189.655L236.366 188.141Z" fill="#3B3B3B"/>
<path d="M167.067 243.156C167.067 243.156 166.91 243.156 166.816 243.156L3.93359 216.941C3.17834 216.816 2.6119 216.191 2.6119 215.408L0 40.5103C0 40.0723 0.188812 39.6344 0.534968 39.3216C0.881124 39.0087 1.32169 38.8836 1.79372 38.9462L167.728 60.3119C168.515 60.4057 169.113 61.0939 169.113 61.876L168.672 241.623C168.672 242.092 168.484 242.53 168.106 242.812C167.823 243.062 167.445 243.187 167.099 243.187L167.067 243.156ZM5.75878 214.063L165.525 239.746L165.966 63.2211L3.17834 42.2934L5.75878 214.095V214.063Z" fill="#3B3B3B"/>
<path d="M89.7173 165.639H86.5704V151.718H89.7173V165.639ZM89.7173 132.949H86.5704V114.18H89.7173V132.949ZM89.7173 95.4104H86.5704V76.6411H89.7173V95.4104ZM89.7173 57.8719H86.5704V39.1026H89.7173V57.8719ZM89.7173 20.3333H86.5704V1.56409H89.7173V20.3333Z" fill="#3B3B3B"/>
</g>
<path d="M90.9058 318.61C88.7739 318.61 86.9914 318.189 85.5581 317.346C84.1248 316.491 83.0409 315.292 82.3062 313.751C81.5835 312.197 81.2222 310.366 81.2222 308.258C81.2222 306.705 81.3968 305.133 81.7461 303.543C82.1074 301.953 82.6494 300.436 83.3721 298.99C84.0947 297.533 85.0161 296.238 86.1362 295.106C87.2563 293.974 88.5812 293.077 90.1108 292.414C91.6405 291.752 93.3869 291.421 95.3501 291.421C97.0243 291.421 98.4455 291.577 99.6138 291.89C100.782 292.203 101.95 292.679 103.119 293.318L100.987 297.834C100.132 297.34 99.2524 296.925 98.3491 296.588C97.4578 296.25 96.4582 296.082 95.3501 296.082C94.1577 296.082 93.0978 296.323 92.1704 296.804C91.243 297.286 90.4421 297.943 89.7676 298.774C89.1051 299.593 88.5571 300.52 88.1235 301.556C87.6899 302.58 87.3647 303.645 87.1479 304.754C86.9432 305.862 86.8408 306.934 86.8408 307.969C86.8408 309.969 87.2563 311.462 88.0874 312.45C88.9185 313.425 90.2313 313.913 92.0259 313.913C93.0256 313.913 94.0373 313.787 95.061 313.534C96.0848 313.269 97.1086 312.932 98.1323 312.522V317.219C97.3976 317.508 96.41 317.816 95.1694 318.141C93.9409 318.454 92.5197 318.61 90.9058 318.61ZM108.792 318.61C107.635 318.61 106.678 318.376 105.919 317.906C105.16 317.436 104.594 316.768 104.221 315.901C103.847 315.021 103.661 313.991 103.661 312.811C103.661 312.366 103.697 311.793 103.769 311.095C103.841 310.396 103.95 309.686 104.094 308.963L106.389 298.051H111.827L109.352 309.848C109.267 310.258 109.195 310.643 109.135 311.005C109.087 311.366 109.062 311.697 109.062 311.998C109.062 312.757 109.225 313.317 109.55 313.678C109.875 314.04 110.363 314.22 111.014 314.22C111.845 314.22 112.585 313.871 113.236 313.172C113.898 312.462 114.476 311.516 114.97 310.336C115.464 309.144 115.861 307.837 116.163 306.416L117.933 298.051H123.371L119.089 318.249H114.934L115.313 314.509H115.115C114.597 315.304 114.025 316.015 113.398 316.641C112.784 317.255 112.098 317.737 111.339 318.087C110.58 318.436 109.731 318.61 108.792 318.61ZM135.042 318.61C134.199 318.61 133.458 318.49 132.82 318.249C132.181 317.996 131.633 317.653 131.176 317.219C130.73 316.774 130.357 316.256 130.056 315.666H129.911L128.863 318.249H124.69L130.652 290.138H136.09L134.97 295.341C134.861 295.835 134.723 296.413 134.554 297.075C134.386 297.726 134.205 298.382 134.012 299.045C133.819 299.695 133.633 300.261 133.452 300.743H133.597C134.03 300.201 134.482 299.695 134.952 299.225C135.421 298.755 135.957 298.382 136.56 298.105C137.174 297.816 137.89 297.672 138.709 297.672C139.685 297.672 140.606 297.912 141.474 298.394C142.341 298.876 143.045 299.653 143.587 300.725C144.129 301.797 144.4 303.224 144.4 305.006C144.4 306.319 144.256 307.632 143.967 308.945C143.69 310.246 143.28 311.474 142.738 312.63C142.208 313.787 141.558 314.817 140.787 315.72C140.028 316.623 139.167 317.334 138.204 317.852C137.24 318.358 136.186 318.61 135.042 318.61ZM134.121 314.22C134.651 314.22 135.156 314.052 135.638 313.714C136.12 313.365 136.56 312.895 136.957 312.305C137.354 311.703 137.698 311.023 137.987 310.264C138.276 309.493 138.499 308.68 138.655 307.825C138.812 306.97 138.89 306.115 138.89 305.259C138.89 304.2 138.691 303.405 138.294 302.875C137.909 302.345 137.318 302.08 136.523 302.08C135.945 302.08 135.415 302.23 134.934 302.531C134.464 302.832 134.048 303.242 133.687 303.76C133.326 304.266 133.013 304.838 132.748 305.476C132.483 306.115 132.266 306.771 132.097 307.445C131.929 308.108 131.802 308.752 131.718 309.379C131.646 310.005 131.609 310.559 131.609 311.041C131.609 311.992 131.832 312.763 132.278 313.353C132.736 313.931 133.35 314.22 134.121 314.22ZM155.421 318.61C153.903 318.61 152.56 318.297 151.392 317.671C150.236 317.045 149.326 316.153 148.664 314.997C148.014 313.829 147.688 312.444 147.688 310.842C147.688 309.409 147.827 308.042 148.104 306.741C148.393 305.428 148.821 304.224 149.387 303.128C149.965 302.019 150.681 301.062 151.537 300.255C152.404 299.436 153.41 298.804 154.554 298.358C155.698 297.9 156.987 297.672 158.42 297.672C159.986 297.672 161.341 297.991 162.485 298.629C163.629 299.255 164.514 300.165 165.141 301.357C165.767 302.549 166.08 303.989 166.08 305.675C166.08 307.048 165.942 308.373 165.665 309.65C165.4 310.914 164.99 312.095 164.436 313.191C163.882 314.275 163.183 315.226 162.34 316.045C161.497 316.852 160.498 317.484 159.341 317.942C158.197 318.388 156.89 318.61 155.421 318.61ZM155.873 314.184C156.475 314.184 157.023 314.034 157.517 313.733C158.01 313.419 158.45 312.992 158.835 312.45C159.221 311.896 159.54 311.263 159.793 310.553C160.058 309.83 160.257 309.053 160.389 308.222C160.534 307.391 160.606 306.542 160.606 305.675C160.606 304.988 160.522 304.38 160.353 303.85C160.196 303.308 159.925 302.887 159.54 302.586C159.167 302.272 158.661 302.116 158.022 302.116C157.36 302.116 156.764 302.303 156.234 302.676C155.716 303.037 155.264 303.525 154.879 304.139C154.493 304.754 154.174 305.44 153.921 306.199C153.668 306.958 153.476 307.741 153.343 308.547C153.223 309.342 153.163 310.107 153.163 310.842C153.163 311.938 153.385 312.769 153.831 313.335C154.277 313.901 154.957 314.184 155.873 314.184Z" fill="black"/>
<defs>
<clipPath id="clip0_11_1567">
<rect width="248.855" height="243.156" fill="white"/>
</clipPath>
</defs>
</svg>
