<svg width="197" height="164" viewBox="0 0 197 164" fill="none" xmlns="http://www.w3.org/2000/svg">
<g clip-path="url(#clip0_18_18464)">
<path d="M47.9817 118C47.7959 118 47.61 117.944 47.4614 117.833L0.408833 86.3184C0.0185866 86.0591 -0.111495 85.5218 0.111502 85.1142L38.43 13.9881C38.5415 13.7658 38.7459 13.6175 38.9875 13.5434C39.229 13.4693 39.4706 13.5064 39.6936 13.6175L89.3664 40.3338C89.8124 40.5747 89.9796 41.1305 89.738 41.5937L48.8179 117.537C48.6879 117.759 48.4834 117.926 48.2233 118C48.149 118 48.0746 118.019 48.0003 118.019L47.9817 118ZM2.13707 85.2439L47.6472 115.74L87.6567 41.5196L39.6193 15.6926L2.13707 85.2439Z" fill="#3B3B3B"/>
<path d="M88.9204 42.0568C88.7717 42.0568 88.6231 42.0198 88.4744 41.9456L38.8016 15.2294C38.4485 15.0441 38.2627 14.6365 38.337 14.2474C38.4114 13.8583 38.7273 13.5434 39.1361 13.4878L140.377 -3.14657e-05C140.544 -0.0185587 140.73 -3.14685e-05 140.879 0.0740775L196.442 24.6783C196.814 24.845 197.037 25.2341 196.981 25.6417C196.926 26.0493 196.61 26.3642 196.201 26.4383L89.0505 42.0383C89.0505 42.0383 88.9575 42.0383 88.9204 42.0383V42.0568ZM42.2023 14.97L89.069 40.1856L192.744 25.0859L140.377 1.87122L42.2209 14.9515L42.2023 14.97Z" fill="#3B3B3B"/>
<path d="M6.28108 83.7405L0.777069 84.6244L1.07258 86.4535L6.57658 85.5697L6.28108 83.7405Z" fill="#3B3B3B"/>
<path d="M141.288 90.3945L131.03 84.4843L131.959 82.8724L142.217 88.7826L141.288 90.3945ZM18.2858 83.6876L17.9885 81.8534L29.6959 79.9636L29.9932 81.7978L18.2858 83.6876ZM41.682 79.9266L41.3847 78.0924L53.0921 76.2026L53.3894 78.0368L41.682 79.9266ZM120.753 78.5741L110.495 72.6639L111.425 71.052L121.682 76.9622L120.753 78.5741ZM65.0782 76.1655L64.7809 74.3313L76.4883 72.4416L76.7856 74.2758L65.0782 76.1655ZM88.4744 72.4045L88.1771 70.5703L99.8844 68.6805L100.182 70.5147L88.4744 72.4045Z" fill="#3B3B3B"/>
<path d="M152.46 94.7025L151.531 96.3069L156.359 99.0868L157.288 97.4825L152.46 94.7025Z" fill="#3B3B3B"/>
<path d="M47.9817 118C47.6844 118 47.4056 117.852 47.2198 117.611C47.0154 117.314 46.9968 116.944 47.164 116.629L88.0841 40.6858C88.2142 40.4264 88.4744 40.2597 88.7717 40.2041L195.922 24.6042C196.275 24.5486 196.61 24.6968 196.814 24.9932C197.019 25.2711 197.037 25.6602 196.87 25.9567L157.641 98.7131C157.511 98.9725 157.269 99.1393 156.99 99.1949L48.1489 117.981C48.1489 117.981 48.0374 117.981 47.9817 117.981V118ZM89.515 41.9827L49.7099 115.832L156.229 97.4533L194.38 26.7163L89.515 41.9827Z" fill="#3B3B3B"/>
<path d="M106.314 69.1437L104.66 68.2914L109.046 59.7874L110.7 60.6397L106.314 69.1437ZM115.81 50.7647L114.156 49.9124L119.267 40.0374L120.921 40.8896L115.81 50.7647ZM126.012 30.9961L124.358 30.1438L129.469 20.2688L131.123 21.1211L126.012 30.9961ZM136.233 11.2275L134.579 10.3753L139.69 0.500244L141.343 1.3525L136.233 11.2275Z" fill="#3B3B3B"/>
</g>
<path d="M27.5176 158L30.5352 143.723H34.5195C35.6784 143.723 36.6061 143.898 37.3027 144.25C38.0059 144.595 38.5137 145.08 38.8262 145.705C39.1452 146.33 39.3047 147.056 39.3047 147.883C39.3047 148.729 39.1484 149.468 38.8359 150.1C38.5234 150.731 38.084 151.258 37.5176 151.682C36.9577 152.098 36.3001 152.411 35.5449 152.619C34.7897 152.821 33.9694 152.922 33.084 152.922H31.5605L30.4961 158H27.5176ZM32.0977 150.441H33.3184C33.9108 150.441 34.4284 150.344 34.8711 150.148C35.3203 149.953 35.6686 149.67 35.916 149.299C36.1699 148.928 36.2969 148.482 36.2969 147.961C36.2969 147.362 36.1374 146.919 35.8184 146.633C35.5059 146.346 35.0339 146.203 34.4023 146.203H32.9961L32.0977 150.441ZM43.1719 158.195C42.6445 158.195 42.1465 158.065 41.6777 157.805C41.209 157.544 40.8249 157.124 40.5254 156.545C40.2324 155.965 40.0859 155.197 40.0859 154.24C40.0859 153.524 40.1608 152.814 40.3105 152.111C40.4668 151.408 40.6882 150.744 40.9746 150.119C41.2676 149.488 41.6191 148.931 42.0293 148.449C42.446 147.961 42.9147 147.577 43.4355 147.297C43.9629 147.017 44.5326 146.877 45.1445 146.877C45.6068 146.877 46.0104 146.945 46.3555 147.082C46.7005 147.212 46.9967 147.398 47.2441 147.639C47.4915 147.88 47.6934 148.16 47.8496 148.479H47.9277L48.4844 147.082H50.75L48.4258 158H46.2285L46.3652 156.584H46.2871C46.0267 156.903 45.7435 157.183 45.4375 157.424C45.1315 157.665 44.793 157.854 44.4219 157.99C44.0508 158.127 43.6341 158.195 43.1719 158.195ZM44.3242 155.822C44.7279 155.822 45.1022 155.666 45.4473 155.354C45.7923 155.035 46.0885 154.621 46.3359 154.113C46.5833 153.605 46.7591 153.068 46.8633 152.502C46.9154 152.242 46.9512 151.981 46.9707 151.721C46.9967 151.454 47.0098 151.167 47.0098 150.861C47.0098 150.399 46.8861 150.018 46.6387 149.719C46.3978 149.413 46.0658 149.26 45.6426 149.26C45.3561 149.26 45.0827 149.354 44.8223 149.543C44.5684 149.725 44.334 149.979 44.1191 150.305C43.9043 150.624 43.7155 150.992 43.5527 151.408C43.3965 151.818 43.276 152.255 43.1914 152.717C43.1068 153.179 43.0645 153.641 43.0645 154.104C43.0645 154.67 43.1751 155.1 43.3965 155.393C43.6178 155.679 43.9271 155.822 44.3242 155.822ZM51.4629 158L53.7773 147.082H56.0234L55.8184 149.104H55.9258C56.2188 148.641 56.5378 148.244 56.8828 147.912C57.2279 147.58 57.6022 147.326 58.0059 147.15C58.4095 146.968 58.849 146.877 59.3242 146.877C59.4805 146.877 59.6465 146.887 59.8223 146.906C60.0046 146.926 60.151 146.952 60.2617 146.984L59.6172 149.816C59.513 149.777 59.373 149.742 59.1973 149.709C59.028 149.676 58.8424 149.66 58.6406 149.66C58.276 149.66 57.9277 149.735 57.5957 149.885C57.2637 150.028 56.9577 150.243 56.6777 150.529C56.3978 150.816 56.1504 151.177 55.9355 151.613C55.7272 152.043 55.5612 152.544 55.4375 153.117L54.4023 158H51.4629ZM63.4844 158.195C62.957 158.195 62.459 158.065 61.9902 157.805C61.5215 157.544 61.1374 157.124 60.8379 156.545C60.5449 155.965 60.3984 155.197 60.3984 154.24C60.3984 153.524 60.4733 152.814 60.623 152.111C60.7793 151.408 61.0007 150.744 61.2871 150.119C61.5801 149.488 61.9316 148.931 62.3418 148.449C62.7585 147.961 63.2272 147.577 63.748 147.297C64.2754 147.017 64.8451 146.877 65.457 146.877C65.9193 146.877 66.3229 146.945 66.668 147.082C67.013 147.212 67.3092 147.398 67.5566 147.639C67.804 147.88 68.0059 148.16 68.1621 148.479H68.2402L68.7969 147.082H71.0625L68.7383 158H66.541L66.6777 156.584H66.5996C66.3392 156.903 66.056 157.183 65.75 157.424C65.444 157.665 65.1055 157.854 64.7344 157.99C64.3633 158.127 63.9466 158.195 63.4844 158.195ZM64.6367 155.822C65.0404 155.822 65.4147 155.666 65.7598 155.354C66.1048 155.035 66.401 154.621 66.6484 154.113C66.8958 153.605 67.0716 153.068 67.1758 152.502C67.2279 152.242 67.2637 151.981 67.2832 151.721C67.3092 151.454 67.3223 151.167 67.3223 150.861C67.3223 150.399 67.1986 150.018 66.9512 149.719C66.7103 149.413 66.3783 149.26 65.9551 149.26C65.6686 149.26 65.3952 149.354 65.1348 149.543C64.8809 149.725 64.6465 149.979 64.4316 150.305C64.2168 150.624 64.028 150.992 63.8652 151.408C63.709 151.818 63.5885 152.255 63.5039 152.717C63.4193 153.179 63.377 153.641 63.377 154.104C63.377 154.67 63.4876 155.1 63.709 155.393C63.9303 155.679 64.2396 155.822 64.6367 155.822ZM71.7754 158L74.998 142.805H77.9375L74.7148 158H71.7754ZM82.5469 158.195C81.694 158.195 80.9421 158.042 80.291 157.736C79.6465 157.424 79.1419 156.955 78.7773 156.33C78.4128 155.705 78.2305 154.921 78.2305 153.977C78.2305 153.065 78.3607 152.186 78.6211 151.34C78.8815 150.487 79.2689 149.725 79.7832 149.055C80.304 148.384 80.9421 147.854 81.6973 147.463C82.459 147.072 83.3379 146.877 84.334 146.877C85.5579 146.877 86.4727 147.157 87.0781 147.717C87.6901 148.27 87.9961 148.983 87.9961 149.855C87.9961 150.428 87.8659 150.949 87.6055 151.418C87.3516 151.887 86.9642 152.29 86.4434 152.629C85.9225 152.961 85.2682 153.218 84.4805 153.4C83.6927 153.576 82.7682 153.664 81.707 153.664H81.209C81.2025 153.742 81.196 153.811 81.1895 153.869C81.1895 153.928 81.1895 153.993 81.1895 154.064C81.1895 154.65 81.3587 155.116 81.6973 155.461C82.0358 155.806 82.5143 155.979 83.1328 155.979C83.7057 155.979 84.2266 155.913 84.6953 155.783C85.1641 155.653 85.7174 155.438 86.3555 155.139V157.355C85.7826 157.635 85.1999 157.847 84.6074 157.99C84.015 158.127 83.3281 158.195 82.5469 158.195ZM81.5312 151.682H81.9707C82.7259 151.682 83.3379 151.6 83.8066 151.438C84.2819 151.275 84.627 151.06 84.8418 150.793C85.0632 150.526 85.1738 150.236 85.1738 149.924C85.1738 149.611 85.0827 149.38 84.9004 149.23C84.7246 149.074 84.474 148.996 84.1484 148.996C83.7839 148.996 83.4225 149.11 83.0645 149.338C82.7064 149.566 82.3906 149.882 82.1172 150.285C81.8438 150.689 81.6484 151.154 81.5312 151.682ZM88.8652 158L92.0879 142.805H95.0273L91.8047 158H88.8652ZM99.6367 158.195C98.7839 158.195 98.0319 158.042 97.3809 157.736C96.7363 157.424 96.2318 156.955 95.8672 156.33C95.5026 155.705 95.3203 154.921 95.3203 153.977C95.3203 153.065 95.4505 152.186 95.7109 151.34C95.9714 150.487 96.3587 149.725 96.873 149.055C97.3939 148.384 98.0319 147.854 98.7871 147.463C99.5488 147.072 100.428 146.877 101.424 146.877C102.648 146.877 103.562 147.157 104.168 147.717C104.78 148.27 105.086 148.983 105.086 149.855C105.086 150.428 104.956 150.949 104.695 151.418C104.441 151.887 104.054 152.29 103.533 152.629C103.012 152.961 102.358 153.218 101.57 153.4C100.783 153.576 99.8581 153.664 98.7969 153.664H98.2988C98.2923 153.742 98.2858 153.811 98.2793 153.869C98.2793 153.928 98.2793 153.993 98.2793 154.064C98.2793 154.65 98.4486 155.116 98.7871 155.461C99.1257 155.806 99.6042 155.979 100.223 155.979C100.796 155.979 101.316 155.913 101.785 155.783C102.254 155.653 102.807 155.438 103.445 155.139V157.355C102.872 157.635 102.29 157.847 101.697 157.99C101.105 158.127 100.418 158.195 99.6367 158.195ZM98.6211 151.682H99.0605C99.8158 151.682 100.428 151.6 100.896 151.438C101.372 151.275 101.717 151.06 101.932 150.793C102.153 150.526 102.264 150.236 102.264 149.924C102.264 149.611 102.173 149.38 101.99 149.23C101.814 149.074 101.564 148.996 101.238 148.996C100.874 148.996 100.512 149.11 100.154 149.338C99.7962 149.566 99.4805 149.882 99.207 150.285C98.9336 150.689 98.7383 151.154 98.6211 151.682ZM104.93 162.805L108.27 147.082H110.516L110.35 148.742H110.438C110.665 148.43 110.929 148.13 111.229 147.844C111.528 147.557 111.87 147.326 112.254 147.15C112.638 146.968 113.064 146.877 113.533 146.877C114.061 146.877 114.559 147.007 115.027 147.268C115.496 147.528 115.877 147.951 116.17 148.537C116.463 149.117 116.609 149.891 116.609 150.861C116.609 151.571 116.531 152.277 116.375 152.98C116.225 153.677 116.004 154.341 115.711 154.973C115.424 155.598 115.073 156.154 114.656 156.643C114.246 157.124 113.781 157.505 113.26 157.785C112.739 158.059 112.169 158.195 111.551 158.195C111.108 158.195 110.734 158.127 110.428 157.99C110.122 157.847 109.861 157.655 109.646 157.414C109.438 157.173 109.246 156.903 109.07 156.604H108.992C108.953 157.131 108.901 157.616 108.836 158.059C108.771 158.508 108.683 158.983 108.572 159.484L107.869 162.805H104.93ZM111.053 155.822C111.339 155.822 111.613 155.731 111.873 155.549C112.133 155.36 112.371 155.106 112.586 154.787C112.801 154.462 112.986 154.094 113.143 153.684C113.299 153.267 113.419 152.827 113.504 152.365C113.589 151.903 113.631 151.441 113.631 150.979C113.631 150.406 113.523 149.976 113.309 149.689C113.1 149.403 112.781 149.26 112.352 149.26C112.039 149.26 111.753 149.341 111.492 149.504C111.238 149.667 111.014 149.885 110.818 150.158C110.623 150.432 110.454 150.741 110.311 151.086C110.167 151.424 110.05 151.776 109.959 152.141C109.868 152.505 109.799 152.857 109.754 153.195C109.715 153.534 109.695 153.837 109.695 154.104C109.695 154.618 109.816 155.035 110.057 155.354C110.304 155.666 110.636 155.822 111.053 155.822ZM117.869 158L120.184 147.082H123.123L120.809 158H117.869ZM120.281 145.881V145.637C120.503 145.389 120.74 145.096 120.994 144.758C121.255 144.413 121.508 144.058 121.756 143.693C122.01 143.329 122.241 142.99 122.449 142.678H125.721V142.844C125.577 143.02 125.369 143.244 125.096 143.518C124.822 143.785 124.52 144.068 124.188 144.367C123.855 144.66 123.523 144.94 123.191 145.207C122.866 145.474 122.576 145.699 122.322 145.881H120.281ZM122.781 162.805L126.121 147.082H128.367L128.201 148.742H128.289C128.517 148.43 128.781 148.13 129.08 147.844C129.38 147.557 129.721 147.326 130.105 147.15C130.49 146.968 130.916 146.877 131.385 146.877C131.912 146.877 132.41 147.007 132.879 147.268C133.348 147.528 133.729 147.951 134.021 148.537C134.314 149.117 134.461 149.891 134.461 150.861C134.461 151.571 134.383 152.277 134.227 152.98C134.077 153.677 133.855 154.341 133.562 154.973C133.276 155.598 132.924 156.154 132.508 156.643C132.098 157.124 131.632 157.505 131.111 157.785C130.59 158.059 130.021 158.195 129.402 158.195C128.96 158.195 128.585 158.127 128.279 157.99C127.973 157.847 127.713 157.655 127.498 157.414C127.29 157.173 127.098 156.903 126.922 156.604H126.844C126.805 157.131 126.753 157.616 126.688 158.059C126.622 158.508 126.535 158.983 126.424 159.484L125.721 162.805H122.781ZM128.904 155.822C129.191 155.822 129.464 155.731 129.725 155.549C129.985 155.36 130.223 155.106 130.438 154.787C130.652 154.462 130.838 154.094 130.994 153.684C131.15 153.267 131.271 152.827 131.355 152.365C131.44 151.903 131.482 151.441 131.482 150.979C131.482 150.406 131.375 149.976 131.16 149.689C130.952 149.403 130.633 149.26 130.203 149.26C129.891 149.26 129.604 149.341 129.344 149.504C129.09 149.667 128.865 149.885 128.67 150.158C128.475 150.432 128.305 150.741 128.162 151.086C128.019 151.424 127.902 151.776 127.811 152.141C127.719 152.505 127.651 152.857 127.605 153.195C127.566 153.534 127.547 153.837 127.547 154.104C127.547 154.618 127.667 155.035 127.908 155.354C128.156 155.666 128.488 155.822 128.904 155.822ZM140.555 158.195C139.702 158.195 138.95 158.042 138.299 157.736C137.654 157.424 137.15 156.955 136.785 156.33C136.421 155.705 136.238 154.921 136.238 153.977C136.238 153.065 136.368 152.186 136.629 151.34C136.889 150.487 137.277 149.725 137.791 149.055C138.312 148.384 138.95 147.854 139.705 147.463C140.467 147.072 141.346 146.877 142.342 146.877C143.566 146.877 144.48 147.157 145.086 147.717C145.698 148.27 146.004 148.983 146.004 149.855C146.004 150.428 145.874 150.949 145.613 151.418C145.359 151.887 144.972 152.29 144.451 152.629C143.93 152.961 143.276 153.218 142.488 153.4C141.701 153.576 140.776 153.664 139.715 153.664H139.217C139.21 153.742 139.204 153.811 139.197 153.869C139.197 153.928 139.197 153.993 139.197 154.064C139.197 154.65 139.367 155.116 139.705 155.461C140.044 155.806 140.522 155.979 141.141 155.979C141.714 155.979 142.234 155.913 142.703 155.783C143.172 155.653 143.725 155.438 144.363 155.139V157.355C143.79 157.635 143.208 157.847 142.615 157.99C142.023 158.127 141.336 158.195 140.555 158.195ZM139.539 151.682H139.979C140.734 151.682 141.346 151.6 141.814 151.438C142.29 151.275 142.635 151.06 142.85 150.793C143.071 150.526 143.182 150.236 143.182 149.924C143.182 149.611 143.09 149.38 142.908 149.23C142.732 149.074 142.482 148.996 142.156 148.996C141.792 148.996 141.43 149.11 141.072 149.338C140.714 149.566 140.398 149.882 140.125 150.285C139.852 150.689 139.656 151.154 139.539 151.682ZM150.477 158.195C149.949 158.195 149.451 158.065 148.982 157.805C148.514 157.544 148.13 157.124 147.83 156.545C147.537 155.959 147.391 155.184 147.391 154.221C147.391 153.511 147.465 152.805 147.615 152.102C147.771 151.398 147.993 150.734 148.279 150.109C148.572 149.478 148.924 148.921 149.334 148.439C149.751 147.951 150.219 147.57 150.74 147.297C151.268 147.017 151.837 146.877 152.449 146.877C152.885 146.877 153.253 146.949 153.553 147.092C153.859 147.235 154.122 147.427 154.344 147.668C154.565 147.909 154.76 148.179 154.93 148.479H155.008C155.008 148.439 155.018 148.296 155.037 148.049C155.057 147.801 155.086 147.518 155.125 147.199C155.164 146.874 155.213 146.574 155.271 146.301L156.014 142.805H158.953L155.73 158H153.494L153.67 156.584H153.592C153.331 156.903 153.048 157.183 152.742 157.424C152.443 157.665 152.107 157.854 151.736 157.99C151.365 158.127 150.945 158.195 150.477 158.195ZM151.707 155.822C152.013 155.822 152.29 155.741 152.537 155.578C152.791 155.409 153.012 155.188 153.201 154.914C153.396 154.634 153.562 154.322 153.699 153.977C153.842 153.632 153.96 153.28 154.051 152.922C154.142 152.557 154.207 152.206 154.246 151.867C154.292 151.529 154.314 151.232 154.314 150.979C154.314 150.458 154.191 150.041 153.943 149.729C153.702 149.416 153.37 149.26 152.947 149.26C152.661 149.26 152.387 149.354 152.127 149.543C151.873 149.725 151.639 149.979 151.424 150.305C151.209 150.624 151.02 150.992 150.857 151.408C150.701 151.818 150.581 152.255 150.496 152.717C150.411 153.179 150.369 153.641 150.369 154.104C150.369 154.67 150.483 155.1 150.711 155.393C150.945 155.679 151.277 155.822 151.707 155.822ZM163.465 158.195C162.645 158.195 161.919 158.026 161.287 157.688C160.662 157.349 160.171 156.867 159.812 156.242C159.461 155.611 159.285 154.862 159.285 153.996C159.285 153.221 159.36 152.482 159.51 151.779C159.666 151.07 159.897 150.419 160.203 149.826C160.516 149.227 160.903 148.71 161.365 148.273C161.834 147.831 162.378 147.489 162.996 147.248C163.615 147.001 164.311 146.877 165.086 146.877C165.932 146.877 166.665 147.049 167.283 147.395C167.902 147.733 168.38 148.225 168.719 148.869C169.057 149.514 169.227 150.292 169.227 151.203C169.227 151.945 169.152 152.661 169.002 153.352C168.859 154.035 168.637 154.673 168.338 155.266C168.038 155.852 167.661 156.366 167.205 156.809C166.749 157.245 166.209 157.587 165.584 157.834C164.965 158.075 164.259 158.195 163.465 158.195ZM163.709 155.803C164.035 155.803 164.331 155.721 164.598 155.559C164.865 155.389 165.102 155.158 165.311 154.865C165.519 154.566 165.691 154.224 165.828 153.84C165.971 153.449 166.079 153.029 166.15 152.58C166.229 152.131 166.268 151.672 166.268 151.203C166.268 150.832 166.222 150.503 166.131 150.217C166.046 149.924 165.9 149.696 165.691 149.533C165.49 149.364 165.216 149.279 164.871 149.279C164.513 149.279 164.191 149.38 163.904 149.582C163.624 149.777 163.38 150.041 163.172 150.373C162.964 150.705 162.791 151.076 162.654 151.486C162.518 151.896 162.413 152.32 162.342 152.756C162.277 153.186 162.244 153.599 162.244 153.996C162.244 154.589 162.365 155.038 162.605 155.344C162.846 155.65 163.214 155.803 163.709 155.803Z" fill="black"/>
<defs>
<clipPath id="clip0_18_18464">
<rect width="197" height="118" fill="white"/>
</clipPath>
</defs>
</svg>
