<svg width="150" height="200" viewBox="0 0 150 200" fill="none" xmlns="http://www.w3.org/2000/svg">
<g clip-path="url(#clip0_18_18466)">
<path d="M144.902 108.665L144.008 107.109L147.245 105.231L143.936 103.496L144.759 101.904L149.517 104.39C149.803 104.533 149.982 104.838 150 105.16C150 105.482 149.839 105.786 149.553 105.947L144.92 108.648L144.902 108.665Z" fill="#3B3B3B"/>
<path d="M113.081 127H103.601V125.211H112.849L114.333 124.353L115.228 125.909L113.528 126.893C113.385 126.964 113.242 127.018 113.081 127.018V127ZM92.1536 127H80.7059V125.211H92.1536V127ZM69.2762 127H57.8285V125.211H69.2762V127ZM46.3988 127H36.9187C36.7577 127 36.6146 126.964 36.4715 126.875L34.7722 125.891L35.6666 124.335L37.1512 125.193H46.3988V126.982V127ZM24.8807 120.149L14.9893 114.407L15.8836 112.851L25.7751 118.593L24.8807 120.149ZM125.119 120.149L124.225 118.593L134.116 112.851L135.011 114.407L125.119 120.149Z" fill="#3B3B3B"/>
<path d="M5.0799 108.666L0.447174 105.965C0.160983 105.804 0 105.499 0 105.177C0 104.856 0.196757 104.551 0.482948 104.408L5.24088 101.922L6.06368 103.514L2.75459 105.249L5.99213 107.127L5.09778 108.683L5.0799 108.666Z" fill="#3B3B3B"/>
<path d="M16.1161 98.2908L15.2933 96.6989L25.3279 91.4758L26.1507 93.0677L16.1161 98.2908ZM133.884 98.2908L123.849 93.0677L124.672 91.4758L134.707 96.6989L133.884 98.2908ZM113.797 87.8267L110.845 86.2884H103.297V84.4997H111.06C111.203 84.4997 111.346 84.5355 111.471 84.607L114.62 86.2527L113.797 87.8446V87.8267ZM36.1853 87.8267L35.3625 86.2348L38.5106 84.5891C38.6358 84.5176 38.7789 84.4818 38.922 84.4818H46.6849V86.2705H39.1366L36.1853 87.8089V87.8267ZM91.9747 86.2884H80.6523V84.4997H91.9747V86.2884ZM69.3298 86.2884H58.0074V84.4997H69.3298V86.2884Z" fill="#3B3B3B"/>
<path d="M36.9185 127C36.7576 127 36.6145 126.964 36.4714 126.875L0.447043 105.964C0.2324 105.839 0.0714173 105.624 0.0177564 105.374C-0.0359045 105.124 0.0177564 104.873 0.160852 104.659L74.2665 0.375446C74.5169 0.0176997 74.9999 -0.107512 75.3934 0.089249C75.7869 0.28601 75.9837 0.733193 75.8585 1.1446L37.7771 126.356C37.7056 126.624 37.5088 126.821 37.2405 126.928C37.1332 126.964 37.0259 126.982 36.9185 126.982V127ZM2.19997 104.909L36.3998 124.764L72.5315 5.90263L2.19997 104.909Z" fill="#3B3B3B"/>
<path d="M113.081 127H36.9187C36.6325 127 36.3642 126.857 36.2032 126.642C36.0422 126.41 35.9885 126.124 36.0601 125.855L74.1414 0.626073C74.3739 -0.125195 75.626 -0.125195 75.8586 0.626073L113.94 125.837C114.029 126.106 113.976 126.41 113.797 126.624C113.636 126.857 113.368 126.982 113.081 126.982V127ZM38.1171 125.211H111.865L75 3.971L38.1171 125.211Z" fill="#3B3B3B"/>
<path d="M113.081 127C112.974 127 112.867 126.982 112.759 126.946C112.509 126.839 112.312 126.642 112.223 126.374L74.1414 1.16267C74.0162 0.751259 74.213 0.286189 74.6065 0.107315C75 -0.0894452 75.483 0.0357661 75.7334 0.393513L149.839 104.694C149.982 104.891 150.036 105.16 149.982 105.41C149.928 105.66 149.767 105.875 149.553 106L113.529 126.911C113.385 126.982 113.242 127.036 113.081 127.036V127ZM77.4505 5.90281L113.6 124.764L147.8 104.909L77.4505 5.90281Z" fill="#3B3B3B"/>
<path d="M39.7627 85.7519L38.1171 85.0543L40.4782 79.5092L42.1238 80.2068L39.7627 85.7519ZM46.3272 70.3509L44.6816 69.6533L48.885 59.7795L50.5306 60.4771L46.3272 70.3509ZM54.752 50.6033L53.1064 49.9057L57.3098 40.0319L58.9554 40.7295L54.752 50.6033ZM63.1767 30.8557L61.5311 30.1581L65.7346 20.2843L67.3802 20.9819L63.1767 30.8557ZM71.6015 11.126L69.9559 10.4284L74.1772 0.554565L75.8228 1.25217L71.6194 11.126H71.6015Z" fill="#3B3B3B"/>
<path d="M110.237 85.7519L107.876 80.2068L109.522 79.5092L111.883 85.0543L110.237 85.7519ZM103.655 70.3509L99.4514 60.4771L101.097 59.7795L105.318 69.6533L103.673 70.3509H103.655ZM95.2301 50.6033L91.0267 40.7295L92.6723 40.0319L96.8757 49.9057L95.2301 50.6033ZM86.8054 30.8557L82.6019 20.9819L84.2475 20.2843L88.451 30.1581L86.8054 30.8557ZM78.3806 11.126L74.1772 1.25217L75.8228 0.554565L80.0441 10.4284L78.3985 11.126H78.3806Z" fill="#3B3B3B"/>
</g>
<path d="M30.6465 167L33.6641 152.723H37.6484C38.8073 152.723 39.735 152.898 40.4316 153.25C41.1348 153.595 41.6426 154.08 41.9551 154.705C42.2741 155.33 42.4336 156.056 42.4336 156.883C42.4336 157.729 42.2773 158.468 41.9648 159.1C41.6523 159.731 41.2129 160.258 40.6465 160.682C40.0866 161.098 39.429 161.411 38.6738 161.619C37.9186 161.821 37.0983 161.922 36.2129 161.922H34.6895L33.625 167H30.6465ZM35.2266 159.441H36.4473C37.0397 159.441 37.5573 159.344 38 159.148C38.4492 158.953 38.7975 158.67 39.0449 158.299C39.2988 157.928 39.4258 157.482 39.4258 156.961C39.4258 156.362 39.2663 155.919 38.9473 155.633C38.6348 155.346 38.1628 155.203 37.5312 155.203H36.125L35.2266 159.441ZM42.6973 167L45.0117 156.082H47.9512L45.6367 167H42.6973ZM46.9551 154.725C46.5384 154.725 46.1868 154.633 45.9004 154.451C45.6204 154.269 45.4805 153.96 45.4805 153.523C45.4805 153.146 45.5488 152.83 45.6855 152.576C45.8288 152.322 46.0339 152.13 46.3008 152C46.5677 151.87 46.8867 151.805 47.2578 151.805C47.6484 151.805 47.987 151.889 48.2734 152.059C48.5664 152.228 48.7129 152.534 48.7129 152.977C48.7129 153.497 48.5697 153.921 48.2832 154.246C47.9967 154.565 47.554 154.725 46.9551 154.725ZM48.6348 167L50.9492 156.082H53.1953L52.9902 158.104H53.0977C53.3906 157.641 53.7096 157.244 54.0547 156.912C54.3997 156.58 54.7741 156.326 55.1777 156.15C55.5814 155.968 56.0208 155.877 56.4961 155.877C56.6523 155.877 56.8184 155.887 56.9941 155.906C57.1764 155.926 57.3229 155.952 57.4336 155.984L56.7891 158.816C56.6849 158.777 56.5449 158.742 56.3691 158.709C56.1999 158.676 56.0143 158.66 55.8125 158.66C55.4479 158.66 55.0996 158.735 54.7676 158.885C54.4355 159.028 54.1296 159.243 53.8496 159.529C53.5697 159.816 53.3223 160.177 53.1074 160.613C52.8991 161.043 52.7331 161.544 52.6094 162.117L51.5742 167H48.6348ZM60.6562 167.195C60.1289 167.195 59.6309 167.065 59.1621 166.805C58.6934 166.544 58.3092 166.124 58.0098 165.545C57.7168 164.965 57.5703 164.197 57.5703 163.24C57.5703 162.524 57.6452 161.814 57.7949 161.111C57.9512 160.408 58.1725 159.744 58.459 159.119C58.752 158.488 59.1035 157.931 59.5137 157.449C59.9303 156.961 60.3991 156.577 60.9199 156.297C61.4473 156.017 62.0169 155.877 62.6289 155.877C63.0911 155.877 63.4948 155.945 63.8398 156.082C64.1849 156.212 64.4811 156.398 64.7285 156.639C64.9759 156.88 65.1777 157.16 65.334 157.479H65.4121L65.9688 156.082H68.2344L65.9102 167H63.7129L63.8496 165.584H63.7715C63.5111 165.903 63.2279 166.183 62.9219 166.424C62.6159 166.665 62.2773 166.854 61.9062 166.99C61.5352 167.127 61.1185 167.195 60.6562 167.195ZM61.8086 164.822C62.2122 164.822 62.5866 164.666 62.9316 164.354C63.2767 164.035 63.5729 163.621 63.8203 163.113C64.0677 162.605 64.2435 162.068 64.3477 161.502C64.3997 161.242 64.4355 160.981 64.4551 160.721C64.4811 160.454 64.4941 160.167 64.4941 159.861C64.4941 159.399 64.3704 159.018 64.123 158.719C63.8822 158.413 63.5501 158.26 63.127 158.26C62.8405 158.26 62.5671 158.354 62.3066 158.543C62.0527 158.725 61.8184 158.979 61.6035 159.305C61.3887 159.624 61.1999 159.992 61.0371 160.408C60.8809 160.818 60.7604 161.255 60.6758 161.717C60.5911 162.179 60.5488 162.641 60.5488 163.104C60.5488 163.67 60.6595 164.1 60.8809 164.393C61.1022 164.679 61.4115 164.822 61.8086 164.822ZM59.9238 154.881V154.637C60.1908 154.389 60.5033 154.093 60.8613 153.748C61.2259 153.396 61.584 153.038 61.9355 152.674C62.2871 152.303 62.5768 151.971 62.8047 151.678H66.1055C66.2422 151.99 66.4082 152.326 66.6035 152.684C66.8053 153.042 67.0137 153.393 67.2285 153.738C67.4499 154.077 67.6484 154.376 67.8242 154.637V154.881H65.8906C65.7409 154.744 65.5716 154.585 65.3828 154.402C65.194 154.22 65.0052 154.028 64.8164 153.826C64.6341 153.618 64.4648 153.423 64.3086 153.24C63.918 153.559 63.5404 153.852 63.1758 154.119C62.8112 154.38 62.4368 154.633 62.0527 154.881H59.9238ZM68.9473 167L71.2617 156.082H73.5078L73.3027 158.104H73.3906C73.6706 157.667 73.9798 157.283 74.3184 156.951C74.6569 156.619 75.0312 156.359 75.4414 156.17C75.8581 155.975 76.3203 155.877 76.8281 155.877C77.5768 155.877 78.1562 156.076 78.5664 156.473C78.9831 156.863 79.2565 157.407 79.3867 158.104H79.4648C79.7383 157.667 80.0475 157.283 80.3926 156.951C80.7376 156.619 81.1217 156.359 81.5449 156.17C81.9746 155.975 82.4401 155.877 82.9414 155.877C83.8529 155.877 84.5332 156.16 84.9824 156.727C85.4382 157.293 85.666 158.058 85.666 159.021C85.666 159.262 85.6465 159.533 85.6074 159.832C85.5684 160.132 85.513 160.447 85.4414 160.779L84.1426 167H81.2031L82.5508 160.623C82.6029 160.402 82.6419 160.193 82.668 159.998C82.694 159.803 82.707 159.624 82.707 159.461C82.707 159.051 82.6257 158.748 82.4629 158.553C82.3066 158.357 82.069 158.26 81.75 158.26C81.4115 158.26 81.099 158.367 80.8125 158.582C80.526 158.797 80.2656 159.096 80.0312 159.48C79.7969 159.865 79.5885 160.311 79.4062 160.818C79.2305 161.326 79.084 161.873 78.9668 162.459L78.0293 167H75.0898L76.4277 160.623C76.4798 160.402 76.5189 160.193 76.5449 159.998C76.571 159.803 76.584 159.624 76.584 159.461C76.584 159.051 76.5026 158.748 76.3398 158.553C76.1836 158.357 75.946 158.26 75.627 158.26C75.2949 158.26 74.9857 158.37 74.6992 158.592C74.4128 158.813 74.1523 159.119 73.918 159.51C73.6836 159.894 73.4753 160.34 73.293 160.848C73.1172 161.355 72.9674 161.899 72.8438 162.479L71.8867 167H68.9473ZM87.0527 167L89.3672 156.082H92.3066L89.9922 167H87.0527ZM91.3105 154.725C90.8939 154.725 90.5423 154.633 90.2559 154.451C89.9759 154.269 89.8359 153.96 89.8359 153.523C89.8359 153.146 89.9043 152.83 90.041 152.576C90.1842 152.322 90.3893 152.13 90.6562 152C90.9232 151.87 91.2422 151.805 91.6133 151.805C92.0039 151.805 92.3424 151.889 92.6289 152.059C92.9219 152.228 93.0684 152.534 93.0684 152.977C93.0684 153.497 92.9251 153.921 92.6387 154.246C92.3522 154.565 91.9095 154.725 91.3105 154.725ZM96.5938 167.195C96.0664 167.195 95.5684 167.065 95.0996 166.805C94.6309 166.544 94.2467 166.124 93.9473 165.545C93.6543 164.959 93.5078 164.184 93.5078 163.221C93.5078 162.511 93.5827 161.805 93.7324 161.102C93.8887 160.398 94.11 159.734 94.3965 159.109C94.6895 158.478 95.041 157.921 95.4512 157.439C95.8678 156.951 96.3366 156.57 96.8574 156.297C97.3848 156.017 97.9544 155.877 98.5664 155.877C99.0026 155.877 99.3704 155.949 99.6699 156.092C99.9759 156.235 100.24 156.427 100.461 156.668C100.682 156.909 100.878 157.179 101.047 157.479H101.125C101.125 157.439 101.135 157.296 101.154 157.049C101.174 156.801 101.203 156.518 101.242 156.199C101.281 155.874 101.33 155.574 101.389 155.301L102.131 151.805H105.07L101.848 167H99.6113L99.7871 165.584H99.709C99.4486 165.903 99.1654 166.183 98.8594 166.424C98.5599 166.665 98.2246 166.854 97.8535 166.99C97.4824 167.127 97.0625 167.195 96.5938 167.195ZM97.8242 164.822C98.1302 164.822 98.4069 164.741 98.6543 164.578C98.9082 164.409 99.1296 164.188 99.3184 163.914C99.5137 163.634 99.6797 163.322 99.8164 162.977C99.9596 162.632 100.077 162.28 100.168 161.922C100.259 161.557 100.324 161.206 100.363 160.867C100.409 160.529 100.432 160.232 100.432 159.979C100.432 159.458 100.308 159.041 100.061 158.729C99.8197 158.416 99.4876 158.26 99.0645 158.26C98.778 158.26 98.5046 158.354 98.2441 158.543C97.9902 158.725 97.7559 158.979 97.541 159.305C97.3262 159.624 97.1374 159.992 96.9746 160.408C96.8184 160.818 96.6979 161.255 96.6133 161.717C96.5286 162.179 96.4863 162.641 96.4863 163.104C96.4863 163.67 96.6003 164.1 96.8281 164.393C97.0625 164.679 97.3945 164.822 97.8242 164.822ZM109.719 167.195C108.866 167.195 108.114 167.042 107.463 166.736C106.818 166.424 106.314 165.955 105.949 165.33C105.585 164.705 105.402 163.921 105.402 162.977C105.402 162.065 105.533 161.186 105.793 160.34C106.053 159.487 106.441 158.725 106.955 158.055C107.476 157.384 108.114 156.854 108.869 156.463C109.631 156.072 110.51 155.877 111.506 155.877C112.73 155.877 113.645 156.157 114.25 156.717C114.862 157.27 115.168 157.983 115.168 158.855C115.168 159.428 115.038 159.949 114.777 160.418C114.523 160.887 114.136 161.29 113.615 161.629C113.094 161.961 112.44 162.218 111.652 162.4C110.865 162.576 109.94 162.664 108.879 162.664H108.381C108.374 162.742 108.368 162.811 108.361 162.869C108.361 162.928 108.361 162.993 108.361 163.064C108.361 163.65 108.531 164.116 108.869 164.461C109.208 164.806 109.686 164.979 110.305 164.979C110.878 164.979 111.398 164.913 111.867 164.783C112.336 164.653 112.889 164.438 113.527 164.139V166.355C112.954 166.635 112.372 166.847 111.779 166.99C111.187 167.127 110.5 167.195 109.719 167.195ZM108.703 160.682H109.143C109.898 160.682 110.51 160.6 110.979 160.438C111.454 160.275 111.799 160.06 112.014 159.793C112.235 159.526 112.346 159.236 112.346 158.924C112.346 158.611 112.255 158.38 112.072 158.23C111.896 158.074 111.646 157.996 111.32 157.996C110.956 157.996 110.594 158.11 110.236 158.338C109.878 158.566 109.562 158.882 109.289 159.285C109.016 159.689 108.82 160.154 108.703 160.682ZM26.7598 194L29.9824 178.805H32.9219L32.3555 181.441C32.2969 181.741 32.2155 182.083 32.1113 182.467C32.0137 182.844 31.9095 183.219 31.7988 183.59C31.6882 183.954 31.5872 184.27 31.4961 184.537H31.5742C31.8411 184.205 32.1276 183.915 32.4336 183.668C32.7461 183.414 33.0846 183.219 33.4492 183.082C33.8138 182.945 34.2109 182.877 34.6406 182.877C35.2656 182.877 35.7865 183.007 36.2031 183.268C36.6263 183.521 36.9421 183.883 37.1504 184.352C37.3587 184.82 37.4629 185.377 37.4629 186.021C37.4629 186.262 37.4434 186.533 37.4043 186.832C37.3652 187.132 37.3099 187.447 37.2383 187.779L35.9395 194H33L34.3379 187.623C34.39 187.402 34.429 187.193 34.4551 186.998C34.4811 186.803 34.4941 186.624 34.4941 186.461C34.4941 186.051 34.4062 185.748 34.2305 185.553C34.0547 185.357 33.791 185.26 33.4395 185.26C32.9967 185.26 32.5964 185.452 32.2383 185.836C31.8802 186.214 31.5677 186.721 31.3008 187.359C31.0404 187.997 30.8255 188.704 30.6562 189.479L29.6992 194H26.7598ZM43.6836 194.195C42.8307 194.195 42.0788 194.042 41.4277 193.736C40.7832 193.424 40.2786 192.955 39.9141 192.33C39.5495 191.705 39.3672 190.921 39.3672 189.977C39.3672 189.065 39.4974 188.186 39.7578 187.34C40.0182 186.487 40.4056 185.725 40.9199 185.055C41.4408 184.384 42.0788 183.854 42.834 183.463C43.5957 183.072 44.4746 182.877 45.4707 182.877C46.6947 182.877 47.6094 183.157 48.2148 183.717C48.8268 184.27 49.1328 184.983 49.1328 185.855C49.1328 186.428 49.0026 186.949 48.7422 187.418C48.4883 187.887 48.1009 188.29 47.5801 188.629C47.0592 188.961 46.4049 189.218 45.6172 189.4C44.8294 189.576 43.9049 189.664 42.8438 189.664H42.3457C42.3392 189.742 42.3327 189.811 42.3262 189.869C42.3262 189.928 42.3262 189.993 42.3262 190.064C42.3262 190.65 42.4954 191.116 42.834 191.461C43.1725 191.806 43.651 191.979 44.2695 191.979C44.8424 191.979 45.3633 191.913 45.832 191.783C46.3008 191.653 46.8542 191.438 47.4922 191.139V193.355C46.9193 193.635 46.3366 193.847 45.7441 193.99C45.1517 194.127 44.4648 194.195 43.6836 194.195ZM42.668 187.682H43.1074C43.8626 187.682 44.4746 187.6 44.9434 187.438C45.4186 187.275 45.7637 187.06 45.9785 186.793C46.1999 186.526 46.3105 186.236 46.3105 185.924C46.3105 185.611 46.2194 185.38 46.0371 185.23C45.8613 185.074 45.6107 184.996 45.2852 184.996C44.9206 184.996 44.5592 185.11 44.2012 185.338C43.8431 185.566 43.5273 185.882 43.2539 186.285C42.9805 186.689 42.7852 187.154 42.668 187.682ZM48.6641 194L53.3418 188.404L51.1445 183.082H54.2793L55.4023 186.344L57.7852 183.082H61.2422L56.6816 188.561L59.0645 194H55.8809L54.6602 190.66L52.082 194H48.6641ZM64.2305 194.195C63.7031 194.195 63.2051 194.065 62.7363 193.805C62.2676 193.544 61.8835 193.124 61.584 192.545C61.291 191.965 61.1445 191.197 61.1445 190.24C61.1445 189.524 61.2194 188.814 61.3691 188.111C61.5254 187.408 61.7467 186.744 62.0332 186.119C62.3262 185.488 62.6777 184.931 63.0879 184.449C63.5046 183.961 63.9733 183.577 64.4941 183.297C65.0215 183.017 65.5911 182.877 66.2031 182.877C66.6654 182.877 67.069 182.945 67.4141 183.082C67.7591 183.212 68.0553 183.398 68.3027 183.639C68.5501 183.88 68.752 184.16 68.9082 184.479H68.9863L69.543 183.082H71.8086L69.4844 194H67.2871L67.4238 192.584H67.3457C67.0853 192.903 66.8021 193.183 66.4961 193.424C66.1901 193.665 65.8516 193.854 65.4805 193.99C65.1094 194.127 64.6927 194.195 64.2305 194.195ZM65.3828 191.822C65.7865 191.822 66.1608 191.666 66.5059 191.354C66.8509 191.035 67.1471 190.621 67.3945 190.113C67.6419 189.605 67.8177 189.068 67.9219 188.502C67.974 188.242 68.0098 187.981 68.0293 187.721C68.0553 187.454 68.0684 187.167 68.0684 186.861C68.0684 186.399 67.9447 186.018 67.6973 185.719C67.4564 185.413 67.1243 185.26 66.7012 185.26C66.4147 185.26 66.1413 185.354 65.8809 185.543C65.627 185.725 65.3926 185.979 65.1777 186.305C64.9629 186.624 64.7741 186.992 64.6113 187.408C64.4551 187.818 64.3346 188.255 64.25 188.717C64.1654 189.179 64.123 189.641 64.123 190.104C64.123 190.67 64.2337 191.1 64.4551 191.393C64.6764 191.679 64.9857 191.822 65.3828 191.822ZM75.3438 198.805C73.9896 198.805 72.9316 198.557 72.1699 198.062C71.4147 197.574 71.0371 196.9 71.0371 196.041C71.0371 195.377 71.2617 194.804 71.7109 194.322C72.1536 193.847 72.8503 193.453 73.8008 193.141C73.5599 192.991 73.3776 192.809 73.2539 192.594C73.1367 192.372 73.0781 192.122 73.0781 191.842C73.0781 191.38 73.2214 190.982 73.5078 190.65C73.8008 190.312 74.2793 189.99 74.9434 189.684C74.5202 189.365 74.2077 189 74.0059 188.59C73.804 188.18 73.7031 187.682 73.7031 187.096C73.7031 186.471 73.8008 185.904 73.9961 185.396C74.1979 184.882 74.4844 184.446 74.8555 184.088C75.2526 183.697 75.7376 183.398 76.3105 183.189C76.8835 182.981 77.5345 182.877 78.2637 182.877C78.5306 182.877 78.8008 182.896 79.0742 182.936C79.3477 182.975 79.6178 183.03 79.8848 183.102H83.7422L83.4004 184.723L81.7012 185.123C81.7533 185.292 81.7923 185.475 81.8184 185.67C81.8444 185.859 81.8574 186.061 81.8574 186.275C81.8574 186.887 81.7598 187.444 81.5645 187.945C81.3757 188.44 81.1022 188.867 80.7441 189.225C80.3665 189.602 79.8978 189.892 79.3379 190.094C78.7845 190.296 78.1595 190.396 77.4629 190.396C77.2741 190.396 77.0983 190.39 76.9355 190.377C76.7728 190.357 76.6263 190.331 76.4961 190.299C76.2227 190.383 76.0176 190.491 75.8809 190.621C75.7441 190.745 75.6758 190.891 75.6758 191.061C75.6758 191.21 75.7246 191.334 75.8223 191.432C75.9134 191.516 76.0436 191.585 76.2129 191.637C76.3822 191.689 76.5905 191.731 76.8379 191.764L78.1758 191.939C78.8854 192.031 79.4616 192.184 79.9043 192.398C80.3535 192.607 80.6855 192.89 80.9004 193.248C81.1152 193.6 81.2227 194.036 81.2227 194.557C81.2227 195.266 81.0859 195.888 80.8125 196.422C80.5391 196.962 80.1354 197.415 79.6016 197.779C79.1068 198.118 78.5013 198.372 77.7852 198.541C77.069 198.717 76.2552 198.805 75.3438 198.805ZM75.5195 196.803C76.0599 196.803 76.5286 196.757 76.9258 196.666C77.3294 196.575 77.6517 196.441 77.8926 196.266C78.0944 196.122 78.2441 195.956 78.3418 195.768C78.446 195.579 78.498 195.364 78.498 195.123C78.498 195.019 78.4818 194.928 78.4492 194.85C78.4232 194.778 78.3809 194.713 78.3223 194.654C78.1986 194.524 78.0293 194.426 77.8145 194.361C77.6061 194.303 77.3522 194.254 77.0527 194.215L75.7246 194.059C75.2689 194.117 74.8848 194.218 74.5723 194.361C74.2598 194.511 74.0221 194.697 73.8594 194.918C73.7031 195.139 73.625 195.393 73.625 195.68C73.625 196.057 73.7812 196.337 74.0938 196.52C74.4128 196.708 74.888 196.803 75.5195 196.803ZM77.4824 188.521C77.8079 188.521 78.0944 188.408 78.3418 188.18C78.5892 187.952 78.7812 187.639 78.918 187.242C79.0547 186.845 79.123 186.393 79.123 185.885C79.123 185.676 79.097 185.497 79.0449 185.348C78.9993 185.198 78.931 185.077 78.8398 184.986C78.7617 184.902 78.6641 184.84 78.5469 184.801C78.4362 184.762 78.306 184.742 78.1562 184.742C77.9023 184.742 77.6712 184.811 77.4629 184.947C77.2611 185.077 77.0853 185.263 76.9355 185.504C76.7923 185.738 76.6784 186.015 76.5938 186.334C76.5156 186.646 76.4766 186.988 76.4766 187.359C76.4766 187.477 76.4831 187.584 76.4961 187.682C76.5156 187.779 76.5384 187.87 76.5645 187.955C76.7077 188.333 77.0137 188.521 77.4824 188.521ZM88.0391 194.195C87.2188 194.195 86.4928 194.026 85.8613 193.688C85.2363 193.349 84.7448 192.867 84.3867 192.242C84.0352 191.611 83.8594 190.862 83.8594 189.996C83.8594 189.221 83.9342 188.482 84.084 187.779C84.2402 187.07 84.4714 186.419 84.7773 185.826C85.0898 185.227 85.4772 184.71 85.9395 184.273C86.4082 183.831 86.9518 183.489 87.5703 183.248C88.1888 183.001 88.8854 182.877 89.6602 182.877C90.5065 182.877 91.2389 183.049 91.8574 183.395C92.4759 183.733 92.9544 184.225 93.293 184.869C93.6315 185.514 93.8008 186.292 93.8008 187.203C93.8008 187.945 93.7259 188.661 93.5762 189.352C93.4329 190.035 93.2116 190.673 92.9121 191.266C92.6126 191.852 92.235 192.366 91.7793 192.809C91.3236 193.245 90.7832 193.587 90.1582 193.834C89.5397 194.075 88.8333 194.195 88.0391 194.195ZM88.2832 191.803C88.6087 191.803 88.9049 191.721 89.1719 191.559C89.4388 191.389 89.6764 191.158 89.8848 190.865C90.0931 190.566 90.2656 190.224 90.4023 189.84C90.5456 189.449 90.653 189.029 90.7246 188.58C90.8027 188.131 90.8418 187.672 90.8418 187.203C90.8418 186.832 90.7962 186.503 90.7051 186.217C90.6204 185.924 90.474 185.696 90.2656 185.533C90.0638 185.364 89.7904 185.279 89.4453 185.279C89.0872 185.279 88.765 185.38 88.4785 185.582C88.1986 185.777 87.9544 186.041 87.7461 186.373C87.5378 186.705 87.3652 187.076 87.2285 187.486C87.0918 187.896 86.9876 188.32 86.916 188.756C86.8509 189.186 86.8184 189.599 86.8184 189.996C86.8184 190.589 86.9388 191.038 87.1797 191.344C87.4206 191.65 87.7884 191.803 88.2832 191.803ZM95.041 194L97.3555 183.082H99.6016L99.3965 185.104H99.4844C99.7643 184.667 100.074 184.283 100.412 183.951C100.751 183.619 101.125 183.359 101.535 183.17C101.952 182.975 102.414 182.877 102.922 182.877C103.547 182.877 104.068 183.007 104.484 183.268C104.908 183.521 105.223 183.883 105.432 184.352C105.64 184.82 105.744 185.377 105.744 186.021C105.744 186.262 105.725 186.533 105.686 186.832C105.646 187.132 105.591 187.447 105.52 187.779L104.221 194H101.281L102.619 187.623C102.671 187.402 102.71 187.193 102.736 186.998C102.762 186.803 102.775 186.624 102.775 186.461C102.775 186.051 102.688 185.748 102.512 185.553C102.336 185.357 102.072 185.26 101.721 185.26C101.278 185.26 100.878 185.452 100.52 185.836C100.161 186.214 99.849 186.721 99.582 187.359C99.3216 187.997 99.1068 188.704 98.9375 189.479L97.9805 194H95.041ZM110.734 194.195C110.207 194.195 109.709 194.065 109.24 193.805C108.771 193.544 108.387 193.124 108.088 192.545C107.795 191.965 107.648 191.197 107.648 190.24C107.648 189.524 107.723 188.814 107.873 188.111C108.029 187.408 108.251 186.744 108.537 186.119C108.83 185.488 109.182 184.931 109.592 184.449C110.008 183.961 110.477 183.577 110.998 183.297C111.525 183.017 112.095 182.877 112.707 182.877C113.169 182.877 113.573 182.945 113.918 183.082C114.263 183.212 114.559 183.398 114.807 183.639C115.054 183.88 115.256 184.16 115.412 184.479H115.49L116.047 183.082H118.312L115.988 194H113.791L113.928 192.584H113.85C113.589 192.903 113.306 193.183 113 193.424C112.694 193.665 112.355 193.854 111.984 193.99C111.613 194.127 111.197 194.195 110.734 194.195ZM111.887 191.822C112.29 191.822 112.665 191.666 113.01 191.354C113.355 191.035 113.651 190.621 113.898 190.113C114.146 189.605 114.322 189.068 114.426 188.502C114.478 188.242 114.514 187.981 114.533 187.721C114.559 187.454 114.572 187.167 114.572 186.861C114.572 186.399 114.449 186.018 114.201 185.719C113.96 185.413 113.628 185.26 113.205 185.26C112.919 185.26 112.645 185.354 112.385 185.543C112.131 185.725 111.896 185.979 111.682 186.305C111.467 186.624 111.278 186.992 111.115 187.408C110.959 187.818 110.839 188.255 110.754 188.717C110.669 189.179 110.627 189.641 110.627 190.104C110.627 190.67 110.738 191.1 110.959 191.393C111.18 191.679 111.49 191.822 111.887 191.822ZM119.025 194L122.248 178.805H125.188L121.965 194H119.025Z" fill="black"/>
<defs>
<clipPath id="clip0_18_18466">
<rect width="150" height="127" fill="white"/>
</clipPath>
</defs>
</svg>
