<svg width="168" height="182" viewBox="0 0 168 182" fill="none" xmlns="http://www.w3.org/2000/svg">
<g clip-path="url(#clip0_18_18468)">
<path fill-rule="evenodd" clip-rule="evenodd" d="M37.5284 17.0838L70.9859 0.333008L135.674 14.2941L131.772 122.081L40.8723 127.667L37.5284 17.0838Z" stroke="black" stroke-miterlimit="10"/>
<path d="M37.5284 17.0839L135.674 14.2942" stroke="black" stroke-miterlimit="10"/>
<path d="M70.9859 0.333008L70.1515 96.9488" stroke="black" stroke-miterlimit="10" stroke-dasharray="9 9"/>
<path d="M40.8723 127.667L70.1515 96.9487" stroke="black" stroke-miterlimit="10" stroke-dasharray="9 9"/>
<path d="M131.772 122.081L70.1515 96.9487" stroke="black" stroke-miterlimit="10" stroke-dasharray="9 9"/>
</g>
<path d="M0.550781 176L3.56836 161.723H7.55273C8.71159 161.723 9.63932 161.898 10.3359 162.25C11.0391 162.595 11.5469 163.08 11.8594 163.705C12.1784 164.33 12.3379 165.056 12.3379 165.883C12.3379 166.729 12.1816 167.468 11.8691 168.1C11.5566 168.731 11.1172 169.258 10.5508 169.682C9.99089 170.098 9.33333 170.411 8.57812 170.619C7.82292 170.821 7.0026 170.922 6.11719 170.922H4.59375L3.5293 176H0.550781ZM5.13086 168.441H6.35156C6.94401 168.441 7.46159 168.344 7.9043 168.148C8.35352 167.953 8.70182 167.67 8.94922 167.299C9.20312 166.928 9.33008 166.482 9.33008 165.961C9.33008 165.362 9.17057 164.919 8.85156 164.633C8.53906 164.346 8.06706 164.203 7.43555 164.203H6.0293L5.13086 168.441ZM12.6016 176L14.916 165.082H17.1621L16.957 167.104H17.0645C17.3574 166.641 17.6764 166.244 18.0215 165.912C18.3665 165.58 18.7409 165.326 19.1445 165.15C19.5482 164.968 19.9876 164.877 20.4629 164.877C20.6191 164.877 20.7852 164.887 20.9609 164.906C21.1432 164.926 21.2897 164.952 21.4004 164.984L20.7559 167.816C20.6517 167.777 20.5117 167.742 20.3359 167.709C20.1667 167.676 19.9811 167.66 19.7793 167.66C19.4147 167.66 19.0664 167.735 18.7344 167.885C18.4023 168.028 18.0964 168.243 17.8164 168.529C17.5365 168.816 17.2891 169.177 17.0742 169.613C16.8659 170.043 16.6999 170.544 16.5762 171.117L15.541 176H12.6016ZM21.0195 176L23.334 165.082H26.2734L23.959 176H21.0195ZM25.2773 163.725C24.8607 163.725 24.5091 163.633 24.2227 163.451C23.9427 163.269 23.8027 162.96 23.8027 162.523C23.8027 162.146 23.8711 161.83 24.0078 161.576C24.151 161.322 24.3561 161.13 24.623 161C24.89 160.87 25.209 160.805 25.5801 160.805C25.9707 160.805 26.3092 160.889 26.5957 161.059C26.8887 161.228 27.0352 161.534 27.0352 161.977C27.0352 162.497 26.8919 162.921 26.6055 163.246C26.319 163.565 25.8763 163.725 25.2773 163.725ZM30.0918 176.195C29.3952 176.195 28.7865 176.146 28.2656 176.049C27.7513 175.951 27.2695 175.788 26.8203 175.561V173.139C27.3086 173.419 27.8099 173.637 28.3242 173.793C28.8451 173.943 29.3822 174.018 29.9355 174.018C30.2415 174.018 30.528 173.975 30.7949 173.891C31.0684 173.806 31.2897 173.676 31.459 173.5C31.6283 173.324 31.7129 173.103 31.7129 172.836C31.7129 172.654 31.6706 172.491 31.5859 172.348C31.5013 172.204 31.3385 172.048 31.0977 171.879C30.8633 171.703 30.5215 171.492 30.0723 171.244C29.623 170.99 29.2389 170.73 28.9199 170.463C28.6074 170.196 28.3665 169.893 28.1973 169.555C28.0345 169.216 27.9531 168.819 27.9531 168.363C27.9531 167.608 28.1191 166.973 28.4512 166.459C28.7832 165.938 29.2585 165.544 29.877 165.277C30.502 165.01 31.2474 164.877 32.1133 164.877C32.7448 164.877 33.3535 164.949 33.9395 165.092C34.5254 165.235 35.0983 165.473 35.6582 165.805L34.6914 167.904C34.3073 167.67 33.8971 167.475 33.4609 167.318C33.0312 167.162 32.6016 167.084 32.1719 167.084C31.8529 167.084 31.5664 167.159 31.3125 167.309C31.0586 167.458 30.9316 167.689 30.9316 168.002C30.9316 168.171 30.9772 168.327 31.0684 168.471C31.1595 168.607 31.3125 168.747 31.5273 168.891C31.7487 169.034 32.0449 169.203 32.416 169.398C32.8587 169.626 33.2493 169.88 33.5879 170.16C33.9329 170.434 34.2031 170.753 34.3984 171.117C34.5938 171.475 34.6914 171.902 34.6914 172.396C34.6914 173.23 34.5026 173.93 34.125 174.496C33.7474 175.056 33.2135 175.479 32.5234 175.766C31.8398 176.052 31.0293 176.195 30.0918 176.195ZM36.4297 176L38.7441 165.082H40.9902L40.7852 167.104H40.873C41.153 166.667 41.4622 166.283 41.8008 165.951C42.1393 165.619 42.5137 165.359 42.9238 165.17C43.3405 164.975 43.8027 164.877 44.3105 164.877C45.0592 164.877 45.6387 165.076 46.0488 165.473C46.4655 165.863 46.7389 166.407 46.8691 167.104H46.9473C47.2207 166.667 47.5299 166.283 47.875 165.951C48.2201 165.619 48.6042 165.359 49.0273 165.17C49.457 164.975 49.9225 164.877 50.4238 164.877C51.3353 164.877 52.0156 165.16 52.4648 165.727C52.9206 166.293 53.1484 167.058 53.1484 168.021C53.1484 168.262 53.1289 168.533 53.0898 168.832C53.0508 169.132 52.9954 169.447 52.9238 169.779L51.625 176H48.6855L50.0332 169.623C50.0853 169.402 50.1243 169.193 50.1504 168.998C50.1764 168.803 50.1895 168.624 50.1895 168.461C50.1895 168.051 50.1081 167.748 49.9453 167.553C49.7891 167.357 49.5514 167.26 49.2324 167.26C48.8939 167.26 48.5814 167.367 48.2949 167.582C48.0085 167.797 47.748 168.096 47.5137 168.48C47.2793 168.865 47.071 169.311 46.8887 169.818C46.7129 170.326 46.5664 170.873 46.4492 171.459L45.5117 176H42.5723L43.9102 169.623C43.9622 169.402 44.0013 169.193 44.0273 168.998C44.0534 168.803 44.0664 168.624 44.0664 168.461C44.0664 168.051 43.985 167.748 43.8223 167.553C43.666 167.357 43.4284 167.26 43.1094 167.26C42.7773 167.26 42.4681 167.37 42.1816 167.592C41.8952 167.813 41.6348 168.119 41.4004 168.51C41.166 168.894 40.9577 169.34 40.7754 169.848C40.5996 170.355 40.4499 170.899 40.3262 171.479L39.3691 176H36.4297ZM58.1387 176.195C57.6113 176.195 57.1133 176.065 56.6445 175.805C56.1758 175.544 55.7917 175.124 55.4922 174.545C55.1992 173.965 55.0527 173.197 55.0527 172.24C55.0527 171.524 55.1276 170.814 55.2773 170.111C55.4336 169.408 55.6549 168.744 55.9414 168.119C56.2344 167.488 56.5859 166.931 56.9961 166.449C57.4128 165.961 57.8815 165.577 58.4023 165.297C58.9297 165.017 59.4993 164.877 60.1113 164.877C60.5736 164.877 60.9772 164.945 61.3223 165.082C61.6673 165.212 61.9635 165.398 62.2109 165.639C62.4583 165.88 62.6602 166.16 62.8164 166.479H62.8945L63.4512 165.082H65.7168L63.3926 176H61.1953L61.332 174.584H61.2539C60.9935 174.903 60.7103 175.183 60.4043 175.424C60.0983 175.665 59.7598 175.854 59.3887 175.99C59.0176 176.127 58.6009 176.195 58.1387 176.195ZM59.291 173.822C59.6947 173.822 60.069 173.666 60.4141 173.354C60.7591 173.035 61.0553 172.621 61.3027 172.113C61.5501 171.605 61.7259 171.068 61.8301 170.502C61.8822 170.242 61.918 169.981 61.9375 169.721C61.9635 169.454 61.9766 169.167 61.9766 168.861C61.9766 168.399 61.8529 168.018 61.6055 167.719C61.3646 167.413 61.0326 167.26 60.6094 167.26C60.3229 167.26 60.0495 167.354 59.7891 167.543C59.5352 167.725 59.3008 167.979 59.0859 168.305C58.8711 168.624 58.6823 168.992 58.5195 169.408C58.3633 169.818 58.2428 170.255 58.1582 170.717C58.0736 171.179 58.0312 171.641 58.0312 172.104C58.0312 172.67 58.1419 173.1 58.3633 173.393C58.5846 173.679 58.8939 173.822 59.291 173.822ZM75.2676 176.195C74.4017 176.195 73.7116 176.013 73.1973 175.648C72.6829 175.284 72.4258 174.626 72.4258 173.676C72.4258 173.52 72.4355 173.35 72.4551 173.168C72.4746 172.979 72.5039 172.784 72.543 172.582L73.666 167.318H72.1816L72.4648 165.883L74.3789 165.062L75.668 162.758H77.5625L77.084 165.082H79.8477L79.3594 167.318H76.6055L75.4824 172.582C75.4629 172.68 75.4466 172.777 75.4336 172.875C75.4271 172.966 75.4238 173.041 75.4238 173.1C75.4238 173.36 75.502 173.546 75.6582 173.656C75.8145 173.767 76.0228 173.822 76.2832 173.822C76.5501 173.822 76.804 173.793 77.0449 173.734C77.2923 173.669 77.5658 173.585 77.8652 173.48V175.678C77.5527 175.827 77.1751 175.951 76.7324 176.049C76.2962 176.146 75.8079 176.195 75.2676 176.195ZM79.8281 176L82.1426 165.082H84.3887L84.1836 167.104H84.291C84.584 166.641 84.903 166.244 85.248 165.912C85.5931 165.58 85.9674 165.326 86.3711 165.15C86.7747 164.968 87.2142 164.877 87.6895 164.877C87.8457 164.877 88.0117 164.887 88.1875 164.906C88.3698 164.926 88.5163 164.952 88.627 164.984L87.9824 167.816C87.8783 167.777 87.7383 167.742 87.5625 167.709C87.3932 167.676 87.2077 167.66 87.0059 167.66C86.6413 167.66 86.293 167.735 85.9609 167.885C85.6289 168.028 85.3229 168.243 85.043 168.529C84.763 168.816 84.5156 169.177 84.3008 169.613C84.0924 170.043 83.9264 170.544 83.8027 171.117L82.7676 176H79.8281ZM88.2461 176L90.5605 165.082H93.5L91.1855 176H88.2461ZM92.5039 163.725C92.0872 163.725 91.7357 163.633 91.4492 163.451C91.1693 163.269 91.0293 162.96 91.0293 162.523C91.0293 162.146 91.0977 161.83 91.2344 161.576C91.3776 161.322 91.5827 161.13 91.8496 161C92.1165 160.87 92.4355 160.805 92.8066 160.805C93.1973 160.805 93.5358 160.889 93.8223 161.059C94.1152 161.228 94.2617 161.534 94.2617 161.977C94.2617 162.497 94.1185 162.921 93.832 163.246C93.5456 163.565 93.1029 163.725 92.5039 163.725ZM97.7871 176.195C97.2598 176.195 96.7617 176.065 96.293 175.805C95.8242 175.544 95.4401 175.124 95.1406 174.545C94.8477 173.965 94.7012 173.197 94.7012 172.24C94.7012 171.524 94.776 170.814 94.9258 170.111C95.082 169.408 95.3034 168.744 95.5898 168.119C95.8828 167.488 96.2344 166.931 96.6445 166.449C97.0612 165.961 97.5299 165.577 98.0508 165.297C98.5781 165.017 99.1478 164.877 99.7598 164.877C100.222 164.877 100.626 164.945 100.971 165.082C101.316 165.212 101.612 165.398 101.859 165.639C102.107 165.88 102.309 166.16 102.465 166.479H102.543L103.1 165.082H105.365L103.041 176H100.844L100.98 174.584H100.902C100.642 174.903 100.359 175.183 100.053 175.424C99.7467 175.665 99.4082 175.854 99.0371 175.99C98.666 176.127 98.2493 176.195 97.7871 176.195ZM98.9395 173.822C99.3431 173.822 99.7174 173.666 100.062 173.354C100.408 173.035 100.704 172.621 100.951 172.113C101.199 171.605 101.374 171.068 101.479 170.502C101.531 170.242 101.566 169.981 101.586 169.721C101.612 169.454 101.625 169.167 101.625 168.861C101.625 168.399 101.501 168.018 101.254 167.719C101.013 167.413 100.681 167.26 100.258 167.26C99.9714 167.26 99.6979 167.354 99.4375 167.543C99.1836 167.725 98.9492 167.979 98.7344 168.305C98.5195 168.624 98.3307 168.992 98.168 169.408C98.0117 169.818 97.8913 170.255 97.8066 170.717C97.722 171.179 97.6797 171.641 97.6797 172.104C97.6797 172.67 97.7904 173.1 98.0117 173.393C98.2331 173.679 98.5423 173.822 98.9395 173.822ZM106.078 176L108.393 165.082H110.639L110.434 167.104H110.521C110.801 166.667 111.111 166.283 111.449 165.951C111.788 165.619 112.162 165.359 112.572 165.17C112.989 164.975 113.451 164.877 113.959 164.877C114.584 164.877 115.105 165.007 115.521 165.268C115.945 165.521 116.26 165.883 116.469 166.352C116.677 166.82 116.781 167.377 116.781 168.021C116.781 168.262 116.762 168.533 116.723 168.832C116.684 169.132 116.628 169.447 116.557 169.779L115.258 176H112.318L113.656 169.623C113.708 169.402 113.747 169.193 113.773 168.998C113.799 168.803 113.812 168.624 113.812 168.461C113.812 168.051 113.725 167.748 113.549 167.553C113.373 167.357 113.109 167.26 112.758 167.26C112.315 167.26 111.915 167.452 111.557 167.836C111.199 168.214 110.886 168.721 110.619 169.359C110.359 169.997 110.144 170.704 109.975 171.479L109.018 176H106.078ZM120.99 180.805C119.636 180.805 118.578 180.557 117.816 180.062C117.061 179.574 116.684 178.9 116.684 178.041C116.684 177.377 116.908 176.804 117.357 176.322C117.8 175.847 118.497 175.453 119.447 175.141C119.206 174.991 119.024 174.809 118.9 174.594C118.783 174.372 118.725 174.122 118.725 173.842C118.725 173.38 118.868 172.982 119.154 172.65C119.447 172.312 119.926 171.99 120.59 171.684C120.167 171.365 119.854 171 119.652 170.59C119.451 170.18 119.35 169.682 119.35 169.096C119.35 168.471 119.447 167.904 119.643 167.396C119.844 166.882 120.131 166.446 120.502 166.088C120.899 165.697 121.384 165.398 121.957 165.189C122.53 164.981 123.181 164.877 123.91 164.877C124.177 164.877 124.447 164.896 124.721 164.936C124.994 164.975 125.264 165.03 125.531 165.102H129.389L129.047 166.723L127.348 167.123C127.4 167.292 127.439 167.475 127.465 167.67C127.491 167.859 127.504 168.061 127.504 168.275C127.504 168.887 127.406 169.444 127.211 169.945C127.022 170.44 126.749 170.867 126.391 171.225C126.013 171.602 125.544 171.892 124.984 172.094C124.431 172.296 123.806 172.396 123.109 172.396C122.921 172.396 122.745 172.39 122.582 172.377C122.419 172.357 122.273 172.331 122.143 172.299C121.869 172.383 121.664 172.491 121.527 172.621C121.391 172.745 121.322 172.891 121.322 173.061C121.322 173.21 121.371 173.334 121.469 173.432C121.56 173.516 121.69 173.585 121.859 173.637C122.029 173.689 122.237 173.731 122.484 173.764L123.822 173.939C124.532 174.031 125.108 174.184 125.551 174.398C126 174.607 126.332 174.89 126.547 175.248C126.762 175.6 126.869 176.036 126.869 176.557C126.869 177.266 126.732 177.888 126.459 178.422C126.186 178.962 125.782 179.415 125.248 179.779C124.753 180.118 124.148 180.372 123.432 180.541C122.715 180.717 121.902 180.805 120.99 180.805ZM121.166 178.803C121.706 178.803 122.175 178.757 122.572 178.666C122.976 178.575 123.298 178.441 123.539 178.266C123.741 178.122 123.891 177.956 123.988 177.768C124.092 177.579 124.145 177.364 124.145 177.123C124.145 177.019 124.128 176.928 124.096 176.85C124.07 176.778 124.027 176.713 123.969 176.654C123.845 176.524 123.676 176.426 123.461 176.361C123.253 176.303 122.999 176.254 122.699 176.215L121.371 176.059C120.915 176.117 120.531 176.218 120.219 176.361C119.906 176.511 119.669 176.697 119.506 176.918C119.35 177.139 119.271 177.393 119.271 177.68C119.271 178.057 119.428 178.337 119.74 178.52C120.059 178.708 120.535 178.803 121.166 178.803ZM123.129 170.521C123.454 170.521 123.741 170.408 123.988 170.18C124.236 169.952 124.428 169.639 124.564 169.242C124.701 168.845 124.77 168.393 124.77 167.885C124.77 167.676 124.743 167.497 124.691 167.348C124.646 167.198 124.577 167.077 124.486 166.986C124.408 166.902 124.311 166.84 124.193 166.801C124.083 166.762 123.952 166.742 123.803 166.742C123.549 166.742 123.318 166.811 123.109 166.947C122.908 167.077 122.732 167.263 122.582 167.504C122.439 167.738 122.325 168.015 122.24 168.334C122.162 168.646 122.123 168.988 122.123 169.359C122.123 169.477 122.13 169.584 122.143 169.682C122.162 169.779 122.185 169.87 122.211 169.955C122.354 170.333 122.66 170.521 123.129 170.521ZM132.484 176.195C131.859 176.195 131.342 176.068 130.932 175.814C130.521 175.561 130.215 175.199 130.014 174.73C129.812 174.255 129.711 173.699 129.711 173.061C129.711 172.82 129.73 172.51 129.77 172.133C129.809 171.755 129.867 171.371 129.945 170.98L131.186 165.082H134.125L132.787 171.459C132.742 171.68 132.702 171.889 132.67 172.084C132.644 172.279 132.631 172.458 132.631 172.621C132.631 173.031 132.719 173.334 132.895 173.529C133.07 173.725 133.334 173.822 133.686 173.822C134.135 173.822 134.535 173.633 134.887 173.256C135.245 172.872 135.557 172.361 135.824 171.723C136.091 171.078 136.306 170.372 136.469 169.604L137.426 165.082H140.365L138.051 176H135.805L136.01 173.979H135.902C135.622 174.408 135.313 174.792 134.975 175.131C134.643 175.463 134.271 175.723 133.861 175.912C133.451 176.101 132.992 176.195 132.484 176.195ZM141.078 176L144.301 160.805H147.24L144.018 176H141.078ZM150.619 176.195C150.092 176.195 149.594 176.065 149.125 175.805C148.656 175.544 148.272 175.124 147.973 174.545C147.68 173.965 147.533 173.197 147.533 172.24C147.533 171.524 147.608 170.814 147.758 170.111C147.914 169.408 148.135 168.744 148.422 168.119C148.715 167.488 149.066 166.931 149.477 166.449C149.893 165.961 150.362 165.577 150.883 165.297C151.41 165.017 151.98 164.877 152.592 164.877C153.054 164.877 153.458 164.945 153.803 165.082C154.148 165.212 154.444 165.398 154.691 165.639C154.939 165.88 155.141 166.16 155.297 166.479H155.375L155.932 165.082H158.197L155.873 176H153.676L153.812 174.584H153.734C153.474 174.903 153.191 175.183 152.885 175.424C152.579 175.665 152.24 175.854 151.869 175.99C151.498 176.127 151.081 176.195 150.619 176.195ZM151.771 173.822C152.175 173.822 152.549 173.666 152.895 173.354C153.24 173.035 153.536 172.621 153.783 172.113C154.031 171.605 154.206 171.068 154.311 170.502C154.363 170.242 154.398 169.981 154.418 169.721C154.444 169.454 154.457 169.167 154.457 168.861C154.457 168.399 154.333 168.018 154.086 167.719C153.845 167.413 153.513 167.26 153.09 167.26C152.803 167.26 152.53 167.354 152.27 167.543C152.016 167.725 151.781 167.979 151.566 168.305C151.352 168.624 151.163 168.992 151 169.408C150.844 169.818 150.723 170.255 150.639 170.717C150.554 171.179 150.512 171.641 150.512 172.104C150.512 172.67 150.622 173.1 150.844 173.393C151.065 173.679 151.374 173.822 151.771 173.822ZM158.91 176L161.225 165.082H163.471L163.266 167.104H163.373C163.666 166.641 163.985 166.244 164.33 165.912C164.675 165.58 165.049 165.326 165.453 165.15C165.857 164.968 166.296 164.877 166.771 164.877C166.928 164.877 167.094 164.887 167.27 164.906C167.452 164.926 167.598 164.952 167.709 164.984L167.064 167.816C166.96 167.777 166.82 167.742 166.645 167.709C166.475 167.676 166.29 167.66 166.088 167.66C165.723 167.66 165.375 167.735 165.043 167.885C164.711 168.028 164.405 168.243 164.125 168.529C163.845 168.816 163.598 169.177 163.383 169.613C163.174 170.043 163.008 170.544 162.885 171.117L161.85 176H158.91Z" fill="black"/>
<defs>
<clipPath id="clip0_18_18468">
<rect width="106" height="128" fill="white" transform="translate(30)"/>
</clipPath>
</defs>
</svg>
